  0
SECTION
  2
HEADER
  9
$ACADVER
  1
AC1009
  9
$INSBASE
 10
0.0
 20
0.0
 30
0.0
  9
$EXTMIN
 10
0.0
 20
0.0
 30
0.0
  9
$EXTMAX
 10
0.0
 20
0.0
 30
0.0
  0
ENDSEC
  0
SECTION
  2
TABLES
  0
TABLE
  2
VPORT
 70
0
  0
ENDTAB
  0
TABLE
  2
LTYPE
 70
1
  0
LTYPE
  2
CONTINUOUS
 70
0
  3
Solid line
 72
65
 73
0
 40
0.0
  0
ENDTAB
  0
TABLE
  2
LAYER
 70
1
  0
LAYER
  2
0
 70
64
 62
7
  6
continuous
  0
ENDTAB
  0
TABLE
  2
STYLE
 70
1
  0
STYLE
  2
STANDARD
 70
0
 40
0
 41
1.0
 50
0.0
 71
0
 42
1
 3
ARIAL.TTF
 4

  0
ENDTAB
  0
TABLE
  2
VIEW
 70
0
  0
ENDTAB
  0
ENDSEC
  0
SECTION
  2
BLOCKS
  0
BLOCK
  8
0
  2
CUT
 70
0
 10
0.0
 20
0.0
 30
0.0
  3
CUT
  0
POLYLINE
  8
0
 62
0
 70
0
 66
1
 10
0.0
 20
0.0
 30
0.0
  0
VERTEX
  8
0
 10
3.87064220183
 20
1.88073394495
 30
0.0
  0
VERTEX
  8
0
 10
3.82108582783
 20
1.88693481501
 30
0.0
  0
VERTEX
  8
0
 10
3.77340058994
 20
1.90172865409
 30
0.0
  0
VERTEX
  8
0
 10
3.72951736056
 20
1.92551096118
 30
0.0
  0
VERTEX
  8
0
 10
3.69154176424
 20
1.95788970615
 30
0.0
  0
VERTEX
  8
0
 10
3.66128606996
 20
1.99757898326
 30
0.0
  0
VERTEX
  8
0
 10
3.63982804191
 20
2.04264746518
 30
0.0
  0
VERTEX
  8
0
 10
3.62736557168
 20
2.09099751662
 30
0.0
  0
VERTEX
  8
0
 10
3.623394498
 20
2.14078447371
 30
0.0
  0
VERTEX
  8
0
 10
3.62339449541
 20
2.14082568807
 30
0.0
  0
SEQEND
  8
0
  0
POLYLINE
  8
0
 62
0
 70
0
 66
1
 10
0.0
 20
0.0
 30
0.0
  0
VERTEX
  8
0
 10
5.0747706422
 20
1.70091743119
 30
0.0
  0
VERTEX
  8
0
 10
5.02643161683
 20
1.71369677468
 30
0.0
  0
VERTEX
  8
0
 10
4.97795178515
 20
1.72593115723
 30
0.0
  0
VERTEX
  8
0
 10
4.92934028061
 20
1.73763145603
 30
0.0
  0
VERTEX
  8
0
 10
4.88060583133
 20
1.74880866298
 30
0.0
  0
VERTEX
  8
0
 10
4.83175676584
 20
1.75947385909
 30
0.0
  0
VERTEX
  8
0
 10
4.78280102014
 20
1.76963819082
 30
0.0
  0
VERTEX
  8
0
 10
4.73374614565
 20
1.77931284854
 30
0.0
  0
VERTEX
  8
0
 10
4.6845993182
 20
1.78850904706
 30
0.0
  0
VERTEX
  8
0
 10
4.63536734766
 20
1.79723800801
 30
0.0
  0
VERTEX
  8
0
 10
4.58605668812
 20
1.80551094417
 30
0.0
  0
VERTEX
  8
0
 10
4.53667344861
 20
1.81333904569
 30
0.0
  0
VERTEX
  8
0
 10
4.48722340407
 20
1.8207334679
 30
0.0
  0
VERTEX
  8
0
 10
4.43771200654
 20
1.82770532089
 30
0.0
  0
VERTEX
  8
0
 10
4.38814439651
 20
1.83426566068
 30
0.0
  0
VERTEX
  8
0
 10
4.33852541427
 20
1.84042548181
 30
0.0
  0
VERTEX
  8
0
 10
4.28885961128
 20
1.84619571139
 30
0.0
  0
VERTEX
  8
0
 10
4.23915126138
 20
1.85158720454
 30
0.0
  0
VERTEX
  8
0
 10
4.18940437189
 20
1.85661074094
 30
0.0
  0
VERTEX
  8
0
 10
4.13962269452
 20
1.8612770228
 30
0.0
  0
VERTEX
  8
0
 10
4.08980973603
 20
1.86559667369
 30
0.0
  0
VERTEX
  8
0
 10
4.03996876864
 20
1.86958023866
 30
0.0
  0
VERTEX
  8
0
 10
3.99010284013
 20
1.8732381852
 30
0.0
  0
VERTEX
  8
0
 10
3.9402147837
 20
1.87658090529
 30
0.0
  0
VERTEX
  8
0
 10
3.89030722739
 20
1.87961871821
 30
0.0
  0
VERTEX
  8
0
 10
3.87064220183
 20
1.88073394495
 30
0.0
  0
SEQEND
  8
0
  0
POLYLINE
  8
0
 62
0
 70
0
 66
1
 10
0.0
 20
0.0
 30
0.0
  0
VERTEX
  8
0
 10
6.58394495413
 20
1.22247706422
 30
0.0
  0
VERTEX
  8
0
 10
6.549380351
 20
1.18644354234
 30
0.0
  0
VERTEX
  8
0
 10
6.50873182252
 20
1.15745917737
 30
0.0
  0
VERTEX
  8
0
 10
6.46327081485
 20
1.13683447897
 30
0.0
  0
VERTEX
  8
0
 10
6.41468018433
 20
1.12537988896
 30
0.0
  0
VERTEX
  8
0
 10
6.37844036697
 20
1.12293577982
 30
0.0
  0
SEQEND
  8
0
  0
POLYLINE
  8
0
 62
0
 70
0
 66
1
 10
0.0
 20
0.0
 30
0.0
  0
VERTEX
  8
0
 10
-1.90596330275
 20
-2.65
 30
0.0
  0
VERTEX
  8
0
 10
-1.95304517003
 20
-2.66683031101
 30
0.0
  0
VERTEX
  8
0
 10
-2.00034908346
 20
-2.68302607739
 30
0.0
  0
VERTEX
  8
0
 10
-2.04786234099
 20
-2.69859704112
 30
0.0
  0
VERTEX
  8
0
 10
-2.0955726319
 20
-2.71355344995
 30
0.0
  0
VERTEX
  8
0
 10
-2.1434680548
 20
-2.72790600893
 30
0.0
  0
VERTEX
  8
0
 10
-2.19153713184
 20
-2.741665833
 30
0.0
  0
VERTEX
  8
0
 10
-2.23976881948
 20
-2.75484440104
 30
0.0
  0
VERTEX
  8
0
 10
-2.28815251583
 20
-2.76745351173
 30
0.0
  0
VERTEX
  8
0
 10
-2.33667806503
 20
-2.77950524139
 30
0.0
  0
VERTEX
  8
0
 10
-2.38533575882
 20
-2.79101190405
 30
0.0
  0
VERTEX
  8
0
 10
-2.43411633558
 20
-2.80198601382
 30
0.0
  0
VERTEX
  8
0
 10
-2.48301097714
 20
-2.81244024976
 30
0.0
  0
VERTEX
  8
0
 10
-2.53201130364
 20
-2.82238742307
 30
0.0
  0
VERTEX
  8
0
 10
-2.58110936657
 20
-2.8318404471
 30
0.0
  0
VERTEX
  8
0
 10
-2.63029764042
 20
-2.84081230956
 30
0.0
  0
VERTEX
  8
0
 10
-2.67956901301
 20
-2.84931604742
 30
0.0
  0
VERTEX
  8
0
 10
-2.72891677478
 20
-2.85736472419
 30
0.0
  0
VERTEX
  8
0
 10
-2.7783346072
 20
-2.86497140953
 30
0.0
  0
VERTEX
  8
0
 10
-2.82781657056
 20
-2.87214916121
 30
0.0
  0
VERTEX
  8
0
 10
-2.87735709119
 20
-2.87891100922
 30
0.0
  0
VERTEX
  8
0
 10
-2.92695094828
 20
-2.88526994201
 30
0.0
  0
VERTEX
  8
0
 10
-2.97659326056
 20
-2.89123889471
 30
0.0
  0
VERTEX
  8
0
 10
-3.02627947272
 20
-2.89683073919
 30
0.0
  0
VERTEX
  8
0
 10
-3.07600534189
 20
-2.90205827595
 30
0.0
  0
VERTEX
  8
0
 10
-3.12576692412
 20
-2.90693422766
 30
0.0
  0
VERTEX
  8
0
 10
-3.17556056099
 20
-2.91147123431
 30
0.0
  0
VERTEX
  8
0
 10
-3.22538286639
 20
-2.9156818497
 30
0.0
  0
VERTEX
  8
0
 10
-3.27523071358
 20
-2.91957853946
 30
0.0
  0
VERTEX
  8
0
 10
-3.32510122244
 20
-2.92317368025
 30
0.0
  0
VERTEX
  8
0
 10
-3.37499174707
 20
-2.92647956012
 30
0.0
  0
VERTEX
  8
0
 10
-3.42489986372
 20
-2.92950838006
 30
0.0
  0
VERTEX
  8
0
 10
-3.47482335902
 20
-2.93227225654
 30
0.0
  0
VERTEX
  8
0
 10
-3.52476021859
 20
-2.93478322499
 30
0.0
  0
VERTEX
  8
0
 10
-3.57470861597
 20
-2.93705324426
 30
0.0
  0
VERTEX
  8
0
 10
-3.62466690193
 20
-2.93909420182
 30
0.0
  0
VERTEX
  8
0
 10
-3.67463359408
 20
-2.94091791986
 30
0.0
  0
VERTEX
  8
0
 10
-3.71376146789
 20
-2.94220183486
 30
0.0
  0
SEQEND
  8
0
  0
POLYLINE
  8
0
 62
0
 70
0
 66
1
 10
0.0
 20
0.0
 30
0.0
  0
VERTEX
  8
0
 10
-0.93623853211
 20
-1.27247706422
 30
0.0
  0
VERTEX
  8
0
 10
-0.937005171229
 20
-1.32246921576
 30
0.0
  0
VERTEX
  8
0
 10
-0.939321585539
 20
-1.37241349003
 30
0.0
  0
VERTEX
  8
0
 10
-0.943210842897
 20
-1.4222598882
 30
0.0
  0
VERTEX
  8
0
 10
-0.948693569019
 20
-1.47195619572
 30
0.0
  0
VERTEX
  8
0
 10
-0.955787690384
 20
-1.52144811825
 30
0.0
  0
VERTEX
  8
0
 10
-0.964508182809
 20
-1.57067944817
 30
0.0
  0
VERTEX
  8
0
 10
-0.974866829353
 20
-1.61959226242
 30
0.0
  0
VERTEX
  8
0
 10
-0.986871992007
 20
-1.66812715125
 30
0.0
  0
VERTEX
  8
0
 10
-1.0005284018
 20
-1.71622347729
 30
0.0
  0
VERTEX
  8
0
 10
-1.01583697194
 20
-1.76381966319
 30
0.0
  0
VERTEX
  8
0
 10
-1.03279463852
 20
-1.81085350554
 30
0.0
  0
VERTEX
  8
0
 10
-1.05139423316
 20
-1.85726251202
 30
0.0
  0
VERTEX
  8
0
 10
-1.07162439152
 20
-1.90298425768
 30
0.0
  0
VERTEX
  8
0
 10
-1.09346950097
 20
-1.94795675598
 30
0.0
  0
VERTEX
  8
0
 10
-1.11690969041
 20
-1.99211883911
 30
0.0
  0
VERTEX
  8
0
 10
-1.1419208638
 20
-2.03541054196
 30
0.0
  0
VERTEX
  8
0
 10
-1.16847477865
 20
-2.07777348362
 30
0.0
  0
VERTEX
  8
0
 10
-1.19653916932
 20
-2.11915124006
 30
0.0
  0
VERTEX
  8
0
 10
-1.22607791418
 20
-2.15948970166
 30
0.0
  0
VERTEX
  8
0
 10
-1.25705124446
 20
-2.19873740956
 30
0.0
  0
VERTEX
  8
0
 10
-1.28941599171
 20
-2.23684586498
 30
0.0
  0
VERTEX
  8
0
 10
-1.32312586983
 20
-2.27376980654
 30
0.0
  0
VERTEX
  8
0
 10
-1.35813178697
 20
-2.30946745103
 30
0.0
  0
VERTEX
  8
0
 10
-1.39438218167
 20
-2.34390069426
 30
0.0
  0
VERTEX
  8
0
 10
-1.43182337738
 20
-2.37703526935
 30
0.0
  0
VERTEX
  8
0
 10
-1.47039994922
 20
-2.40884086111
 30
0.0
  0
VERTEX
  8
0
 10
-1.5100550966
 20
-2.43929117606
 30
0.0
  0
VERTEX
  8
0
 10
-1.55073101562
 20
-2.46836396855
 30
0.0
  0
VERTEX
  8
0
 10
-1.59236926536
 20
-2.49604102485
 30
0.0
  0
VERTEX
  8
0
 10
-1.63491112272
 20
-2.52230810735
 30
0.0
  0
VERTEX
  8
0
 10
-1.67829792104
 20
-2.54715486222
 30
0.0
  0
VERTEX
  8
0
 10
-1.72247136829
 20
-2.57057469414
 30
0.0
  0
VERTEX
  8
0
 10
-1.76737384168
 20
-2.59256461244
 30
0.0
  0
VERTEX
  8
0
 10
-1.81294865602
 20
-2.61312505288
 30
0.0
  0
VERTEX
  8
0
 10
-1.85914030391
 20
-2.63225968004
 30
0.0
  0
VERTEX
  8
0
 10
-1.90589466768
 20
-2.64997517284
 30
0.0
  0
VERTEX
  8
0
 10
-1.90596330275
 20
-2.65
 30
0.0
  0
SEQEND
  8
0
  0
POLYLINE
  8
0
 62
0
 70
0
 66
1
 10
0.0
 20
0.0
 30
0.0
  0
VERTEX
  8
0
 10
1.15733944954
 20
-1.04128440367
 30
0.0
  0
VERTEX
  8
0
 10
1.15891939922
 20
-1.09125120533
 30
0.0
  0
VERTEX
  8
0
 10
1.16359715268
 20
-1.14102397654
 30
0.0
  0
VERTEX
  8
0
 10
1.17133047198
 20
-1.19041425541
 30
0.0
  0
VERTEX
  8
0
 10
1.18213397868
 20
-1.2392245813
 30
0.0
  0
VERTEX
  8
0
 10
1.19606810154
 20
-1.28723427124
 30
0.0
  0
VERTEX
  8
0
 10
1.21322902573
 20
-1.33418620169
 30
0.0
  0
VERTEX
  8
0
 10
1.23373713429
 20
-1.37977403697
 30
0.0
  0
VERTEX
  8
0
 10
1.25772133676
 20
-1.42363064246
 30
0.0
  0
VERTEX
  8
0
 10
1.28529669985
 20
-1.46532012775
 30
0.0
  0
VERTEX
  8
0
 10
1.31653364468
 20
-1.50433814991
 30
0.0
  0
VERTEX
  8
0
 10
1.34678899083
 20
-1.53577981651
 30
0.0
  0
SEQEND
  8
0
  0
POLYLINE
  8
0
 62
0
 70
0
 66
1
 10
0.0
 20
0.0
 30
0.0
  0
VERTEX
  8
0
 10
-0.00504587155963
 20
1.12293577982
 30
0.0
  0
VERTEX
  8
0
 10
-0.00431706914226
 20
1.17292868586
 30
0.0
  0
VERTEX
  8
0
 10
-0.00211295225859
 20
1.22287822966
 30
0.0
  0
VERTEX
  8
0
 10
0.00159171957669
 20
1.27273887238
 30
0.0
  0
VERTEX
  8
0
 10
0.00682021756938
 20
1.32246275334
 30
0.0
  0
VERTEX
  8
0
 10
0.0135935815075
 20
1.3719997735
 30
0.0
  0
VERTEX
  8
0
 10
0.0219303557695
 20
1.42129770868
 30
0.0
  0
VERTEX
  8
0
 10
0.0318463264703
 20
1.47030235414
 30
0.0
  0
VERTEX
  8
0
 10
0.04335426408
 20
1.5189577017
 30
0.0
  0
VERTEX
  8
0
 10
0.0564636761524
 20
1.56720614988
 30
0.0
  0
VERTEX
  8
0
 10
0.0711805750801
 20
1.61498874686
 30
0.0
  0
VERTEX
  8
0
 10
0.0875072662448
 20
1.66224546531
 30
0.0
  0
VERTEX
  8
0
 10
0.10544216156
 20
1.70891550711
 30
0.0
  0
VERTEX
  8
0
 10
0.124979623587
 20
1.75493763529
 30
0.0
  0
VERTEX
  8
0
 10
0.146109845048
 20
1.80025052937
 30
0.0
  0
VERTEX
  8
0
 10
0.168818768043
 20
1.84479315958
 30
0.0
  0
VERTEX
  8
0
 10
0.193088046577
 20
1.8885051745
 30
0.0
  0
VERTEX
  8
0
 10
0.218895055194
 20
1.93132729593
 30
0.0
  0
VERTEX
  8
0
 10
0.246212945471
 20
1.97320171459
 30
0.0
  0
VERTEX
  8
0
 10
0.275010750983
 20
2.01407247941
 30
0.0
  0
VERTEX
  8
0
 10
0.305253540182
 20
2.05388587347
 30
0.0
  0
VERTEX
  8
0
 10
0.336902615344
 20
2.09259076972
 30
0.0
  0
VERTEX
  8
0
 10
0.369915754576
 20
2.13013895978
 30
0.0
  0
VERTEX
  8
0
 10
0.404247492723
 20
2.16648544998
 30
0.0
  0
VERTEX
  8
0
 10
0.439849436042
 20
2.20158871949
 30
0.0
  0
VERTEX
  8
0
 10
0.476670604719
 20
2.2354109365
 30
0.0
  0
VERTEX
  8
0
 10
0.514657796694
 20
2.26791812942
 30
0.0
  0
VERTEX
  8
0
 10
0.553755965943
 20
2.29908031129
 30
0.0
  0
VERTEX
  8
0
 10
0.593908608225
 20
2.32887155692
 30
0.0
  0
VERTEX
  8
0
 10
0.635058147428
 20
2.35727003337
 30
0.0
  0
VERTEX
  8
0
 10
0.67714631606
 20
2.38425798542
 30
0.0
  0
VERTEX
  8
0
 10
0.720114523901
 20
2.40982167885
 30
0.0
  0
VERTEX
  8
0
 10
0.763904209557
 20
2.43395130492
 30
0.0
  0
VERTEX
  8
0
 10
0.808457170456
 20
2.45664085029
 30
0.0
  0
VERTEX
  8
0
 10
0.853715867673
 20
2.47788793694
 30
0.0
  0
VERTEX
  8
0
 10
0.899623702869
 20
2.49769363697
 30
0.0
  0
VERTEX
  8
0
 10
0.946125265837
 20
2.5160622665
 30
0.0
  0
VERTEX
  8
0
 10
0.964678899083
 20
2.52293577982
 30
0.0
  0
SEQEND
  8
0
  0
POLYLINE
  8
0
 62
0
 70
0
 66
1
 10
0.0
 20
0.0
 30
0.0
  0
VERTEX
  8
0
 10
3.7004587156
 20
-2.86513761468
 30
0.0
  0
VERTEX
  8
0
 10
3.66788886633
 20
-2.82732555364
 30
0.0
  0
VERTEX
  8
0
 10
3.64393636239
 20
-2.78353740729
 30
0.0
  0
VERTEX
  8
0
 10
3.6291669853
 20
-2.73585007813
 30
0.0
  0
VERTEX
  8
0
 10
3.62348730209
 20
-2.68624123552
 30
0.0
  0
VERTEX
  8
0
 10
3.62339449541
 20
-2.67889908257
 30
0.0
  0
SEQEND
  8
0
  0
POLYLINE
  8
0
 62
0
 70
0
 66
1
 10
0.0
 20
0.0
 30
0.0
  0
VERTEX
  8
0
 10
5.50825688073
 20
-1.04128440367
 30
0.0
  0
VERTEX
  8
0
 10
5.50665164022
 20
-0.991318660189
 30
0.0
  0
VERTEX
  8
0
 10
5.50191065278
 20
-0.941552019159
 30
0.0
  0
VERTEX
  8
0
 10
5.49409682514
 20
-0.8921744528
 30
0.0
  0
VERTEX
  8
0
 10
5.48321618984
 20
-0.843381195282
 30
0.0
  0
VERTEX
  8
0
 10
5.4692266305
 20
-0.795387459772
 30
0.0
  0
VERTEX
  8
0
 10
5.45204561436
 20
-0.748442617523
 30
0.0
  0
VERTEX
  8
0
 10
5.43155900502
 20
-0.702844800896
 30
0.0
  0
VERTEX
  8
0
 10
5.40763349473
 20
-0.658955858748
 30
0.0
  0
VERTEX
  8
0
 10
5.38013578228
 20
-0.617215018601
 30
0.0
  0
VERTEX
  8
0
 10
5.34896179039
 20
-0.578147088899
 30
0.0
  0
VERTEX
  8
0
 10
5.31880733945
 20
-0.546788990826
 30
0.0
  0
SEQEND
  8
0
  0
POLYLINE
  8
0
 62
0
 70
0
 66
1
 10
0.0
 20
0.0
 30
0.0
  0
VERTEX
  8
0
 10
3.7004587156
 20
2.74128440367
 30
0.0
  0
VERTEX
  8
0
 10
3.73987800038
 20
2.77192750702
 30
0.0
  0
VERTEX
  8
0
 10
3.78425660379
 20
2.79480736238
 30
0.0
  0
VERTEX
  8
0
 10
3.8320517966
 20
2.80925877299
 30
0.0
  0
VERTEX
  8
0
 10
3.881654224
 20
2.81502046805
 30
0.0
  0
VERTEX
  8
0
 10
3.88990825688
 20
2.81513761468
 30
0.0
  0
SEQEND
  8
0
  0
POLYLINE
  8
0
 62
0
 70
0
 66
1
 10
0.0
 20
0.0
 30
0.0
  0
VERTEX
  8
0
 10
3.62339449541
 20
2.55183486239
 30
0.0
  0
VERTEX
  8
0
 10
3.62753571597
 20
2.60160230832
 30
0.0
  0
VERTEX
  8
0
 10
3.64061828403
 20
2.64978052685
 30
0.0
  0
VERTEX
  8
0
 10
3.66288752711
 20
2.69445475916
 30
0.0
  0
VERTEX
  8
0
 10
3.69340014873
 20
2.73397194141
 30
0.0
  0
VERTEX
  8
0
 10
3.7004587156
 20
2.74128440367
 30
0.0
  0
SEQEND
  8
0
  0
POLYLINE
  8
0
 62
0
 70
0
 66
1
 10
0.0
 20
0.0
 30
0.0
  0
VERTEX
  8
0
 10
3.87064220183
 20
1.88073394495
 30
0.0
  0
VERTEX
  8
0
 10
3.82108582783
 20
1.88693481501
 30
0.0
  0
VERTEX
  8
0
 10
3.77340058994
 20
1.90172865409
 30
0.0
  0
VERTEX
  8
0
 10
3.72951736056
 20
1.92551096118
 30
0.0
  0
VERTEX
  8
0
 10
3.69154176424
 20
1.95788970615
 30
0.0
  0
VERTEX
  8
0
 10
3.66128606996
 20
1.99757898326
 30
0.0
  0
VERTEX
  8
0
 10
3.63982804191
 20
2.04264746518
 30
0.0
  0
VERTEX
  8
0
 10
3.62736557168
 20
2.09099751662
 30
0.0
  0
VERTEX
  8
0
 10
3.623394498
 20
2.14078447371
 30
0.0
  0
VERTEX
  8
0
 10
3.62339449541
 20
2.14082568807
 30
0.0
  0
SEQEND
  8
0
  0
POLYLINE
  8
0
 62
0
 70
0
 66
1
 10
0.0
 20
0.0
 30
0.0
  0
VERTEX
  8
0
 10
5.0747706422
 20
1.70091743119
 30
0.0
  0
VERTEX
  8
0
 10
5.02643161683
 20
1.71369677468
 30
0.0
  0
VERTEX
  8
0
 10
4.97795178515
 20
1.72593115723
 30
0.0
  0
VERTEX
  8
0
 10
4.92934028061
 20
1.73763145603
 30
0.0
  0
VERTEX
  8
0
 10
4.88060583133
 20
1.74880866298
 30
0.0
  0
VERTEX
  8
0
 10
4.83175676584
 20
1.75947385909
 30
0.0
  0
VERTEX
  8
0
 10
4.78280102014
 20
1.76963819082
 30
0.0
  0
VERTEX
  8
0
 10
4.73374614565
 20
1.77931284854
 30
0.0
  0
VERTEX
  8
0
 10
4.6845993182
 20
1.78850904706
 30
0.0
  0
VERTEX
  8
0
 10
4.63536734766
 20
1.79723800801
 30
0.0
  0
VERTEX
  8
0
 10
4.58605668812
 20
1.80551094417
 30
0.0
  0
VERTEX
  8
0
 10
4.53667344861
 20
1.81333904569
 30
0.0
  0
VERTEX
  8
0
 10
4.48722340407
 20
1.8207334679
 30
0.0
  0
VERTEX
  8
0
 10
4.43771200654
 20
1.82770532089
 30
0.0
  0
VERTEX
  8
0
 10
4.38814439651
 20
1.83426566068
 30
0.0
  0
VERTEX
  8
0
 10
4.33852541427
 20
1.84042548181
 30
0.0
  0
VERTEX
  8
0
 10
4.28885961128
 20
1.84619571139
 30
0.0
  0
VERTEX
  8
0
 10
4.23915126138
 20
1.85158720454
 30
0.0
  0
VERTEX
  8
0
 10
4.18940437189
 20
1.85661074094
 30
0.0
  0
VERTEX
  8
0
 10
4.13962269452
 20
1.8612770228
 30
0.0
  0
VERTEX
  8
0
 10
4.08980973603
 20
1.86559667369
 30
0.0
  0
VERTEX
  8
0
 10
4.03996876864
 20
1.86958023866
 30
0.0
  0
VERTEX
  8
0
 10
3.99010284013
 20
1.8732381852
 30
0.0
  0
VERTEX
  8
0
 10
3.9402147837
 20
1.87658090529
 30
0.0
  0
VERTEX
  8
0
 10
3.89030722739
 20
1.87961871821
 30
0.0
  0
VERTEX
  8
0
 10
3.87064220183
 20
1.88073394495
 30
0.0
  0
SEQEND
  8
0
  0
POLYLINE
  8
0
 62
0
 70
0
 66
1
 10
0.0
 20
0.0
 30
0.0
  0
VERTEX
  8
0
 10
5.47935779817
 20
1.30596330275
 30
0.0
  0
VERTEX
  8
0
 10
5.46286133326
 20
1.35314999377
 30
0.0
  0
VERTEX
  8
0
 10
5.44264220762
 20
1.39886429204
 30
0.0
  0
VERTEX
  8
0
 10
5.41869883219
 20
1.44274172998
 30
0.0
  0
VERTEX
  8
0
 10
5.39109335907
 20
1.48441156548
 30
0.0
  0
VERTEX
  8
0
 10
5.3599558834
 20
1.52351195954
 30
0.0
  0
VERTEX
  8
0
 10
5.32548375673
 20
1.55970627926
 30
0.0
  0
VERTEX
  8
0
 10
5.28793558151
 20
1.59269859386
 30
0.0
  0
VERTEX
  8
0
 10
5.24762038062
 20
1.62224640165
 30
0.0
  0
VERTEX
  8
0
 10
5.2048832921
 20
1.64816907021
 30
0.0
  0
VERTEX
  8
0
 10
5.16008966415
 20
1.67035126602
 30
0.0
  0
VERTEX
  8
0
 10
5.1136094844
 20
1.68874153571
 30
0.0
  0
VERTEX
  8
0
 10
5.0747706422
 20
1.70091743119
 30
0.0
  0
SEQEND
  8
0
  0
POLYLINE
  8
0
 62
0
 70
0
 66
1
 10
0.0
 20
0.0
 30
0.0
  0
VERTEX
  8
0
 10
5.72660550459
 20
1.12293577982
 30
0.0
  0
VERTEX
  8
0
 10
5.67687970087
 20
1.12744744088
 30
0.0
  0
VERTEX
  8
0
 10
5.62889843422
 20
1.14122861034
 30
0.0
  0
VERTEX
  8
0
 10
5.58457213621
 20
1.16418040783
 30
0.0
  0
VERTEX
  8
0
 10
5.54573670296
 20
1.19553920657
 30
0.0
  0
VERTEX
  8
0
 10
5.51386631589
 20
1.23396164571
 30
0.0
  0
VERTEX
  8
0
 10
5.48987022646
 20
1.27774542797
 30
0.0
  0
VERTEX
  8
0
 10
5.47935779817
 20
1.30596330275
 30
0.0
  0
SEQEND
  8
0
  0
POLYLINE
  8
0
 62
0
 70
0
 66
1
 10
0.0
 20
0.0
 30
0.0
  0
VERTEX
  8
0
 10
6.58394495413
 20
1.22247706422
 30
0.0
  0
VERTEX
  8
0
 10
6.549380351
 20
1.18644354234
 30
0.0
  0
VERTEX
  8
0
 10
6.50873182252
 20
1.15745917737
 30
0.0
  0
VERTEX
  8
0
 10
6.46327081485
 20
1.13683447897
 30
0.0
  0
VERTEX
  8
0
 10
6.41468018433
 20
1.12537988896
 30
0.0
  0
VERTEX
  8
0
 10
6.37844036697
 20
1.12293577982
 30
0.0
  0
SEQEND
  8
0
  0
POLYLINE
  8
0
 62
0
 70
0
 66
1
 10
0.0
 20
0.0
 30
0.0
  0
VERTEX
  8
0
 10
6.63532110092
 20
1.44724770642
 30
0.0
  0
VERTEX
  8
0
 10
6.64080620541
 20
1.39761419935
 30
0.0
  0
VERTEX
  8
0
 10
6.63741545362
 20
1.34779673266
 30
0.0
  0
VERTEX
  8
0
 10
6.62516115519
 20
1.29939108219
 30
0.0
  0
VERTEX
  8
0
 10
6.6045116971
 20
1.25392562383
 30
0.0
  0
VERTEX
  8
0
 10
6.58394495413
 20
1.22247706422
 30
0.0
  0
SEQEND
  8
0
  0
POLYLINE
  8
0
 62
0
 70
0
 66
1
 10
0.0
 20
0.0
 30
0.0
  0
VERTEX
  8
0
 10
5.69770642202
 20
2.52293577982
 30
0.0
  0
VERTEX
  8
0
 10
5.74441165443
 20
2.50509155845
 30
0.0
  0
VERTEX
  8
0
 10
5.79052933954
 20
2.48577970776
 30
0.0
  0
VERTEX
  8
0
 10
5.83600332401
 20
2.46499753106
 30
0.0
  0
VERTEX
  8
0
 10
5.88077649513
 20
2.44274580767
 30
0.0
  0
VERTEX
  8
0
 10
5.9247910689
 20
2.41902898761
 30
0.0
  0
VERTEX
  8
0
 10
5.96798890768
 20
2.39385535956
 30
0.0
  0
VERTEX
  8
0
 10
6.01031186443
 20
2.3672371866
 30
0.0
  0
VERTEX
  8
0
 10
6.05170214945
 20
2.33919080452
 30
0.0
  0
VERTEX
  8
0
 10
6.09210271442
 20
2.30973667832
 30
0.0
  0
VERTEX
  8
0
 10
6.13145764781
 20
2.27889941283
 30
0.0
  0
VERTEX
  8
0
 10
6.1697125748
 20
2.24670771486
 30
0.0
  0
VERTEX
  8
0
 10
6.20681505436
 20
2.21319430492
 30
0.0
  0
VERTEX
  8
0
 10
6.24271496573
 20
2.17839577835
 30
0.0
  0
VERTEX
  8
0
 10
6.27736487664
 20
2.14235241685
 30
0.0
  0
VERTEX
  8
0
 10
6.31072038554
 20
2.10510795267
 30
0.0
  0
VERTEX
  8
0
 10
6.3427404311
 20
2.06670928953
 30
0.0
  0
VERTEX
  8
0
 10
6.37338756247
 20
2.02720618522
 30
0.0
  0
VERTEX
  8
0
 10
6.40262816548
 20
1.98665090203
 30
0.0
  0
VERTEX
  8
0
 10
6.43043264075
 20
1.94509783207
 30
0.0
  0
VERTEX
  8
0
 10
6.45677553114
 20
1.90260310498
 30
0.0
  0
VERTEX
  8
0
 10
6.4816355977
 20
1.85922418593
 30
0.0
  0
VERTEX
  8
0
 10
6.50499584437
 20
1.8150194716
 30
0.0
  0
VERTEX
  8
0
 10
6.52684349307
 20
1.77004789173
 30
0.0
  0
VERTEX
  8
0
 10
6.5471699124
 20
1.72436852309
 30
0.0
  0
VERTEX
  8
0
 10
6.56597050354
 20
1.67804022191
 30
0.0
  0
VERTEX
  8
0
 10
6.5832445484
 20
1.63112128023
 30
0.0
  0
VERTEX
  8
0
 10
6.59899502522
 20
1.58366911
 30
0.0
  0
VERTEX
  8
0
 10
6.61322839716
 20
1.53573995834
 30
0.0
  0
VERTEX
  8
0
 10
6.62595438006
 20
1.4873886559
 30
0.0
  0
VERTEX
  8
0
 10
6.63532110092
 20
1.44724770642
 30
0.0
  0
SEQEND
  8
0
  0
POLYLINE
  8
0
 62
0
 70
0
 66
1
 10
0.0
 20
0.0
 30
0.0
  0
VERTEX
  8
0
 10
3.88990825688
 20
2.81513761468
 30
0.0
  0
VERTEX
  8
0
 10
3.93988059808
 20
2.81347577666
 30
0.0
  0
VERTEX
  8
0
 10
3.98984558379
 20
2.81160591444
 30
0.0
  0
VERTEX
  8
0
 10
4.03980185526
 20
2.80951625225
 30
0.0
  0
VERTEX
  8
0
 10
4.08974789476
 20
2.8071949543
 30
0.0
  0
VERTEX
  8
0
 10
4.13968201549
 20
2.80463011811
 30
0.0
  0
VERTEX
  8
0
 10
4.18960235114
 20
2.80180976862
 30
0.0
  0
VERTEX
  8
0
 10
4.23950684507
 20
2.79872185315
 30
0.0
  0
VERTEX
  8
0
 10
4.28939323926
 20
2.79535423716
 30
0.0
  0
VERTEX
  8
0
 10
4.33925906274
 20
2.79169470095
 30
0.0
  0
VERTEX
  8
0
 10
4.38910161983
 20
2.78773093733
 30
0.0
  0
VERTEX
  8
0
 10
4.43891797796
 20
2.78345055033
 30
0.0
  0
VERTEX
  8
0
 10
4.48870495517
 20
2.77884105509
 30
0.0
  0
VERTEX
  8
0
 10
4.53845910738
 20
2.77388987886
 30
0.0
  0
VERTEX
  8
0
 10
4.58817671532
 20
2.76858436337
 30
0.0
  0
VERTEX
  8
0
 10
4.63785377132
 20
2.7629117686
 30
0.0
  0
VERTEX
  8
0
 10
4.68748596586
 20
2.75685927793
 30
0.0
  0
VERTEX
  8
0
 10
4.73706867403
 20
2.75041400503
 30
0.0
  0
VERTEX
  8
0
 10
4.78659694202
 20
2.74356300233
 30
0.0
  0
VERTEX
  8
0
 10
4.83606547359
 20
2.73629327128
 30
0.0
  0
VERTEX
  8
0
 10
4.88546861672
 20
2.72859177461
 30
0.0
  0
VERTEX
  8
0
 10
4.93480035055
 20
2.72044545053
 30
0.0
  0
VERTEX
  8
0
 10
4.98405427274
 20
2.71184122912
 30
0.0
  0
VERTEX
  8
0
 10
5.03322358727
 20
2.70276605081
 30
0.0
  0
VERTEX
  8
0
 10
5.08230109316
 20
2.69320688728
 30
0.0
  0
VERTEX
  8
0
 10
5.13127917386
 20
2.68315076475
 30
0.0
  0
VERTEX
  8
0
 10
5.18014978794
 20
2.67258478963
 30
0.0
  0
VERTEX
  8
0
 10
5.22890446092
 20
2.66149617672
 30
0.0
  0
VERTEX
  8
0
 10
5.2775342788
 20
2.64987227994
 30
0.0
  0
VERTEX
  8
0
 10
5.32602988321
 20
2.6377006255
 30
0.0
  0
VERTEX
  8
0
 10
5.37438146875
 20
2.6249689477
 30
0.0
  0
VERTEX
  8
0
 10
5.42257878254
 20
2.61166522697
 30
0.0
  0
VERTEX
  8
0
 10
5.47061112636
 20
2.59777773039
 30
0.0
  0
VERTEX
  8
0
 10
5.51846736169
 20
2.58329505423
 30
0.0
  0
VERTEX
  8
0
 10
5.56613591773
 20
2.56820616857
 30
0.0
  0
VERTEX
  8
0
 10
5.61360480291
 20
2.5525004635
 30
0.0
  0
VERTEX
  8
0
 10
5.66086161995
 20
2.53616779697
 30
0.0
  0
VERTEX
  8
0
 10
5.69770642202
 20
2.52293577982
 30
0.0
  0
SEQEND
  8
0
  0
POLYLINE
  8
0
 62
0
 70
0
 66
1
 10
0.0
 20
0.0
 30
0.0
  0
VERTEX
  8
0
 10
-4.83119266055
 20
-2.93899082569
 30
0.0
  0
VERTEX
  8
0
 10
-4.88117276442
 20
-2.93758181807
 30
0.0
  0
VERTEX
  8
0
 10
-4.93114609957
 20
-2.93595042828
 30
0.0
  0
VERTEX
  8
0
 10
-4.98111124635
 20
-2.9340851366
 30
0.0
  0
VERTEX
  8
0
 10
-5.03106662003
 20
-2.93197436219
 30
0.0
  0
VERTEX
  8
0
 10
-5.08101046111
 20
-2.92960645973
 30
0.0
  0
VERTEX
  8
0
 10
-5.13094082541
 20
-2.92696971663
 30
0.0
  0
VERTEX
  8
0
 10
-5.18085557387
 20
-2.92405235125
 30
0.0
  0
VERTEX
  8
0
 10
-5.23075236213
 20
-2.92084251183
 30
0.0
  0
VERTEX
  8
0
 10
-5.28062862985
 20
-2.91732827655
 30
0.0
  0
VERTEX
  8
0
 10
-5.33048158986
 20
-2.91349765444
 30
0.0
  0
VERTEX
  8
0
 10
-5.38030821701
 20
-2.90933858755
 30
0.0
  0
VERTEX
  8
0
 10
-5.43010523703
 20
-2.9048389541
 30
0.0
  0
VERTEX
  8
0
 10
-5.47986911514
 20
-2.89998657301
 30
0.0
  0
VERTEX
  8
0
 10
-5.52959604462
 20
-2.89476920966
 30
0.0
  0
VERTEX
  8
0
 10
-5.57928193545
 20
-2.88917458309
 30
0.0
  0
VERTEX
  8
0
 10
-5.62892240289
 20
-2.88319037465
 30
0.0
  0
VERTEX
  8
0
 10
-5.6785127563
 20
-2.87680423822
 30
0.0
  0
VERTEX
  8
0
 10
-5.72804798814
 20
-2.87000381203
 30
0.0
  0
VERTEX
  8
0
 10
-5.77752276324
 20
-2.86277673223
 30
0.0
  0
VERTEX
  8
0
 10
-5.82693140867
 20
-2.85511064821
 30
0.0
  0
VERTEX
  8
0
 10
-5.87626790397
 20
-2.84699323977
 30
0.0
  0
VERTEX
  8
0
 10
-5.92552587221
 20
-2.83841223628
 30
0.0
  0
VERTEX
  8
0
 10
-5.97469857187
 20
-2.82935543765
 30
0.0
  0
VERTEX
  8
0
 10
-6.02377888969
 20
-2.81981073734
 30
0.0
  0
VERTEX
  8
0
 10
-6.07275933471
 20
-2.80976614746
 30
0.0
  0
VERTEX
  8
0
 10
-6.12163203366
 20
-2.79920982571
 30
0.0
  0
VERTEX
  8
0
 10
-6.17038872793
 20
-2.78813010442
 30
0.0
  0
VERTEX
  8
0
 10
-6.21902077216
 20
-2.77651552145
 30
0.0
  0
VERTEX
  8
0
 10
-6.26751913491
 20
-2.76435485292
 30
0.0
  0
VERTEX
  8
0
 10
-6.31587440135
 20
-2.75163714775
 30
0.0
  0
VERTEX
  8
0
 10
-6.36407677829
 20
-2.73835176374
 30
0.0
  0
VERTEX
  8
0
 10
-6.4121161018
 20
-2.72448840507
 30
0.0
  0
VERTEX
  8
0
 10
-6.45998184742
 20
-2.71003716112
 30
0.0
  0
VERTEX
  8
0
 10
-6.50766314332
 20
-2.69498854607
 30
0.0
  0
VERTEX
  8
0
 10
-6.55514878641
 20
-2.67933353929
 30
0.0
  0
VERTEX
  8
0
 10
-6.6024272616
 20
-2.66306362616
 30
0.0
  0
VERTEX
  8
0
 10
-6.63899082569
 20
-2.65
 30
0.0
  0
SEQEND
  8
0
  0
POLYLINE
  8
0
 62
0
 70
0
 66
1
 10
0.0
 20
0.0
 30
0.0
  0
VERTEX
  8
0
 10
-4.64174311927
 20
-2.86834862385
 30
0.0
  0
VERTEX
  8
0
 10
-4.68118370735
 20
-2.89896140342
 30
0.0
  0
VERTEX
  8
0
 10
-4.72569177124
 20
-2.92157399942
 30
0.0
  0
VERTEX
  8
0
 10
-4.77372158631
 20
-2.93518334736
 30
0.0
  0
VERTEX
  8
0
 10
-4.82347887916
 20
-2.9392271135
 30
0.0
  0
VERTEX
  8
0
 10
-4.83119266055
 20
-2.93899082569
 30
0.0
  0
SEQEND
  8
0
  0
POLYLINE
  8
0
 62
0
 70
0
 66
1
 10
0.0
 20
0.0
 30
0.0
  0
VERTEX
  8
0
 10
-4.56146788991
 20
-2.67889908257
 30
0.0
  0
VERTEX
  8
0
 10
-4.5660374598
 20
-2.72861716706
 30
0.0
  0
VERTEX
  8
0
 10
-4.58003998297
 20
-2.77653225501
 30
0.0
  0
VERTEX
  8
0
 10
-4.60308598535
 20
-2.82081784189
 30
0.0
  0
VERTEX
  8
0
 10
-4.63384411547
 20
-2.86015754552
 30
0.0
  0
VERTEX
  8
0
 10
-4.64174311927
 20
-2.86834862385
 30
0.0
  0
SEQEND
  8
0
  0
POLYLINE
  8
0
 62
0
 70
0
 66
1
 10
0.0
 20
0.0
 30
0.0
  0
VERTEX
  8
0
 10
-4.80871559633
 20
-2.00779816514
 30
0.0
  0
VERTEX
  8
0
 10
-4.75918609634
 20
-2.01418304075
 30
0.0
  0
VERTEX
  8
0
 10
-4.71160418318
 20
-2.0293028129
 30
0.0
  0
VERTEX
  8
0
 10
-4.66786722515
 20
-2.05335727216
 30
0.0
  0
VERTEX
  8
0
 10
-4.62997602656
 20
-2.0858405171
 30
0.0
  0
VERTEX
  8
0
 10
-4.59966358837
 20
-2.12549036409
 30
0.0
  0
VERTEX
  8
0
 10
-4.5780405227
 20
-2.17048070256
 30
0.0
  0
VERTEX
  8
0
 10
-4.56543252614
 20
-2.21879136984
 30
0.0
  0
VERTEX
  8
0
 10
-4.56146788991
 20
-2.26788990826
 30
0.0
  0
SEQEND
  8
0
  0
POLYLINE
  8
0
 62
0
 70
0
 66
1
 10
0.0
 20
0.0
 30
0.0
  0
VERTEX
  8
0
 10
-6.0128440367
 20
-1.83119266055
 30
0.0
  0
VERTEX
  8
0
 10
-5.96450211772
 20
-1.84396096738
 30
0.0
  0
VERTEX
  8
0
 10
-5.91601399727
 20
-1.85616237115
 30
0.0
  0
VERTEX
  8
0
 10
-5.86738942634
 20
-1.86780816278
 30
0.0
  0
VERTEX
  8
0
 10
-5.81863777752
 20
-1.87891002607
 30
0.0
  0
VERTEX
  8
0
 10
-5.76976803647
 20
-1.88947999751
 30
0.0
  0
VERTEX
  8
0
 10
-5.72078879617
 20
-1.89953042734
 30
0.0
  0
VERTEX
  8
0
 10
-5.67170825361
 20
-1.9090739422
 30
0.0
  0
VERTEX
  8
0
 10
-5.62253420905
 20
-1.91812340971
 30
0.0
  0
VERTEX
  8
0
 10
-5.57327406725
 20
-1.92669190482
 30
0.0
  0
VERTEX
  8
0
 10
-5.52393484068
 20
-1.93479267826
 30
0.0
  0
VERTEX
  8
0
 10
-5.47452315457
 20
-1.9424391272
 30
0.0
  0
VERTEX
  8
0
 10
-5.42504525332
 20
-1.94964476784
 30
0.0
  0
VERTEX
  8
0
 10
-5.37550700836
 20
-1.95642321047
 30
0.0
  0
VERTEX
  8
0
 10
-5.3259139271
 20
-1.96278813645
 30
0.0
  0
VERTEX
  8
0
 10
-5.27627116286
 20
-1.96875327749
 30
0.0
  0
VERTEX
  8
0
 10
-5.2265835256
 20
-1.97433239696
 30
0.0
  0
VERTEX
  8
0
 10
-5.17685549334
 20
-1.9795392733
 30
0.0
  0
VERTEX
  8
0
 10
-5.12709122401
 20
-1.98438768538
 30
0.0
  0
VERTEX
  8
0
 10
-5.07729456781
 20
-1.98889139976
 30
0.0
  0
VERTEX
  8
0
 10
-5.02746907977
 20
-1.9930641598
 30
0.0
  0
VERTEX
  8
0
 10
-4.9776180325
 20
-1.99691967649
 30
0.0
  0
VERTEX
  8
0
 10
-4.92774442911
 20
-2.00047162091
 30
0.0
  0
VERTEX
  8
0
 10
-4.87785101609
 20
-2.00373361827
 30
0.0
  0
VERTEX
  8
0
 10
-4.82794029616
 20
-2.00671924336
 30
0.0
  0
VERTEX
  8
0
 10
-4.80871559633
 20
-2.00779816514
 30
0.0
  0
SEQEND
  8
0
  0
POLYLINE
  8
0
 62
0
 70
0
 66
1
 10
0.0
 20
0.0
 30
0.0
  0
VERTEX
  8
0
 10
-6.42064220183
 20
-1.45229357798
 30
0.0
  0
VERTEX
  8
0
 10
-6.40270233742
 20
-1.49894972364
 30
0.0
  0
VERTEX
  8
0
 10
-6.38099161403
 20
-1.5439741025
 30
0.0
  0
VERTEX
  8
0
 10
-6.35555946198
 20
-1.58700530096
 30
0.0
  0
VERTEX
  8
0
 10
-6.32651424967
 20
-1.62768451948
 30
0.0
  0
VERTEX
  8
0
 10
-6.29402420685
 20
-1.66566852877
 30
0.0
  0
VERTEX
  8
0
 10
-6.2583146931
 20
-1.70064288081
 30
0.0
  0
VERTEX
  8
0
 10
-6.21966174993
 20
-1.73233411916
 30
0.0
  0
VERTEX
  8
0
 10
-6.17838237644
 20
-1.76051976124
 30
0.0
  0
VERTEX
  8
0
 10
-6.13482242465
 20
-1.78503507871
 30
0.0
  0
VERTEX
  8
0
 10
-6.08934331467
 20
-1.80577613291
 30
0.0
  0
VERTEX
  8
0
 10
-6.0423088554
 20
-1.82269903448
 30
0.0
  0
VERTEX
  8
0
 10
-6.0128440367
 20
-1.83119266055
 30
0.0
  0
SEQEND
  8
0
  0
POLYLINE
  8
0
 62
0
 70
0
 66
1
 10
0.0
 20
0.0
 30
0.0
  0
VERTEX
  8
0
 10
-6.66788990826
 20
-1.27247706422
 30
0.0
  0
VERTEX
  8
0
 10
-6.61812293937
 20
-1.27662803355
 30
0.0
  0
VERTEX
  8
0
 10
-6.56992322487
 20
-1.28963734154
 30
0.0
  0
VERTEX
  8
0
 10
-6.52524614506
 20
-1.31188978297
 30
0.0
  0
VERTEX
  8
0
 10
-6.48615866608
 20
-1.3429209196
 30
0.0
  0
VERTEX
  8
0
 10
-6.4543240154
 20
-1.38136428705
 30
0.0
  0
VERTEX
  8
0
 10
-6.43059603596
 20
-1.42529205411
 30
0.0
  0
VERTEX
  8
0
 10
-6.42064220183
 20
-1.45229357798
 30
0.0
  0
SEQEND
  8
0
  0
POLYLINE
  8
0
 62
0
 70
0
 66
1
 10
0.0
 20
0.0
 30
0.0
  0
VERTEX
  8
0
 10
-7.52201834862
 20
-1.36880733945
 30
0.0
  0
VERTEX
  8
0
 10
-7.48673101327
 20
-1.33347163802
 30
0.0
  0
VERTEX
  8
0
 10
-7.44568725579
 20
-1.30504492224
 30
0.0
  0
VERTEX
  8
0
 10
-7.39996351349
 20
-1.28501297817
 30
0.0
  0
VERTEX
  8
0
 10
-7.35120082616
 20
-1.27432641915
 30
0.0
  0
VERTEX
  8
0
 10
-7.31972477064
 20
-1.27247706422
 30
0.0
  0
SEQEND
  8
0
  0
POLYLINE
  8
0
 62
0
 70
0
 66
1
 10
0.0
 20
0.0
 30
0.0
  0
VERTEX
  8
0
 10
-7.57339449541
 20
-1.5871559633
 30
0.0
  0
VERTEX
  8
0
 10
-7.58046690591
 20
-1.53773486571
 30
0.0
  0
VERTEX
  8
0
 10
-7.57763294586
 20
-1.48790407625
 30
0.0
  0
VERTEX
  8
0
 10
-7.56449424778
 20
-1.43975735437
 30
0.0
  0
VERTEX
  8
0
 10
-7.54169879984
 20
-1.39535259375
 30
0.0
  0
VERTEX
  8
0
 10
-7.52201834862
 20
-1.36880733945
 30
0.0
  0
SEQEND
  8
0
  0
POLYLINE
  8
0
 62
0
 70
0
 66
1
 10
0.0
 20
0.0
 30
0.0
  0
VERTEX
  8
0
 10
-6.63899082569
 20
-2.65
 30
0.0
  0
VERTEX
  8
0
 10
-6.68569619133
 20
-2.63215611935
 30
0.0
  0
VERTEX
  8
0
 10
-6.7318148595
 20
-2.61284659438
 30
0.0
  0
VERTEX
  8
0
 10
-6.7772916511
 20
-2.59207052766
 30
0.0
  0
VERTEX
  8
0
 10
-6.82207052999
 20
-2.5698302502
 30
0.0
  0
VERTEX
  8
0
 10
-6.86609484609
 20
-2.54613146997
 30
0.0
  0
VERTEX
  8
0
 10
-6.90930759947
 20
-2.52098339902
 30
0.0
  0
VERTEX
  8
0
 10
-6.95165172351
 20
-2.49439885579
 30
0.0
  0
VERTEX
  8
0
 10
-6.99307038432
 20
-2.4663943396
 30
0.0
  0
VERTEX
  8
0
 10
-7.03350729314
 20
-2.4369900746
 30
0.0
  0
VERTEX
  8
0
 10
-7.0729070281
 20
-2.40621002077
 30
0.0
  0
VERTEX
  8
0
 10
-7.11121536111
 20
-2.3740818502
 30
0.0
  0
VERTEX
  8
0
 10
-7.14837958553
 20
-2.34063688751
 30
0.0
  0
VERTEX
  8
0
 10
-7.18434883972
 20
-2.3059100138
 30
0.0
  0
VERTEX
  8
0
 10
-7.21907442173
 20
-2.26993953437
 30
0.0
  0
VERTEX
  8
0
 10
-7.25251009035
 20
-2.23276701113
 30
0.0
  0
VERTEX
  8
0
 10
-7.28461234765
 20
-2.19443706147
 30
0.0
  0
VERTEX
  8
0
 10
-7.31534069866
 20
-2.15499712586
 30
0.0
  0
VERTEX
  8
0
 10
-7.34465788418
 20
-2.1144972075
 30
0.0
  0
VERTEX
  8
0
 10
-7.37253008307
 20
-2.07298958746
 30
0.0
  0
VERTEX
  8
0
 10
-7.39892708113
 20
-2.03052851971
 30
0.0
  0
VERTEX
  8
0
 10
-7.42382240437
 20
-1.9871699106
 30
0.0
  0
VERTEX
  8
0
 10
-7.44719341509
 20
-1.94297098759
 30
0.0
  0
VERTEX
  8
0
 10
-7.46902137011
 20
-1.89798996227
 30
0.0
  0
VERTEX
  8
0
 10
-7.4892914412
 20
-1.85228569271
 30
0.0
  0
VERTEX
  8
0
 10
-7.50799269853
 20
-1.80591734989
 30
0.0
  0
VERTEX
  8
0
 10
-7.52511805866
 20
-1.75894409288
 30
0.0
  0
VERTEX
  8
0
 10
-7.54066419923
 20
-1.71142475691
 30
0.0
  0
VERTEX
  8
0
 10
-7.55463144315
 20
-1.66341755818
 30
0.0
  0
VERTEX
  8
0
 10
-7.56702361537
 20
-1.61497981849
 30
0.0
  0
VERTEX
  8
0
 10
-7.57339449541
 20
-1.5871559633
 30
0.0
  0
SEQEND
  8
0
  0
POLYLINE
  8
0
 62
0
 70
0
 66
1
 10
0.0
 20
0.0
 30
0.0
  0
VERTEX
  8
0
 10
-4.27247706422
 20
-0.993119266055
 30
0.0
  0
VERTEX
  8
0
 10
-4.32247706257
 20
-0.993108529697
 30
0.0
  0
VERTEX
  8
0
 10
-4.37247704218
 20
-0.993064978607
 30
0.0
  0
VERTEX
  8
0
 10
-4.42247695306
 20
-0.992972046561
 30
0.0
  0
VERTEX
  8
0
 10
-4.47247669782
 20
-0.992813691218
 30
0.0
  0
VERTEX
  8
0
 10
-4.52247611824
 20
-0.992574313597
 30
0.0
  0
VERTEX
  8
0
 10
-4.57247498277
 20
-0.992238683619
 30
0.0
  0
VERTEX
  8
0
 10
-4.62247297463
 20
-0.991791874042
 30
0.0
  0
VERTEX
  8
0
 10
-4.67246968017
 20
-0.991219198559
 30
0.0
  0
VERTEX
  8
0
 10
-4.72246457745
 20
-0.990506155727
 30
0.0
  0
VERTEX
  8
0
 10
-4.77245702463
 20
-0.989638376662
 30
0.0
  0
VERTEX
  8
0
 10
-4.82244624804
 20
-0.988601575897
 30
0.0
  0
VERTEX
  8
0
 10
-4.87243132988
 20
-0.987381506246
 30
0.0
  0
VERTEX
  8
0
 10
-4.92241119524
 20
-0.98596391462
 30
0.0
  0
VERTEX
  8
0
 10
-4.9723845983
 20
-0.98433450202
 30
0.0
  0
VERTEX
  8
0
 10
-5.02235010771
 20
-0.982478883091
 30
0.0
  0
VERTEX
  8
0
 10
-5.07230609084
 20
-0.980382549536
 30
0.0
  0
VERTEX
  8
0
 10
-5.12225069676
 20
-0.97803083267
 30
0.0
  0
VERTEX
  8
0
 10
-5.17218183793
 20
-0.975408868932
 30
0.0
  0
VERTEX
  8
0
 10
-5.22209717031
 20
-0.972501564957
 30
0.0
  0
VERTEX
  8
0
 10
-5.27199407171
 20
-0.969293564291
 30
0.0
  0
VERTEX
  8
0
 10
-5.32186961835
 20
-0.965769214666
 30
0.0
  0
VERTEX
  8
0
 10
-5.37172055925
 20
-0.961912535359
 30
0.0
  0
VERTEX
  8
0
 10
-5.42154328849
 20
-0.957707186685
 30
0.0
  0
VERTEX
  8
0
 10
-5.47133381475
 20
-0.953136437701
 30
0.0
  0
VERTEX
  8
0
 10
-5.52108772855
 20
-0.94818313812
 30
0.0
  0
VERTEX
  8
0
 10
-5.57080016611
 20
-0.942829686663
 30
0.0
  0
VERTEX
  8
0
 10
-5.62046577057
 20
-0.937058005552
 30
0.0
  0
VERTEX
  8
0
 10
-5.67007864929
 20
-0.930849510703
 30
0.0
  0
VERTEX
  8
0
 10
-5.71963232811
 20
-0.924185088842
 30
0.0
  0
VERTEX
  8
0
 10
-5.76911970119
 20
-0.917045071779
 30
0.0
  0
VERTEX
  8
0
 10
-5.81853297726
 20
-0.909409216284
 30
0.0
  0
VERTEX
  8
0
 10
-5.86786362129
 20
-0.901256685594
 30
0.0
  0
VERTEX
  8
0
 10
-5.91710229158
 20
-0.89256603291
 30
0.0
  0
VERTEX
  8
0
 10
-5.96623877292
 20
-0.883315193709
 30
0.0
  0
VERTEX
  8
0
 10
-6.01526190373
 20
-0.873481475426
 30
0.0
  0
VERTEX
  8
0
 10
-6.06415950043
 20
-0.863041563917
 30
0.0
  0
VERTEX
  8
0
 10
-6.11291827481
 20
-0.851971524619
 30
0.0
  0
VERTEX
  8
0
 10
-6.16152374973
 20
-0.840246825862
 30
0.0
  0
VERTEX
  8
0
 10
-6.20996016824
 20
-0.827842359835
 30
0.0
  0
VERTEX
  8
0
 10
-6.25821040154
 20
-0.814732485606
 30
0.0
  0
VERTEX
  8
0
 10
-6.30625585324
 20
-0.800891079802
 30
0.0
  0
VERTEX
  8
0
 10
-6.35407636242
 20
-0.786291604388
 30
0.0
  0
VERTEX
  8
0
 10
-6.40165010878
 20
-0.77090719755
 30
0.0
  0
VERTEX
  8
0
 10
-6.44895351615
 20
-0.754710772403
 30
0.0
  0
VERTEX
  8
0
 10
-6.49596116762
 20
-0.737675158566
 30
0.0
  0
VERTEX
  8
0
 10
-6.54264571939
 20
-0.719773241517
 30
0.0
  0
VERTEX
  8
0
 10
-6.58897783737
 20
-0.700978159807
 30
0.0
  0
VERTEX
  8
0
 10
-6.63492613808
 20
-0.681263499316
 30
0.0
  0
VERTEX
  8
0
 10
-6.68045716113
 20
-0.660603544522
 30
0.0
  0
VERTEX
  8
0
 10
-6.72553535971
 20
-0.638973539125
 30
0.0
  0
VERTEX
  8
0
 10
-6.77012312827
 20
-0.616349987486
 30
0.0
  0
VERTEX
  8
0
 10
-6.81418086748
 20
-0.592710980106
 30
0.0
  0
VERTEX
  8
0
 10
-6.85766709159
 20
-0.56803653849
 30
0.0
  0
VERTEX
  8
0
 10
-6.90053859114
 20
-0.542308987252
 30
0.0
  0
VERTEX
  8
0
 10
-6.94275064496
 20
-0.515513325681
 30
0.0
  0
VERTEX
  8
0
 10
-6.98425729777
 20
-0.487637611837
 30
0.0
  0
VERTEX
  8
0
 10
-7.02501169398
 20
-0.458673328491
 30
0.0
  0
VERTEX
  8
0
 10
-7.06496647524
 20
-0.428615731355
 30
0.0
  0
VERTEX
  8
0
 10
-7.10407423348
 20
-0.397464157879
 30
0.0
  0
VERTEX
  8
0
 10
-7.14228801597
 20
-0.365222286779
 30
0.0
  0
VERTEX
  8
0
 10
-7.17956186375
 20
-0.331898323989
 30
0.0
  0
VERTEX
  8
0
 10
-7.21376146789
 20
-0.299541284404
 30
0.0
  0
SEQEND
  8
0
  0
POLYLINE
  8
0
 62
0
 70
0
 66
1
 10
0.0
 20
0.0
 30
0.0
  0
VERTEX
  8
0
 10
-2.90458715596
 20
-1.0380733945
 30
0.0
  0
VERTEX
  8
0
 10
-2.95425730814
 20
-1.04380582869
 30
0.0
  0
VERTEX
  8
0
 10
-3.00397517538
 20
-1.04910843913
 30
0.0
  0
VERTEX
  8
0
 10
-3.0537381646
 20
-1.05396930648
 30
0.0
  0
VERTEX
  8
0
 10
-3.10354340965
 20
-1.05837609254
 30
0.0
  0
VERTEX
  8
0
 10
-3.1533877487
 20
-1.06231602576
 30
0.0
  0
VERTEX
  8
0
 10
-3.2032676998
 20
-1.06577588604
 30
0.0
  0
VERTEX
  8
0
 10
-3.25317943447
 20
-1.06874199
 30
0.0
  0
VERTEX
  8
0
 10
-3.30311874911
 20
-1.07120017711
 30
0.0
  0
VERTEX
  8
0
 10
-3.35308103413
 20
-1.07313579787
 30
0.0
  0
VERTEX
  8
0
 10
-3.40306124074
 20
-1.07453370129
 30
0.0
  0
VERTEX
  8
0
 10
-3.45305384531
 20
-1.07537822385
 30
0.0
  0
VERTEX
  8
0
 10
-3.50305281104
 20
-1.07565318068
 30
0.0
  0
VERTEX
  8
0
 10
-3.553051547
 20
-1.07534186239
 30
0.0
  0
VERTEX
  8
0
 10
-3.60304286446
 20
-1.07442702634
 30
0.0
  0
VERTEX
  8
0
 10
-3.65301893038
 20
-1.07289089739
 30
0.0
  0
VERTEX
  8
0
 10
-3.70297121824
 20
-1.07071517241
 30
0.0
  0
VERTEX
  8
0
 10
-3.75289045605
 20
-1.06788102526
 30
0.0
  0
VERTEX
  8
0
 10
-3.80276657162
 20
-1.06436911685
 30
0.0
  0
VERTEX
  8
0
 10
-3.85258863569
 20
-1.06015961556
 30
0.0
  0
VERTEX
  8
0
 10
-3.90234480271
 20
-1.05523222053
 30
0.0
  0
VERTEX
  8
0
 10
-3.95202224977
 20
-1.04956619216
 30
0.0
  0
VERTEX
  8
0
 10
-4.00160711438
 20
-1.04314039238
 30
0.0
  0
VERTEX
  8
0
 10
-4.05108443184
 20
-1.03593333599
 30
0.0
  0
VERTEX
  8
0
 10
-4.10043807244
 20
-1.02792324934
 30
0.0
  0
VERTEX
  8
0
 10
-4.14965068003
 20
-1.01908814182
 30
0.0
  0
VERTEX
  8
0
 10
-4.19870361332
 20
-1.00940589191
 30
0.0
  0
VERTEX
  8
0
 10
-4.24757689129
 20
-0.998854346877
 30
0.0
  0
VERTEX
  8
0
 10
-4.27247706422
 20
-0.993119266055
 30
0.0
  0
SEQEND
  8
0
  0
POLYLINE
  8
0
 62
0
 70
0
 66
1
 10
0.0
 20
0.0
 30
0.0
  0
VERTEX
  8
0
 10
-2.67660550459
 20
-0.78119266055
 30
0.0
  0
VERTEX
  8
0
 10
-2.68069644361
 20
-0.83096643275
 30
0.0
  0
VERTEX
  8
0
 10
-2.69350602881
 20
-0.879222163808
 30
0.0
  0
VERTEX
  8
0
 10
-2.71545231146
 20
-0.924052289477
 30
0.0
  0
VERTEX
  8
0
 10
-2.74620057805
 20
-0.963360883859
 30
0.0
  0
VERTEX
  8
0
 10
-2.78454221547
 20
-0.995308846367
 30
0.0
  0
VERTEX
  8
0
 10
-2.82860852662
 20
-1.01875869931
 30
0.0
  0
VERTEX
  8
0
 10
-2.8763306052
 20
-1.03344852629
 30
0.0
  0
VERTEX
  8
0
 10
-2.90458715596
 20
-1.0380733945
 30
0.0
  0
SEQEND
  8
0
  0
POLYLINE
  8
0
 62
0
 70
0
 66
1
 10
0.0
 20
0.0
 30
0.0
  0
VERTEX
  8
0
 10
-2.77614678899
 20
-0.110091743119
 30
0.0
  0
VERTEX
  8
0
 10
-2.74011326711
 20
-0.144656346243
 30
0.0
  0
VERTEX
  8
0
 10
-2.71112890214
 20
-0.185304874723
 30
0.0
  0
VERTEX
  8
0
 10
-2.69050420374
 20
-0.230765882398
 30
0.0
  0
VERTEX
  8
0
 10
-2.67904961373
 20
-0.27935651292
 30
0.0
  0
VERTEX
  8
0
 10
-2.67660550459
 20
-0.315596330275
 30
0.0
  0
SEQEND
  8
0
  0
POLYLINE
  8
0
 62
0
 70
0
 66
1
 10
0.0
 20
0.0
 30
0.0
  0
VERTEX
  8
0
 10
-3.00412844037
 20
-0.0619266055046
 30
0.0
  0
VERTEX
  8
0
 10
-2.95474486599
 20
-0.054523620231
 30
0.0
  0
VERTEX
  8
0
 10
-2.90484790902
 20
-0.0562229693272
 30
0.0
  0
VERTEX
  8
0
 10
-2.85618808964
 20
-0.0673805577093
 30
0.0
  0
VERTEX
  8
0
 10
-2.81051447885
 20
-0.0875465655218
 30
0.0
  0
VERTEX
  8
0
 10
-2.77614678899
 20
-0.110091743119
 30
0.0
  0
SEQEND
  8
0
  0
POLYLINE
  8
0
 62
0
 70
0
 66
1
 10
0.0
 20
0.0
 30
0.0
  0
VERTEX
  8
0
 10
-4.27247706422
 20
-0.0619266055046
 30
0.0
  0
VERTEX
  8
0
 10
-4.22247706422
 20
-0.0619266055046
 30
0.0
  0
VERTEX
  8
0
 10
-4.17247706422
 20
-0.0619266055046
 30
0.0
  0
VERTEX
  8
0
 10
-4.12247706422
 20
-0.0619266055046
 30
0.0
  0
VERTEX
  8
0
 10
-4.07247706422
 20
-0.0619266055046
 30
0.0
  0
VERTEX
  8
0
 10
-4.02247706422
 20
-0.0619266055046
 30
0.0
  0
VERTEX
  8
0
 10
-3.97247706422
 20
-0.0619266055046
 30
0.0
  0
VERTEX
  8
0
 10
-3.92247706422
 20
-0.0619266055046
 30
0.0
  0
VERTEX
  8
0
 10
-3.87247706422
 20
-0.0619266055046
 30
0.0
  0
VERTEX
  8
0
 10
-3.82247706422
 20
-0.0619266055046
 30
0.0
  0
VERTEX
  8
0
 10
-3.77247706422
 20
-0.0619266055046
 30
0.0
  0
VERTEX
  8
0
 10
-3.72247706422
 20
-0.0619266055046
 30
0.0
  0
VERTEX
  8
0
 10
-3.67247706422
 20
-0.0619266055046
 30
0.0
  0
VERTEX
  8
0
 10
-3.62247706422
 20
-0.0619266055046
 30
0.0
  0
VERTEX
  8
0
 10
-3.57247706422
 20
-0.0619266055046
 30
0.0
  0
VERTEX
  8
0
 10
-3.52247706422
 20
-0.0619266055046
 30
0.0
  0
VERTEX
  8
0
 10
-3.47247706422
 20
-0.0619266055046
 30
0.0
  0
VERTEX
  8
0
 10
-3.42247706422
 20
-0.0619266055046
 30
0.0
  0
VERTEX
  8
0
 10
-3.37247706422
 20
-0.0619266055046
 30
0.0
  0
VERTEX
  8
0
 10
-3.32247706422
 20
-0.0619266055046
 30
0.0
  0
VERTEX
  8
0
 10
-3.27247706422
 20
-0.0619266055046
 30
0.0
  0
VERTEX
  8
0
 10
-3.22247706422
 20
-0.0619266055046
 30
0.0
  0
VERTEX
  8
0
 10
-3.17247706422
 20
-0.0619266055046
 30
0.0
  0
VERTEX
  8
0
 10
-3.12247706422
 20
-0.0619266055046
 30
0.0
  0
VERTEX
  8
0
 10
-3.07247706422
 20
-0.0619266055046
 30
0.0
  0
VERTEX
  8
0
 10
-3.02247706422
 20
-0.0619266055046
 30
0.0
  0
VERTEX
  8
0
 10
-3.00412844037
 20
-0.0619266055046
 30
0.0
  0
SEQEND
  8
0
  0
POLYLINE
  8
0
 62
0
 70
0
 66
1
 10
0.0
 20
0.0
 30
0.0
  0
VERTEX
  8
0
 10
-6.25688073394
 20
0.419724770642
 30
0.0
  0
VERTEX
  8
0
 10
-6.22078109698
 20
0.385135209372
 30
0.0
  0
VERTEX
  8
0
 10
-6.18325149485
 20
0.352102452982
 30
0.0
  0
VERTEX
  8
0
 10
-6.14438475701
 20
0.320653657693
 30
0.0
  0
VERTEX
  8
0
 10
-6.10427818694
 20
0.290801825958
 30
0.0
  0
VERTEX
  8
0
 10
-6.06303109756
 20
0.26254643315
 30
0.0
  0
VERTEX
  8
0
 10
-6.02074256137
 20
0.235874512936
 30
0.0
  0
VERTEX
  8
0
 10
-5.97750947858
 20
0.210762071504
 30
0.0
  0
VERTEX
  8
0
 10
-5.93342501946
 20
0.187175696486
 30
0.0
  0
VERTEX
  8
0
 10
-5.88857745591
 20
0.165074235921
 30
0.0
  0
VERTEX
  8
0
 10
-5.84304936262
 20
0.144410446446
 30
0.0
  0
VERTEX
  8
0
 10
-5.79691714742
 20
0.125132532714
 30
0.0
  0
VERTEX
  8
0
 10
-5.7502508567
 20
0.107185528552
 30
0.0
  0
VERTEX
  8
0
 10
-5.70311419756
 20
0.0905124966357
 30
0.0
  0
VERTEX
  8
0
 10
-5.6555647234
 20
0.0750555347664
 30
0.0
  0
VERTEX
  8
0
 10
-5.60765413268
 20
0.0607565983487
 30
0.0
  0
VERTEX
  8
0
 10
-5.55942864154
 20
0.0475581492673
 30
0.0
  0
VERTEX
  8
0
 10
-5.51092939705
 20
0.0354036506621
 30
0.0
  0
VERTEX
  8
0
 10
-5.46219290538
 20
0.0242379327959
 30
0.0
  0
VERTEX
  8
0
 10
-5.41325145796
 20
0.0140074464333
 30
0.0
  0
VERTEX
  8
0
 10
-5.36413354258
 20
0.00466042605761
 30
0.0
  0
VERTEX
  8
0
 10
-5.31486423188
 20
-0.0038530232046
 30
0.0
  0
VERTEX
  8
0
 10
-5.26546554387
 20
-0.0115808964388
 30
0.0
  0
VERTEX
  8
0
 10
-5.21595677247
 20
-0.0185693052229
 30
0.0
  0
VERTEX
  8
0
 10
-5.16635478771
 20
-0.0248625305017
 30
0.0
  0
VERTEX
  8
0
 10
-5.11667430634
 20
-0.0305031033114
 30
0.0
  0
VERTEX
  8
0
 10
-5.066928134
 20
-0.0355319052117
 30
0.0
  0
VERTEX
  8
0
 10
-5.01712738127
 20
-0.0399882847103
 30
0.0
  0
VERTEX
  8
0
 10
-4.96728165557
 20
-0.0439101858901
 30
0.0
  0
VERTEX
  8
0
 10
-4.91739923128
 20
-0.0473342869536
 30
0.0
  0
VERTEX
  8
0
 10
-4.86748720014
 20
-0.0502961448543
 30
0.0
  0
VERTEX
  8
0
 10
-4.81755160433
 20
-0.0528303471688
 30
0.0
  0
VERTEX
  8
0
 10
-4.76759755412
 20
-0.0549706712465
 30
0.0
  0
VERTEX
  8
0
 10
-4.71762933218
 20
-0.056750250087
 30
0.0
  0
VERTEX
  8
0
 10
-4.66765048618
 20
-0.0582017458168
 30
0.0
  0
VERTEX
  8
0
 10
-4.61766391161
 20
-0.0593575330927
 30
0.0
  0
VERTEX
  8
0
 10
-4.56767192634
 20
-0.0602498953893
 30
0.0
  0
VERTEX
  8
0
 10
-4.5176763387
 20
-0.0609112362154
 30
0.0
  0
VERTEX
  8
0
 10
-4.46767851065
 20
-0.0613743097114
 30
0.0
  0
VERTEX
  8
0
 10
-4.41767941795
 20
-0.0616724757278
 30
0.0
  0
VERTEX
  8
0
 10
-4.36767970924
 20
-0.0618399860065
 30
0.0
  0
VERTEX
  8
0
 10
-4.31767976651
 20
-0.0619123092695
 30
0.0
  0
VERTEX
  8
0
 10
-4.27247706422
 20
-0.0619266055046
 30
0.0
  0
SEQEND
  8
0
  0
POLYLINE
  8
0
 62
0
 70
0
 66
1
 10
0.0
 20
0.0
 30
0.0
  0
VERTEX
  8
0
 10
-6.44633027523
 20
0.914220183486
 30
0.0
  0
VERTEX
  8
0
 10
-6.44480118021
 20
0.864251308066
 30
0.0
  0
VERTEX
  8
0
 10
-6.44025168815
 20
0.81446633449
 30
0.0
  0
VERTEX
  8
0
 10
-6.43269269135
 20
0.765048899813
 30
0.0
  0
VERTEX
  8
0
 10
-6.42208225799
 20
0.716196193471
 30
0.0
  0
VERTEX
  8
0
 10
-6.40833419323
 20
0.668132990718
 30
0.0
  0
VERTEX
  8
0
 10
-6.39132651292
 20
0.621125612069
 30
0.0
  0
VERTEX
  8
0
 10
-6.37091233612
 20
0.575496163927
 30
0.0
  0
VERTEX
  8
0
 10
-6.34693611431
 20
0.531636069017
 30
0.0
  0
VERTEX
  8
0
 10
-6.31925834979
 20
0.490015854471
 30
0.0
  0
VERTEX
  8
0
 10
-6.28779109784
 20
0.451185332289
 30
0.0
  0
VERTEX
  8
0
 10
-6.25688073394
 20
0.419724770642
 30
0.0
  0
SEQEND
  8
0
  0
POLYLINE
  8
0
 62
0
 70
0
 66
1
 10
0.0
 20
0.0
 30
0.0
  0
VERTEX
  8
0
 10
-6.25688073394
 20
1.40871559633
 30
0.0
  0
VERTEX
  8
0
 10
-6.29130779535
 20
1.37248446817
 30
0.0
  0
VERTEX
  8
0
 10
-6.32207816866
 20
1.3330970191
 30
0.0
  0
VERTEX
  8
0
 10
-6.34919215683
 20
1.29110563036
 30
0.0
  0
VERTEX
  8
0
 10
-6.3727278526
 20
1.24700641006
 30
0.0
  0
VERTEX
  8
0
 10
-6.39280360679
 20
1.20122630099
 30
0.0
  0
VERTEX
  8
0
 10
-6.40954832345
 20
1.15412416215
 30
0.0
  0
VERTEX
  8
0
 10
-6.42308006883
 20
1.10599939489
 30
0.0
  0
VERTEX
  8
0
 10
-6.43349107061
 20
1.05710377495
 30
0.0
  0
VERTEX
  8
0
 10
-6.44083649229
 20
1.0076542918
 30
0.0
  0
VERTEX
  8
0
 10
-6.4451243943
 20
0.957846438946
 30
0.0
  0
VERTEX
  8
0
 10
-6.44633027523
 20
0.914220183486
 30
0.0
  0
SEQEND
  8
0
  0
POLYLINE
  8
0
 62
0
 70
0
 66
1
 10
0.0
 20
0.0
 30
0.0
  0
VERTEX
  8
0
 10
-4.8119266055
 20
1.88073394495
 30
0.0
  0
VERTEX
  8
0
 10
-4.86186015693
 20
1.87815960617
 30
0.0
  0
VERTEX
  8
0
 10
-4.9117705716
 20
1.87517047513
 30
0.0
  0
VERTEX
  8
0
 10
-4.96165201812
 20
1.87173201041
 30
0.0
  0
VERTEX
  8
0
 10
-5.01149764748
 20
1.86780874287
 30
0.0
  0
VERTEX
  8
0
 10
-5.06129946269
 20
1.86336411642
 30
0.0
  0
VERTEX
  8
0
 10
-5.11104817125
 20
1.85836033529
 30
0.0
  0
VERTEX
  8
0
 10
-5.16073301813
 20
1.85275821824
 30
0.0
  0
VERTEX
  8
0
 10
-5.21034159696
 20
1.84651706134
 30
0.0
  0
VERTEX
  8
0
 10
-5.25985963706
 20
1.83959451135
 30
0.0
  0
VERTEX
  8
0
 10
-5.30927076378
 20
1.83194645333
 30
0.0
  0
VERTEX
  8
0
 10
-5.35855623008
 20
1.82352691703
 30
0.0
  0
VERTEX
  8
0
 10
-5.40769461742
 20
1.81428800834
 30
0.0
  0
VERTEX
  8
0
 10
-5.4566615047
 20
1.80417987383
 30
0.0
  0
VERTEX
  8
0
 10
-5.50542910518
 20
1.7931507084
 30
0.0
  0
VERTEX
  8
0
 10
-5.55396587282
 20
1.78114681863
 30
0.0
  0
VERTEX
  8
0
 10
-5.60223608163
 20
1.76811275657
 30
0.0
  0
VERTEX
  8
0
 10
-5.65019938514
 20
1.75399154172
 30
0.0
  0
VERTEX
  8
0
 10
-5.69781036706
 20
1.73872499106
 30
0.0
  0
VERTEX
  8
0
 10
-5.74501809981
 20
1.722254179
 30
0.0
  0
VERTEX
  8
0
 10
-5.79176573447
 20
1.7045200499
 30
0.0
  0
VERTEX
  8
0
 10
-5.8379901536
 20
1.68546420458
 30
0.0
  0
VERTEX
  8
0
 10
-5.88362172719
 20
1.66502987872
 30
0.0
  0
VERTEX
  8
0
 10
-5.92858422123
 20
1.64316312325
 30
0.0
  0
VERTEX
  8
0
 10
-5.97279491552
 20
1.61981418411
 30
0.0
  0
VERTEX
  8
0
 10
-6.01616499213
 20
1.59493906137
 30
0.0
  0
VERTEX
  8
0
 10
-6.05860025451
 20
1.56850120349
 30
0.0
  0
VERTEX
  8
0
 10
-6.10000222767
 20
1.54047326547
 30
0.0
  0
VERTEX
  8
0
 10
-6.14026966888
 20
1.51083882978
 30
0.0
  0
VERTEX
  8
0
 10
-6.17930048613
 20
1.47959396372
 30
0.0
  0
VERTEX
  8
0
 10
-6.21699401791
 20
1.44674847025
 30
0.0
  0
VERTEX
  8
0
 10
-6.25325357783
 20
1.4123266893
 30
0.0
  0
VERTEX
  8
0
 10
-6.25688073394
 20
1.40871559633
 30
0.0
  0
SEQEND
  8
0
  0
POLYLINE
  8
0
 62
0
 70
0
 66
1
 10
0.0
 20
0.0
 30
0.0
  0
VERTEX
  8
0
 10
-4.56146788991
 20
2.14082568807
 30
0.0
  0
VERTEX
  8
0
 10
-4.56555052125
 20
2.09105094743
 30
0.0
  0
VERTEX
  8
0
 10
-4.57831617218
 20
2.04278265116
 30
0.0
  0
VERTEX
  8
0
 10
-4.6001483317
 20
1.99789482844
 30
0.0
  0
VERTEX
  8
0
 10
-4.63069981019
 20
1.95843011764
 30
0.0
  0
VERTEX
  8
0
 10
-4.66880365804
 20
1.92619627018
 30
0.0
  0
VERTEX
  8
0
 10
-4.71267054526
 20
1.90237569025
 30
0.0
  0
VERTEX
  8
0
 10
-4.76028765768
 20
1.88735638743
 30
0.0
  0
VERTEX
  8
0
 10
-4.80980304904
 20
1.88083328092
 30
0.0
  0
VERTEX
  8
0
 10
-4.8119266055
 20
1.88073394495
 30
0.0
  0
SEQEND
  8
0
  0
POLYLINE
  8
0
 62
0
 70
0
 66
1
 10
0.0
 20
0.0
 30
0.0
  0
VERTEX
  8
0
 10
-4.64174311927
 20
2.7380733945
 30
0.0
  0
VERTEX
  8
0
 10
-4.60887738216
 20
2.70050091139
 30
0.0
  0
VERTEX
  8
0
 10
-4.58402329704
 20
2.65720882131
 30
0.0
  0
VERTEX
  8
0
 10
-4.56808558963
 20
2.60990092785
 30
0.0
  0
VERTEX
  8
0
 10
-4.56160967712
 20
2.56040128442
 30
0.0
  0
VERTEX
  8
0
 10
-4.56146788991
 20
2.55183486239
 30
0.0
  0
SEQEND
  8
0
  0
POLYLINE
  8
0
 62
0
 70
0
 66
1
 10
0.0
 20
0.0
 30
0.0
  0
VERTEX
  8
0
 10
-4.82798165138
 20
2.81513761468
 30
0.0
  0
VERTEX
  8
0
 10
-4.77823953993
 20
2.8107606066
 30
0.0
  0
VERTEX
  8
0
 10
-4.73015245169
 20
2.79734359486
 30
0.0
  0
VERTEX
  8
0
 10
-4.68565979843
 20
2.77472344425
 30
0.0
  0
VERTEX
  8
0
 10
-4.64684813168
 20
2.74335100376
 30
0.0
  0
VERTEX
  8
0
 10
-4.64174311927
 20
2.7380733945
 30
0.0
  0
SEQEND
  8
0
  0
POLYLINE
  8
0
 62
0
 70
0
 66
1
 10
0.0
 20
0.0
 30
0.0
  0
VERTEX
  8
0
 10
-7.21376146789
 20
2.08623853211
 30
0.0
  0
VERTEX
  8
0
 10
-7.17848170227
 20
2.12166688594
 30
0.0
  0
VERTEX
  8
0
 10
-7.14220789769
 20
2.1560768193
 30
0.0
  0
VERTEX
  8
0
 10
-7.10497712112
 20
2.18944903563
 30
0.0
  0
VERTEX
  8
0
 10
-7.06682878057
 20
2.22176843485
 30
0.0
  0
VERTEX
  8
0
 10
-7.02780413438
 20
2.25302417086
 30
0.0
  0
VERTEX
  8
0
 10
-6.98794579056
 20
2.28320962524
 30
0.0
  0
VERTEX
  8
0
 10
-6.94729721555
 20
2.31232230724
 30
0.0
  0
VERTEX
  8
0
 10
-6.90590226311
 20
2.34036368527
 30
0.0
  0
VERTEX
  8
0
 10
-6.8638047352
 20
2.36733896035
 30
0.0
  0
VERTEX
  8
0
 10
-6.82104798627
 20
2.39325679752
 30
0.0
  0
VERTEX
  8
0
 10
-6.77767457366
 20
2.41812902264
 30
0.0
  0
VERTEX
  8
0
 10
-6.73372595779
 20
2.44197029624
 30
0.0
  0
VERTEX
  8
0
 10
-6.68924225601
 20
2.46479778067
 30
0.0
  0
VERTEX
  8
0
 10
-6.64426204605
 20
2.48663080543
 30
0.0
  0
VERTEX
  8
0
 10
-6.59882221587
 20
2.50749053742
 30
0.0
  0
VERTEX
  8
0
 10
-6.5529578595
 20
2.52739966897
 30
0.0
  0
VERTEX
  8
0
 10
-6.50670221149
 20
2.54638212437
 30
0.0
  0
VERTEX
  8
0
 10
-6.46008661425
 20
2.56446278544
 30
0.0
  0
VERTEX
  8
0
 10
-6.41314051631
 20
2.58166724555
 30
0.0
  0
VERTEX
  8
0
 10
-6.3658914943
 20
2.59802158889
 30
0.0
  0
VERTEX
  8
0
 10
-6.3183652933
 20
2.61355219184
 30
0.0
  0
VERTEX
  8
0
 10
-6.27058588392
 20
2.62828555356
 30
0.0
  0
VERTEX
  8
0
 10
-6.22257553035
 20
2.64224814919
 30
0.0
  0
VERTEX
  8
0
 10
-6.17435486588
 20
2.65546630317
 30
0.0
  0
VERTEX
  8
0
 10
-6.12594297501
 20
2.6679660866
 30
0.0
  0
VERTEX
  8
0
 10
-6.07735747788
 20
2.67977323148
 30
0.0
  0
VERTEX
  8
0
 10
-6.02861461588
 20
2.69091306121
 30
0.0
  0
VERTEX
  8
0
 10
-5.97972933732
 20
2.70141043798
 30
0.0
  0
VERTEX
  8
0
 10
-5.93071538118
 20
2.71128972177
 30
0.0
  0
VERTEX
  8
0
 10
-5.8815853586
 20
2.72057474153
 30
0.0
  0
VERTEX
  8
0
 10
-5.83235083118
 20
2.72928877634
 30
0.0
  0
VERTEX
  8
0
 10
-5.78302238579
 20
2.73745454498
 30
0.0
  0
VERTEX
  8
0
 10
-5.73360970556
 20
2.74509420354
 30
0.0
  0
VERTEX
  8
0
 10
-5.68412163666
 20
2.75222934794
 30
0.0
  0
VERTEX
  8
0
 10
-5.63456625124
 20
2.75888102337
 30
0.0
  0
VERTEX
  8
0
 10
-5.58495090622
 20
2.76506973736
 30
0.0
  0
VERTEX
  8
0
 10
-5.53528229798
 20
2.77081547589
 30
0.0
  0
VERTEX
  8
0
 10
-5.48556651351
 20
2.77613772484
 30
0.0
  0
VERTEX
  8
0
 10
-5.43580907754
 20
2.78105549141
 30
0.0
  0
VERTEX
  8
0
 10
-5.38601499642
 20
2.78558732941
 30
0.0
  0
VERTEX
  8
0
 10
-5.33618879864
 20
2.78975136676
 30
0.0
  0
VERTEX
  8
0
 10
-5.28633457215
 20
2.79356533258
 30
0.0
  0
VERTEX
  8
0
 10
-5.23645599896
 20
2.79704658787
 30
0.0
  0
VERTEX
  8
0
 10
-5.18655638699
 20
2.80021215654
 30
0.0
  0
VERTEX
  8
0
 10
-5.13663869938
 20
2.80307875686
 30
0.0
  0
VERTEX
  8
0
 10
-5.08670558165
 20
2.80566283576
 30
0.0
  0
VERTEX
  8
0
 10
-5.03675938674
 20
2.80798060254
 30
0.0
  0
VERTEX
  8
0
 10
-4.9868021981
 20
2.81004806466
 30
0.0
  0
VERTEX
  8
0
 10
-4.93683585117
 20
2.81188106497
 30
0.0
  0
VERTEX
  8
0
 10
-4.88686195328
 20
2.81349531948
 30
0.0
  0
VERTEX
  8
0
 10
-4.83688190218
 20
2.81490645731
 30
0.0
  0
VERTEX
  8
0
 10
-4.82798165138
 20
2.81513761468
 30
0.0
  0
SEQEND
  8
0
  0
POLYLINE
  8
0
 62
0
 70
0
 66
1
 10
0.0
 20
0.0
 30
0.0
  0
VERTEX
  8
0
 10
-7.60871559633
 20
0.914220183486
 30
0.0
  0
VERTEX
  8
0
 10
-7.60824688926
 20
0.964217250737
 30
0.0
  0
VERTEX
  8
0
 10
-7.60683090881
 20
1.01419643492
 30
0.0
  0
VERTEX
  8
0
 10
-7.60444956631
 20
1.06413889866
 30
0.0
  0
VERTEX
  8
0
 10
-7.6010805714
 20
1.11402442907
 30
0.0
  0
VERTEX
  8
0
 10
-7.59669761263
 20
1.16383106376
 30
0.0
  0
VERTEX
  8
0
 10
-7.59127047804
 20
1.21353469913
 30
0.0
  0
VERTEX
  8
0
 10
-7.58476513653
 20
1.26310867037
 30
0.0
  0
VERTEX
  8
0
 10
-7.57714379917
 20
1.31252329472
 30
0.0
  0
VERTEX
  8
0
 10
-7.56836497867
 20
1.36174537011
 30
0.0
  0
VERTEX
  8
0
 10
-7.55838356641
 20
1.41073762346
 30
0.0
  0
VERTEX
  8
0
 10
-7.54715094935
 20
1.45945810458
 30
0.0
  0
VERTEX
  8
0
 10
-7.53461519213
 20
1.50785952458
 30
0.0
  0
VERTEX
  8
0
 10
-7.52072131445
 20
1.55588854234
 30
0.0
  0
VERTEX
  8
0
 10
-7.50541170019
 20
1.6034850088
 30
0.0
  0
VERTEX
  8
0
 10
-7.48862667822
 20
1.65058118786
 30
0.0
  0
VERTEX
  8
0
 10
-7.47030532154
 20
1.69710098482
 30
0.0
  0
VERTEX
  8
0
 10
-7.45038651491
 20
1.74295922997
 30
0.0
  0
VERTEX
  8
0
 10
-7.42881033739
 20
1.78806108392
 30
0.0
  0
VERTEX
  8
0
 10
-7.40551980053
 20
1.83230165442
 30
0.0
  0
VERTEX
  8
0
 10
-7.38046296483
 20
1.87556593891
 30
0.0
  0
VERTEX
  8
0
 10
-7.35359542366
 20
1.91772922643
 30
0.0
  0
VERTEX
  8
0
 10
-7.3248830963
 20
1.95865810359
 30
0.0
  0
VERTEX
  8
0
 10
-7.29430520938
 20
1.99821220162
 30
0.0
  0
VERTEX
  8
0
 10
-7.26185726933
 20
2.03624678439
 30
0.0
  0
VERTEX
  8
0
 10
-7.22755375571
 20
2.07261620424
 30
0.0
  0
VERTEX
  8
0
 10
-7.21376146789
 20
2.08623853211
 30
0.0
  0
SEQEND
  8
0
  0
POLYLINE
  8
0
 62
0
 70
0
 66
1
 10
0.0
 20
0.0
 30
0.0
  0
VERTEX
  8
0
 10
-7.21376146789
 20
-0.299541284404
 30
0.0
  0
VERTEX
  8
0
 10
-7.24875396264
 20
-0.263834786587
 30
0.0
  0
VERTEX
  8
0
 10
-7.28186108324
 20
-0.226373019638
 30
0.0
  0
VERTEX
  8
0
 10
-7.3130664025
 20
-0.187312380661
 30
0.0
  0
VERTEX
  8
0
 10
-7.34237448826
 20
-0.146808269843
 30
0.0
  0
VERTEX
  8
0
 10
-7.36980780838
 20
-0.105011128898
 30
0.0
  0
VERTEX
  8
0
 10
-7.39540332659
 20
-0.062063519437
 30
0.0
  0
VERTEX
  8
0
 10
-7.41920911328
 20
-0.0180981972909
 30
0.0
  0
VERTEX
  8
0
 10
-7.44128120344
 20
0.0267629476081
 30
0.0
  0
VERTEX
  8
0
 10
-7.46168083827
 20
0.0724092587948
 30
0.0
  0
VERTEX
  8
0
 10
-7.48047214812
 20
0.118741166597
 30
0.0
  0
VERTEX
  8
0
 10
-7.49772028019
 20
0.165669687353
 30
0.0
  0
VERTEX
  8
0
 10
-7.51348993705
 20
0.213115701615
 30
0.0
  0
VERTEX
  8
0
 10
-7.527844273
 20
0.261009114061
 30
0.0
  0
VERTEX
  8
0
 10
-7.54084408847
 20
0.309287969418
 30
0.0
  0
VERTEX
  8
0
 10
-7.55254726518
 20
0.357897574774
 30
0.0
  0
VERTEX
  8
0
 10
-7.56300838763
 20
0.406789660788
 30
0.0
  0
VERTEX
  8
0
 10
-7.57227850464
 20
0.455921600158
 30
0.0
  0
VERTEX
  8
0
 10
-7.58040499238
 20
0.505255691887
 30
0.0
  0
VERTEX
  8
0
 10
-7.58743148665
 20
0.554758513341
 30
0.0
  0
VERTEX
  8
0
 10
-7.59339785781
 20
0.604400337777
 30
0.0
  0
VERTEX
  8
0
 10
-7.59834020701
 20
0.654154612126
 30
0.0
  0
VERTEX
  8
0
 10
-7.60229086523
 20
0.70399748824
 30
0.0
  0
VERTEX
  8
0
 10
-7.60527837894
 20
0.753907399783
 30
0.0
  0
VERTEX
  8
0
 10
-7.60732746688
 20
0.803864676136
 30
0.0
  0
VERTEX
  8
0
 10
-7.60845893237
 20
0.853851184017
 30
0.0
  0
VERTEX
  8
0
 10
-7.60871559633
 20
0.891743119266
 30
0.0
  0
SEQEND
  8
0
  0
POLYLINE
  8
0
 62
0
 70
0
 66
1
 10
0.0
 20
0.0
 30
0.0
  0
VERTEX
  8
0
 10
-3.90321100917
 20
-2.86834862385
 30
0.0
  0
VERTEX
  8
0
 10
-3.93519725921
 20
-2.83001022367
 30
0.0
  0
VERTEX
  8
0
 10
-3.95925498769
 20
-2.78627231899
 30
0.0
  0
VERTEX
  8
0
 10
-3.97422304963
 20
-2.73864863033
 30
0.0
  0
VERTEX
  8
0
 10
-3.98011112587
 20
-2.68906128264
 30
0.0
  0
VERTEX
  8
0
 10
-3.98027522936
 20
-2.67889908257
 30
0.0
  0
SEQEND
  8
0
  0
POLYLINE
  8
0
 62
0
 70
0
 66
1
 10
0.0
 20
0.0
 30
0.0
  0
VERTEX
  8
0
 10
-3.71376146789
 20
-2.94220183486
 30
0.0
  0
VERTEX
  8
0
 10
-3.76351025001
 20
-2.93787477793
 30
0.0
  0
VERTEX
  8
0
 10
-3.81171440303
 20
-2.9248501672
 30
0.0
  0
VERTEX
  8
0
 10
-3.85676716029
 20
-2.90332734356
 30
0.0
  0
VERTEX
  8
0
 10
-3.89710366215
 20
-2.87390221925
 30
0.0
  0
VERTEX
  8
0
 10
-3.90321100917
 20
-2.86834862385
 30
0.0
  0
SEQEND
  8
0
  0
POLYLINE
  8
0
 62
0
 70
0
 66
1
 10
0.0
 20
0.0
 30
0.0
  0
VERTEX
  8
0
 10
-1.90596330275
 20
-2.65
 30
0.0
  0
VERTEX
  8
0
 10
-1.95304517003
 20
-2.66683031101
 30
0.0
  0
VERTEX
  8
0
 10
-2.00034908346
 20
-2.68302607739
 30
0.0
  0
VERTEX
  8
0
 10
-2.04786234099
 20
-2.69859704112
 30
0.0
  0
VERTEX
  8
0
 10
-2.0955726319
 20
-2.71355344995
 30
0.0
  0
VERTEX
  8
0
 10
-2.1434680548
 20
-2.72790600893
 30
0.0
  0
VERTEX
  8
0
 10
-2.19153713184
 20
-2.741665833
 30
0.0
  0
VERTEX
  8
0
 10
-2.23976881948
 20
-2.75484440104
 30
0.0
  0
VERTEX
  8
0
 10
-2.28815251583
 20
-2.76745351173
 30
0.0
  0
VERTEX
  8
0
 10
-2.33667806503
 20
-2.77950524139
 30
0.0
  0
VERTEX
  8
0
 10
-2.38533575882
 20
-2.79101190405
 30
0.0
  0
VERTEX
  8
0
 10
-2.43411633558
 20
-2.80198601382
 30
0.0
  0
VERTEX
  8
0
 10
-2.48301097714
 20
-2.81244024976
 30
0.0
  0
VERTEX
  8
0
 10
-2.53201130364
 20
-2.82238742307
 30
0.0
  0
VERTEX
  8
0
 10
-2.58110936657
 20
-2.8318404471
 30
0.0
  0
VERTEX
  8
0
 10
-2.63029764042
 20
-2.84081230956
 30
0.0
  0
VERTEX
  8
0
 10
-2.67956901301
 20
-2.84931604742
 30
0.0
  0
VERTEX
  8
0
 10
-2.72891677478
 20
-2.85736472419
 30
0.0
  0
VERTEX
  8
0
 10
-2.7783346072
 20
-2.86497140953
 30
0.0
  0
VERTEX
  8
0
 10
-2.82781657056
 20
-2.87214916121
 30
0.0
  0
VERTEX
  8
0
 10
-2.87735709119
 20
-2.87891100922
 30
0.0
  0
VERTEX
  8
0
 10
-2.92695094828
 20
-2.88526994201
 30
0.0
  0
VERTEX
  8
0
 10
-2.97659326056
 20
-2.89123889471
 30
0.0
  0
VERTEX
  8
0
 10
-3.02627947272
 20
-2.89683073919
 30
0.0
  0
VERTEX
  8
0
 10
-3.07600534189
 20
-2.90205827595
 30
0.0
  0
VERTEX
  8
0
 10
-3.12576692412
 20
-2.90693422766
 30
0.0
  0
VERTEX
  8
0
 10
-3.17556056099
 20
-2.91147123431
 30
0.0
  0
VERTEX
  8
0
 10
-3.22538286639
 20
-2.9156818497
 30
0.0
  0
VERTEX
  8
0
 10
-3.27523071358
 20
-2.91957853946
 30
0.0
  0
VERTEX
  8
0
 10
-3.32510122244
 20
-2.92317368025
 30
0.0
  0
VERTEX
  8
0
 10
-3.37499174707
 20
-2.92647956012
 30
0.0
  0
VERTEX
  8
0
 10
-3.42489986372
 20
-2.92950838006
 30
0.0
  0
VERTEX
  8
0
 10
-3.47482335902
 20
-2.93227225654
 30
0.0
  0
VERTEX
  8
0
 10
-3.52476021859
 20
-2.93478322499
 30
0.0
  0
VERTEX
  8
0
 10
-3.57470861597
 20
-2.93705324426
 30
0.0
  0
VERTEX
  8
0
 10
-3.62466690193
 20
-2.93909420182
 30
0.0
  0
VERTEX
  8
0
 10
-3.67463359408
 20
-2.94091791986
 30
0.0
  0
VERTEX
  8
0
 10
-3.71376146789
 20
-2.94220183486
 30
0.0
  0
SEQEND
  8
0
  0
POLYLINE
  8
0
 62
0
 70
0
 66
1
 10
0.0
 20
0.0
 30
0.0
  0
VERTEX
  8
0
 10
-0.93623853211
 20
-1.27247706422
 30
0.0
  0
VERTEX
  8
0
 10
-0.937005171229
 20
-1.32246921576
 30
0.0
  0
VERTEX
  8
0
 10
-0.939321585539
 20
-1.37241349003
 30
0.0
  0
VERTEX
  8
0
 10
-0.943210842897
 20
-1.4222598882
 30
0.0
  0
VERTEX
  8
0
 10
-0.948693569019
 20
-1.47195619572
 30
0.0
  0
VERTEX
  8
0
 10
-0.955787690384
 20
-1.52144811825
 30
0.0
  0
VERTEX
  8
0
 10
-0.964508182809
 20
-1.57067944817
 30
0.0
  0
VERTEX
  8
0
 10
-0.974866829353
 20
-1.61959226242
 30
0.0
  0
VERTEX
  8
0
 10
-0.986871992007
 20
-1.66812715125
 30
0.0
  0
VERTEX
  8
0
 10
-1.0005284018
 20
-1.71622347729
 30
0.0
  0
VERTEX
  8
0
 10
-1.01583697194
 20
-1.76381966319
 30
0.0
  0
VERTEX
  8
0
 10
-1.03279463852
 20
-1.81085350554
 30
0.0
  0
VERTEX
  8
0
 10
-1.05139423316
 20
-1.85726251202
 30
0.0
  0
VERTEX
  8
0
 10
-1.07162439152
 20
-1.90298425768
 30
0.0
  0
VERTEX
  8
0
 10
-1.09346950097
 20
-1.94795675598
 30
0.0
  0
VERTEX
  8
0
 10
-1.11690969041
 20
-1.99211883911
 30
0.0
  0
VERTEX
  8
0
 10
-1.1419208638
 20
-2.03541054196
 30
0.0
  0
VERTEX
  8
0
 10
-1.16847477865
 20
-2.07777348362
 30
0.0
  0
VERTEX
  8
0
 10
-1.19653916932
 20
-2.11915124006
 30
0.0
  0
VERTEX
  8
0
 10
-1.22607791418
 20
-2.15948970166
 30
0.0
  0
VERTEX
  8
0
 10
-1.25705124446
 20
-2.19873740956
 30
0.0
  0
VERTEX
  8
0
 10
-1.28941599171
 20
-2.23684586498
 30
0.0
  0
VERTEX
  8
0
 10
-1.32312586983
 20
-2.27376980654
 30
0.0
  0
VERTEX
  8
0
 10
-1.35813178697
 20
-2.30946745103
 30
0.0
  0
VERTEX
  8
0
 10
-1.39438218167
 20
-2.34390069426
 30
0.0
  0
VERTEX
  8
0
 10
-1.43182337738
 20
-2.37703526935
 30
0.0
  0
VERTEX
  8
0
 10
-1.47039994922
 20
-2.40884086111
 30
0.0
  0
VERTEX
  8
0
 10
-1.5100550966
 20
-2.43929117606
 30
0.0
  0
VERTEX
  8
0
 10
-1.55073101562
 20
-2.46836396855
 30
0.0
  0
VERTEX
  8
0
 10
-1.59236926536
 20
-2.49604102485
 30
0.0
  0
VERTEX
  8
0
 10
-1.63491112272
 20
-2.52230810735
 30
0.0
  0
VERTEX
  8
0
 10
-1.67829792104
 20
-2.54715486222
 30
0.0
  0
VERTEX
  8
0
 10
-1.72247136829
 20
-2.57057469414
 30
0.0
  0
VERTEX
  8
0
 10
-1.76737384168
 20
-2.59256461244
 30
0.0
  0
VERTEX
  8
0
 10
-1.81294865602
 20
-2.61312505288
 30
0.0
  0
VERTEX
  8
0
 10
-1.85914030391
 20
-2.63225968004
 30
0.0
  0
VERTEX
  8
0
 10
-1.90589466768
 20
-2.64997517284
 30
0.0
  0
VERTEX
  8
0
 10
-1.90596330275
 20
-2.65
 30
0.0
  0
SEQEND
  8
0
  0
POLYLINE
  8
0
 62
0
 70
0
 66
1
 10
0.0
 20
0.0
 30
0.0
  0
VERTEX
  8
0
 10
-1.32798165138
 20
2.08623853211
 30
0.0
  0
VERTEX
  8
0
 10
-1.29299706811
 20
2.05052441994
 30
0.0
  0
VERTEX
  8
0
 10
-1.25991571713
 20
2.01304003101
 30
0.0
  0
VERTEX
  8
0
 10
-1.22875639703
 20
1.97394281686
 30
0.0
  0
VERTEX
  8
0
 10
-1.19951593549
 20
1.93338997741
 30
0.0
  0
VERTEX
  8
0
 10
-1.17217228503
 20
1.89153422259
 30
0.0
  0
VERTEX
  8
0
 10
-1.14668800735
 20
1.84852059944
 30
0.0
  0
VERTEX
  8
0
 10
-1.12301379211
 20
1.80448436194
 30
0.0
  0
VERTEX
  8
0
 10
-1.10109174952
 20
1.75954976089
 30
0.0
  0
VERTEX
  8
0
 10
-1.08085831884
 20
1.71382957839
 30
0.0
  0
VERTEX
  8
0
 10
-1.06224672073
 20
1.6674252201
 30
0.0
  0
VERTEX
  8
0
 10
-1.0451889427
 20
1.62042719517
 30
0.0
  0
VERTEX
  8
0
 10
-1.02961728881
 20
1.57291584038
 30
0.0
  0
VERTEX
  8
0
 10
-1.0154655478
 20
1.5249621772
 30
0.0
  0
VERTEX
  8
0
 10
-1.00266984156
 20
1.47662882084
 30
0.0
  0
VERTEX
  8
0
 10
-0.991169214779
 20
1.4279708859
 30
0.0
  0
VERTEX
  8
0
 10
-0.980906023096
 20
1.37903685305
 30
0.0
  0
VERTEX
  8
0
 10
-0.971826169135
 20
1.32986937602
 30
0.0
  0
VERTEX
  8
0
 10
-0.96387922691
 20
1.28050601936
 30
0.0
  0
VERTEX
  8
0
 10
-0.9570184886
 20
1.23097992413
 30
0.0
  0
VERTEX
  8
0
 10
-0.951200961091
 20
1.18132040357
 30
0.0
  0
VERTEX
  8
0
 10
-0.946387333926
 20
1.13155347363
 30
0.0
  0
VERTEX
  8
0
 10
-0.942541936663
 20
1.08170232503
 30
0.0
  0
VERTEX
  8
0
 10
-0.939632700817
 20
1.03178774422
 30
0.0
  0
VERTEX
  8
0
 10
-0.937631139735
 20
0.981828491247
 30
0.0
  0
VERTEX
  8
0
 10
-0.936512359093
 20
0.931841642904
 30
0.0
  0
VERTEX
  8
0
 10
-0.93623853211
 20
0.891743119266
 30
0.0
  0
SEQEND
  8
0
  0
POLYLINE
  8
0
 62
0
 70
0
 66
1
 10
0.0
 20
0.0
 30
0.0
  0
VERTEX
  8
0
 10
-3.71376146789
 20
2.81513761468
 30
0.0
  0
VERTEX
  8
0
 10
-3.66378059968
 20
2.81375570214
 30
0.0
  0
VERTEX
  8
0
 10
-3.61380571744
 20
2.812172198
 30
0.0
  0
VERTEX
  8
0
 10
-3.56383819864
 20
2.81037141059
 30
0.0
  0
VERTEX
  8
0
 10
-3.51387962895
 20
2.80833757992
 30
0.0
  0
VERTEX
  8
0
 10
-3.46393182045
 20
2.80605483698
 30
0.0
  0
VERTEX
  8
0
 10
-3.41399683133
 20
2.80350716467
 30
0.0
  0
VERTEX
  8
0
 10
-3.36407698686
 20
2.80067836086
 30
0.0
  0
VERTEX
  8
0
 10
-3.31417490221
 20
2.79755200164
 30
0.0
  0
VERTEX
  8
0
 10
-3.26429350696
 20
2.79411140725
 30
0.0
  0
VERTEX
  8
0
 10
-3.21443607162
 20
2.79033960863
 30
0.0
  0
VERTEX
  8
0
 10
-3.16460623652
 20
2.78621931439
 30
0.0
  0
VERTEX
  8
0
 10
-3.11480804281
 20
2.78173288103
 30
0.0
  0
VERTEX
  8
0
 10
-3.06504596633
 20
2.77686228255
 30
0.0
  0
VERTEX
  8
0
 10
-3.01532495412
 20
2.77158908209
 30
0.0
  0
VERTEX
  8
0
 10
-2.96565046388
 20
2.76589440648
 30
0.0
  0
VERTEX
  8
0
 10
-2.91602850676
 20
2.75975892031
 30
0.0
  0
VERTEX
  8
0
 10
-2.86646569343
 20
2.75316280447
 30
0.0
  0
VERTEX
  8
0
 10
-2.81696928362
 20
2.74608573651
 30
0.0
  0
VERTEX
  8
0
 10
-2.7675472396
 20
2.73850687304
 30
0.0
  0
VERTEX
  8
0
 10
-2.71820828316
 20
2.73040483813
 30
0.0
  0
VERTEX
  8
0
 10
-2.66896195671
 20
2.72175771409
 30
0.0
  0
VERTEX
  8
0
 10
-2.61981868829
 20
2.71254303814
 30
0.0
  0
VERTEX
  8
0
 10
-2.5707898602
 20
2.70273780571
 30
0.0
  0
VERTEX
  8
0
 10
-2.52188788162
 20
2.69231848004
 30
0.0
  0
VERTEX
  8
0
 10
-2.47312626435
 20
2.68126101089
 30
0.0
  0
VERTEX
  8
0
 10
-2.42451970177
 20
2.66954086218
 30
0.0
  0
VERTEX
  8
0
 10
-2.37608414987
 20
2.65713305166
 30
0.0
  0
VERTEX
  8
0
 10
-2.3278369098
 20
2.64401220284
 30
0.0
  0
VERTEX
  8
0
 10
-2.27979671108
 20
2.63015261048
 30
0.0
  0
VERTEX
  8
0
 10
-2.23198379292
 20
2.61552832472
 30
0.0
  0
VERTEX
  8
0
 10
-2.18441998338
 20
2.60011325043
 30
0.0
  0
VERTEX
  8
0
 10
-2.13712877331
 20
2.58388126708
 30
0.0
  0
VERTEX
  8
0
 10
-2.09013538145
 20
2.56680637258
 30
0.0
  0
VERTEX
  8
0
 10
-2.04346681025
 20
2.54886284574
 30
0.0
  0
VERTEX
  8
0
 10
-1.99715188635
 20
2.5300254349
 30
0.0
  0
VERTEX
  8
0
 10
-1.95122128174
 20
2.51026957347
 30
0.0
  0
VERTEX
  8
0
 10
-1.90570751391
 20
2.48957161493
 30
0.0
  0
VERTEX
  8
0
 10
-1.8606449173
 20
2.46790909462
 30
0.0
  0
VERTEX
  8
0
 10
-1.81606958134
 20
2.44526101504
 30
0.0
  0
VERTEX
  8
0
 10
-1.77201925344
 20
2.42160814485
 30
0.0
  0
VERTEX
  8
0
 10
-1.72853319917
 20
2.3969333347
 30
0.0
  0
VERTEX
  8
0
 10
-1.68565201596
 20
2.37122184266
 30
0.0
  0
VERTEX
  8
0
 10
-1.64341740082
 20
2.34446165594
 30
0.0
  0
VERTEX
  8
0
 10
-1.60187186781
 20
2.31664380584
 30
0.0
  0
VERTEX
  8
0
 10
-1.56105841567
 20
2.2877626654
 30
0.0
  0
VERTEX
  8
0
 10
-1.52102015126
 20
2.25781621407
 30
0.0
  0
VERTEX
  8
0
 10
-1.48179987213
 20
2.2268062617
 30
0.0
  0
VERTEX
  8
0
 10
-1.4434396152
 20
2.19473862124
 30
0.0
  0
VERTEX
  8
0
 10
-1.40598018471
 20
2.16162321655
 30
0.0
  0
VERTEX
  8
0
 10
-1.36946067014
 20
2.12747411945
 30
0.0
  0
VERTEX
  8
0
 10
-1.33391797027
 20
2.0923095083
 30
0.0
  0
VERTEX
  8
0
 10
-1.32798165138
 20
2.08623853211
 30
0.0
  0
SEQEND
  8
0
  0
POLYLINE
  8
0
 62
0
 70
0
 66
1
 10
0.0
 20
0.0
 30
0.0
  0
VERTEX
  8
0
 10
-3.90321100917
 20
2.7380733945
 30
0.0
  0
VERTEX
  8
0
 10
-3.86473038572
 20
2.76988035152
 30
0.0
  0
VERTEX
  8
0
 10
-3.8208788974
 20
2.79374001302
 30
0.0
  0
VERTEX
  8
0
 10
-3.77328883593
 20
2.80883303502
 30
0.0
  0
VERTEX
  8
0
 10
-3.72373376985
 20
2.81496619761
 30
0.0
  0
VERTEX
  8
0
 10
-3.71376146789
 20
2.81513761468
 30
0.0
  0
SEQEND
  8
0
  0
POLYLINE
  8
0
 62
0
 70
0
 66
1
 10
0.0
 20
0.0
 30
0.0
  0
VERTEX
  8
0
 10
-3.98027522936
 20
2.55183486239
 30
0.0
  0
VERTEX
  8
0
 10
-3.97589822128
 20
2.60157697383
 30
0.0
  0
VERTEX
  8
0
 10
-3.96248120954
 20
2.64966406207
 30
0.0
  0
VERTEX
  8
0
 10
-3.93986105893
 20
2.69415671533
 30
0.0
  0
VERTEX
  8
0
 10
-3.90848861844
 20
2.73296838208
 30
0.0
  0
VERTEX
  8
0
 10
-3.90321100917
 20
2.7380733945
 30
0.0
  0
SEQEND
  8
0
  0
POLYLINE
  8
0
 62
0
 70
0
 66
1
 10
0.0
 20
0.0
 30
0.0
  0
VERTEX
  8
0
 10
-3.73302752294
 20
1.88073394495
 30
0.0
  0
VERTEX
  8
0
 10
-3.78258389694
 20
1.88693481501
 30
0.0
  0
VERTEX
  8
0
 10
-3.83026913483
 20
1.90172865409
 30
0.0
  0
VERTEX
  8
0
 10
-3.87415236421
 20
1.92551096118
 30
0.0
  0
VERTEX
  8
0
 10
-3.91212796053
 20
1.95788970615
 30
0.0
  0
VERTEX
  8
0
 10
-3.94238365481
 20
1.99757898326
 30
0.0
  0
VERTEX
  8
0
 10
-3.96384168286
 20
2.04264746518
 30
0.0
  0
VERTEX
  8
0
 10
-3.97630415309
 20
2.09099751662
 30
0.0
  0
VERTEX
  8
0
 10
-3.98027522677
 20
2.14078447371
 30
0.0
  0
VERTEX
  8
0
 10
-3.98027522936
 20
2.14082568807
 30
0.0
  0
SEQEND
  8
0
  0
POLYLINE
  8
0
 62
0
 70
0
 66
1
 10
0.0
 20
0.0
 30
0.0
  0
VERTEX
  8
0
 10
-2.28486238532
 20
1.39908256881
 30
0.0
  0
VERTEX
  8
0
 10
-2.3207899465
 20
1.43385106611
 30
0.0
  0
VERTEX
  8
0
 10
-2.35812611519
 20
1.46710250957
 30
0.0
  0
VERTEX
  8
0
 10
-2.39678525173
 20
1.49880633455
 30
0.0
  0
VERTEX
  8
0
 10
-2.43667662578
 20
1.528945277
 30
0.0
  0
VERTEX
  8
0
 10
-2.47770668852
 20
1.55751501482
 30
0.0
  0
VERTEX
  8
0
 10
-2.51978120991
 20
1.58452335597
 30
0.0
  0
VERTEX
  8
0
 10
-2.56280717388
 20
1.60998907733
 30
0.0
  0
VERTEX
  8
0
 10
-2.60669436267
 20
1.63394053099
 30
0.0
  0
VERTEX
  8
0
 10
-2.65135659963
 20
1.65641413189
 30
0.0
  0
VERTEX
  8
0
 10
-2.696712652
 20
1.67745282684
 30
0.0
  0
VERTEX
  8
0
 10
-2.74268681996
 20
1.69710462411
 30
0.0
  0
VERTEX
  8
0
 10
-2.78920925311
 20
1.71542124
 30
0.0
  0
VERTEX
  8
0
 10
-2.83621604269
 20
1.73245689765
 30
0.0
  0
VERTEX
  8
0
 10
-2.88364913923
 20
1.74826729428
 30
0.0
  0
VERTEX
  8
0
 10
-2.93145614142
 20
1.76290873931
 30
0.0
  0
VERTEX
  8
0
 10
-2.97958999661
 20
1.77643745569
 30
0.0
  0
VERTEX
  8
0
 10
-3.02800864599
 20
1.78890903035
 30
0.0
  0
VERTEX
  8
0
 10
-3.07667464088
 20
1.80037799662
 30
0.0
  0
VERTEX
  8
0
 10
-3.12555475012
 20
1.81089752986
 30
0.0
  0
VERTEX
  8
0
 10
-3.17461957286
 20
1.82051923863
 30
0.0
  0
VERTEX
  8
0
 10
-3.22384316673
 20
1.82929303435
 30
0.0
  0
VERTEX
  8
0
 10
-3.27320269783
 20
1.83726706476
 30
0.0
  0
VERTEX
  8
0
 10
-3.32267811594
 20
1.84448769828
 30
0.0
  0
VERTEX
  8
0
 10
-3.3722518569
 20
1.85099954847
 30
0.0
  0
VERTEX
  8
0
 10
-3.42190857204
 20
1.85684552968
 30
0.0
  0
VERTEX
  8
0
 10
-3.47163488426
 20
1.86206693675
 30
0.0
  0
VERTEX
  8
0
 10
-3.52141916903
 20
1.86670354316
 30
0.0
  0
VERTEX
  8
0
 10
-3.5712513589
 20
1.87079371323
 30
0.0
  0
VERTEX
  8
0
 10
-3.62112276928
 20
1.87437452524
 30
0.0
  0
VERTEX
  8
0
 10
-3.67102594373
 20
1.87748190327
 30
0.0
  0
VERTEX
  8
0
 10
-3.72095451656
 20
1.88015075612
 30
0.0
  0
VERTEX
  8
0
 10
-3.73302752294
 20
1.88073394495
 30
0.0
  0
SEQEND
  8
0
  0
POLYLINE
  8
0
 62
0
 70
0
 66
1
 10
0.0
 20
0.0
 30
0.0
  0
VERTEX
  8
0
 10
-2.09541284404
 20
0.891743119266
 30
0.0
  0
VERTEX
  8
0
 10
-2.09695749985
 20
0.941711419569
 30
0.0
  0
VERTEX
  8
0
 10
-2.10150690802
 20
0.991496647173
 30
0.0
  0
VERTEX
  8
0
 10
-2.10898632602
 20
1.04092675125
 30
0.0
  0
VERTEX
  8
0
 10
-2.11938077844
 20
1.08982675595
 30
0.0
  0
VERTEX
  8
0
 10
-2.13272608808
 20
1.13800459355
 30
0.0
  0
VERTEX
  8
0
 10
-2.14910195742
 20
1.18523745833
 30
0.0
  0
VERTEX
  8
0
 10
-2.16862508409
 20
1.23125735107
 30
0.0
  0
VERTEX
  8
0
 10
-2.19143991978
 20
1.27573529432
 30
0.0
  0
VERTEX
  8
0
 10
-2.21770394913
 20
1.31826490412
 30
0.0
  0
VERTEX
  8
0
 10
-2.247563578
 20
1.35834816377
 30
0.0
  0
VERTEX
  8
0
 10
-2.28111679932
 20
1.39538981952
 30
0.0
  0
VERTEX
  8
0
 10
-2.28486238532
 20
1.39908256881
 30
0.0
  0
SEQEND
  8
0
  0
POLYLINE
  8
0
 62
0
 70
0
 66
1
 10
0.0
 20
0.0
 30
0.0
  0
VERTEX
  8
0
 10
-2.52889908257
 20
-1.83119266055
 30
0.0
  0
VERTEX
  8
0
 10
-2.48108397409
 20
-1.81661309967
 30
0.0
  0
VERTEX
  8
0
 10
-2.43451996083
 20
-1.79843289607
 30
0.0
  0
VERTEX
  8
0
 10
-2.38955901496
 20
-1.77658984019
 30
0.0
  0
VERTEX
  8
0
 10
-2.34657785864
 20
-1.75107299334
 30
0.0
  0
VERTEX
  8
0
 10
-2.30596729277
 20
-1.72193254068
 30
0.0
  0
VERTEX
  8
0
 10
-2.26811789651
 20
-1.68928717171
 30
0.0
  0
VERTEX
  8
0
 10
-2.23340292684
 20
-1.65332739795
 30
0.0
  0
VERTEX
  8
0
 10
-2.2021600167
 20
-1.61431352253
 30
0.0
  0
VERTEX
  8
0
 10
-2.17467385774
 20
-1.57256770389
 30
0.0
  0
VERTEX
  8
0
 10
-2.15116220495
 20
-1.52846058438
 30
0.0
  0
VERTEX
  8
0
 10
-2.13176711781
 20
-1.48239399922
 30
0.0
  0
VERTEX
  8
0
 10
-2.11655243156
 20
-1.43478200399
 30
0.0
  0
VERTEX
  8
0
 10
-2.10550731541
 20
-1.38603262562
 30
0.0
  0
VERTEX
  8
0
 10
-2.09855477473
 20
-1.33653234331
 30
0.0
  0
VERTEX
  8
0
 10
-2.09556336046
 20
-1.28663453277
 30
0.0
  0
VERTEX
  8
0
 10
-2.09541284404
 20
-1.27247706422
 30
0.0
  0
SEQEND
  8
0
  0
POLYLINE
  8
0
 62
0
 70
0
 66
1
 10
0.0
 20
0.0
 30
0.0
  0
VERTEX
  8
0
 10
-3.73302752294
 20
-2.00779816514
 30
0.0
  0
VERTEX
  8
0
 10
-3.68311202805
 20
-2.00489342525
 30
0.0
  0
VERTEX
  8
0
 10
-3.63321305871
 20
-2.00171751501
 30
0.0
  0
VERTEX
  8
0
 10
-3.58333300009
 20
-1.99825736028
 30
0.0
  0
VERTEX
  8
0
 10
-3.53347446767
 20
-1.99449983413
 30
0.0
  0
VERTEX
  8
0
 10
-3.48364032015
 20
-1.99043175086
 30
0.0
  0
VERTEX
  8
0
 10
-3.43383367265
 20
-1.98603986129
 30
0.0
  0
VERTEX
  8
0
 10
-3.38405791039
 20
-1.98131084952
 30
0.0
  0
VERTEX
  8
0
 10
-3.33431670265
 20
-1.97623133114
 30
0.0
  0
VERTEX
  8
0
 10
-3.28461401704
 20
-1.97078785302
 30
0.0
  0
VERTEX
  8
0
 10
-3.23495413413
 20
-1.96496689473
 30
0.0
  0
VERTEX
  8
0
 10
-3.18534166221
 20
-1.95875487172
 30
0.0
  0
VERTEX
  8
0
 10
-3.13578155224
 20
-1.95213814039
 30
0.0
  0
VERTEX
  8
0
 10
-3.08627911295
 20
-1.94510300508
 30
0.0
  0
VERTEX
  8
0
 10
-3.03684002586
 20
-1.93763572717
 30
0.0
  0
VERTEX
  8
0
 10
-2.98747036021
 20
-1.92972253641
 30
0.0
  0
VERTEX
  8
0
 10
-2.93817658763
 20
-1.9213496445
 30
0.0
  0
VERTEX
  8
0
 10
-2.88896559649
 20
-1.91250326117
 30
0.0
  0
VERTEX
  8
0
 10
-2.83984470556
 20
-1.90316961284
 30
0.0
  0
VERTEX
  8
0
 10
-2.79082167709
 20
-1.8933349638
 30
0.0
  0
VERTEX
  8
0
 10
-2.74190472883
 20
-1.88298564035
 30
0.0
  0
VERTEX
  8
0
 10
-2.69310254493
 20
-1.87210805758
 30
0.0
  0
VERTEX
  8
0
 10
-2.64442428538
 20
-1.86068874919
 30
0.0
  0
VERTEX
  8
0
 10
-2.59587959381
 20
-1.84871440018
 30
0.0
  0
VERTEX
  8
0
 10
-2.54747860332
 20
-1.83617188247
 30
0.0
  0
VERTEX
  8
0
 10
-2.52889908257
 20
-1.83119266055
 30
0.0
  0
SEQEND
  8
0
  0
POLYLINE
  8
0
 62
0
 70
0
 66
1
 10
0.0
 20
0.0
 30
0.0
  0
VERTEX
  8
0
 10
-3.98027522936
 20
-2.26788990826
 30
0.0
  0
VERTEX
  8
0
 10
-3.97631081841
 20
-2.21810240863
 30
0.0
  0
VERTEX
  8
0
 10
-3.96385563079
 20
-2.16975046782
 30
0.0
  0
VERTEX
  8
0
 10
-3.94240505169
 20
-2.1246784284
 30
0.0
  0
VERTEX
  8
0
 10
-3.91215628668
 20
-2.08498386383
 30
0.0
  0
VERTEX
  8
0
 10
-3.87418638332
 20
-2.05259844774
 30
0.0
  0
VERTEX
  8
0
 10
-3.83030716096
 20
-2.02880876885
 30
0.0
  0
VERTEX
  8
0
 10
-3.78262421272
 20
-2.01400759449
 30
0.0
  0
VERTEX
  8
0
 10
-3.73306869828
 20
-2.00779995801
 30
0.0
  0
VERTEX
  8
0
 10
-3.73302752294
 20
-2.00779816514
 30
0.0
  0
SEQEND
  8
0
  0
POLYLINE
  8
0
 62
0
 70
0
 66
1
 10
0.0
 20
0.0
 30
0.0
  0
VERTEX
  8
0
 10
0.389908256881
 20
-2.21330275229
 30
0.0
  0
VERTEX
  8
0
 10
0.354893665422
 20
-2.17761756361
 30
0.0
  0
VERTEX
  8
0
 10
0.321723454092
 20
-2.14021138352
 30
0.0
  0
VERTEX
  8
0
 10
0.29042006575
 20
-2.10122910943
 30
0.0
  0
VERTEX
  8
0
 10
0.260986068799
 20
-2.06081628742
 30
0.0
  0
VERTEX
  8
0
 10
0.233406657707
 20
-2.0191153347
 30
0.0
  0
VERTEX
  8
0
 10
0.207652552573
 20
-1.97626261336
 30
0.0
  0
VERTEX
  8
0
 10
0.183683004962
 20
-1.93238636573
 30
0.0
  0
VERTEX
  8
0
 10
0.161448682369
 20
-1.88760543605
 30
0.0
  0
VERTEX
  8
0
 10
0.14089428176
 20
-1.84202865181
 30
0.0
  0
VERTEX
  8
0
 10
0.121960792329
 20
-1.79575471966
 30
0.0
  0
VERTEX
  8
0
 10
0.104587379029
 20
-1.74887249718
 30
0.0
  0
VERTEX
  8
0
 10
0.0887128988666
 20
-1.70146151751
 30
0.0
  0
VERTEX
  8
0
 10
0.0742770852856
 20
-1.65359266774
 30
0.0
  0
VERTEX
  8
0
 10
0.0612214455329
 20
-1.60532894564
 30
0.0
  0
VERTEX
  8
0
 10
0.0494899203991
 20
-1.55672624033
 30
0.0
  0
VERTEX
  8
0
 10
0.0390293545859
 20
-1.50783409996
 30
0.0
  0
VERTEX
  8
0
 10
0.0297898208403
 20
-1.45869646309
 30
0.0
  0
VERTEX
  8
0
 10
0.0217248349941
 20
-1.40935234118
 30
0.0
  0
VERTEX
  8
0
 10
0.0147914948723
 20
-1.35983644629
 30
0.0
  0
VERTEX
  8
0
 10
0.00895057008521
 20
-1.3101797635
 30
0.0
  0
VERTEX
  8
0
 10
0.00416656580146
 20
-1.26041007122
 30
0.0
  0
VERTEX
  8
0
 10
0.000407781147555
 20
-1.21055241438
 30
0.0
  0
VERTEX
  8
0
 10
-0.002353619317
 20
-1.16062953772
 30
0.0
  0
VERTEX
  8
0
 10
-0.0041415026293
 20
-1.11066228732
 30
0.0
  0
VERTEX
  8
0
 10
-0.00497561275857
 20
-1.06066999011
 30
0.0
  0
VERTEX
  8
0
 10
-0.00504587155963
 20
-1.04128440367
 30
0.0
  0
SEQEND
  8
0
  0
POLYLINE
  8
0
 62
0
 70
0
 66
1
 10
0.0
 20
0.0
 30
0.0
  0
VERTEX
  8
0
 10
2.77568807339
 20
-2.93899082569
 30
0.0
  0
VERTEX
  8
0
 10
2.72570244405
 20
-2.93779352556
 30
0.0
  0
VERTEX
  8
0
 10
2.67572222317
 20
-2.93638865686
 30
0.0
  0
VERTEX
  8
0
 10
2.6257487733
 20
-2.9347608156
 30
0.0
  0
VERTEX
  8
0
 10
2.5757836672
 20
-2.93289450594
 30
0.0
  0
VERTEX
  8
0
 10
2.52582870595
 20
-2.93077410096
 30
0.0
  0
VERTEX
  8
0
 10
2.47588593834
 20
-2.92838380491
 30
0.0
  0
VERTEX
  8
0
 10
2.42595768183
 20
-2.92570761733
 30
0.0
  0
VERTEX
  8
0
 10
2.37604654526
 20
-2.92272929718
 30
0.0
  0
VERTEX
  8
0
 10
2.32615545332
 20
-2.91943232966
 30
0.0
  0
VERTEX
  8
0
 10
2.27628767322
 20
-2.91579989318
 30
0.0
  0
VERTEX
  8
0
 10
2.2264468436
 20
-2.91181482692
 30
0.0
  0
VERTEX
  8
0
 10
2.17663700576
 20
-2.9074596014
 30
0.0
  0
VERTEX
  8
0
 10
2.12686263772
 20
-2.90271628819
 30
0.0
  0
VERTEX
  8
0
 10
2.07712869107
 20
-2.89756653178
 30
0.0
  0
VERTEX
  8
0
 10
2.02744063078
 20
-2.89199152409
 30
0.0
  0
VERTEX
  8
0
 10
1.9778044785
 20
-2.88597197834
 30
0.0
  0
VERTEX
  8
0
 10
1.9282268591
 20
-2.87948810759
 30
0.0
  0
VERTEX
  8
0
 10
1.87871505094
 20
-2.87251960465
 30
0.0
  0
VERTEX
  8
0
 10
1.82927704012
 20
-2.86504562423
 30
0.0
  0
VERTEX
  8
0
 10
1.77992157828
 20
-2.85704477088
 30
0.0
  0
VERTEX
  8
0
 10
1.73065824479
 20
-2.84849508935
 30
0.0
  0
VERTEX
  8
0
 10
1.68149751292
 20
-2.83937406074
 30
0.0
  0
VERTEX
  8
0
 10
1.6324508198
 20
-2.82965860532
 30
0.0
  0
VERTEX
  8
0
 10
1.58353064055
 20
-2.81932509164
 30
0.0
  0
VERTEX
  8
0
 10
1.53475056574
 20
-2.80834935478
 30
0.0
  0
VERTEX
  8
0
 10
1.48612538225
 20
-2.79670672364
 30
0.0
  0
VERTEX
  8
0
 10
1.43767115628
 20
-2.78437206051
 30
0.0
  0
VERTEX
  8
0
 10
1.3894053184
 20
-2.7713198127
 30
0.0
  0
VERTEX
  8
0
 10
1.34134674903
 20
-2.75752407847
 30
0.0
  0
VERTEX
  8
0
 10
1.2935158625
 20
-2.74295869171
 30
0.0
  0
VERTEX
  8
0
 10
1.24593468908
 20
-2.72759732186
 30
0.0
  0
VERTEX
  8
0
 10
1.19862695167
 20
-2.71141359562
 30
0.0
  0
VERTEX
  8
0
 10
1.15161813388
 20
-2.69438124267
 30
0.0
  0
VERTEX
  8
0
 10
1.10493553877
 20
-2.6764742604
 30
0.0
  0
VERTEX
  8
0
 10
1.05860833195
 20
-2.65766710653
 30
0.0
  0
VERTEX
  8
0
 10
1.01266756507
 20
-2.63793491871
 30
0.0
  0
VERTEX
  8
0
 10
0.967146178084
 20
-2.61725375444
 30
0.0
  0
VERTEX
  8
0
 10
0.92207897171
 20
-2.59560085948
 30
0.0
  0
VERTEX
  8
0
 10
0.87750254583
 20
-2.57295496013
 30
0.0
  0
VERTEX
  8
0
 10
0.833455201879
 20
-2.54929656999
 30
0.0
  0
VERTEX
  8
0
 10
0.789976800665
 20
-2.52460831509
 30
0.0
  0
VERTEX
  8
0
 10
0.74710857238
 20
-2.49887526861
 30
0.0
  0
VERTEX
  8
0
 10
0.704892878976
 20
-2.47208528219
 30
0.0
  0
VERTEX
  8
0
 10
0.663372924091
 20
-2.44422931104
 30
0.0
  0
VERTEX
  8
0
 10
0.622592411371
 20
-2.41530172082
 30
0.0
  0
VERTEX
  8
0
 10
0.582595156868
 20
-2.38530056065
 30
0.0
  0
VERTEX
  8
0
 10
0.54342465862
 20
-2.35422779435
 30
0.0
  0
VERTEX
  8
0
 10
0.505123631268
 20
-2.322089478
 30
0.0
  0
VERTEX
  8
0
 10
0.467733518969
 20
-2.28889587045
 30
0.0
  0
VERTEX
  8
0
 10
0.431293998092
 20
-2.25466147022
 30
0.0
  0
VERTEX
  8
0
 10
0.395842486507
 20
-2.21940497076
 30
0.0
  0
VERTEX
  8
0
 10
0.389908256881
 20
-2.21330275229
 30
0.0
  0
SEQEND
  8
0
  0
POLYLINE
  8
0
 62
0
 70
0
 66
1
 10
0.0
 20
0.0
 30
0.0
  0
VERTEX
  8
0
 10
2.9619266055
 20
-2.86513761468
 30
0.0
  0
VERTEX
  8
0
 10
2.92409219019
 20
-2.89767836218
 30
0.0
  0
VERTEX
  8
0
 10
2.88016649426
 20
-2.92136185797
 30
0.0
  0
VERTEX
  8
0
 10
2.83223464416
 20
-2.93527259089
 30
0.0
  0
VERTEX
  8
0
 10
2.78247219365
 20
-2.93921065868
 30
0.0
  0
VERTEX
  8
0
 10
2.77568807339
 20
-2.93899082569
 30
0.0
  0
SEQEND
  8
0
  0
POLYLINE
  8
0
 62
0
 70
0
 66
1
 10
0.0
 20
0.0
 30
0.0
  0
VERTEX
  8
0
 10
3.04220183486
 20
-2.67889908257
 30
0.0
  0
VERTEX
  8
0
 10
3.03737530111
 20
-2.72858688406
 30
0.0
  0
VERTEX
  8
0
 10
3.02303018755
 20
-2.77640197672
 30
0.0
  0
VERTEX
  8
0
 10
2.99964987373
 20
-2.82050766882
 30
0.0
  0
VERTEX
  8
0
 10
2.96807674268
 20
-2.85917278647
 30
0.0
  0
VERTEX
  8
0
 10
2.9619266055
 20
-2.86513761468
 30
0.0
  0
SEQEND
  8
0
  0
POLYLINE
  8
0
 62
0
 70
0
 66
1
 10
0.0
 20
0.0
 30
0.0
  0
VERTEX
  8
0
 10
2.79174311927
 20
-2.00779816514
 30
0.0
  0
VERTEX
  8
0
 10
2.84130352999
 20
-2.01397446984
 30
0.0
  0
VERTEX
  8
0
 10
2.88903684445
 20
-2.02862223562
 30
0.0
  0
VERTEX
  8
0
 10
2.93310417074
 20
-2.05207092324
 30
0.0
  0
VERTEX
  8
0
 10
2.971492572
 20
-2.08396567671
 30
0.0
  0
VERTEX
  8
0
 10
3.00239440908
 20
-2.1231564799
 30
0.0
  0
VERTEX
  8
0
 10
3.0246102262
 20
-2.1678551846
 30
0.0
  0
VERTEX
  8
0
 10
3.03775792863
 20
-2.21602021293
 30
0.0
  0
VERTEX
  8
0
 10
3.04219472694
 20
-2.26576404169
 30
0.0
  0
VERTEX
  8
0
 10
3.04220183486
 20
-2.26788990826
 30
0.0
  0
SEQEND
  8
0
  0
POLYLINE
  8
0
 62
0
 70
0
 66
1
 10
0.0
 20
0.0
 30
0.0
  0
VERTEX
  8
0
 10
1.34678899083
 20
-1.53577981651
 30
0.0
  0
VERTEX
  8
0
 10
1.38289654677
 20
-1.57036099457
 30
0.0
  0
VERTEX
  8
0
 10
1.42044764196
 20
-1.60336921197
 30
0.0
  0
VERTEX
  8
0
 10
1.45934614713
 20
-1.63477861677
 30
0.0
  0
VERTEX
  8
0
 10
1.49949168743
 20
-1.66457794599
 30
0.0
  0
VERTEX
  8
0
 10
1.5407822071
 20
-1.69276977733
 30
0.0
  0
VERTEX
  8
0
 10
1.58311628166
 20
-1.71936931792
 30
0.0
  0
VERTEX
  8
0
 10
1.62639507638
 20
-1.74440287155
 30
0.0
  0
VERTEX
  8
0
 10
1.67052389945
 20
-1.7679061283
 30
0.0
  0
VERTEX
  8
0
 10
1.71541334328
 20
-1.78992240523
 30
0.0
  0
VERTEX
  8
0
 10
1.76098004046
 20
-1.81050094175
 30
0.0
  0
VERTEX
  8
0
 10
1.80714708355
 20
-1.82969532418
 30
0.0
  0
VERTEX
  8
0
 10
1.8538441677
 20
-1.8475620863
 30
0.0
  0
VERTEX
  8
0
 10
1.90100751782
 20
-1.86415950827
 30
0.0
  0
VERTEX
  8
0
 10
1.94857965789
 20
-1.87954661781
 30
0.0
  0
VERTEX
  8
0
 10
1.99650907226
 20
-1.89378238475
 30
0.0
  0
VERTEX
  8
0
 10
2.04474980044
 20
-1.90692509163
 30
0.0
  0
VERTEX
  8
0
 10
2.09326099766
 20
-1.9190318592
 30
0.0
  0
VERTEX
  8
0
 10
2.14200648546
 20
-1.93015830413
 30
0.0
  0
VERTEX
  8
0
 10
2.19095430964
 20
-1.94035830696
 30
0.0
  0
VERTEX
  8
0
 10
2.24007631722
 20
-1.94968387003
 30
0.0
  0
VERTEX
  8
0
 10
2.28934775981
 20
-1.95818504775
 30
0.0
  0
VERTEX
  8
0
 10
2.33874692724
 20
-1.96590993382
 30
0.0
  0
VERTEX
  8
0
 10
2.38825481329
 20
-1.97290469276
 30
0.0
  0
VERTEX
  8
0
 10
2.4378548133
 20
-1.97921362548
 30
0.0
  0
VERTEX
  8
0
 10
2.48753245269
 20
-1.98487926068
 30
0.0
  0
VERTEX
  8
0
 10
2.53727514448
 20
-1.98994246551
 30
0.0
  0
VERTEX
  8
0
 10
2.58707197366
 20
-1.99444257092
 30
0.0
  0
VERTEX
  8
0
 10
2.63691350603
 20
-1.99841750796
 30
0.0
  0
VERTEX
  8
0
 10
2.68679161909
 20
-2.00190395269
 30
0.0
  0
VERTEX
  8
0
 10
2.73669935257
 20
-2.00493747832
 30
0.0
  0
VERTEX
  8
0
 10
2.78663077644
 20
-2.00755271365
 30
0.0
  0
VERTEX
  8
0
 10
2.79174311927
 20
-2.00779816514
 30
0.0
  0
SEQEND
  8
0
  0
POLYLINE
  8
0
 62
0
 70
0
 66
1
 10
0.0
 20
0.0
 30
0.0
  0
VERTEX
  8
0
 10
1.15733944954
 20
-1.04128440367
 30
0.0
  0
VERTEX
  8
0
 10
1.15891939922
 20
-1.09125120533
 30
0.0
  0
VERTEX
  8
0
 10
1.16359715268
 20
-1.14102397654
 30
0.0
  0
VERTEX
  8
0
 10
1.17133047198
 20
-1.19041425541
 30
0.0
  0
VERTEX
  8
0
 10
1.18213397868
 20
-1.2392245813
 30
0.0
  0
VERTEX
  8
0
 10
1.19606810154
 20
-1.28723427124
 30
0.0
  0
VERTEX
  8
0
 10
1.21322902573
 20
-1.33418620169
 30
0.0
  0
VERTEX
  8
0
 10
1.23373713429
 20
-1.37977403697
 30
0.0
  0
VERTEX
  8
0
 10
1.25772133676
 20
-1.42363064246
 30
0.0
  0
VERTEX
  8
0
 10
1.28529669985
 20
-1.46532012775
 30
0.0
  0
VERTEX
  8
0
 10
1.31653364468
 20
-1.50433814991
 30
0.0
  0
VERTEX
  8
0
 10
1.34678899083
 20
-1.53577981651
 30
0.0
  0
SEQEND
  8
0
  0
POLYLINE
  8
0
 62
0
 70
0
 66
1
 10
0.0
 20
0.0
 30
0.0
  0
VERTEX
  8
0
 10
1.59082568807
 20
1.70091743119
 30
0.0
  0
VERTEX
  8
0
 10
1.54319608209
 20
1.68574522764
 30
0.0
  0
VERTEX
  8
0
 10
1.49690071055
 20
1.66689297146
 30
0.0
  0
VERTEX
  8
0
 10
1.45229295603
 20
1.64433819057
 30
0.0
  0
VERTEX
  8
0
 10
1.40973918966
 20
1.61811492314
 30
0.0
  0
VERTEX
  8
0
 10
1.36960654725
 20
1.58831922809
 30
0.0
  0
VERTEX
  8
0
 10
1.33224898673
 20
1.55511116298
 30
0.0
  0
VERTEX
  8
0
 10
1.29799290071
 20
1.51871256892
 30
0.0
  0
VERTEX
  8
0
 10
1.26712377418
 20
1.47940057127
 30
0.0
  0
VERTEX
  8
0
 10
1.23987530591
 20
1.43749734314
 30
0.0
  0
VERTEX
  8
0
 10
1.2164220575
 20
1.39335722133
 30
0.0
  0
VERTEX
  8
0
 10
1.19687614868
 20
1.34735257774
 30
0.0
  0
VERTEX
  8
0
 10
1.18128792863
 20
1.29985987756
 30
0.0
  0
VERTEX
  8
0
 10
1.16965005871
 20
1.25124713184
 30
0.0
  0
VERTEX
  8
0
 10
1.16190413236
 20
1.20186357276
 30
0.0
  0
VERTEX
  8
0
 10
1.15794884922
 20
1.15203195761
 30
0.0
  0
VERTEX
  8
0
 10
1.15733944954
 20
1.12293577982
 30
0.0
  0
SEQEND
  8
0
  0
POLYLINE
  8
0
 62
0
 70
0
 66
1
 10
0.0
 20
0.0
 30
0.0
  0
VERTEX
  8
0
 10
2.79495412844
 20
1.88073394495
 30
0.0
  0
VERTEX
  8
0
 10
2.74503827688
 20
1.87783558625
 30
0.0
  0
VERTEX
  8
0
 10
2.69514078821
 20
1.87463671296
 30
0.0
  0
VERTEX
  8
0
 10
2.6452642471
 20
1.87112640858
 30
0.0
  0
VERTEX
  8
0
 10
2.59541144941
 20
1.86729371364
 30
0.0
  0
VERTEX
  8
0
 10
2.54558541093
 20
1.86312763026
 30
0.0
  0
VERTEX
  8
0
 10
2.49578937619
 20
1.85861712749
 30
0.0
  0
VERTEX
  8
0
 10
2.44602682723
 20
1.85375114799
 30
0.0
  0
VERTEX
  8
0
 10
2.39630149226
 20
1.84851861555
 30
0.0
  0
VERTEX
  8
0
 10
2.34661735411
 20
1.84290844403
 30
0.0
  0
VERTEX
  8
0
 10
2.29697865856
 20
1.83690954739
 30
0.0
  0
VERTEX
  8
0
 10
2.24738992229
 20
1.83051085099
 30
0.0
  0
VERTEX
  8
0
 10
2.19785594048
 20
1.82370130427
 30
0.0
  0
VERTEX
  8
0
 10
2.14838179398
 20
1.81646989478
 30
0.0
  0
VERTEX
  8
0
 10
2.09897285587
 20
1.80880566346
 30
0.0
  0
VERTEX
  8
0
 10
2.04963479739
 20
1.80069772155
 30
0.0
  0
VERTEX
  8
0
 10
2.00037359314
 20
1.7921352687
 30
0.0
  0
VERTEX
  8
0
 10
1.9511955253
 20
1.78310761266
 30
0.0
  0
VERTEX
  8
0
 10
1.90210718697
 20
1.77360419032
 30
0.0
  0
VERTEX
  8
0
 10
1.85311548427
 20
1.76361459007
 30
0.0
  0
VERTEX
  8
0
 10
1.8042276373
 20
1.75312857566
 30
0.0
  0
VERTEX
  8
0
 10
1.75545117962
 20
1.74213611122
 30
0.0
  0
VERTEX
  8
0
 10
1.70679395626
 20
1.73062738751
 30
0.0
  0
VERTEX
  8
0
 10
1.65826412012
 20
1.71859284933
 30
0.0
  0
VERTEX
  8
0
 10
1.60987012657
 20
1.70602322389
 30
0.0
  0
VERTEX
  8
0
 10
1.59082568807
 20
1.70091743119
 30
0.0
  0
SEQEND
  8
0
  0
POLYLINE
  8
0
 62
0
 70
0
 66
1
 10
0.0
 20
0.0
 30
0.0
  0
VERTEX
  8
0
 10
3.04220183486
 20
2.14082568807
 30
0.0
  0
VERTEX
  8
0
 10
3.03812415827
 20
2.09105032864
 30
0.0
  0
VERTEX
  8
0
 10
3.02539359785
 20
2.04277200164
 30
0.0
  0
VERTEX
  8
0
 10
3.00364727593
 20
1.99784126452
 30
0.0
  0
VERTEX
  8
0
 10
2.97322158469
 20
1.9582783275
 30
0.0
  0
VERTEX
  8
0
 10
2.93523736333
 20
1.92590384034
 30
0.0
  0
VERTEX
  8
0
 10
2.8914339474
 20
1.90197035113
 30
0.0
  0
VERTEX
  8
0
 10
2.84381305757
 20
1.88697321999
 30
0.0
  0
VERTEX
  8
0
 10
2.79495412844
 20
1.88073394495
 30
0.0
  0
SEQEND
  8
0
  0
POLYLINE
  8
0
 62
0
 70
0
 66
1
 10
0.0
 20
0.0
 30
0.0
  0
VERTEX
  8
0
 10
2.9619266055
 20
2.74128440367
 30
0.0
  0
VERTEX
  8
0
 10
2.99420087884
 20
2.7031739669
 30
0.0
  0
VERTEX
  8
0
 10
3.01914345107
 20
2.65992528624
 30
0.0
  0
VERTEX
  8
0
 10
3.03527847181
 20
2.61268581731
 30
0.0
  0
VERTEX
  8
0
 10
3.04197099672
 20
2.56321164531
 30
0.0
  0
VERTEX
  8
0
 10
3.04220183486
 20
2.55183486239
 30
0.0
  0
SEQEND
  8
0
  0
POLYLINE
  8
0
 62
0
 70
0
 66
1
 10
0.0
 20
0.0
 30
0.0
  0
VERTEX
  8
0
 10
2.77247706422
 20
2.81513761468
 30
0.0
  0
VERTEX
  8
0
 10
2.82222584634
 20
2.81081055775
 30
0.0
  0
VERTEX
  8
0
 10
2.87042999936
 20
2.79778594702
 30
0.0
  0
VERTEX
  8
0
 10
2.91548275662
 20
2.77626312337
 30
0.0
  0
VERTEX
  8
0
 10
2.95581925848
 20
2.74683799906
 30
0.0
  0
VERTEX
  8
0
 10
2.9619266055
 20
2.74128440367
 30
0.0
  0
SEQEND
  8
0
  0
POLYLINE
  8
0
 62
0
 70
0
 66
1
 10
0.0
 20
0.0
 30
0.0
  0
VERTEX
  8
0
 10
0.964678899083
 20
2.52293577982
 30
0.0
  0
VERTEX
  8
0
 10
1.01178834931
 20
2.53968878102
 30
0.0
  0
VERTEX
  8
0
 10
1.05911399178
 20
2.55582099079
 30
0.0
  0
VERTEX
  8
0
 10
1.10664397596
 20
2.57134086583
 30
0.0
  0
VERTEX
  8
0
 10
1.15436675784
 20
2.58625741049
 30
0.0
  0
VERTEX
  8
0
 10
1.20227112184
 20
2.60058013455
 30
0.0
  0
VERTEX
  8
0
 10
1.25034619942
 20
2.61431901099
 30
0.0
  0
VERTEX
  8
0
 10
1.29858148451
 20
2.62748443424
 30
0.0
  0
VERTEX
  8
0
 10
1.34696684582
 20
2.6400871794
 30
0.0
  0
VERTEX
  8
0
 10
1.39549253613
 20
2.65213836246
 30
0.0
  0
VERTEX
  8
0
 10
1.44414919902
 20
2.66364940196
 30
0.0
  0
VERTEX
  8
0
 10
1.49292787286
 20
2.67463198226
 30
0.0
  0
VERTEX
  8
0
 10
1.54181999258
 20
2.68509801849
 30
0.0
  0
VERTEX
  8
0
 10
1.59081738923
 20
2.69505962342
 30
0.0
  0
VERTEX
  8
0
 10
1.63991228761
 20
2.7045290764
 30
0.0
  0
VERTEX
  8
0
 10
1.68909730227
 20
2.7135187942
 30
0.0
  0
VERTEX
  8
0
 10
1.73836543184
 20
2.72204130409
 30
0.0
  0
VERTEX
  8
0
 10
1.78771005219
 20
2.73010921891
 30
0.0
  0
VERTEX
  8
0
 10
1.83712490833
 20
2.73773521432
 30
0.0
  0
VERTEX
  8
0
 10
1.88660410542
 20
2.7449320081
 30
0.0
  0
VERTEX
  8
0
 10
1.93614209894
 20
2.75171234146
 30
0.0
  0
VERTEX
  8
0
 10
1.98573368423
 20
2.75808896236
 30
0.0
  0
VERTEX
  8
0
 10
2.03537398548
 20
2.76407461068
 30
0.0
  0
VERTEX
  8
0
 10
2.08505844435
 20
2.76968200527
 30
0.0
  0
VERTEX
  8
0
 10
2.1347828083
 20
2.77492383271
 30
0.0
  0
VERTEX
  8
0
 10
2.18454311877
 20
2.77981273784
 30
0.0
  0
VERTEX
  8
0
 10
2.23433569917
 20
2.78436131573
 30
0.0
  0
VERTEX
  8
0
 10
2.28415714292
 20
2.78858210527
 30
0.0
  0
VERTEX
  8
0
 10
2.33400430156
 20
2.7924875841
 30
0.0
  0
VERTEX
  8
0
 10
2.38387427285
 20
2.79609016494
 30
0.0
  0
VERTEX
  8
0
 10
2.4337643891
 20
2.79940219308
 30
0.0
  0
VERTEX
  8
0
 10
2.48367220565
 20
2.80243594508
 30
0.0
  0
VERTEX
  8
0
 10
2.53359548958
 20
2.80520362857
 30
0.0
  0
VERTEX
  8
0
 10
2.58353220858
 20
2.80771738309
 30
0.0
  0
VERTEX
  8
0
 10
2.63348052018
 20
2.80998928182
 30
0.0
  0
VERTEX
  8
0
 10
2.68343876112
 20
2.81203133426
 30
0.0
  0
VERTEX
  8
0
 10
2.7334054371
 20
2.81385548974
 30
0.0
  0
VERTEX
  8
0
 10
2.77247706422
 20
2.81513761468
 30
0.0
  0
SEQEND
  8
0
  0
POLYLINE
  8
0
 62
0
 70
0
 66
1
 10
0.0
 20
0.0
 30
0.0
  0
VERTEX
  8
0
 10
-0.00504587155963
 20
1.12293577982
 30
0.0
  0
VERTEX
  8
0
 10
-0.00431706914226
 20
1.17292868586
 30
0.0
  0
VERTEX
  8
0
 10
-0.00211295225859
 20
1.22287822966
 30
0.0
  0
VERTEX
  8
0
 10
0.00159171957669
 20
1.27273887238
 30
0.0
  0
VERTEX
  8
0
 10
0.00682021756938
 20
1.32246275334
 30
0.0
  0
VERTEX
  8
0
 10
0.0135935815075
 20
1.3719997735
 30
0.0
  0
VERTEX
  8
0
 10
0.0219303557695
 20
1.42129770868
 30
0.0
  0
VERTEX
  8
0
 10
0.0318463264703
 20
1.47030235414
 30
0.0
  0
VERTEX
  8
0
 10
0.04335426408
 20
1.5189577017
 30
0.0
  0
VERTEX
  8
0
 10
0.0564636761524
 20
1.56720614988
 30
0.0
  0
VERTEX
  8
0
 10
0.0711805750801
 20
1.61498874686
 30
0.0
  0
VERTEX
  8
0
 10
0.0875072662448
 20
1.66224546531
 30
0.0
  0
VERTEX
  8
0
 10
0.10544216156
 20
1.70891550711
 30
0.0
  0
VERTEX
  8
0
 10
0.124979623587
 20
1.75493763529
 30
0.0
  0
VERTEX
  8
0
 10
0.146109845048
 20
1.80025052937
 30
0.0
  0
VERTEX
  8
0
 10
0.168818768043
 20
1.84479315958
 30
0.0
  0
VERTEX
  8
0
 10
0.193088046577
 20
1.8885051745
 30
0.0
  0
VERTEX
  8
0
 10
0.218895055194
 20
1.93132729593
 30
0.0
  0
VERTEX
  8
0
 10
0.246212945471
 20
1.97320171459
 30
0.0
  0
VERTEX
  8
0
 10
0.275010750983
 20
2.01407247941
 30
0.0
  0
VERTEX
  8
0
 10
0.305253540182
 20
2.05388587347
 30
0.0
  0
VERTEX
  8
0
 10
0.336902615344
 20
2.09259076972
 30
0.0
  0
VERTEX
  8
0
 10
0.369915754576
 20
2.13013895978
 30
0.0
  0
VERTEX
  8
0
 10
0.404247492723
 20
2.16648544998
 30
0.0
  0
VERTEX
  8
0
 10
0.439849436042
 20
2.20158871949
 30
0.0
  0
VERTEX
  8
0
 10
0.476670604719
 20
2.2354109365
 30
0.0
  0
VERTEX
  8
0
 10
0.514657796694
 20
2.26791812942
 30
0.0
  0
VERTEX
  8
0
 10
0.553755965943
 20
2.29908031129
 30
0.0
  0
VERTEX
  8
0
 10
0.593908608225
 20
2.32887155692
 30
0.0
  0
VERTEX
  8
0
 10
0.635058147428
 20
2.35727003337
 30
0.0
  0
VERTEX
  8
0
 10
0.67714631606
 20
2.38425798542
 30
0.0
  0
VERTEX
  8
0
 10
0.720114523901
 20
2.40982167885
 30
0.0
  0
VERTEX
  8
0
 10
0.763904209557
 20
2.43395130492
 30
0.0
  0
VERTEX
  8
0
 10
0.808457170456
 20
2.45664085029
 30
0.0
  0
VERTEX
  8
0
 10
0.853715867673
 20
2.47788793694
 30
0.0
  0
VERTEX
  8
0
 10
0.899623702869
 20
2.49769363697
 30
0.0
  0
VERTEX
  8
0
 10
0.946125265837
 20
2.5160622665
 30
0.0
  0
VERTEX
  8
0
 10
0.964678899083
 20
2.52293577982
 30
0.0
  0
SEQEND
  8
0
  0
POLYLINE
  8
0
 62
0
 70
0
 66
1
 10
0.0
 20
0.0
 30
0.0
  0
VERTEX
  8
0
 10
3.62339449541
 20
-2.26788990826
 30
0.0
  0
VERTEX
  8
0
 10
3.62735890636
 20
-2.21810240863
 30
0.0
  0
VERTEX
  8
0
 10
3.63981409398
 20
-2.16975046782
 30
0.0
  0
VERTEX
  8
0
 10
3.66126467308
 20
-2.1246784284
 30
0.0
  0
VERTEX
  8
0
 10
3.69151343809
 20
-2.08498386383
 30
0.0
  0
VERTEX
  8
0
 10
3.72948334146
 20
-2.05259844774
 30
0.0
  0
VERTEX
  8
0
 10
3.77336256381
 20
-2.02880876885
 30
0.0
  0
VERTEX
  8
0
 10
3.82104551205
 20
-2.01400759449
 30
0.0
  0
VERTEX
  8
0
 10
3.87060102649
 20
-2.00779995801
 30
0.0
  0
VERTEX
  8
0
 10
3.87064220183
 20
-2.00779816514
 30
0.0
  0
SEQEND
  8
0
  0
POLYLINE
  8
0
 62
0
 70
0
 66
1
 10
0.0
 20
0.0
 30
0.0
  0
VERTEX
  8
0
 10
3.7004587156
 20
-2.86513761468
 30
0.0
  0
VERTEX
  8
0
 10
3.66788886633
 20
-2.82732555364
 30
0.0
  0
VERTEX
  8
0
 10
3.64393636239
 20
-2.78353740729
 30
0.0
  0
VERTEX
  8
0
 10
3.6291669853
 20
-2.73585007813
 30
0.0
  0
VERTEX
  8
0
 10
3.62348730209
 20
-2.68624123552
 30
0.0
  0
VERTEX
  8
0
 10
3.62339449541
 20
-2.67889908257
 30
0.0
  0
SEQEND
  8
0
  0
POLYLINE
  8
0
 62
0
 70
0
 66
1
 10
0.0
 20
0.0
 30
0.0
  0
VERTEX
  8
0
 10
3.88990825688
 20
-2.93899082569
 30
0.0
  0
VERTEX
  8
0
 10
3.84005610954
 20
-2.93639579253
 30
0.0
  0
VERTEX
  8
0
 10
3.79171665098
 20
-2.92395540737
 30
0.0
  0
VERTEX
  8
0
 10
3.74687257844
 20
-2.90203482613
 30
0.0
  0
VERTEX
  8
0
 10
3.70723875882
 20
-2.87168248654
 30
0.0
  0
VERTEX
  8
0
 10
3.7004587156
 20
-2.86513761468
 30
0.0
  0
SEQEND
  8
0
  0
POLYLINE
  8
0
 62
0
 70
0
 66
1
 10
0.0
 20
0.0
 30
0.0
  0
VERTEX
  8
0
 10
6.27568807339
 20
-2.21330275229
 30
0.0
  0
VERTEX
  8
0
 10
6.24031472332
 20
-2.24863770896
 30
0.0
  0
VERTEX
  8
0
 10
6.20395846488
 20
-2.28296055476
 30
0.0
  0
VERTEX
  8
0
 10
6.16665569652
 20
-2.316252322
 30
0.0
  0
VERTEX
  8
0
 10
6.12844508728
 20
-2.3484981186
 30
0.0
  0
VERTEX
  8
0
 10
6.08936710557
 20
-2.37968718446
 30
0.0
  0
VERTEX
  8
0
 10
6.0494635382
 20
-2.40981286779
 30
0.0
  0
VERTEX
  8
0
 10
6.00877701811
 20
-2.43887253134
 30
0.0
  0
VERTEX
  8
0
 10
5.96735057063
 20
-2.46686739286
 30
0.0
  0
VERTEX
  8
0
 10
5.92522718988
 20
-2.49380231001
 30
0.0
  0
VERTEX
  8
0
 10
5.88244945616
 20
-2.51968552463
 30
0.0
  0
VERTEX
  8
0
 10
5.83905919662
 20
-2.54452837304
 30
0.0
  0
VERTEX
  8
0
 10
5.79509719332
 20
-2.5683449738
 30
0.0
  0
VERTEX
  8
0
 10
5.75060294248
 20
-2.59115190843
 30
0.0
  0
VERTEX
  8
0
 10
5.70561446066
 20
-2.61296789908
 30
0.0
  0
VERTEX
  8
0
 10
5.66016813581
 20
-2.63381349021
 30
0.0
  0
VERTEX
  8
0
 10
5.61429862248
 20
-2.65371074714
 30
0.0
  0
VERTEX
  8
0
 10
5.56803877414
 20
-2.67268297078
 30
0.0
  0
VERTEX
  8
0
 10
5.52141960754
 20
-2.69075443039
 30
0.0
  0
VERTEX
  8
0
 10
5.47447029745
 20
-2.70795012387
 30
0.0
  0
VERTEX
  8
0
 10
5.42721819425
 20
-2.72429556098
 30
0.0
  0
VERTEX
  8
0
 10
5.37968885999
 20
-2.739816568
 30
0.0
  0
VERTEX
  8
0
 10
5.33190612105
 20
-2.75453912094
 30
0.0
  0
VERTEX
  8
0
 10
5.28389213171
 20
-2.76848919963
 30
0.0
  0
VERTEX
  8
0
 10
5.2356674455
 20
-2.78169266166
 30
0.0
  0
VERTEX
  8
0
 10
5.18725109337
 20
-2.79417513989
 30
0.0
  0
VERTEX
  8
0
 10
5.13866066436
 20
-2.80596195591
 30
0.0
  0
VERTEX
  8
0
 10
5.0899123879
 20
-2.81707804963
 30
0.0
  0
VERTEX
  8
0
 10
5.04102121638
 20
-2.82754792553
 30
0.0
  0
VERTEX
  8
0
 10
4.99200090619
 20
-2.83739561013
 30
0.0
  0
VERTEX
  8
0
 10
4.94286409672
 20
-2.84664462167
 30
0.0
  0
VERTEX
  8
0
 10
4.89362238659
 20
-2.85531794958
 30
0.0
  0
VERTEX
  8
0
 10
4.8442864065
 20
-2.8634380424
 30
0.0
  0
VERTEX
  8
0
 10
4.79486588862
 20
-2.87102680369
 30
0.0
  0
VERTEX
  8
0
 10
4.74536973191
 20
-2.87810559287
 30
0.0
  0
VERTEX
  8
0
 10
4.69580606387
 20
-2.88469523319
 30
0.0
  0
VERTEX
  8
0
 10
4.64618229822
 20
-2.89081602305
 30
0.0
  0
VERTEX
  8
0
 10
4.5965051887
 20
-2.89648775081
 30
0.0
  0
VERTEX
  8
0
 10
4.54678087945
 20
-2.90172971479
 30
0.0
  0
VERTEX
  8
0
 10
4.49701495143
 20
-2.90656074337
 30
0.0
  0
VERTEX
  8
0
 10
4.44721246575
 20
-2.91099921905
 30
0.0
  0
VERTEX
  8
0
 10
4.39737800367
 20
-2.91506310485
 30
0.0
  0
VERTEX
  8
0
 10
4.34751570348
 20
-2.91876997026
 30
0.0
  0
VERTEX
  8
0
 10
4.29762929472
 20
-2.92213702105
 30
0.0
  0
VERTEX
  8
0
 10
4.24772212965
 20
-2.92518112929
 30
0.0
  0
VERTEX
  8
0
 10
4.19779721225
 20
-2.92791886399
 30
0.0
  0
VERTEX
  8
0
 10
4.14785722513
 20
-2.93036652472
 30
0.0
  0
VERTEX
  8
0
 10
4.09790455417
 20
-2.93254017452
 30
0.0
  0
VERTEX
  8
0
 10
4.04794131138
 20
-2.93445567519
 30
0.0
  0
VERTEX
  8
0
 10
3.99796935611
 20
-2.9361287239
 30
0.0
  0
VERTEX
  8
0
 10
3.94799031453
 20
-2.93757489056
 30
0.0
  0
VERTEX
  8
0
 10
3.89800559795
 20
-2.93880965734
 30
0.0
  0
VERTEX
  8
0
 10
3.88990825688
 20
-2.93899082569
 30
0.0
  0
SEQEND
  8
0
  0
POLYLINE
  8
0
 62
0
 70
0
 66
1
 10
0.0
 20
0.0
 30
0.0
  0
VERTEX
  8
0
 10
6.66743119266
 20
-1.04128440367
 30
0.0
  0
VERTEX
  8
0
 10
6.66697794684
 20
-1.09128166017
 30
0.0
  0
VERTEX
  8
0
 10
6.66560595081
 20
-1.14126211327
 30
0.0
  0
VERTEX
  8
0
 10
6.66329374441
 20
-1.19120786364
 30
0.0
  0
VERTEX
  8
0
 10
6.66001591109
 20
-1.24109950122
 30
0.0
  0
VERTEX
  8
0
 10
6.65574319724
 20
-1.29091574516
 30
0.0
  0
VERTEX
  8
0
 10
6.65044258218
 20
-1.3406330594
 30
0.0
  0
VERTEX
  8
0
 10
6.64407731726
 20
-1.39022523446
 30
0.0
  0
VERTEX
  8
0
 10
6.63660695201
 20
-1.43966292732
 30
0.0
  0
VERTEX
  8
0
 10
6.62798736444
 20
-1.48891315213
 30
0.0
  0
VERTEX
  8
0
 10
6.61817081495
 20
-1.53793871615
 30
0.0
  0
VERTEX
  8
0
 10
6.60710604635
 20
-1.58669759695
 30
0.0
  0
VERTEX
  8
0
 10
6.59473845612
 20
-1.63514226041
 30
0.0
  0
VERTEX
  8
0
 10
6.58101037262
 20
-1.68321892333
 30
0.0
  0
VERTEX
  8
0
 10
6.56586147326
 20
-1.73086677176
 30
0.0
  0
VERTEX
  8
0
 10
6.54922938739
 20
-1.77801715535
 30
0.0
  0
VERTEX
  8
0
 10
6.53105053297
 20
-1.8245927916
 30
0.0
  0
VERTEX
  8
0
 10
6.51126124012
 20
-1.87050703165
 30
0.0
  0
VERTEX
  8
0
 10
6.48979921
 20
-1.9156632596
 30
0.0
  0
VERTEX
  8
0
 10
6.46660535056
 20
-1.95995452243
 30
0.0
  0
VERTEX
  8
0
 10
6.4416260102
 20
-2.00326351302
 30
0.0
  0
VERTEX
  8
0
 10
6.41481559249
 20
-2.04546304877
 30
0.0
  0
VERTEX
  8
0
 10
6.38613948289
 20
-2.08641719726
 30
0.0
  0
VERTEX
  8
0
 10
6.35557714982
 20
-2.12598318981
 30
0.0
  0
VERTEX
  8
0
 10
6.32312520069
 20
-2.16401421773
 30
0.0
  0
VERTEX
  8
0
 10
6.28880009814
 20
-2.20036312366
 30
0.0
  0
VERTEX
  8
0
 10
6.27568807339
 20
-2.21330275229
 30
0.0
  0
SEQEND
  8
0
  0
POLYLINE
  8
0
 62
0
 70
0
 66
1
 10
0.0
 20
0.0
 30
0.0
  0
VERTEX
  8
0
 10
6.27568807339
 20
0.133944954128
 30
0.0
  0
VERTEX
  8
0
 10
6.31069475792
 20
0.0982521430755
 30
0.0
  0
VERTEX
  8
0
 10
6.34383921046
 20
0.0608232713987
 30
0.0
  0
VERTEX
  8
0
 10
6.37509656904
 20
0.0218042075818
 30
0.0
  0
VERTEX
  8
0
 10
6.40446277761
 20
-0.0186577824188
 30
0.0
  0
VERTEX
  8
0
 10
6.43195210692
 20
-0.0604180678839
 30
0.0
  0
VERTEX
  8
0
 10
6.4575941981
 20
-0.10333782019
 30
0.0
  0
VERTEX
  8
0
 10
6.48143094702
 20
-0.147286280722
 30
0.0
  0
VERTEX
  8
0
 10
6.50351348298
 20
-0.192142194606
 30
0.0
  0
VERTEX
  8
0
 10
6.52389941252
 20
-0.237794536484
 30
0.0
  0
VERTEX
  8
0
 10
6.54265042327
 20
-0.284142678896
 30
0.0
  0
VERTEX
  8
0
 10
6.55983028546
 20
-0.331096150693
 30
0.0
  0
VERTEX
  8
0
 10
6.57550324326
 20
-0.378574117511
 30
0.0
  0
VERTEX
  8
0
 10
6.58973276083
 20
-0.426504692071
 30
0.0
  0
VERTEX
  8
0
 10
6.60258057713
 20
-0.474824156245
 30
0.0
  0
VERTEX
  8
0
 10
6.61410601716
 20
-0.523476154622
 30
0.0
  0
VERTEX
  8
0
 10
6.62436550873
 20
-0.572410900271
 30
0.0
  0
VERTEX
  8
0
 10
6.63341225899
 20
-0.621584418263
 30
0.0
  0
VERTEX
  8
0
 10
6.64129605149
 20
-0.67095784136
 30
0.0
  0
VERTEX
  8
0
 10
6.64806312922
 20
-0.720496764657
 30
0.0
  0
VERTEX
  8
0
 10
6.65375613587
 20
-0.770170660193
 30
0.0
  0
VERTEX
  8
0
 10
6.65841409212
 20
-0.819952349079
 30
0.0
  0
VERTEX
  8
0
 10
6.66207238683
 20
-0.869817526312
 30
0.0
  0
VERTEX
  8
0
 10
6.66476276637
 20
-0.919744331942
 30
0.0
  0
VERTEX
  8
0
 10
6.6665133062
 20
-0.96971296124
 30
0.0
  0
VERTEX
  8
0
 10
6.66734834854
 20
-1.01970530568
 30
0.0
  0
VERTEX
  8
0
 10
6.66743119266
 20
-1.04128440367
 30
0.0
  0
SEQEND
  8
0
  0
POLYLINE
  8
0
 62
0
 70
0
 66
1
 10
0.0
 20
0.0
 30
0.0
  0
VERTEX
  8
0
 10
3.33119266055
 20
0.866055045872
 30
0.0
  0
VERTEX
  8
0
 10
3.38119265884
 20
0.866044138892
 30
0.0
  0
VERTEX
  8
0
 10
3.43119263731
 20
0.865999406817
 30
0.0
  0
VERTEX
  8
0
 10
3.48119254196
 20
0.865903307423
 30
0.0
  0
VERTEX
  8
0
 10
3.53119226661
 20
0.865738855234
 30
0.0
  0
VERTEX
  8
0
 10
3.58119163779
 20
0.8654895365
 30
0.0
  0
VERTEX
  8
0
 10
3.63119040074
 20
0.865139230627
 30
0.0
  0
VERTEX
  8
0
 10
3.68118820602
 20
0.864672140553
 30
0.0
  0
VERTEX
  8
0
 10
3.73118459659
 20
0.864072727585
 30
0.0
  0
VERTEX
  8
0
 10
3.78117899496
 20
0.863325652488
 30
0.0
  0
VERTEX
  8
0
 10
3.8311706903
 20
0.862415720639
 30
0.0
  0
VERTEX
  8
0
 10
3.88115882516
 20
0.861327830631
 30
0.0
  0
VERTEX
  8
0
 10
3.93114238178
 20
0.860046927233
 30
0.0
  0
VERTEX
  8
0
 10
3.9811201677
 20
0.858557955476
 30
0.0
  0
VERTEX
  8
0
 10
4.03109080055
 20
0.856845819305
 30
0.0
  0
VERTEX
  8
0
 10
4.08105269183
 20
0.854895339932
 30
0.0
  0
VERTEX
  8
0
 10
4.13100402961
 20
0.852691218452
 30
0.0
  0
VERTEX
  8
0
 10
4.18094275982
 20
0.850217997747
 30
0.0
  0
VERTEX
  8
0
 10
4.23086656619
 20
0.847460027772
 30
0.0
  0
VERTEX
  8
0
 10
4.28077284851
 20
0.844401430605
 30
0.0
  0
VERTEX
  8
0
 10
4.33065869906
 20
0.841026067566
 30
0.0
  0
VERTEX
  8
0
 10
4.38052087718
 20
0.837317507212
 30
0.0
  0
VERTEX
  8
0
 10
4.43035578152
 20
0.833258993857
 30
0.0
  0
VERTEX
  8
0
 10
4.48015942021
 20
0.828833418674
 30
0.0
  0
VERTEX
  8
0
 10
4.52992737815
 20
0.824023289495
 30
0.0
  0
VERTEX
  8
0
 10
4.57965478204
 20
0.818810705434
 30
0.0
  0
VERTEX
  8
0
 10
4.62933626199
 20
0.813177328504
 30
0.0
  0
VERTEX
  8
0
 10
4.67896591056
 20
0.807104362176
 30
0.0
  0
VERTEX
  8
0
 10
4.72853723793
 20
0.80057252632
 30
0.0
  0
VERTEX
  8
0
 10
4.77804312425
 20
0.793562040049
 30
0.0
  0
VERTEX
  8
0
 10
4.82747576768
 20
0.786052602617
 30
0.0
  0
VERTEX
  8
0
 10
4.87682662926
 20
0.778023381026
 30
0.0
  0
VERTEX
  8
0
 10
4.92608637361
 20
0.769453000495
 30
0.0
  0
VERTEX
  8
0
 10
4.97524480562
 20
0.76031953805
 30
0.0
  0
VERTEX
  8
0
 10
5.02429080397
 20
0.750600526674
 30
0.0
  0
VERTEX
  8
0
 10
5.0732122495
 20
0.740272957715
 30
0.0
  0
VERTEX
  8
0
 10
5.12199595223
 20
0.72931330265
 30
0.0
  0
VERTEX
  8
0
 10
5.17062757238
 20
0.717697529734
 30
0.0
  0
VERTEX
  8
0
 10
5.2190915421
 20
0.705401146521
 30
0.0
  0
VERTEX
  8
0
 10
5.26737098196
 20
0.692399239097
 30
0.0
  0
VERTEX
  8
0
 10
5.31544761966
 20
0.678666538112
 30
0.0
  0
VERTEX
  8
0
 10
5.36330170695
 20
0.664177490394
 30
0.0
  0
VERTEX
  8
0
 10
5.41091193968
 20
0.648906352617
 30
0.0
  0
VERTEX
  8
0
 10
5.4582553827
 20
0.63282730475
 30
0.0
  0
VERTEX
  8
0
 10
5.50530739839
 20
0.615914576252
 30
0.0
  0
VERTEX
  8
0
 10
5.55204159029
 20
0.598142609848
 30
0.0
  0
VERTEX
  8
0
 10
5.59842975107
 20
0.579486225737
 30
0.0
  0
VERTEX
  8
0
 10
5.6444418382
 20
0.559920839107
 30
0.0
  0
VERTEX
  8
0
 10
5.69004595782
 20
0.539422669952
 30
0.0
  0
VERTEX
  8
0
 10
5.73520838704
 20
0.517969008695
 30
0.0
  0
VERTEX
  8
0
 10
5.77989361488
 20
0.495538476869
 30
0.0
  0
VERTEX
  8
0
 10
5.82406442729
 20
0.472111328402
 30
0.0
  0
VERTEX
  8
0
 10
5.86768202635
 20
0.447669754553
 30
0.0
  0
VERTEX
  8
0
 10
5.91070619541
 20
0.422198204634
 30
0.0
  0
VERTEX
  8
0
 10
5.95309551243
 20
0.395683711769
 30
0.0
  0
VERTEX
  8
0
 10
5.99480760876
 20
0.36811620863
 30
0.0
  0
VERTEX
  8
0
 10
6.03579948233
 20
0.339488836907
 30
0.0
  0
VERTEX
  8
0
 10
6.07602785327
 20
0.309798223946
 30
0.0
  0
VERTEX
  8
0
 10
6.11544956713
 20
0.279044729268
 30
0.0
  0
VERTEX
  8
0
 10
6.15402203219
 20
0.247232639727
 30
0.0
  0
VERTEX
  8
0
 10
6.19170368535
 20
0.214370307667
 30
0.0
  0
VERTEX
  8
0
 10
6.22845447369
 20
0.18047022134
 30
0.0
  0
VERTEX
  8
0
 10
6.26423633375
 20
0.145548995608
 30
0.0
  0
VERTEX
  8
0
 10
6.27568807339
 20
0.133944954128
 30
0.0
  0
SEQEND
  8
0
  0
POLYLINE
  8
0
 62
0
 70
0
 66
1
 10
0.0
 20
0.0
 30
0.0
  0
VERTEX
  8
0
 10
1.96330275229
 20
0.911009174312
 30
0.0
  0
VERTEX
  8
0
 10
2.01297305705
 20
0.916740270515
 30
0.0
  0
VERTEX
  8
0
 10
2.06269128551
 20
0.922039481822
 30
0.0
  0
VERTEX
  8
0
 10
2.11245472246
 20
0.926895757349
 30
0.0
  0
VERTEX
  8
0
 10
2.16226040868
 20
0.931297554385
 30
0.0
  0
VERTEX
  8
0
 10
2.21210511687
 20
0.935232821486
 30
0.0
  0
VERTEX
  8
0
 10
2.26198532561
 20
0.938688980167
 30
0.0
  0
VERTEX
  8
0
 10
2.31189719115
 20
0.941652906132
 30
0.0
  0
VERTEX
  8
0
 10
2.36183651669
 20
0.944110910452
 30
0.0
  0
VERTEX
  8
0
 10
2.41179871902
 20
0.946048721875
 30
0.0
  0
VERTEX
  8
0
 10
2.46177879246
 20
0.947451467702
 30
0.0
  0
VERTEX
  8
0
 10
2.51177126965
 20
0.948303654686
 30
0.0
  0
VERTEX
  8
0
 10
2.56177017906
 20
0.948589151744
 30
0.0
  0
VERTEX
  8
0
 10
2.61176899901
 20
0.948291176502
 30
0.0
  0
VERTEX
  8
0
 10
2.66176060805
 20
0.947392276557
 30
0.0
  0
VERTEX
  8
0
 10
2.71173723126
 20
0.945874317172
 30
0.0
  0
VERTEX
  8
0
 10
2.76169038265
 20
0.943718473923
 30
0.0
  0
VERTEX
  8
0
 10
2.81161080316
 20
0.940905223233
 30
0.0
  0
VERTEX
  8
0
 10
2.86148839416
 20
0.937414338031
 30
0.0
  0
VERTEX
  8
0
 10
2.91131214679
 20
0.933224891964
 30
0.0
  0
VERTEX
  8
0
 10
2.96107006672
 20
0.92831526729
 30
0.0
  0
VERTEX
  8
0
 10
3.01074909461
 20
0.922663168668
 30
0.0
  0
VERTEX
  8
0
 10
3.0603350225
 20
0.916245646765
 30
0.0
  0
VERTEX
  8
0
 10
3.10981240695
 20
0.909039133721
 30
0.0
  0
VERTEX
  8
0
 10
3.15916447881
 20
0.901019487073
 30
0.0
  0
VERTEX
  8
0
 10
3.20837305081
 20
0.892162047205
 30
0.0
  0
VERTEX
  8
0
 10
3.25741842471
 20
0.882441712685
 30
0.0
  0
VERTEX
  8
0
 10
3.30627929891
 20
0.871833032027
 30
0.0
  0
VERTEX
  8
0
 10
3.33119266055
 20
0.866055045872
 30
0.0
  0
SEQEND
  8
0
  0
POLYLINE
  8
0
 62
0
 70
0
 66
1
 10
0.0
 20
0.0
 30
0.0
  0
VERTEX
  8
0
 10
1.73532110092
 20
0.654128440367
 30
0.0
  0
VERTEX
  8
0
 10
1.73954002362
 20
0.703888062255
 30
0.0
  0
VERTEX
  8
0
 10
1.75265261438
 20
0.752060430336
 30
0.0
  0
VERTEX
  8
0
 10
1.77490855949
 20
0.796738742979
 30
0.0
  0
VERTEX
  8
0
 10
1.8058224429
 20
0.835921799915
 30
0.0
  0
VERTEX
  8
0
 10
1.8441539875
 20
0.867888171714
 30
0.0
  0
VERTEX
  8
0
 10
1.88812635455
 20
0.891517752037
 30
0.0
  0
VERTEX
  8
0
 10
1.93578196855
 20
0.906417420347
 30
0.0
  0
VERTEX
  8
0
 10
1.96330275229
 20
0.911009174312
 30
0.0
  0
SEQEND
  8
0
  0
POLYLINE
  8
0
 62
0
 70
0
 66
1
 10
0.0
 20
0.0
 30
0.0
  0
VERTEX
  8
0
 10
1.8380733945
 20
-0.0169724770642
 30
0.0
  0
VERTEX
  8
0
 10
1.80185080832
 20
0.0174055546295
 30
0.0
  0
VERTEX
  8
0
 10
1.77222447549
 20
0.0575975832501
 30
0.0
  0
VERTEX
  8
0
 10
1.75059933229
 20
0.102593738724
 30
0.0
  0
VERTEX
  8
0
 10
1.73816953778
 20
0.150938375672
 30
0.0
  0
VERTEX
  8
0
 10
1.73532110092
 20
0.188532110092
 30
0.0
  0
SEQEND
  8
0
  0
POLYLINE
  8
0
 62
0
 70
0
 66
1
 10
0.0
 20
0.0
 30
0.0
  0
VERTEX
  8
0
 10
2.0628440367
 20
-0.0651376146789
 30
0.0
  0
VERTEX
  8
0
 10
2.01346067911
 20
-0.0725422482113
 30
0.0
  0
VERTEX
  8
0
 10
1.96356620745
 20
-0.0708112685581
 30
0.0
  0
VERTEX
  8
0
 10
1.91496273422
 20
-0.0594335698873
 30
0.0
  0
VERTEX
  8
0
 10
1.86958288455
 20
-0.0386386588496
 30
0.0
  0
VERTEX
  8
0
 10
1.8380733945
 20
-0.0169724770642
 30
0.0
  0
SEQEND
  8
0
  0
POLYLINE
  8
0
 62
0
 70
0
 66
1
 10
0.0
 20
0.0
 30
0.0
  0
VERTEX
  8
0
 10
3.33119266055
 20
-0.0651376146789
 30
0.0
  0
VERTEX
  8
0
 10
3.28119266055
 20
-0.0651376146789
 30
0.0
  0
VERTEX
  8
0
 10
3.23119266055
 20
-0.0651376146789
 30
0.0
  0
VERTEX
  8
0
 10
3.18119266055
 20
-0.0651376146789
 30
0.0
  0
VERTEX
  8
0
 10
3.13119266055
 20
-0.0651376146789
 30
0.0
  0
VERTEX
  8
0
 10
3.08119266055
 20
-0.0651376146789
 30
0.0
  0
VERTEX
  8
0
 10
3.03119266055
 20
-0.0651376146789
 30
0.0
  0
VERTEX
  8
0
 10
2.98119266055
 20
-0.0651376146789
 30
0.0
  0
VERTEX
  8
0
 10
2.93119266055
 20
-0.0651376146789
 30
0.0
  0
VERTEX
  8
0
 10
2.88119266055
 20
-0.0651376146789
 30
0.0
  0
VERTEX
  8
0
 10
2.83119266055
 20
-0.0651376146789
 30
0.0
  0
VERTEX
  8
0
 10
2.78119266055
 20
-0.0651376146789
 30
0.0
  0
VERTEX
  8
0
 10
2.73119266055
 20
-0.0651376146789
 30
0.0
  0
VERTEX
  8
0
 10
2.68119266055
 20
-0.0651376146789
 30
0.0
  0
VERTEX
  8
0
 10
2.63119266055
 20
-0.0651376146789
 30
0.0
  0
VERTEX
  8
0
 10
2.58119266055
 20
-0.0651376146789
 30
0.0
  0
VERTEX
  8
0
 10
2.53119266055
 20
-0.0651376146789
 30
0.0
  0
VERTEX
  8
0
 10
2.48119266055
 20
-0.0651376146789
 30
0.0
  0
VERTEX
  8
0
 10
2.43119266055
 20
-0.0651376146789
 30
0.0
  0
VERTEX
  8
0
 10
2.38119266055
 20
-0.0651376146789
 30
0.0
  0
VERTEX
  8
0
 10
2.33119266055
 20
-0.0651376146789
 30
0.0
  0
VERTEX
  8
0
 10
2.28119266055
 20
-0.0651376146789
 30
0.0
  0
VERTEX
  8
0
 10
2.23119266055
 20
-0.0651376146789
 30
0.0
  0
VERTEX
  8
0
 10
2.18119266055
 20
-0.0651376146789
 30
0.0
  0
VERTEX
  8
0
 10
2.13119266055
 20
-0.0651376146789
 30
0.0
  0
VERTEX
  8
0
 10
2.08119266055
 20
-0.0651376146789
 30
0.0
  0
VERTEX
  8
0
 10
2.0628440367
 20
-0.0651376146789
 30
0.0
  0
SEQEND
  8
0
  0
POLYLINE
  8
0
 62
0
 70
0
 66
1
 10
0.0
 20
0.0
 30
0.0
  0
VERTEX
  8
0
 10
5.31880733945
 20
-0.546788990826
 30
0.0
  0
VERTEX
  8
0
 10
5.28270767964
 20
-0.51219945391
 30
0.0
  0
VERTEX
  8
0
 10
5.24517793084
 20
-0.479166865602
 30
0.0
  0
VERTEX
  8
0
 10
5.20631083508
 20
-0.44771851492
 30
0.0
  0
VERTEX
  8
0
 10
5.16620364616
 20
-0.417867517522
 30
0.0
  0
VERTEX
  8
0
 10
5.12495566074
 20
-0.389613436079
 30
0.0
  0
VERTEX
  8
0
 10
5.08266596245
 20
-0.362943361971
 30
0.0
  0
VERTEX
  8
0
 10
5.03943148318
 20
-0.337833328393
 30
0.0
  0
VERTEX
  8
0
 10
4.99534543857
 20
-0.314249920383
 30
0.0
  0
VERTEX
  8
0
 10
4.95049615346
 20
-0.292151956577
 30
0.0
  0
VERTEX
  8
0
 10
4.90496625784
 20
-0.27149214129
 30
0.0
  0
VERTEX
  8
0
 10
4.85883221311
 20
-0.252218608361
 30
0.0
  0
VERTEX
  8
0
 10
4.81216411472
 20
-0.23427630684
 30
0.0
  0
VERTEX
  8
0
 10
4.76502571236
 20
-0.217608204975
 30
0.0
  0
VERTEX
  8
0
 10
4.71747459461
 20
-0.202156300336
 30
0.0
  0
VERTEX
  8
0
 10
4.66956248741
 20
-0.187862445659
 30
0.0
  0
VERTEX
  8
0
 10
4.62133562676
 20
-0.174669000452
 30
0.0
  0
VERTEX
  8
0
 10
4.57283517257
 20
-0.162519327989
 30
0.0
  0
VERTEX
  8
0
 10
4.52409763746
 20
-0.151358162973
 30
0.0
  0
VERTEX
  8
0
 10
4.47515531377
 20
-0.141131866235
 30
0.0
  0
VERTEX
  8
0
 10
4.42603668547
 20
-0.131788589005
 30
0.0
  0
VERTEX
  8
0
 10
4.37676681753
 20
-0.123278360573
 30
0.0
  0
VERTEX
  8
0
 10
4.32736771722
 20
-0.115553118098
 30
0.0
  0
VERTEX
  8
0
 10
4.27785866532
 20
-0.108566690833
 30
0.0
  0
VERTEX
  8
0
 10
4.22825651708
 20
-0.102274747716
 30
0.0
  0
VERTEX
  8
0
 10
4.17857597333
 20
-0.0966347171131
 30
0.0
  0
VERTEX
  8
0
 10
4.12882982328
 20
-0.0916056869819
 30
0.0
  0
VERTEX
  8
0
 10
4.07902916096
 20
-0.087148289033
 30
0.0
  0
VERTEX
  8
0
 10
4.02918357755
 20
-0.083224570917
 30
0.0
  0
VERTEX
  8
0
 10
3.97930133194
 20
-0.079797858642
 30
0.0
  0
VERTEX
  8
0
 10
3.92938950138
 20
-0.0768326133073
 30
0.0
  0
VERTEX
  8
0
 10
3.87945411485
 20
-0.0742942806275
 30
0.0
  0
VERTEX
  8
0
 10
3.82950027109
 20
-0.0721491338494
 30
0.0
  0
VERTEX
  8
0
 10
3.77953224303
 20
-0.070364110158
 30
0.0
  0
VERTEX
  8
0
 10
3.72955357065
 20
-0.0689066403395
 30
0.0
  0
VERTEX
  8
0
 10
3.67956714394
 20
-0.0677444689812
 30
0.0
  0
VERTEX
  8
0
 10
3.62957527763
 20
-0.0668454628006
 30
0.0
  0
VERTEX
  8
0
 10
3.5795797793
 20
-0.0661774051168
 30
0.0
  0
VERTEX
  8
0
 10
3.52958201252
 20
-0.0657077724051
 30
0.0
  0
VERTEX
  8
0
 10
3.47958295683
 20
-0.0654034880427
 30
0.0
  0
VERTEX
  8
0
 10
3.42958326645
 20
-0.0652306473177
 30
0.0
  0
VERTEX
  8
0
 10
3.37958333003
 20
-0.065154206347
 30
0.0
  0
VERTEX
  8
0
 10
3.33119266055
 20
-0.0651376146789
 30
0.0
  0
SEQEND
  8
0
  0
POLYLINE
  8
0
 62
0
 70
0
 66
1
 10
0.0
 20
0.0
 30
0.0
  0
VERTEX
  8
0
 10
5.50825688073
 20
-1.04128440367
 30
0.0
  0
VERTEX
  8
0
 10
5.50665164022
 20
-0.991318660189
 30
0.0
  0
VERTEX
  8
0
 10
5.50191065278
 20
-0.941552019159
 30
0.0
  0
VERTEX
  8
0
 10
5.49409682514
 20
-0.8921744528
 30
0.0
  0
VERTEX
  8
0
 10
5.48321618984
 20
-0.843381195282
 30
0.0
  0
VERTEX
  8
0
 10
5.4692266305
 20
-0.795387459772
 30
0.0
  0
VERTEX
  8
0
 10
5.45204561436
 20
-0.748442617523
 30
0.0
  0
VERTEX
  8
0
 10
5.43155900502
 20
-0.702844800896
 30
0.0
  0
VERTEX
  8
0
 10
5.40763349473
 20
-0.658955858748
 30
0.0
  0
VERTEX
  8
0
 10
5.38013578228
 20
-0.617215018601
 30
0.0
  0
VERTEX
  8
0
 10
5.34896179039
 20
-0.578147088899
 30
0.0
  0
VERTEX
  8
0
 10
5.31880733945
 20
-0.546788990826
 30
0.0
  0
SEQEND
  8
0
  0
POLYLINE
  8
0
 62
0
 70
0
 66
1
 10
0.0
 20
0.0
 30
0.0
  0
VERTEX
  8
0
 10
5.31880733945
 20
-1.53577981651
 30
0.0
  0
VERTEX
  8
0
 10
5.35282803497
 20
-1.49916544067
 30
0.0
  0
VERTEX
  8
0
 10
5.38327206856
 20
-1.45952366899
 30
0.0
  0
VERTEX
  8
0
 10
5.41017689293
 20
-1.41739657115
 30
0.0
  0
VERTEX
  8
0
 10
5.43363335399
 20
-1.37325404191
 30
0.0
  0
VERTEX
  8
0
 10
5.45375213037
 20
-1.32749201162
 30
0.0
  0
VERTEX
  8
0
 10
5.47063946977
 20
-1.28044029484
 30
0.0
  0
VERTEX
  8
0
 10
5.48438047809
 20
-1.23237460192
 30
0.0
  0
VERTEX
  8
0
 10
5.4950272674
 20
-1.18352977336
 30
0.0
  0
VERTEX
  8
0
 10
5.50258934856
 20
-1.13411320077
 30
0.0
  0
VERTEX
  8
0
 10
5.50702396101
 20
-1.0843187108
 30
0.0
  0
VERTEX
  8
0
 10
5.50825688073
 20
-1.04128440367
 30
0.0
  0
SEQEND
  8
0
  0
POLYLINE
  8
0
 62
0
 70
0
 66
1
 10
0.0
 20
0.0
 30
0.0
  0
VERTEX
  8
0
 10
3.87064220183
 20
-2.00779816514
 30
0.0
  0
VERTEX
  8
0
 10
3.92057654602
 20
-2.00523921508
 30
0.0
  0
VERTEX
  8
0
 10
3.97048803573
 20
-2.00226805822
 30
0.0
  0
VERTEX
  8
0
 10
4.02037088339
 20
-1.99884995429
 30
0.0
  0
VERTEX
  8
0
 10
4.07021828134
 20
-1.99494920003
 30
0.0
  0
VERTEX
  8
0
 10
4.12002227046
 20
-1.99052898143
 30
0.0
  0
VERTEX
  8
0
 10
4.16977359195
 20
-1.98555123226
 30
0.0
  0
VERTEX
  8
0
 10
4.21946152017
 20
-1.97997649962
 30
0.0
  0
VERTEX
  8
0
 10
4.26907367432
 20
-1.97376381847
 30
0.0
  0
VERTEX
  8
0
 10
4.31859580672
 20
-1.96687059773
 30
0.0
  0
VERTEX
  8
0
 10
4.36801156568
 20
-1.95925252169
 30
0.0
  0
VERTEX
  8
0
 10
4.41730223108
 20
-1.95086347178
 30
0.0
  0
VERTEX
  8
0
 10
4.46644642113
 20
-1.94165547511
 30
0.0
  0
VERTEX
  8
0
 10
4.51541976989
 20
-1.93157868814
 30
0.0
  0
VERTEX
  8
0
 10
4.56419457581
 20
-1.92058142547
 30
0.0
  0
VERTEX
  8
0
 10
4.61273942368
 20
-1.90861024627
 30
0.0
  0
VERTEX
  8
0
 10
4.66101878451
 20
-1.8956101129
 30
0.0
  0
VERTEX
  8
0
 10
4.70899260125
 20
-1.88152463853
 30
0.0
  0
VERTEX
  8
0
 10
4.75661587235
 20
-1.86629644266
 30
0.0
  0
VERTEX
  8
0
 10
4.80383825064
 20
-1.84986763457
 30
0.0
  0
VERTEX
  8
0
 10
4.85060368135
 20
-1.83218044471
 30
0.0
  0
VERTEX
  8
0
 10
4.89685011049
 20
-1.81317802244
 30
0.0
  0
VERTEX
  8
0
 10
4.94250930256
 20
-1.79280541339
 30
0.0
  0
VERTEX
  8
0
 10
4.98750681427
 20
-1.77101072211
 30
0.0
  0
VERTEX
  8
0
 10
5.03176217642
 20
-1.74774645223
 30
0.0
  0
VERTEX
  8
0
 10
5.07518933852
 20
-1.72297099913
 30
0.0
  0
VERTEX
  8
0
 10
5.11769742749
 20
-1.69665024825
 30
0.0
  0
VERTEX
  8
0
 10
5.15919186008
 20
-1.66875920693
 30
0.0
  0
VERTEX
  8
0
 10
5.1995758278
 20
-1.63928357276
 30
0.0
  0
VERTEX
  8
0
 10
5.23875214182
 20
-1.60822112082
 30
0.0
  0
VERTEX
  8
0
 10
5.27662538568
 20
-1.57558278145
 30
0.0
  0
VERTEX
  8
0
 10
5.31310427992
 20
-1.54139328422
 30
0.0
  0
VERTEX
  8
0
 10
5.31880733945
 20
-1.53577981651
 30
0.0
  0
SEQEND
  8
0
  0
LINE
  8
0
 62
0
 10
-29.6544278863
 20
23.9975736368
 30
0.0
 11
-12.3743686708
 21
6.71751442127
 31
0.0
  0
ARC
  8
0
 62
0
 10
-14.4956890143
 20
4.59619407771
 30
0.0
 40
3.0
 50
-45.0
 51
45.0
  0
ARC
  8
0
 62
0
 10
-40.2610296041
 20
13.390971919
 30
0.0
 40
15.0
 50
45.0
 51
72.905472791
  0
LINE
  8
0
 62
0
 10
-12.3743686708
 20
2.47487373416
 30
0.0
 11
-13.081475452
 21
1.76776695297
 31
0.0
  0
ARC
  8
0
 62
0
 10
-33.9411254969
 20
33.941125497
 30
0.0
 40
6.5
 50
17.0945272089
 51
-107.094527209
  0
ARC
  8
0
 62
0
 10
-11.313708499
 20
-2.10942374679e-15
 30
0.0
 40
2.5
 50
135.0
 51
-135.0
  0
ARC
  8
0
 62
0
 10
-13.390971919
 20
40.2610296041
 30
0.0
 40
15.0
 50
-162.905472791
 51
-135.0
  0
LINE
  8
0
 62
0
 10
-13.081475452
 20
-1.76776695297
 30
0.0
 11
-12.3743686708
 21
-2.47487373416
 31
0.0
  0
LINE
  8
0
 62
0
 10
-6.71751442127
 20
12.3743686708
 30
0.0
 11
-23.9975736368
 21
29.6544278863
 31
0.0
  0
ARC
  8
0
 62
0
 10
-14.4956890143
 20
-4.59619407771
 30
0.0
 40
3.0
 50
-45.0
 51
45.0
  0
ARC
  8
0
 62
0
 10
-4.59619407771
 20
14.4956890143
 30
0.0
 40
3.0
 50
-135.0
 51
-45.0
  0
LINE
  8
0
 62
0
 10
-29.6544278863
 20
-23.9975736368
 30
0.0
 11
-12.3743686708
 21
-6.71751442127
 31
0.0
  0
LINE
  8
0
 62
0
 10
-1.76776695297
 20
13.081475452
 30
0.0
 11
-2.47487373415
 21
12.3743686708
 31
0.0
  0
ARC
  8
0
 62
0
 10
-40.2610296041
 20
-13.390971919
 30
0.0
 40
15.0
 50
-72.905472791
 51
-45.0
  0
ARC
  8
0
 62
0
 10
-2.49800180541e-15
 20
11.313708499
 30
0.0
 40
2.5
 50
45.0
 51
135.0
  0
ARC
  8
0
 62
0
 10
-33.9411254969
 20
-33.941125497
 30
0.0
 40
6.5
 50
107.094527209
 51
-17.0945272089
  0
LINE
  8
0
 62
0
 10
2.47487373415
 20
12.3743686708
 30
0.0
 11
1.76776695297
 21
13.081475452
 31
0.0
  0
ARC
  8
0
 62
0
 10
-13.390971919
 20
-40.2610296041
 30
0.0
 40
15.0
 50
135.0
 51
162.905472791
  0
ARC
  8
0
 62
0
 10
4.59619407771
 20
14.4956890143
 30
0.0
 40
3.0
 50
-135.0
 51
-45.0
  0
LINE
  8
0
 62
0
 10
-6.71751442127
 20
-12.3743686708
 30
0.0
 11
-23.9975736368
 21
-29.6544278863
 31
0.0
  0
LINE
  8
0
 62
0
 10
6.71751442127
 20
12.3743686708
 30
0.0
 11
23.9975736368
 21
29.6544278863
 31
0.0
  0
ARC
  8
0
 62
0
 10
-4.59619407771
 20
-14.4956890143
 30
0.0
 40
3.0
 50
45.0
 51
135.0
  0
ARC
  8
0
 62
0
 10
13.390971919
 20
40.2610296041
 30
0.0
 40
15.0
 50
-45.0
 51
-17.0945272089
  0
LINE
  8
0
 62
0
 10
-2.47487373415
 20
-12.3743686708
 30
0.0
 11
-1.76776695297
 21
-13.081475452
 31
0.0
  0
ARC
  8
0
 62
0
 10
33.9411254969
 20
33.941125497
 30
0.0
 40
6.5
 50
-72.905472791
 51
162.905472791
  0
ARC
  8
0
 62
0
 10
1.7763568394e-15
 20
-11.313708499
 30
0.0
 40
2.5
 50
-135.0
 51
-45.0
  0
ARC
  8
0
 62
0
 10
40.2610296041
 20
13.390971919
 30
0.0
 40
15.0
 50
107.094527209
 51
135.0
  0
LINE
  8
0
 62
0
 10
1.76776695297
 20
-13.081475452
 30
0.0
 11
2.47487373415
 21
-12.3743686708
 31
0.0
  0
LINE
  8
0
 62
0
 10
29.6544278863
 20
23.9975736368
 30
0.0
 11
12.3743686708
 21
6.71751442127
 31
0.0
  0
ARC
  8
0
 62
0
 10
4.59619407771
 20
-14.4956890143
 30
0.0
 40
3.0
 50
45.0
 51
135.0
  0
ARC
  8
0
 62
0
 10
14.4956890143
 20
4.59619407771
 30
0.0
 40
3.0
 50
135.0
 51
-135.0
  0
LINE
  8
0
 62
0
 10
6.71751442127
 20
-12.3743686708
 30
0.0
 11
23.9975736368
 21
-29.6544278863
 31
0.0
  0
LINE
  8
0
 62
0
 10
13.081475452
 20
1.76776695297
 30
0.0
 11
12.3743686708
 21
2.47487373416
 31
0.0
  0
ARC
  8
0
 62
0
 10
13.390971919
 20
-40.2610296041
 30
0.0
 40
15.0
 50
17.0945272089
 51
45.0
  0
ARC
  8
0
 62
0
 10
11.313708499
 20
2.6645352591e-15
 30
0.0
 40
2.5
 50
-45.0
 51
45.0
  0
ARC
  8
0
 62
0
 10
33.9411254969
 20
-33.941125497
 30
0.0
 40
6.5
 50
-162.905472791
 51
72.905472791
  0
LINE
  8
0
 62
0
 10
12.3743686708
 20
-2.47487373416
 30
0.0
 11
13.081475452
 21
-1.76776695297
 31
0.0
  0
ARC
  8
0
 62
0
 10
40.2610296041
 20
-13.390971919
 30
0.0
 40
15.0
 50
-135.0
 51
-107.094527209
  0
ARC
  8
0
 62
0
 10
14.4956890143
 20
-4.59619407771
 30
0.0
 40
3.0
 50
135.0
 51
-135.0
  0
LINE
  8
0
 62
0
 10
29.6544278863
 20
-23.9975736368
 30
0.0
 11
12.3743686708
 21
-6.71751442127
 31
0.0
  0
CIRCLE
  8
0
 62
0
 10
33.9411254969
 20
29.691125497
 30
0.0
 40
0.8
  0
CIRCLE
  8
0
 62
0
 10
29.6911254969
 20
-33.941125497
 30
0.0
 40
0.8
  0
CIRCLE
  8
0
 62
0
 10
33.9411254969
 20
-33.941125497
 30
0.0
 40
1.5
  0
CIRCLE
  8
0
 62
0
 10
33.9411254969
 20
-29.691125497
 30
0.0
 40
0.8
  0
LINE
  8
0
 62
0
 10
3.62339449541
 20
2.14082568807
 30
0.0
 11
3.62339449541
 21
2.55183486239
 31
0.0
  0
LINE
  8
0
 62
0
 10
6.37844036697
 20
1.12293577982
 30
0.0
 11
5.72660550459
 21
1.12293577982
 31
0.0
  0
CIRCLE
  8
0
 62
0
 10
11.313708499
 20
0.0
 30
0.0
 40
1.0
  0
LINE
  8
0
 62
0
 10
-4.56146788991
 20
-2.26788990826
 30
0.0
 11
-4.56146788991
 21
-2.67889908257
 31
0.0
  0
LINE
  8
0
 62
0
 10
-7.31972477064
 20
-1.27247706422
 30
0.0
 11
-6.66788990826
 21
-1.27247706422
 31
0.0
  0
LINE
  8
0
 62
0
 10
-2.67660550459
 20
-0.315596330275
 30
0.0
 11
-2.67660550459
 21
-0.78119266055
 31
0.0
  0
LINE
  8
0
 62
0
 10
-4.56146788991
 20
2.55183486239
 30
0.0
 11
-4.56146788991
 21
2.14082568807
 31
0.0
  0
LINE
  8
0
 62
0
 10
-7.60871559633
 20
0.891743119266
 30
0.0
 11
-7.60871559633
 21
0.914220183486
 31
0.0
  0
LINE
  8
0
 62
0
 10
-3.98027522936
 20
-2.67889908257
 30
0.0
 11
-3.98027522936
 21
-2.26788990826
 31
0.0
  0
LINE
  8
0
 62
0
 10
-0.93623853211
 20
0.891743119266
 30
0.0
 11
-0.93623853211
 21
-1.27247706422
 31
0.0
  0
LINE
  8
0
 62
0
 10
-3.98027522936
 20
2.14082568807
 30
0.0
 11
-3.98027522936
 21
2.55183486239
 31
0.0
  0
LINE
  8
0
 62
0
 10
-2.09541284404
 20
-1.27247706422
 30
0.0
 11
-2.09541284404
 21
0.891743119266
 31
0.0
  0
LINE
  8
0
 62
0
 10
3.04220183486
 20
-2.26788990826
 30
0.0
 11
3.04220183486
 21
-2.67889908257
 31
0.0
  0
LINE
  8
0
 62
0
 10
1.15733944954
 20
1.12293577982
 30
0.0
 11
1.15733944954
 21
-1.04128440367
 31
0.0
  0
LINE
  8
0
 62
0
 10
3.04220183486
 20
2.55183486239
 30
0.0
 11
3.04220183486
 21
2.14082568807
 31
0.0
  0
LINE
  8
0
 62
0
 10
-0.00504587155963
 20
-1.04128440367
 30
0.0
 11
-0.00504587155963
 21
1.12293577982
 31
0.0
  0
LINE
  8
0
 62
0
 10
3.62339449541
 20
-2.67889908257
 30
0.0
 11
3.62339449541
 21
-2.26788990826
 31
0.0
  0
LINE
  8
0
 62
0
 10
1.73532110092
 20
0.188532110092
 30
0.0
 11
1.73532110092
 21
0.654128440367
 31
0.0
  0
CIRCLE
  8
0
 62
0
 10
0.0
 20
11.313708499
 30
0.0
 40
1.0
  0
CIRCLE
  8
0
 62
0
 10
0.0
 20
-11.313708499
 30
0.0
 40
1.0
  0
CIRCLE
  8
0
 62
0
 10
-33.9411254969
 20
-33.941125497
 30
0.0
 40
1.5
  0
CIRCLE
  8
0
 62
0
 10
-33.9411254969
 20
-29.691125497
 30
0.0
 40
0.8
  0
CIRCLE
  8
0
 62
0
 10
-29.6911254969
 20
-33.941125497
 30
0.0
 40
0.8
  0
CIRCLE
  8
0
 62
0
 10
-11.313708
 20
0.0
 30
0.0
 40
1.0
  0
CIRCLE
  8
0
 62
0
 10
-33.9411254969
 20
33.941125497
 30
0.0
 40
1.5
  0
CIRCLE
  8
0
 62
0
 10
-29.6911254969
 20
33.941125497
 30
0.0
 40
0.8
  0
CIRCLE
  8
0
 62
0
 10
33.9411254969
 20
33.941125497
 30
0.0
 40
1.5
  0
CIRCLE
  8
0
 62
0
 10
29.6911254969
 20
33.941125497
 30
0.0
 40
0.8
  0
CIRCLE
  8
0
 62
0
 10
-33.9411254969
 20
29.691125497
 30
0.0
 40
0.8
  0
CIRCLE
  8
0
 62
0
 10
-38.1911254969
 20
33.941125497
 30
0.0
 40
0.8
  0
CIRCLE
  8
0
 62
0
 10
-38.1911254969
 20
-33.941125497
 30
0.0
 40
0.8
  0
CIRCLE
  8
0
 62
0
 10
33.9411254969
 20
38.191125497
 30
0.0
 40
0.8
  0
CIRCLE
  8
0
 62
0
 10
-33.9411254969
 20
38.191125497
 30
0.0
 40
0.8
  0
CIRCLE
  8
0
 62
0
 10
38.1911254969
 20
-33.941125497
 30
0.0
 40
0.8
  0
CIRCLE
  8
0
 62
0
 10
38.1911254969
 20
33.941125497
 30
0.0
 40
0.8
  0
CIRCLE
  8
0
 62
0
 10
33.9411254969
 20
-38.191125497
 30
0.0
 40
0.8
  0
CIRCLE
  8
0
 62
0
 10
-33.9411254969
 20
-38.191125497
 30
0.0
 40
0.8
  0
ENDBLK
  0
ENDSEC
  0
SECTION
  2
ENTITIES
  0
INSERT
  2
CUT
  8
0
 62
0
 10
0.0
 20
0.0
 30
0.0
  0
ENDSEC
  0
EOF
