  0
SECTION
  2
HEADER
  9
$ACADVER
  1
AC1009
  9
$INSBASE
 10
0.0
 20
0.0
 30
0.0
  9
$EXTMIN
 10
0.0
 20
0.0
 30
0.0
  9
$EXTMAX
 10
0.0
 20
0.0
 30
0.0
  0
ENDSEC
  0
SECTION
  2
TABLES
  0
TABLE
  2
VPORT
 70
0
  0
ENDTAB
  0
TABLE
  2
LTYPE
 70
1
  0
LTYPE
  2
CONTINUOUS
 70
0
  3
Solid line
 72
65
 73
0
 40
0.0
  0
ENDTAB
  0
TABLE
  2
LAYER
 70
1
  0
LAYER
  2
0
 70
64
 62
7
  6
continuous
  0
ENDTAB
  0
TABLE
  2
STYLE
 70
1
  0
STYLE
  2
STANDARD
 70
0
 40
0
 41
1.0
 50
0.0
 71
0
 42
1
 3
ARIAL.TTF
 4

  0
ENDTAB
  0
TABLE
  2
VIEW
 70
0
  0
ENDTAB
  0
ENDSEC
  0
SECTION
  2
BLOCKS
  0
BLOCK
  8
0
  2
CUT001
 70
0
 10
0.0
 20
0.0
 30
0.0
  3
CUT001
  0
POLYLINE
  8
0
 62
0
 70
0
 66
1
 10
0.0
 20
0.0
 30
0.0
  0
VERTEX
  8
0
 10
-7.60871559633
 20
2.55183486239
 30
0.0
  0
VERTEX
  8
0
 10
-7.60395554899
 20
2.6015310709
 30
0.0
  0
VERTEX
  8
0
 10
-7.58981451728
 20
2.64941024917
 30
0.0
  0
VERTEX
  8
0
 10
-7.56688746855
 20
2.69376068801
 30
0.0
  0
VERTEX
  8
0
 10
-7.53610625782
 20
2.73307101092
 30
0.0
  0
VERTEX
  8
0
 10
-7.49857794021
 20
2.76600074505
 30
0.0
  0
VERTEX
  8
0
 10
-7.45554829306
 20
2.79131678796
 30
0.0
  0
VERTEX
  8
0
 10
-7.40846466968
 20
2.80790481474
 30
0.0
  0
VERTEX
  8
0
 10
-7.35904291682
 20
2.81492188037
 30
0.0
  0
VERTEX
  8
0
 10
-7.34862385321
 20
2.81513761468
 30
0.0
  0
SEQEND
  8
0
  0
POLYLINE
  8
0
 62
0
 70
0
 66
1
 10
0.0
 20
0.0
 30
0.0
  0
VERTEX
  8
0
 10
-2.80504587156
 20
2.75412844037
 30
0.0
  0
VERTEX
  8
0
 10
-2.76923622083
 20
2.7193449933
 30
0.0
  0
VERTEX
  8
0
 10
-2.74085860875
 20
2.67827576496
 30
0.0
  0
VERTEX
  8
0
 10
-2.72102201742
 20
2.63246546311
 30
0.0
  0
VERTEX
  8
0
 10
-2.71038201939
 20
2.58368969944
 30
0.0
  0
VERTEX
  8
0
 10
-2.70922460895
 20
2.5337789423
 30
0.0
  0
VERTEX
  8
0
 10
-2.71754315648
 20
2.48455242891
 30
0.0
  0
VERTEX
  8
0
 10
-2.73503442637
 20
2.43779234544
 30
0.0
  0
VERTEX
  8
0
 10
-2.76102923289
 20
2.39516745566
 30
0.0
  0
VERTEX
  8
0
 10
-2.76651376147
 20
2.3880733945
 30
0.0
  0
SEQEND
  8
0
  0
POLYLINE
  8
0
 62
0
 70
0
 66
1
 10
0.0
 20
0.0
 30
0.0
  0
VERTEX
  8
0
 10
1.5876146789
 20
1.36376146789
 30
0.0
  0
VERTEX
  8
0
 10
1.55249269693
 20
1.32818137404
 30
0.0
  0
VERTEX
  8
0
 10
1.51913999665
 20
1.29093734296
 30
0.0
  0
VERTEX
  8
0
 10
1.4875843071
 20
1.25215864548
 30
0.0
  0
VERTEX
  8
0
 10
1.4578335399
 20
1.21197814783
 30
0.0
  0
VERTEX
  8
0
 10
1.42987754207
 20
1.17052846685
 30
0.0
  0
VERTEX
  8
0
 10
1.4036904463
 20
1.12793875409
 30
0.0
  0
VERTEX
  8
0
 10
1.37923333549
 20
1.08433221242
 30
0.0
  0
VERTEX
  8
0
 10
1.3564569727
 20
1.03982435055
 30
0.0
  0
VERTEX
  8
0
 10
1.33530440506
 20
0.994521909799
 30
0.0
  0
VERTEX
  8
0
 10
1.31571331377
 20
0.948522356248
 30
0.0
  0
VERTEX
  8
0
 10
1.29761804119
 20
0.901913815992
 30
0.0
  0
VERTEX
  8
0
 10
1.28095127102
 20
0.854775334847
 30
0.0
  0
VERTEX
  8
0
 10
1.26564537164
 20
0.807177357379
 30
0.0
  0
VERTEX
  8
0
 10
1.2516334318
 20
0.759182339492
 30
0.0
  0
VERTEX
  8
0
 10
1.23885002883
 20
0.71084542848
 30
0.0
  0
VERTEX
  8
0
 10
1.22723177199
 20
0.662215162375
 30
0.0
  0
VERTEX
  8
0
 10
1.21671766256
 20
0.613334155452
 30
0.0
  0
VERTEX
  8
0
 10
1.20724930817
 20
0.564239748552
 30
0.0
  0
VERTEX
  8
0
 10
1.19877102348
 20
0.51496461183
 30
0.0
  0
VERTEX
  8
0
 10
1.19122984416
 20
0.465537293822
 30
0.0
  0
VERTEX
  8
0
 10
1.18457547565
 20
0.415982715154
 30
0.0
  0
VERTEX
  8
0
 10
1.17876019363
 20
0.366322608015
 30
0.0
  0
VERTEX
  8
0
 10
1.17373870916
 20
0.316575904271
 30
0.0
  0
VERTEX
  8
0
 10
1.16946800776
 20
0.266759076015
 30
0.0
  0
VERTEX
  8
0
 10
1.16590716917
 20
0.216886432751
 30
0.0
  0
VERTEX
  8
0
 10
1.16301717158
 20
0.16697037942
 30
0.0
  0
VERTEX
  8
0
 10
1.1607606824
 20
0.117021639317
 30
0.0
  0
VERTEX
  8
0
 10
1.15910183535
 20
0.0670494455618
 30
0.0
  0
VERTEX
  8
0
 10
1.15800599155
 20
0.017061704381
 30
0.0
  0
VERTEX
  8
0
 10
1.15743948046
 20
-0.032934867023
 30
0.0
  0
VERTEX
  8
0
 10
1.15733944954
 20
-0.0651376146789
 30
0.0
  0
SEQEND
  8
0
  0
POLYLINE
  8
0
 62
0
 70
0
 66
1
 10
0.0
 20
0.0
 30
0.0
  0
VERTEX
  8
0
 10
-5.99357798165
 20
-2.88440366972
 30
0.0
  0
VERTEX
  8
0
 10
-6.02938763238
 20
-2.84962022266
 30
0.0
  0
VERTEX
  8
0
 10
-6.05776524446
 20
-2.80855099432
 30
0.0
  0
VERTEX
  8
0
 10
-6.07760183579
 20
-2.76274069247
 30
0.0
  0
VERTEX
  8
0
 10
-6.08824183382
 20
-2.7139649288
 30
0.0
  0
VERTEX
  8
0
 10
-6.08939924426
 20
-2.66405417166
 30
0.0
  0
VERTEX
  8
0
 10
-6.08108069674
 20
-2.61482765827
 30
0.0
  0
VERTEX
  8
0
 10
-6.06358942684
 20
-2.5680675748
 30
0.0
  0
VERTEX
  8
0
 10
-6.03759462032
 20
-2.52544268502
 30
0.0
  0
VERTEX
  8
0
 10
-6.03211009174
 20
-2.51834862385
 30
0.0
  0
SEQEND
  8
0
  0
POLYLINE
  8
0
 62
0
 70
0
 66
1
 10
0.0
 20
0.0
 30
0.0
  0
VERTEX
  8
0
 10
-5.82660550459
 20
-2.93899082569
 30
0.0
  0
VERTEX
  8
0
 10
-5.87635130107
 20
-2.9346379705
 30
0.0
  0
VERTEX
  8
0
 10
-5.92454704097
 20
-2.92157931177
 30
0.0
  0
VERTEX
  8
0
 10
-5.96965571038
 20
-2.90016433092
 30
0.0
  0
VERTEX
  8
0
 10
-5.99357798165
 20
-2.88440366972
 30
0.0
  0
SEQEND
  8
0
  0
POLYLINE
  8
0
 62
0
 70
0
 66
1
 10
0.0
 20
0.0
 30
0.0
  0
VERTEX
  8
0
 10
-4.80229357798
 20
-2.84587155963
 30
0.0
  0
VERTEX
  8
0
 10
-4.83794106041
 20
-2.88082265049
 30
0.0
  0
VERTEX
  8
0
 10
-4.87966143807
 20
-2.90823582169
 30
0.0
  0
VERTEX
  8
0
 10
-4.92587526901
 20
-2.92712290207
 30
0.0
  0
VERTEX
  8
0
 10
-4.97479131049
 20
-2.93714420655
 30
0.0
  0
VERTEX
  8
0
 10
-5.00779816514
 20
-2.93899082569
 30
0.0
  0
SEQEND
  8
0
  0
POLYLINE
  8
0
 62
0
 70
0
 66
1
 10
0.0
 20
0.0
 30
0.0
  0
VERTEX
  8
0
 10
-0.93623853211
 20
1.97706422018
 30
0.0
  0
VERTEX
  8
0
 10
-0.940924376273
 20
1.92735695187
 30
0.0
  0
VERTEX
  8
0
 10
-0.954735183016
 20
1.87937930203
 30
0.0
  0
VERTEX
  8
0
 10
-0.977667664278
 20
1.83504940206
 30
0.0
  0
VERTEX
  8
0
 10
-0.994036697248
 20
1.81330275229
 30
0.0
  0
SEQEND
  8
0
  0
POLYLINE
  8
0
 62
0
 70
0
 66
1
 10
0.0
 20
0.0
 30
0.0
  0
VERTEX
  8
0
 10
-1.19633027523
 20
2.81513761468
 30
0.0
  0
VERTEX
  8
0
 10
-1.14663815988
 20
2.81034925275
 30
0.0
  0
VERTEX
  8
0
 10
-1.09881562838
 20
2.79603033936
 30
0.0
  0
VERTEX
  8
0
 10
-1.05467494152
 20
2.77271158772
 30
0.0
  0
VERTEX
  8
0
 10
-1.01581162898
 20
2.74137405813
 30
0.0
  0
VERTEX
  8
0
 10
-0.983568775756
 20
2.70325655972
 30
0.0
  0
VERTEX
  8
0
 10
-0.959064656289
 20
2.65975816359
 30
0.0
  0
VERTEX
  8
0
 10
-0.94318138844
 20
2.61242679868
 30
0.0
  0
VERTEX
  8
0
 10
-0.936467382994
 20
2.56295387067
 30
0.0
  0
VERTEX
  8
0
 10
-0.93623853211
 20
2.55183486239
 30
0.0
  0
SEQEND
  8
0
  0
POLYLINE
  8
0
 62
0
 70
0
 66
1
 10
0.0
 20
0.0
 30
0.0
  0
VERTEX
  8
0
 10
-1.75504587156
 20
2.71559633028
 30
0.0
  0
VERTEX
  8
0
 10
-1.71980134997
 20
2.75097944833
 30
0.0
  0
VERTEX
  8
0
 10
-1.67905411064
 20
2.77984631366
 30
0.0
  0
VERTEX
  8
0
 10
-1.63379245533
 20
2.80092026413
 30
0.0
  0
VERTEX
  8
0
 10
-1.58532483172
 20
2.81285373968
 30
0.0
  0
VERTEX
  8
0
 10
-1.55275229358
 20
2.81513761468
 30
0.0
  0
SEQEND
  8
0
  0
POLYLINE
  8
0
 62
0
 70
0
 66
1
 10
0.0
 20
0.0
 30
0.0
  0
VERTEX
  8
0
 10
-2.97201834862
 20
2.81513761468
 30
0.0
  0
VERTEX
  8
0
 10
-2.92235355687
 20
2.81013233971
 30
0.0
  0
VERTEX
  8
0
 10
-2.87461889704
 20
2.79551289289
 30
0.0
  0
VERTEX
  8
0
 10
-2.83038792203
 20
2.77233973492
 30
0.0
  0
VERTEX
  8
0
 10
-2.80504587156
 20
2.75412844037
 30
0.0
  0
SEQEND
  8
0
  0
POLYLINE
  8
0
 62
0
 70
0
 66
1
 10
0.0
 20
0.0
 30
0.0
  0
VERTEX
  8
0
 10
-7.60871559633
 20
2.55183486239
 30
0.0
  0
VERTEX
  8
0
 10
-7.60395554899
 20
2.6015310709
 30
0.0
  0
VERTEX
  8
0
 10
-7.58981451728
 20
2.64941024917
 30
0.0
  0
VERTEX
  8
0
 10
-7.56688746855
 20
2.69376068801
 30
0.0
  0
VERTEX
  8
0
 10
-7.53610625782
 20
2.73307101092
 30
0.0
  0
VERTEX
  8
0
 10
-7.49857794021
 20
2.76600074505
 30
0.0
  0
VERTEX
  8
0
 10
-7.45554829306
 20
2.79131678796
 30
0.0
  0
VERTEX
  8
0
 10
-7.40846466968
 20
2.80790481474
 30
0.0
  0
VERTEX
  8
0
 10
-7.35904291682
 20
2.81492188037
 30
0.0
  0
VERTEX
  8
0
 10
-7.34862385321
 20
2.81513761468
 30
0.0
  0
SEQEND
  8
0
  0
POLYLINE
  8
0
 62
0
 70
0
 66
1
 10
0.0
 20
0.0
 30
0.0
  0
VERTEX
  8
0
 10
-7.34862385321
 20
1.88394495413
 30
0.0
  0
VERTEX
  8
0
 10
-7.39829411027
 20
1.88890548467
 30
0.0
  0
VERTEX
  8
0
 10
-7.44601573597
 20
1.90355453699
 30
0.0
  0
VERTEX
  8
0
 10
-7.4900181525
 20
1.927137498
 30
0.0
  0
VERTEX
  8
0
 10
-7.52880130759
 20
1.95857899095
 30
0.0
  0
VERTEX
  8
0
 10
-7.56108452652
 20
1.99666560524
 30
0.0
  0
VERTEX
  8
0
 10
-7.58573304745
 20
2.04008345011
 30
0.0
  0
VERTEX
  8
0
 10
-7.60176897314
 20
2.08736212341
 30
0.0
  0
VERTEX
  8
0
 10
-7.60850920369
 20
2.13682839085
 30
0.0
  0
VERTEX
  8
0
 10
-7.60871559633
 20
2.14724770642
 30
0.0
  0
SEQEND
  8
0
  0
POLYLINE
  8
0
 62
0
 70
0
 66
1
 10
0.0
 20
0.0
 30
0.0
  0
VERTEX
  8
0
 10
-3.09724770642
 20
1.98027522936
 30
0.0
  0
VERTEX
  8
0
 10
-3.13192977354
 20
1.94437481716
 30
0.0
  0
VERTEX
  8
0
 10
-3.17304320289
 20
1.91606486905
 30
0.0
  0
VERTEX
  8
0
 10
-3.21891074567
 20
1.89636147198
 30
0.0
  0
VERTEX
  8
0
 10
-3.26770947424
 20
1.8858189278
 30
0.0
  0
VERTEX
  8
0
 10
-3.2995412844
 20
1.88394495413
 30
0.0
  0
SEQEND
  8
0
  0
POLYLINE
  8
0
 62
0
 70
0
 66
1
 10
0.0
 20
0.0
 30
0.0
  0
VERTEX
  8
0
 10
-2.80504587156
 20
2.75412844037
 30
0.0
  0
VERTEX
  8
0
 10
-2.76923622083
 20
2.7193449933
 30
0.0
  0
VERTEX
  8
0
 10
-2.74085860875
 20
2.67827576496
 30
0.0
  0
VERTEX
  8
0
 10
-2.72102201742
 20
2.63246546311
 30
0.0
  0
VERTEX
  8
0
 10
-2.71038201939
 20
2.58368969944
 30
0.0
  0
VERTEX
  8
0
 10
-2.70922460895
 20
2.5337789423
 30
0.0
  0
VERTEX
  8
0
 10
-2.71754315648
 20
2.48455242891
 30
0.0
  0
VERTEX
  8
0
 10
-2.73503442637
 20
2.43779234544
 30
0.0
  0
VERTEX
  8
0
 10
-2.76102923289
 20
2.39516745566
 30
0.0
  0
VERTEX
  8
0
 10
-2.76651376147
 20
2.3880733945
 30
0.0
  0
SEQEND
  8
0
  0
POLYLINE
  8
0
 62
0
 70
0
 66
1
 10
0.0
 20
0.0
 30
0.0
  0
VERTEX
  8
0
 10
2.81100917431
 20
-2.00137614679
 30
0.0
  0
VERTEX
  8
0
 10
2.85997733712
 20
-2.0111890609
 30
0.0
  0
VERTEX
  8
0
 10
2.90644396448
 20
-2.02945520802
 30
0.0
  0
VERTEX
  8
0
 10
2.94850978268
 20
-2.05632626235
 30
0.0
  0
VERTEX
  8
0
 10
2.98419729135
 20
-2.09121624522
 30
0.0
  0
VERTEX
  8
0
 10
3.01187316375
 20
-2.13275046545
 30
0.0
  0
VERTEX
  8
0
 10
3.03062968185
 20
-2.17901222118
 30
0.0
  0
VERTEX
  8
0
 10
3.040401145
 20
-2.22797988136
 30
0.0
  0
VERTEX
  8
0
 10
3.04220183486
 20
-2.26146788991
 30
0.0
  0
SEQEND
  8
0
  0
POLYLINE
  8
0
 62
0
 70
0
 66
1
 10
0.0
 20
0.0
 30
0.0
  0
VERTEX
  8
0
 10
1.5876146789
 20
-1.49082568807
 30
0.0
  0
VERTEX
  8
0
 10
1.6231228124
 20
-1.52602289567
 30
0.0
  0
VERTEX
  8
0
 10
1.65998628958
 20
-1.55979818283
 30
0.0
  0
VERTEX
  8
0
 10
1.69811650896
 20
-1.59213684353
 30
0.0
  0
VERTEX
  8
0
 10
1.73742374122
 20
-1.62303444562
 30
0.0
  0
VERTEX
  8
0
 10
1.77781875938
 20
-1.6524959649
 30
0.0
  0
VERTEX
  8
0
 10
1.81921422339
 20
-1.68053473416
 30
0.0
  0
VERTEX
  8
0
 10
1.86152579552
 20
-1.70717128884
 30
0.0
  0
VERTEX
  8
0
 10
1.90467298662
 20
-1.73243218134
 30
0.0
  0
VERTEX
  8
0
 10
1.94857975001
 20
-1.75634882307
 30
0.0
  0
VERTEX
  8
0
 10
1.99317485202
 20
-1.77895639722
 30
0.0
  0
VERTEX
  8
0
 10
2.03839205347
 20
-1.80029287098
 30
0.0
  0
VERTEX
  8
0
 10
2.0841701387
 20
-1.82039812287
 30
0.0
  0
VERTEX
  8
0
 10
2.13045282632
 20
-1.8393131913
 30
0.0
  0
VERTEX
  8
0
 10
2.1771885933
 20
-1.85707964189
 30
0.0
  0
VERTEX
  8
0
 10
2.22433043879
 20
-1.87373904664
 30
0.0
  0
VERTEX
  8
0
 10
2.27183560993
 20
-1.88933256456
 30
0.0
  0
VERTEX
  8
0
 10
2.31966530684
 20
-1.90390061208
 30
0.0
  0
VERTEX
  8
0
 10
2.36778438023
 20
-1.91748261088
 30
0.0
  0
VERTEX
  8
0
 10
2.41616103148
 20
-1.93011680134
 30
0.0
  0
VERTEX
  8
0
 10
2.4647665221
 20
-1.94184011064
 30
0.0
  0
VERTEX
  8
0
 10
2.51357489721
 20
-1.95268806581
 30
0.0
  0
VERTEX
  8
0
 10
2.562562726
 20
-1.9626947428
 30
0.0
  0
VERTEX
  8
0
 10
2.61170886058
 20
-1.97189274452
 30
0.0
  0
VERTEX
  8
0
 10
2.66099421385
 20
-1.9803132014
 30
0.0
  0
VERTEX
  8
0
 10
2.71040155621
 20
-1.98798578929
 30
0.0
  0
VERTEX
  8
0
 10
2.75991533046
 20
-1.99493876062
 30
0.0
  0
VERTEX
  8
0
 10
2.80952148404
 20
-2.00119898497
 30
0.0
  0
VERTEX
  8
0
 10
2.81100917431
 20
-2.00137614679
 30
0.0
  0
SEQEND
  8
0
  0
POLYLINE
  8
0
 62
0
 70
0
 66
1
 10
0.0
 20
0.0
 30
0.0
  0
VERTEX
  8
0
 10
1.15733944954
 20
-0.0651376146789
 30
0.0
  0
VERTEX
  8
0
 10
1.15758561265
 20
-0.115136802227
 30
0.0
  0
VERTEX
  8
0
 10
1.15834588421
 20
-0.165130787115
 30
0.0
  0
VERTEX
  8
0
 10
1.15965334171
 20
-0.215113424421
 30
0.0
  0
VERTEX
  8
0
 10
1.1615418478
 20
-0.265077448186
 30
0.0
  0
VERTEX
  8
0
 10
1.16404632988
 20
-0.315014348414
 30
0.0
  0
VERTEX
  8
0
 10
1.16720303372
 20
-0.364914223855
 30
0.0
  0
VERTEX
  8
0
 10
1.17104975757
 20
-0.414765608176
 30
0.0
  0
VERTEX
  8
0
 10
1.17562607059
 20
-0.464555266615
 30
0.0
  0
VERTEX
  8
0
 10
1.18097351722
 20
-0.514267959737
 30
0.0
  0
VERTEX
  8
0
 10
1.18713580705
 20
-0.563886170495
 30
0.0
  0
VERTEX
  8
0
 10
1.19415898761
 20
-0.613389790507
 30
0.0
  0
VERTEX
  8
0
 10
1.20209159527
 20
-0.662755761326
 30
0.0
  0
VERTEX
  8
0
 10
1.21098477658
 20
-0.711957666653
 30
0.0
  0
VERTEX
  8
0
 10
1.22089236948
 20
-0.760965272002
 30
0.0
  0
VERTEX
  8
0
 10
1.23187093008
 20
-0.809744009557
 30
0.0
  0
VERTEX
  8
0
 10
1.24397968623
 20
-0.858254408073
 30
0.0
  0
VERTEX
  8
0
 10
1.25728039455
 20
-0.90645147107
 30
0.0
  0
VERTEX
  8
0
 10
1.27183707195
 20
-0.954284011626
 30
0.0
  0
VERTEX
  8
0
 10
1.2877155675
 20
-1.00169395939
 30
0.0
  0
VERTEX
  8
0
 10
1.30498293538
 20
-1.04861566541
 30
0.0
  0
VERTEX
  8
0
 10
1.32370656672
 20
-1.09497524336
 30
0.0
  0
VERTEX
  8
0
 10
1.34395303799
 20
-1.14069000214
 30
0.0
  0
VERTEX
  8
0
 10
1.3657866394
 20
-1.18566804336
 30
0.0
  0
VERTEX
  8
0
 10
1.38926756024
 20
-1.22980811719
 30
0.0
  0
VERTEX
  8
0
 10
1.41444973322
 20
-1.27299984773
 30
0.0
  0
VERTEX
  8
0
 10
1.44137837752
 20
-1.31512444946
 30
0.0
  0
VERTEX
  8
0
 10
1.47008733101
 20
-1.35605605373
 30
0.0
  0
VERTEX
  8
0
 10
1.50059632493
 20
-1.39566373872
 30
0.0
  0
VERTEX
  8
0
 10
1.53290841502
 20
-1.43381430479
 30
0.0
  0
VERTEX
  8
0
 10
1.56700783521
 20
-1.47037575427
 30
0.0
  0
VERTEX
  8
0
 10
1.5876146789
 20
-1.49082568807
 30
0.0
  0
SEQEND
  8
0
  0
POLYLINE
  8
0
 62
0
 70
0
 66
1
 10
0.0
 20
0.0
 30
0.0
  0
VERTEX
  8
0
 10
1.5876146789
 20
1.36376146789
 30
0.0
  0
VERTEX
  8
0
 10
1.55249269693
 20
1.32818137404
 30
0.0
  0
VERTEX
  8
0
 10
1.51913999665
 20
1.29093734296
 30
0.0
  0
VERTEX
  8
0
 10
1.4875843071
 20
1.25215864548
 30
0.0
  0
VERTEX
  8
0
 10
1.4578335399
 20
1.21197814783
 30
0.0
  0
VERTEX
  8
0
 10
1.42987754207
 20
1.17052846685
 30
0.0
  0
VERTEX
  8
0
 10
1.4036904463
 20
1.12793875409
 30
0.0
  0
VERTEX
  8
0
 10
1.37923333549
 20
1.08433221242
 30
0.0
  0
VERTEX
  8
0
 10
1.3564569727
 20
1.03982435055
 30
0.0
  0
VERTEX
  8
0
 10
1.33530440506
 20
0.994521909799
 30
0.0
  0
VERTEX
  8
0
 10
1.31571331377
 20
0.948522356248
 30
0.0
  0
VERTEX
  8
0
 10
1.29761804119
 20
0.901913815992
 30
0.0
  0
VERTEX
  8
0
 10
1.28095127102
 20
0.854775334847
 30
0.0
  0
VERTEX
  8
0
 10
1.26564537164
 20
0.807177357379
 30
0.0
  0
VERTEX
  8
0
 10
1.2516334318
 20
0.759182339492
 30
0.0
  0
VERTEX
  8
0
 10
1.23885002883
 20
0.71084542848
 30
0.0
  0
VERTEX
  8
0
 10
1.22723177199
 20
0.662215162375
 30
0.0
  0
VERTEX
  8
0
 10
1.21671766256
 20
0.613334155452
 30
0.0
  0
VERTEX
  8
0
 10
1.20724930817
 20
0.564239748552
 30
0.0
  0
VERTEX
  8
0
 10
1.19877102348
 20
0.51496461183
 30
0.0
  0
VERTEX
  8
0
 10
1.19122984416
 20
0.465537293822
 30
0.0
  0
VERTEX
  8
0
 10
1.18457547565
 20
0.415982715154
 30
0.0
  0
VERTEX
  8
0
 10
1.17876019363
 20
0.366322608015
 30
0.0
  0
VERTEX
  8
0
 10
1.17373870916
 20
0.316575904271
 30
0.0
  0
VERTEX
  8
0
 10
1.16946800776
 20
0.266759076015
 30
0.0
  0
VERTEX
  8
0
 10
1.16590716917
 20
0.216886432751
 30
0.0
  0
VERTEX
  8
0
 10
1.16301717158
 20
0.16697037942
 30
0.0
  0
VERTEX
  8
0
 10
1.1607606824
 20
0.117021639317
 30
0.0
  0
VERTEX
  8
0
 10
1.15910183535
 20
0.0670494455618
 30
0.0
  0
VERTEX
  8
0
 10
1.15800599155
 20
0.017061704381
 30
0.0
  0
VERTEX
  8
0
 10
1.15743948046
 20
-0.032934867023
 30
0.0
  0
VERTEX
  8
0
 10
1.15733944954
 20
-0.0651376146789
 30
0.0
  0
SEQEND
  8
0
  0
POLYLINE
  8
0
 62
0
 70
0
 66
1
 10
0.0
 20
0.0
 30
0.0
  0
VERTEX
  8
0
 10
2.81100917431
 20
1.87431192661
 30
0.0
  0
VERTEX
  8
0
 10
2.76140045504
 20
1.86807205915
 30
0.0
  0
VERTEX
  8
0
 10
2.71188371561
 20
1.86114022903
 30
0.0
  0
VERTEX
  8
0
 10
2.66247296593
 20
1.85348960733
 30
0.0
  0
VERTEX
  8
0
 10
2.61318371576
 20
1.84509198373
 30
0.0
  0
VERTEX
  8
0
 10
2.56403314198
 20
1.8359177255
 30
0.0
  0
VERTEX
  8
0
 10
2.51504027317
 20
1.82593574614
 30
0.0
  0
VERTEX
  8
0
 10
2.46622619235
 20
1.81511348697
 30
0.0
  0
VERTEX
  8
0
 10
2.4176142585
 20
1.80341691597
 30
0.0
  0
VERTEX
  8
0
 10
2.36923034719
 20
1.79081054905
 30
0.0
  0
VERTEX
  8
0
 10
2.32110310957
 20
1.77725749988
 30
0.0
  0
VERTEX
  8
0
 10
2.27326424839
 20
1.76271956578
 30
0.0
  0
VERTEX
  8
0
 10
2.22574880823
 20
1.74715735806
 30
0.0
  0
VERTEX
  8
0
 10
2.17859547516
 20
1.73053048678
 30
0.0
  0
VERTEX
  8
0
 10
2.13184687927
 20
1.71279781079
 30
0.0
  0
VERTEX
  8
0
 10
2.08554988996
 20
1.69391776486
 30
0.0
  0
VERTEX
  8
0
 10
2.03975589111
 20
1.67384877616
 30
0.0
  0
VERTEX
  8
0
 10
1.99452101859
 20
1.65254978187
 30
0.0
  0
VERTEX
  8
0
 10
1.94990633845
 20
1.62998085834
 30
0.0
  0
VERTEX
  8
0
 10
1.90597793906
 20
1.60610396907
 30
0.0
  0
VERTEX
  8
0
 10
1.86280690622
 20
1.58088383367
 30
0.0
  0
VERTEX
  8
0
 10
1.82046914675
 20
1.55428891234
 30
0.0
  0
VERTEX
  8
0
 10
1.77904502416
 20
1.52629249043
 30
0.0
  0
VERTEX
  8
0
 10
1.7386187718
 20
1.49687383507
 30
0.0
  0
VERTEX
  8
0
 10
1.69927765459
 20
1.46601938059
 30
0.0
  0
VERTEX
  8
0
 10
1.66111086182
 20
1.43372388472
 30
0.0
  0
VERTEX
  8
0
 10
1.62420813036
 20
1.39999148397
 30
0.0
  0
VERTEX
  8
0
 10
1.58865812121
 20
1.36483656629
 30
0.0
  0
VERTEX
  8
0
 10
1.5876146789
 20
1.36376146789
 30
0.0
  0
SEQEND
  8
0
  0
POLYLINE
  8
0
 62
0
 70
0
 66
1
 10
0.0
 20
0.0
 30
0.0
  0
VERTEX
  8
0
 10
3.04220183486
 20
2.13440366972
 30
0.0
  0
VERTEX
  8
0
 10
3.03815207617
 20
2.0846253849
 30
0.0
  0
VERTEX
  8
0
 10
3.02546460823
 20
2.03633593077
 30
0.0
  0
VERTEX
  8
0
 10
3.0037270244
 20
1.99140191586
 30
0.0
  0
VERTEX
  8
0
 10
2.97327458512
 20
1.95186010946
 30
0.0
  0
VERTEX
  8
0
 10
2.93528258183
 20
1.91949255555
 30
0.0
  0
VERTEX
  8
0
 10
2.89154706995
 20
1.89542701198
 30
0.0
  0
VERTEX
  8
0
 10
2.84406133893
 20
1.87998824381
 30
0.0
  0
VERTEX
  8
0
 10
2.81100917431
 20
1.87431192661
 30
0.0
  0
SEQEND
  8
0
  0
POLYLINE
  8
0
 62
0
 70
0
 66
1
 10
0.0
 20
0.0
 30
0.0
  0
VERTEX
  8
0
 10
2.95871559633
 20
2.74449541284
 30
0.0
  0
VERTEX
  8
0
 10
2.99186707507
 20
2.70715776834
 30
0.0
  0
VERTEX
  8
0
 10
3.01745137844
 20
2.66428960618
 30
0.0
  0
VERTEX
  8
0
 10
3.03424459755
 20
2.61727856529
 30
0.0
  0
VERTEX
  8
0
 10
3.04174016047
 20
2.56791813811
 30
0.0
  0
VERTEX
  8
0
 10
3.04220183486
 20
2.55183486239
 30
0.0
  0
SEQEND
  8
0
  0
POLYLINE
  8
0
 62
0
 70
0
 66
1
 10
0.0
 20
0.0
 30
0.0
  0
VERTEX
  8
0
 10
2.7628440367
 20
2.81513761468
 30
0.0
  0
VERTEX
  8
0
 10
2.81272805678
 20
2.81289517753
 30
0.0
  0
VERTEX
  8
0
 10
2.86140359427
 20
2.80176930794
 30
0.0
  0
VERTEX
  8
0
 10
2.90719901558
 20
2.78188375737
 30
0.0
  0
VERTEX
  8
0
 10
2.94838022999
 20
2.75366581975
 30
0.0
  0
VERTEX
  8
0
 10
2.95871559633
 20
2.74449541284
 30
0.0
  0
SEQEND
  8
0
  0
POLYLINE
  8
0
 62
0
 70
0
 66
1
 10
0.0
 20
0.0
 30
0.0
  0
VERTEX
  8
0
 10
0.630733944954
 20
2.0380733945
 30
0.0
  0
VERTEX
  8
0
 10
0.6660324166
 20
2.07348336478
 30
0.0
  0
VERTEX
  8
0
 10
0.702268265626
 20
2.10793354919
 30
0.0
  0
VERTEX
  8
0
 10
0.739403017455
 20
2.14141289371
 30
0.0
  0
VERTEX
  8
0
 10
0.777397160429
 20
2.17391375749
 30
0.0
  0
VERTEX
  8
0
 10
0.816210535194
 20
2.20543181665
 30
0.0
  0
VERTEX
  8
0
 10
0.855802704504
 20
2.23596592149
 30
0.0
  0
VERTEX
  8
0
 10
0.896133295027
 20
2.26551791612
 30
0.0
  0
VERTEX
  8
0
 10
0.937162305523
 20
2.29409242941
 30
0.0
  0
VERTEX
  8
0
 10
0.978850378912
 20
2.32169664439
 30
0.0
  0
VERTEX
  8
0
 10
1.0211590364
 20
2.34834005388
 30
0.0
  0
VERTEX
  8
0
 10
1.06405087347
 20
2.37403420957
 30
0.0
  0
VERTEX
  8
0
 10
1.10748971814
 20
2.39879247179
 30
0.0
  0
VERTEX
  8
0
 10
1.15144075448
 20
2.42262976379
 30
0.0
  0
VERTEX
  8
0
 10
1.19587061372
 20
2.44556233533
 30
0.0
  0
VERTEX
  8
0
 10
1.24074743617
 20
2.46760753866
 30
0.0
  0
VERTEX
  8
0
 10
1.28604090685
 20
2.48878362063
 30
0.0
  0
VERTEX
  8
0
 10
1.33172226925
 20
2.50910953016
 30
0.0
  0
VERTEX
  8
0
 10
1.37776432012
 20
2.52860474334
 30
0.0
  0
VERTEX
  8
0
 10
1.42414138842
 20
2.54728910612
 30
0.0
  0
VERTEX
  8
0
 10
1.47082930149
 20
2.56518269494
 30
0.0
  0
VERTEX
  8
0
 10
1.51780534144
 20
2.5823056932
 30
0.0
  0
VERTEX
  8
0
 10
1.56504819393
 20
2.59867828389
 30
0.0
  0
VERTEX
  8
0
 10
1.61253789118
 20
2.61432055753
 30
0.0
  0
VERTEX
  8
0
 10
1.66025575139
 20
2.62925243347
 30
0.0
  0
VERTEX
  8
0
 10
1.70818431596
 20
2.64349359361
 30
0.0
  0
VERTEX
  8
0
 10
1.75630728564
 20
2.65706342765
 30
0.0
  0
VERTEX
  8
0
 10
1.80460945657
 20
2.66998098857
 30
0.0
  0
VERTEX
  8
0
 10
1.8530766573
 20
2.68226495693
 30
0.0
  0
VERTEX
  8
0
 10
1.90169568713
 20
2.69393361321
 30
0.0
  0
VERTEX
  8
0
 10
1.95045425638
 20
2.70500481721
 30
0.0
  0
VERTEX
  8
0
 10
1.99934092894
 20
2.71549599345
 30
0.0
  0
VERTEX
  8
0
 10
2.04834506725
 20
2.72542412189
 30
0.0
  0
VERTEX
  8
0
 10
2.09745678001
 20
2.73480573325
 30
0.0
  0
VERTEX
  8
0
 10
2.14666687263
 20
2.74365690798
 30
0.0
  0
VERTEX
  8
0
 10
2.19596680039
 20
2.75199327876
 30
0.0
  0
VERTEX
  8
0
 10
2.24534862441
 20
2.75983003594
 30
0.0
  0
VERTEX
  8
0
 10
2.29480497034
 20
2.7671819348
 30
0.0
  0
VERTEX
  8
0
 10
2.34432898968
 20
2.77406330529
 30
0.0
  0
VERTEX
  8
0
 10
2.39391432361
 20
2.78048806342
 30
0.0
  0
VERTEX
  8
0
 10
2.44355506932
 20
2.78646972367
 30
0.0
  0
VERTEX
  8
0
 10
2.49324574866
 20
2.79202141275
 30
0.0
  0
VERTEX
  8
0
 10
2.54298127898
 20
2.79715588449
 30
0.0
  0
VERTEX
  8
0
 10
2.59275694607
 20
2.80188553537
 30
0.0
  0
VERTEX
  8
0
 10
2.64256837911
 20
2.80622242056
 30
0.0
  0
VERTEX
  8
0
 10
2.69241152746
 20
2.81017827099
 30
0.0
  0
VERTEX
  8
0
 10
2.74228263923
 20
2.81376451037
 30
0.0
  0
VERTEX
  8
0
 10
2.7628440367
 20
2.81513761468
 30
0.0
  0
SEQEND
  8
0
  0
POLYLINE
  8
0
 62
0
 70
0
 66
1
 10
0.0
 20
0.0
 30
0.0
  0
VERTEX
  8
0
 10
-0.00504587155963
 20
-0.0651376146789
 30
0.0
  0
VERTEX
  8
0
 10
-0.00487384347937
 20
-0.0151380105844
 30
0.0
  0
VERTEX
  8
0
 10
-0.00434855184496
 20
0.034859121882
 30
0.0
  0
VERTEX
  8
0
 10
-0.00345602790438
 20
0.0848510384526
 30
0.0
  0
VERTEX
  8
0
 10
-0.00218204615212
 20
0.134834679514
 30
0.0
  0
VERTEX
  8
0
 10
-0.000512071203666
 20
0.184806647748
 30
0.0
  0
VERTEX
  8
0
 10
0.00156879256469
 20
0.234763182733
 30
0.0
  0
VERTEX
  8
0
 10
0.00407584874418
 20
0.284700132322
 30
0.0
  0
VERTEX
  8
0
 10
0.00702485400553
 20
0.334612920614
 30
0.0
  0
VERTEX
  8
0
 10
0.0104320615391
 20
0.384496512274
 30
0.0
  0
VERTEX
  8
0
 10
0.014314263209
 20
0.434345372891
 30
0.0
  0
VERTEX
  8
0
 10
0.018688830452
 20
0.484153425075
 30
0.0
  0
VERTEX
  8
0
 10
0.0235737529295
 20
0.533914000034
 30
0.0
  0
VERTEX
  8
0
 10
0.0289876765194
 20
0.583619784155
 30
0.0
  0
VERTEX
  8
0
 10
0.034949939611
 20
0.63326276024
 30
0.0
  0
VERTEX
  8
0
 10
0.0414806070502
 20
0.682834143037
 30
0.0
  0
VERTEX
  8
0
 10
0.048600501522
 20
0.732324308651
 30
0.0
  0
VERTEX
  8
0
 10
0.0563312323072
 20
0.781722717346
 30
0.0
  0
VERTEX
  8
0
 10
0.0646952199738
 20
0.831017829399
 30
0.0
  0
VERTEX
  8
0
 10
0.0737157158564
 20
0.880197013718
 30
0.0
  0
VERTEX
  8
0
 10
0.0834168159339
 20
0.929246448771
 30
0.0
  0
VERTEX
  8
0
 10
0.0938234669195
 20
0.978151015748
 30
0.0
  0
VERTEX
  8
0
 10
0.104961462792
 20
1.02689418392
 30
0.0
  0
VERTEX
  8
0
 10
0.116857430834
 20
1.07545788805
 30
0.0
  0
VERTEX
  8
0
 10
0.129538803307
 20
1.12382239859
 30
0.0
  0
VERTEX
  8
0
 10
0.143033772468
 20
1.17196618527
 30
0.0
  0
VERTEX
  8
0
 10
0.157371226806
 20
1.21986577495
 30
0.0
  0
VERTEX
  8
0
 10
0.172580664582
 20
1.26749560558
 30
0.0
  0
VERTEX
  8
0
 10
0.188692079908
 20
1.31482787873
 30
0.0
  0
VERTEX
  8
0
 10
0.205735817626
 20
1.36183241403
 30
0.0
  0
VERTEX
  8
0
 10
0.223742395473
 20
1.40847650844
 30
0.0
  0
VERTEX
  8
0
 10
0.242742285761
 20
1.45472480687
 30
0.0
  0
VERTEX
  8
0
 10
0.262765654091
 20
1.50053918993
 30
0.0
  0
VERTEX
  8
0
 10
0.283842051277
 20
1.54587868688
 30
0.0
  0
VERTEX
  8
0
 10
0.306000058798
 20
1.59069942137
 30
0.0
  0
VERTEX
  8
0
 10
0.32926688242
 20
1.63495460225
 30
0.0
  0
VERTEX
  8
0
 10
0.353667897574
 20
1.67859456952
 30
0.0
  0
VERTEX
  8
0
 10
0.379226149145
 20
1.72156690819
 30
0.0
  0
VERTEX
  8
0
 10
0.4059618148
 20
1.76381664058
 30
0.0
  0
VERTEX
  8
0
 10
0.433891639004
 20
1.8052865103
 30
0.0
  0
VERTEX
  8
0
 10
0.463028354772
 20
1.84591736635
 30
0.0
  0
VERTEX
  8
0
 10
0.493380111458
 20
1.88564865411
 30
0.0
  0
VERTEX
  8
0
 10
0.52494993333
 20
1.92441901379
 30
0.0
  0
VERTEX
  8
0
 10
0.557735233157
 20
1.96216698378
 30
0.0
  0
VERTEX
  8
0
 10
0.591727409864
 20
1.9988317972
 30
0.0
  0
VERTEX
  8
0
 10
0.626911560221
 20
2.03435425089
 30
0.0
  0
VERTEX
  8
0
 10
0.630733944954
 20
2.0380733945
 30
0.0
  0
SEQEND
  8
0
  0
POLYLINE
  8
0
 62
0
 70
0
 66
1
 10
0.0
 20
0.0
 30
0.0
  0
VERTEX
  8
0
 10
0.630733944954
 20
-2.16513761468
 30
0.0
  0
VERTEX
  8
0
 10
0.595423783123
 20
-2.12974042666
 30
0.0
  0
VERTEX
  8
0
 10
0.561303513593
 20
-2.09319479712
 30
0.0
  0
VERTEX
  8
0
 10
0.528388617595
 20
-2.05555978833
 30
0.0
  0
VERTEX
  8
0
 10
0.496688260082
 20
-2.01689609908
 30
0.0
  0
VERTEX
  8
0
 10
0.466205567768
 20
-1.9772651909
 30
0.0
  0
VERTEX
  8
0
 10
0.43693802334
 20
-1.93672848478
 30
0.0
  0
VERTEX
  8
0
 10
0.408877945658
 20
-1.89534665015
 30
0.0
  0
VERTEX
  8
0
 10
0.382013028279
 20
-1.85317899732
 30
0.0
  0
VERTEX
  8
0
 10
0.356326908368
 20
-1.81028297888
 30
0.0
  0
VERTEX
  8
0
 10
0.331799745062
 20
-1.76671379706
 30
0.0
  0
VERTEX
  8
0
 10
0.308408786031
 20
-1.72252411229
 30
0.0
  0
VERTEX
  8
0
 10
0.286128908053
 20
-1.67776384311
 30
0.0
  0
VERTEX
  8
0
 10
0.264933118236
 20
-1.63248004741
 30
0.0
  0
VERTEX
  8
0
 10
0.244793012469
 20
-1.58671687107
 30
0.0
  0
VERTEX
  8
0
 10
0.225679184965
 20
-1.54051555324
 30
0.0
  0
VERTEX
  8
0
 10
0.207561588588
 20
-1.49391447638
 30
0.0
  0
VERTEX
  8
0
 10
0.190409844286
 20
-1.44694925188
 30
0.0
  0
VERTEX
  8
0
 10
0.174193506339
 20
-1.39965283005
 30
0.0
  0
VERTEX
  8
0
 10
0.158882283973
 20
-1.35205562827
 30
0.0
  0
VERTEX
  8
0
 10
0.144446223531
 20
-1.3041856704
 30
0.0
  0
VERTEX
  8
0
 10
0.130855854276
 20
-1.25606873261
 30
0.0
  0
VERTEX
  8
0
 10
0.11808230518
 20
-1.20772849044
 30
0.0
  0
VERTEX
  8
0
 10
0.106097394241
 20
-1.15918666482
 30
0.0
  0
VERTEX
  8
0
 10
0.0948736938366
 20
-1.11046316453
 30
0.0
  0
VERTEX
  8
0
 10
0.084384576759
 20
-1.06157622312
 30
0.0
  0
VERTEX
  8
0
 10
0.0746042460841
 20
-1.01254252922
 30
0.0
  0
VERTEX
  8
0
 10
0.0655077508925
 20
-0.9633773495
 30
0.0
  0
VERTEX
  8
0
 10
0.0570709900821
 20
-0.914094644079
 30
0.0
  0
VERTEX
  8
0
 10
0.0492707073824
 20
-0.864707173883
 30
0.0
  0
VERTEX
  8
0
 10
0.0420844783891
 20
-0.815226600304
 30
0.0
  0
VERTEX
  8
0
 10
0.0354906912372
 20
-0.765663577247
 30
0.0
  0
VERTEX
  8
0
 10
0.0294685228449
 20
-0.716027835774
 30
0.0
  0
VERTEX
  8
0
 10
0.023997910718
 20
-0.666328261858
 30
0.0
  0
VERTEX
  8
0
 10
0.0190595214686
 20
-0.61657296755
 30
0.0
  0
VERTEX
  8
0
 10
0.0146347173513
 20
-0.566769355911
 30
0.0
  0
VERTEX
  8
0
 10
0.0107055205482
 20
-0.516924180217
 30
0.0
  0
VERTEX
  8
0
 10
0.00725457545295
 20
-0.467043597825
 30
0.0
  0
VERTEX
  8
0
 10
0.00426510943423
 20
-0.417133219045
 30
0.0
  0
VERTEX
  8
0
 10
0.00172089293797
 20
-0.367198151358
 30
0.0
  0
VERTEX
  8
0
 10
-0.000393802658233
 20
-0.317243039417
 30
0.0
  0
VERTEX
  8
0
 10
-0.00209424860019
 20
-0.267272101061
 30
0.0
  0
VERTEX
  8
0
 10
-0.00339530398744
 20
-0.217289159618
 30
0.0
  0
VERTEX
  8
0
 10
-0.00431146303239
 20
-0.167297672775
 30
0.0
  0
VERTEX
  8
0
 10
-0.00485690558114
 20
-0.117300758201
 30
0.0
  0
VERTEX
  8
0
 10
-0.00504555067874
 20
-0.0673012161066
 30
0.0
  0
VERTEX
  8
0
 10
-0.00504587155963
 20
-0.0651376146789
 30
0.0
  0
SEQEND
  8
0
  0
POLYLINE
  8
0
 62
0
 70
0
 66
1
 10
0.0
 20
0.0
 30
0.0
  0
VERTEX
  8
0
 10
2.7628440367
 20
-2.93899082569
 30
0.0
  0
VERTEX
  8
0
 10
2.71294916695
 20
-2.93575190589
 30
0.0
  0
VERTEX
  8
0
 10
2.66307999374
 20
-2.93213894329
 30
0.0
  0
VERTEX
  8
0
 10
2.61324022205
 20
-2.92814089941
 30
0.0
  0
VERTEX
  8
0
 10
2.56343384709
 20
-2.92374642247
 30
0.0
  0
VERTEX
  8
0
 10
2.51366517524
 20
-2.91894383133
 30
0.0
  0
VERTEX
  8
0
 10
2.46393884658
 20
-2.91372109941
 30
0.0
  0
VERTEX
  8
0
 10
2.41425985931
 20
-2.90806583929
 30
0.0
  0
VERTEX
  8
0
 10
2.36463359604
 20
-2.90196528797
 30
0.0
  0
VERTEX
  8
0
 10
2.31506585215
 20
-2.89540629264
 30
0.0
  0
VERTEX
  8
0
 10
2.26556286633
 20
-2.88837529725
 30
0.0
  0
VERTEX
  8
0
 10
2.2161313533
 20
-2.88085833056
 30
0.0
  0
VERTEX
  8
0
 10
2.16677853897
 20
-2.87284099495
 30
0.0
  0
VERTEX
  8
0
 10
2.11751219816
 20
-2.86430845681
 30
0.0
  0
VERTEX
  8
0
 10
2.06834069477
 20
-2.85524543911
 30
0.0
  0
VERTEX
  8
0
 10
2.01927302467
 20
-2.84563621581
 30
0.0
  0
VERTEX
  8
0
 10
1.97031886134
 20
-2.83546460888
 30
0.0
  0
VERTEX
  8
0
 10
1.92148860424
 20
-2.82471398861
 30
0.0
  0
VERTEX
  8
0
 10
1.87279342983
 20
-2.81336727743
 30
0.0
  0
VERTEX
  8
0
 10
1.82424534538
 20
-2.80140695793
 30
0.0
  0
VERTEX
  8
0
 10
1.77585724519
 20
-2.78881508597
 30
0.0
  0
VERTEX
  8
0
 10
1.72764296921
 20
-2.7755733094
 30
0.0
  0
VERTEX
  8
0
 10
1.67961736364
 20
-2.76166289342
 30
0.0
  0
VERTEX
  8
0
 10
1.63179634306
 20
-2.7470647536
 30
0.0
  0
VERTEX
  8
0
 10
1.58419695365
 20
-2.73175949732
 30
0.0
  0
VERTEX
  8
0
 10
1.5368374367
 20
-2.71572747473
 30
0.0
  0
VERTEX
  8
0
 10
1.48973729137
 20
-2.69894884091
 30
0.0
  0
VERTEX
  8
0
 10
1.44291733564
 20
-2.68140362989
 30
0.0
  0
VERTEX
  8
0
 10
1.39639976436
 20
-2.66307184133
 30
0.0
  0
VERTEX
  8
0
 10
1.35020820215
 20
-2.64393354212
 30
0.0
  0
VERTEX
  8
0
 10
1.30436774953
 20
-2.6239689834
 30
0.0
  0
VERTEX
  8
0
 10
1.25890502017
 20
-2.6031587334
 30
0.0
  0
VERTEX
  8
0
 10
1.21384816652
 20
-2.58148382724
 30
0.0
  0
VERTEX
  8
0
 10
1.1692268909
 20
-2.55892593451
 30
0.0
  0
VERTEX
  8
0
 10
1.12507243876
 20
-2.53546754431
 30
0.0
  0
VERTEX
  8
0
 10
1.08141757168
 20
-2.51109216592
 30
0.0
  0
VERTEX
  8
0
 10
1.03829651557
 20
-2.48578454571
 30
0.0
  0
VERTEX
  8
0
 10
0.995744881196
 20
-2.45953089752
 30
0.0
  0
VERTEX
  8
0
 10
0.953799553564
 20
-2.43231914355
 30
0.0
  0
VERTEX
  8
0
 10
0.912498548062
 20
-2.40413916115
 30
0.0
  0
VERTEX
  8
0
 10
0.871880829796
 20
-2.37498303235
 30
0.0
  0
VERTEX
  8
0
 10
0.831986095466
 20
-2.3448452893
 30
0.0
  0
VERTEX
  8
0
 10
0.792854517327
 20
-2.31372314891
 30
0.0
  0
VERTEX
  8
0
 10
0.754526450775
 20
-2.28161672885
 30
0.0
  0
VERTEX
  8
0
 10
0.717042107094
 20
-2.2485292383
 30
0.0
  0
VERTEX
  8
0
 10
0.680441196445
 20
-2.21446713445
 30
0.0
  0
VERTEX
  8
0
 10
0.64476254835
 20
-2.17944023593
 30
0.0
  0
VERTEX
  8
0
 10
0.630733944954
 20
-2.16513761468
 30
0.0
  0
SEQEND
  8
0
  0
POLYLINE
  8
0
 62
0
 70
0
 66
1
 10
0.0
 20
0.0
 30
0.0
  0
VERTEX
  8
0
 10
2.95871559633
 20
-2.87155963303
 30
0.0
  0
VERTEX
  8
0
 10
2.91909579021
 20
-2.90192561873
 30
0.0
  0
VERTEX
  8
0
 10
2.8742800315
 20
-2.92391275691
 30
0.0
  0
VERTEX
  8
0
 10
2.82602395937
 20
-2.93669065457
 30
0.0
  0
VERTEX
  8
0
 10
2.77620084066
 20
-2.93980565594
 30
0.0
  0
VERTEX
  8
0
 10
2.7628440367
 20
-2.93899082569
 30
0.0
  0
SEQEND
  8
0
  0
POLYLINE
  8
0
 62
0
 70
0
 66
1
 10
0.0
 20
0.0
 30
0.0
  0
VERTEX
  8
0
 10
3.04220183486
 20
-2.67889908257
 30
0.0
  0
VERTEX
  8
0
 10
3.03767300137
 20
-2.72862271872
 30
0.0
  0
VERTEX
  8
0
 10
3.02385637673
 20
-2.77659419343
 30
0.0
  0
VERTEX
  8
0
 10
3.00099745821
 20
-2.82097390406
 30
0.0
  0
VERTEX
  8
0
 10
2.9701160098
 20
-2.86020544548
 30
0.0
  0
VERTEX
  8
0
 10
2.95871559633
 20
-2.87155963303
 30
0.0
  0
SEQEND
  8
0
  0
POLYLINE
  8
0
 62
0
 70
0
 66
1
 10
0.0
 20
0.0
 30
0.0
  0
VERTEX
  8
0
 10
3.8995412844
 20
2.81513761468
 30
0.0
  0
VERTEX
  8
0
 10
3.9494238601
 20
2.81171446949
 30
0.0
  0
VERTEX
  8
0
 10
3.99928015632
 20
2.8079278738
 30
0.0
  0
VERTEX
  8
0
 10
4.04910655051
 20
2.80376635056
 30
0.0
  0
VERTEX
  8
0
 10
4.09889912743
 20
2.79921812824
 30
0.0
  0
VERTEX
  8
0
 10
4.1486536584
 20
2.79427112422
 30
0.0
  0
VERTEX
  8
0
 10
4.1983655789
 20
2.78891292811
 30
0.0
  0
VERTEX
  8
0
 10
4.24802996437
 20
2.78313078606
 30
0.0
  0
VERTEX
  8
0
 10
4.29764150418
 20
2.77691158582
 30
0.0
  0
VERTEX
  8
0
 10
4.34719447352
 20
2.77024184233
 30
0.0
  0
VERTEX
  8
0
 10
4.39668270325
 20
2.76310768443
 30
0.0
  0
VERTEX
  8
0
 10
4.44609954754
 20
2.75549484307
 30
0.0
  0
VERTEX
  8
0
 10
4.49543784921
 20
2.74738864043
 30
0.0
  0
VERTEX
  8
0
 10
4.54468990257
 20
2.7387739808
 30
0.0
  0
VERTEX
  8
0
 10
4.59384741394
 20
2.7296353438
 30
0.0
  0
VERTEX
  8
0
 10
4.64290145954
 20
2.71995677952
 30
0.0
  0
VERTEX
  8
0
 10
4.69184244077
 20
2.70972190648
 30
0.0
  0
VERTEX
  8
0
 10
4.74066003698
 20
2.69891391301
 30
0.0
  0
VERTEX
  8
0
 10
4.7893431557
 20
2.68751556226
 30
0.0
  0
VERTEX
  8
0
 10
4.83787988037
 20
2.67550920158
 30
0.0
  0
VERTEX
  8
0
 10
4.88625741579
 20
2.66287677709
 30
0.0
  0
VERTEX
  8
0
 10
4.9344620316
 20
2.64959985402
 30
0.0
  0
VERTEX
  8
0
 10
4.98247900397
 20
2.6356596437
 30
0.0
  0
VERTEX
  8
0
 10
5.0302925561
 20
2.6210370383
 30
0.0
  0
VERTEX
  8
0
 10
5.07788579805
 20
2.60571265403
 30
0.0
  0
VERTEX
  8
0
 10
5.12524066664
 20
2.5896668838
 30
0.0
  0
VERTEX
  8
0
 10
5.17233786655
 20
2.57287996097
 30
0.0
  0
VERTEX
  8
0
 10
5.21915681355
 20
2.55533203478
 30
0.0
  0
VERTEX
  8
0
 10
5.26567558125
 20
2.53700325814
 30
0.0
  0
VERTEX
  8
0
 10
5.31187085327
 20
2.51787388997
 30
0.0
  0
VERTEX
  8
0
 10
5.35771788267
 20
2.49792441246
 30
0.0
  0
VERTEX
  8
0
 10
5.4031904605
 20
2.47713566331
 30
0.0
  0
VERTEX
  8
0
 10
5.4482608963
 20
2.4554889843
 30
0.0
  0
VERTEX
  8
0
 10
5.49290001329
 20
2.43296638654
 30
0.0
  0
VERTEX
  8
0
 10
5.53707716118
 20
2.40955073185
 30
0.0
  0
VERTEX
  8
0
 10
5.58076024912
 20
2.3852259285
 30
0.0
  0
VERTEX
  8
0
 10
5.62391580288
 20
2.35997714177
 30
0.0
  0
VERTEX
  8
0
 10
5.66650904884
 20
2.33379101619
 30
0.0
  0
VERTEX
  8
0
 10
5.70850402783
 20
2.30665590648
 30
0.0
  0
VERTEX
  8
0
 10
5.74986374065
 20
2.27856211277
 30
0.0
  0
VERTEX
  8
0
 10
5.79055032839
 20
2.24950211696
 30
0.0
  0
VERTEX
  8
0
 10
5.83052528772
 20
2.21947081348
 30
0.0
  0
VERTEX
  8
0
 10
5.86974972108
 20
2.18846572788
 30
0.0
  0
VERTEX
  8
0
 10
5.90818462031
 20
2.1564872164
 30
0.0
  0
VERTEX
  8
0
 10
5.94579118163
 20
2.12353864
 30
0.0
  0
VERTEX
  8
0
 10
5.98253114696
 20
2.08962650469
 30
0.0
  0
VERTEX
  8
0
 10
6.01836716446
 20
2.05476056008
 30
0.0
  0
VERTEX
  8
0
 10
6.03486238532
 20
2.0380733945
 30
0.0
  0
SEQEND
  8
0
  0
POLYLINE
  8
0
 62
0
 70
0
 66
1
 10
0.0
 20
0.0
 30
0.0
  0
VERTEX
  8
0
 10
3.70366972477
 20
2.74449541284
 30
0.0
  0
VERTEX
  8
0
 10
3.74371092489
 20
2.77434275393
 30
0.0
  0
VERTEX
  8
0
 10
3.78831721006
 20
2.79678094605
 30
0.0
  0
VERTEX
  8
0
 10
3.83627973449
 20
2.81064838221
 30
0.0
  0
VERTEX
  8
0
 10
3.88598259263
 20
2.81540359772
 30
0.0
  0
VERTEX
  8
0
 10
3.8995412844
 20
2.81513761468
 30
0.0
  0
SEQEND
  8
0
  0
POLYLINE
  8
0
 62
0
 70
0
 66
1
 10
0.0
 20
0.0
 30
0.0
  0
VERTEX
  8
0
 10
3.62339449541
 20
2.55183486239
 30
0.0
  0
VERTEX
  8
0
 10
3.62788545336
 20
2.60156369918
 30
0.0
  0
VERTEX
  8
0
 10
3.6414509462
 20
2.64961217127
 30
0.0
  0
VERTEX
  8
0
 10
3.66373939446
 20
2.69428843915
 30
0.0
  0
VERTEX
  8
0
 10
3.69381857525
 20
2.73414434474
 30
0.0
  0
VERTEX
  8
0
 10
3.70366972477
 20
2.74449541284
 30
0.0
  0
SEQEND
  8
0
  0
POLYLINE
  8
0
 62
0
 70
0
 66
1
 10
0.0
 20
0.0
 30
0.0
  0
VERTEX
  8
0
 10
3.85137614679
 20
1.87431192661
 30
0.0
  0
VERTEX
  8
0
 10
3.80241677976
 20
1.88416166624
 30
0.0
  0
VERTEX
  8
0
 10
3.75602623104
 20
1.90261087084
 30
0.0
  0
VERTEX
  8
0
 10
3.71420969489
 20
1.92985960968
 30
0.0
  0
VERTEX
  8
0
 10
3.67902473397
 20
1.96525083424
 30
0.0
  0
VERTEX
  8
0
 10
3.65206643875
 20
2.00725305079
 30
0.0
  0
VERTEX
  8
0
 10
3.63407814668
 20
2.05382099453
 30
0.0
  0
VERTEX
  8
0
 10
3.62493080664
 20
2.1029128407
 30
0.0
  0
VERTEX
  8
0
 10
3.62339449541
 20
2.13440366972
 30
0.0
  0
SEQEND
  8
0
  0
POLYLINE
  8
0
 62
0
 70
0
 66
1
 10
0.0
 20
0.0
 30
0.0
  0
VERTEX
  8
0
 10
5.07798165138
 20
1.36376146789
 30
0.0
  0
VERTEX
  8
0
 10
5.04230956304
 20
1.39879275791
 30
0.0
  0
VERTEX
  8
0
 10
5.00532402838
 20
1.43243457513
 30
0.0
  0
VERTEX
  8
0
 10
4.96710641671
 20
1.46467011378
 30
0.0
  0
VERTEX
  8
0
 10
4.92773979673
 20
1.49549219025
 30
0.0
  0
VERTEX
  8
0
 10
4.88730743261
 20
1.52490258369
 30
0.0
  0
VERTEX
  8
0
 10
4.84589146736
 20
1.55291118298
 30
0.0
  0
VERTEX
  8
0
 10
4.80357182403
 20
1.57953500885
 30
0.0
  0
VERTEX
  8
0
 10
4.7604253356
 20
1.60479717541
 30
0.0
  0
VERTEX
  8
0
 10
4.71652509767
 20
1.62872584675
 30
0.0
  0
VERTEX
  8
0
 10
4.6719400261
 20
1.65135323221
 30
0.0
  0
VERTEX
  8
0
 10
4.62673459405
 20
1.67271465186
 30
0.0
  0
VERTEX
  8
0
 10
4.58096871941
 20
1.69284769231
 30
0.0
  0
VERTEX
  8
0
 10
4.53469777327
 20
1.71179146381
 30
0.0
  0
VERTEX
  8
0
 10
4.48797268154
 20
1.72958596134
 30
0.0
  0
VERTEX
  8
0
 10
4.44084009483
 20
1.74627152695
 30
0.0
  0
VERTEX
  8
0
 10
4.39334260539
 20
1.76188840691
 30
0.0
  0
VERTEX
  8
0
 10
4.34551899372
 20
1.77647639476
 30
0.0
  0
VERTEX
  8
0
 10
4.29740449089
 20
1.79007455048
 30
0.0
  0
VERTEX
  8
0
 10
4.24903104591
 20
1.80272098544
 30
0.0
  0
VERTEX
  8
0
 10
4.2004275903
 20
1.81445270341
 30
0.0
  0
VERTEX
  8
0
 10
4.15162029419
 20
1.82530548852
 30
0.0
  0
VERTEX
  8
0
 10
4.1026328101
 20
1.83531383194
 30
0.0
  0
VERTEX
  8
0
 10
4.05348650214
 20
1.84451089014
 30
0.0
  0
VERTEX
  8
0
 10
4.00420065922
 20
1.85292846845
 30
0.0
  0
VERTEX
  8
0
 10
3.95479269186
 20
1.8605970247
 30
0.0
  0
VERTEX
  8
0
 10
3.90527831269
 20
1.86754568864
 30
0.0
  0
VERTEX
  8
0
 10
3.85567170105
 20
1.87380229325
 30
0.0
  0
VERTEX
  8
0
 10
3.85137614679
 20
1.87431192661
 30
0.0
  0
SEQEND
  8
0
  0
POLYLINE
  8
0
 62
0
 70
0
 66
1
 10
0.0
 20
0.0
 30
0.0
  0
VERTEX
  8
0
 10
5.50825688073
 20
-0.0651376146789
 30
0.0
  0
VERTEX
  8
0
 10
5.5080034697
 20
-0.0151384751545
 30
0.0
  0
VERTEX
  8
0
 10
5.50722319589
 20
0.0348551912715
 30
0.0
  0
VERTEX
  8
0
 10
5.50588541973
 20
0.0848370175963
 30
0.0
  0
VERTEX
  8
0
 10
5.50395852768
 20
0.134799568664
 30
0.0
  0
VERTEX
  8
0
 10
5.50140969783
 20
0.184734219684
 30
0.0
  0
VERTEX
  8
0
 10
5.49820468246
 20
0.234631012002
 30
0.0
  0
VERTEX
  8
0
 10
5.49430760334
 20
0.284478483751
 30
0.0
  0
VERTEX
  8
0
 10
5.48968075708
 20
0.334263472522
 30
0.0
  0
VERTEX
  8
0
 10
5.48428442989
 20
0.383970886721
 30
0.0
  0
VERTEX
  8
0
 10
5.47807672266
 20
0.433583441882
 30
0.0
  0
VERTEX
  8
0
 10
5.4710133891
 20
0.483081357874
 30
0.0
  0
VERTEX
  8
0
 10
5.46304769162
 20
0.532442012794
 30
0.0
  0
VERTEX
  8
0
 10
5.45413028214
 20
0.581639549371
 30
0.0
  0
VERTEX
  8
0
 10
5.44420911778
 20
0.630644430189
 30
0.0
  0
VERTEX
  8
0
 10
5.43322942464
 20
0.679422938973
 30
0.0
  0
VERTEX
  8
0
 10
5.42113372721
 20
0.72793662707
 30
0.0
  0
VERTEX
  8
0
 10
5.40786196518
 20
0.776141707113
 30
0.0
  0
VERTEX
  8
0
 10
5.39335172486
 20
0.823988400408
 30
0.0
  0
VERTEX
  8
0
 10
5.37753861774
 20
0.871420251076
 30
0.0
  0
VERTEX
  8
0
 10
5.36035684363
 20
0.918373429057
 30
0.0
  0
VERTEX
  8
0
 10
5.34173998017
 20
0.964776056132
 30
0.0
  0
VERTEX
  8
0
 10
5.32162204099
 20
1.01054760432
 30
0.0
  0
VERTEX
  8
0
 10
5.29993884197
 20
1.05559843415
 30
0.0
  0
VERTEX
  8
0
 10
5.27662970402
 20
1.0998295601
 30
0.0
  0
VERTEX
  8
0
 10
5.2516394998
 20
1.14313274936
 30
0.0
  0
VERTEX
  8
0
 10
5.22492101869
 20
1.18539107369
 30
0.0
  0
VERTEX
  8
0
 10
5.1964375775
 20
1.2264800368
 30
0.0
  0
VERTEX
  8
0
 10
5.166165745
 20
1.26626938253
 30
0.0
  0
VERTEX
  8
0
 10
5.13409798511
 20
1.30462564645
 30
0.0
  0
VERTEX
  8
0
 10
5.10024496719
 20
1.34141544048
 30
0.0
  0
VERTEX
  8
0
 10
5.07798165138
 20
1.36376146789
 30
0.0
  0
SEQEND
  8
0
  0
POLYLINE
  8
0
 62
0
 70
0
 66
1
 10
0.0
 20
0.0
 30
0.0
  0
VERTEX
  8
0
 10
5.07798165138
 20
-1.49082568807
 30
0.0
  0
VERTEX
  8
0
 10
5.11294662382
 20
-1.45509123716
 30
0.0
  0
VERTEX
  8
0
 10
5.14614358548
 20
-1.41770824913
 30
0.0
  0
VERTEX
  8
0
 10
5.1775497782
 20
-1.37880828716
 30
0.0
  0
VERTEX
  8
0
 10
5.20716174882
 20
-1.33852529161
 30
0.0
  0
VERTEX
  8
0
 10
5.23499337958
 20
-1.29699189988
 30
0.0
  0
VERTEX
  8
0
 10
5.26107341627
 20
-1.25433644588
 30
0.0
  0
VERTEX
  8
0
 10
5.28544276889
 20
-1.21068070691
 30
0.0
  0
VERTEX
  8
0
 10
5.30815181617
 20
-1.16613837592
 30
0.0
  0
VERTEX
  8
0
 10
5.32925788337
 20
-1.12081417595
 30
0.0
  0
VERTEX
  8
0
 10
5.34882300047
 20
-1.07480350189
 30
0.0
  0
VERTEX
  8
0
 10
5.36691199276
 20
-1.02819246644
 30
0.0
  0
VERTEX
  8
0
 10
5.38359091531
 20
-0.981058235355
 30
0.0
  0
VERTEX
  8
0
 10
5.39892581373
 20
-0.933469552675
 30
0.0
  0
VERTEX
  8
0
 10
5.41298177751
 20
-0.885487376863
 30
0.0
  0
VERTEX
  8
0
 10
5.42582224505
 20
-0.837165567884
 30
0.0
  0
VERTEX
  8
0
 10
5.43750851768
 20
-0.788551582267
 30
0.0
  0
VERTEX
  8
0
 10
5.44809944271
 20
-0.739687147197
 30
0.0
  0
VERTEX
  8
0
 10
5.45765122988
 20
-0.690608895434
 30
0.0
  0
VERTEX
  8
0
 10
5.46621737089
 20
-0.641348950866
 30
0.0
  0
VERTEX
  8
0
 10
5.47384863712
 20
-0.59193546016
 30
0.0
  0
VERTEX
  8
0
 10
5.48059313543
 20
-0.542393069771
 30
0.0
  0
VERTEX
  8
0
 10
5.48649640641
 20
-0.492743350056
 30
0.0
  0
VERTEX
  8
0
 10
5.49160155334
 20
-0.443005169648
 30
0.0
  0
VERTEX
  8
0
 10
5.49594939288
 20
-0.393195024023
 30
0.0
  0
VERTEX
  8
0
 10
5.49957862169
 20
-0.343327322464
 30
0.0
  0
VERTEX
  8
0
 10
5.50252599483
 20
-0.293414637559
 30
0.0
  0
VERTEX
  8
0
 10
5.50482651428
 20
-0.243467921174
 30
0.0
  0
VERTEX
  8
0
 10
5.50651362732
 20
-0.193496690445
 30
0.0
  0
VERTEX
  8
0
 10
5.50761943636
 20
-0.143509186901
 30
0.0
  0
VERTEX
  8
0
 10
5.50817492377
 20
-0.0935125113543
 30
0.0
  0
VERTEX
  8
0
 10
5.50825688073
 20
-0.0651376146789
 30
0.0
  0
SEQEND
  8
0
  0
POLYLINE
  8
0
 62
0
 70
0
 66
1
 10
0.0
 20
0.0
 30
0.0
  0
VERTEX
  8
0
 10
3.85137614679
 20
-2.00137614679
 30
0.0
  0
VERTEX
  8
0
 10
3.90099011764
 20
-1.99517814789
 30
0.0
  0
VERTEX
  8
0
 10
3.95051301568
 20
-1.98829043803
 30
0.0
  0
VERTEX
  8
0
 10
3.99993078696
 20
-1.9806852945
 30
0.0
  0
VERTEX
  8
0
 10
4.04922785779
 20
-1.97233370116
 30
0.0
  0
VERTEX
  8
0
 10
4.09838697144
 20
-1.963205316
 30
0.0
  0
VERTEX
  8
0
 10
4.14738900904
 20
-1.95326845067
 30
0.0
  0
VERTEX
  8
0
 10
4.19621279421
 20
-1.94249006527
 30
0.0
  0
VERTEX
  8
0
 10
4.24483488123
 20
-1.93083578285
 30
0.0
  0
VERTEX
  8
0
 10
4.29322932724
 20
-1.91826992874
 30
0.0
  0
VERTEX
  8
0
 10
4.34136744956
 20
-1.90475560087
 30
0.0
  0
VERTEX
  8
0
 10
4.38921757061
 20
-1.89025477814
 30
0.0
  0
VERTEX
  8
0
 10
4.43674475384
 20
-1.874728475
 30
0.0
  0
VERTEX
  8
0
 10
4.48391053632
 20
-1.8581369513
 30
0.0
  0
VERTEX
  8
0
 10
4.53067266561
 20
-1.84043998697
 30
0.0
  0
VERTEX
  8
0
 10
4.57698485133
 20
-1.82159723206
 30
0.0
  0
VERTEX
  8
0
 10
4.62279654496
 20
-1.80156864174
 30
0.0
  0
VERTEX
  8
0
 10
4.66805276513
 20
-1.78031500545
 30
0.0
  0
VERTEX
  8
0
 10
4.71269398914
 20
-1.75779857683
 30
0.0
  0
VERTEX
  8
0
 10
4.75665613542
 20
-1.73398380784
 30
0.0
  0
VERTEX
  8
0
 10
4.79987066446
 20
-1.70883818429
 30
0.0
  0
VERTEX
  8
0
 10
4.84226482751
 20
-1.68233315321
 30
0.0
  0
VERTEX
  8
0
 10
4.8837620924
 20
-1.65444512261
 30
0.0
  0
VERTEX
  8
0
 10
4.92428277234
 20
-1.62515650321
 30
0.0
  0
VERTEX
  8
0
 10
4.96374487624
 20
-1.59445674922
 30
0.0
  0
VERTEX
  8
0
 10
5.00206518783
 20
-1.56234334388
 30
0.0
  0
VERTEX
  8
0
 10
5.0391605644
 20
-1.52882266607
 30
0.0
  0
VERTEX
  8
0
 10
5.07494942626
 20
-1.49391066908
 30
0.0
  0
VERTEX
  8
0
 10
5.07798165138
 20
-1.49082568807
 30
0.0
  0
SEQEND
  8
0
  0
POLYLINE
  8
0
 62
0
 70
0
 66
1
 10
0.0
 20
0.0
 30
0.0
  0
VERTEX
  8
0
 10
3.62339449541
 20
-2.26146788991
 30
0.0
  0
VERTEX
  8
0
 10
3.62731541783
 20
-2.21167583703
 30
0.0
  0
VERTEX
  8
0
 10
3.63966615589
 20
-2.16329639497
 30
0.0
  0
VERTEX
  8
0
 10
3.6609933433
 20
-2.11816558017
 30
0.0
  0
VERTEX
  8
0
 10
3.69112519295
 20
-2.07838191962
 30
0.0
  0
VERTEX
  8
0
 10
3.72898005745
 20
-2.04586059863
 30
0.0
  0
VERTEX
  8
0
 10
3.77273236008
 20
-2.02183381122
 30
0.0
  0
VERTEX
  8
0
 10
3.82028848204
 20
-2.00662025818
 30
0.0
  0
VERTEX
  8
0
 10
3.85137614679
 20
-2.00137614679
 30
0.0
  0
SEQEND
  8
0
  0
POLYLINE
  8
0
 62
0
 70
0
 66
1
 10
0.0
 20
0.0
 30
0.0
  0
VERTEX
  8
0
 10
3.70366972477
 20
-2.87155963303
 30
0.0
  0
VERTEX
  8
0
 10
3.67159373956
 20
-2.83328975788
 30
0.0
  0
VERTEX
  8
0
 10
3.64696239624
 20
-2.78985996095
 30
0.0
  0
VERTEX
  8
0
 10
3.63083969722
 20
-2.74260847066
 30
0.0
  0
VERTEX
  8
0
 10
3.62375736749
 20
-2.69318389379
 30
0.0
  0
VERTEX
  8
0
 10
3.62339449541
 20
-2.67889908257
 30
0.0
  0
SEQEND
  8
0
  0
POLYLINE
  8
0
 62
0
 70
0
 66
1
 10
0.0
 20
0.0
 30
0.0
  0
VERTEX
  8
0
 10
3.8995412844
 20
-2.93899082569
 30
0.0
  0
VERTEX
  8
0
 10
3.84962585347
 20
-2.93843734362
 30
0.0
  0
VERTEX
  8
0
 10
3.80082978903
 20
-2.92792861918
 30
0.0
  0
VERTEX
  8
0
 10
3.75505417111
 20
-2.90800744036
 30
0.0
  0
VERTEX
  8
0
 10
3.7136903809
 20
-2.88003118878
 30
0.0
  0
VERTEX
  8
0
 10
3.70366972477
 20
-2.87155963303
 30
0.0
  0
SEQEND
  8
0
  0
POLYLINE
  8
0
 62
0
 70
0
 66
1
 10
0.0
 20
0.0
 30
0.0
  0
VERTEX
  8
0
 10
6.03486238532
 20
-2.16513761468
 30
0.0
  0
VERTEX
  8
0
 10
5.99946308298
 20
-2.20044684918
 30
0.0
  0
VERTEX
  8
0
 10
5.96314261689
 20
-2.23480787151
 30
0.0
  0
VERTEX
  8
0
 10
5.92593767689
 20
-2.26820925599
 30
0.0
  0
VERTEX
  8
0
 10
5.88788603421
 20
-2.30064283221
 30
0.0
  0
VERTEX
  8
0
 10
5.84902617673
 20
-2.33210360959
 30
0.0
  0
VERTEX
  8
0
 10
5.80939695951
 20
-2.36258965721
 30
0.0
  0
VERTEX
  8
0
 10
5.76903727879
 20
-2.39210194685
 30
0.0
  0
VERTEX
  8
0
 10
5.72798577502
 20
-2.42064416718
 30
0.0
  0
VERTEX
  8
0
 10
5.68628056774
 20
-2.44822251541
 30
0.0
  0
VERTEX
  8
0
 10
5.64395902455
 20
-2.47484547359
 30
0.0
  0
VERTEX
  8
0
 10
5.60105756485
 20
-2.5005235762
 30
0.0
  0
VERTEX
  8
0
 10
5.55761149853
 20
-2.52526917623
 30
0.0
  0
VERTEX
  8
0
 10
5.51365489718
 20
-2.54909621306
 30
0.0
  0
VERTEX
  8
0
 10
5.46922049598
 20
-2.57201998728
 30
0.0
  0
VERTEX
  8
0
 10
5.42433962374
 20
-2.59405694546
 30
0.0
  0
VERTEX
  8
0
 10
5.37904215853
 20
-2.6152244788
 30
0.0
  0
VERTEX
  8
0
 10
5.33335650472
 20
-2.63554073508
 30
0.0
  0
VERTEX
  8
0
 10
5.28730958912
 20
-2.6550244464
 30
0.0
  0
VERTEX
  8
0
 10
5.24092687313
 20
-2.67369477328
 30
0.0
  0
VERTEX
  8
0
 10
5.19423237811
 20
-2.69157116501
 30
0.0
  0
VERTEX
  8
0
 10
5.14724872098
 20
-2.7086732352
 30
0.0
  0
VERTEX
  8
0
 10
5.09999715817
 20
-2.72502065234
 30
0.0
  0
VERTEX
  8
0
 10
5.05249763591
 20
-2.74063304539
 30
0.0
  0
VERTEX
  8
0
 10
5.00476884476
 20
-2.75552992208
 30
0.0
  0
VERTEX
  8
0
 10
4.95682827707
 20
-2.76973059932
 30
0.0
  0
VERTEX
  8
0
 10
4.9086922861
 20
-2.78325414507
 30
0.0
  0
VERTEX
  8
0
 10
4.86037614585
 20
-2.79611933034
 30
0.0
  0
VERTEX
  8
0
 10
4.81189411043
 20
-2.8083445899
 30
0.0
  0
VERTEX
  8
0
 10
4.76325947271
 20
-2.81994799121
 30
0.0
  0
VERTEX
  8
0
 10
4.71448462136
 20
-2.83094721043
 30
0.0
  0
VERTEX
  8
0
 10
4.66558109616
 20
-2.84135951457
 30
0.0
  0
VERTEX
  8
0
 10
4.61655964108
 20
-2.85120174916
 30
0.0
  0
VERTEX
  8
0
 10
4.56743025513
 20
-2.86049033054
 30
0.0
  0
VERTEX
  8
0
 10
4.5182022406
 20
-2.86924124213
 30
0.0
  0
VERTEX
  8
0
 10
4.46888424889
 20
-2.87747003433
 30
0.0
  0
VERTEX
  8
0
 10
4.41948432373
 20
-2.88519182741
 30
0.0
  0
VERTEX
  8
0
 10
4.37000994189
 20
-2.89242131654
 30
0.0
  0
VERTEX
  8
0
 10
4.32046805135
 20
-2.89917277933
 30
0.0
  0
VERTEX
  8
0
 10
4.27086510714
 20
-2.90546008514
 30
0.0
  0
VERTEX
  8
0
 10
4.22120710475
 20
-2.91129670554
 30
0.0
  0
VERTEX
  8
0
 10
4.17149961135
 20
-2.91669572622
 30
0.0
  0
VERTEX
  8
0
 10
4.1217477949
 20
-2.92166986014
 30
0.0
  0
VERTEX
  8
0
 10
4.07195645115
 20
-2.9262314612
 30
0.0
  0
VERTEX
  8
0
 10
4.02213002878
 20
-2.93039253867
 30
0.0
  0
VERTEX
  8
0
 10
3.97227265269
 20
-2.93416477254
 30
0.0
  0
VERTEX
  8
0
 10
3.92238814557
 20
-2.93755952888
 30
0.0
  0
VERTEX
  8
0
 10
3.8995412844
 20
-2.93899082569
 30
0.0
  0
SEQEND
  8
0
  0
POLYLINE
  8
0
 62
0
 70
0
 66
1
 10
0.0
 20
0.0
 30
0.0
  0
VERTEX
  8
0
 10
6.66743119266
 20
-0.0651376146789
 30
0.0
  0
VERTEX
  8
0
 10
6.66726259633
 20
-0.115137234326
 30
0.0
  0
VERTEX
  8
0
 10
6.66674719284
 20
-0.165134473371
 30
0.0
  0
VERTEX
  8
0
 10
6.66587043613
 20
-0.215126672425
 30
0.0
  0
VERTEX
  8
0
 10
6.66461756216
 20
-0.265110850297
 30
0.0
  0
VERTEX
  8
0
 10
6.66297352933
 20
-0.315083681807
 30
0.0
  0
VERTEX
  8
0
 10
6.66092296271
 20
-0.365041472447
 30
0.0
  0
VERTEX
  8
0
 10
6.65845010154
 20
-0.414980129708
 30
0.0
  0
VERTEX
  8
0
 10
6.65553874994
 20
-0.464895130897
 30
0.0
  0
VERTEX
  8
0
 10
6.65217222982
 20
-0.514781487191
 30
0.0
  0
VERTEX
  8
0
 10
6.64833333551
 20
-0.564633703622
 30
0.0
  0
VERTEX
  8
0
 10
6.64400428987
 20
-0.614445734671
 30
0.0
  0
VERTEX
  8
0
 10
6.63916670299
 20
-0.664210935226
 30
0.0
  0
VERTEX
  8
0
 10
6.63380153192
 20
-0.713922006416
 30
0.0
  0
VERTEX
  8
0
 10
6.62788904217
 20
-0.763570935957
 30
0.0
  0
VERTEX
  8
0
 10
6.62140877176
 20
-0.813148932629
 30
0.0
  0
VERTEX
  8
0
 10
6.61433949818
 20
-0.862646354503
 30
0.0
  0
VERTEX
  8
0
 10
6.60665920808
 20
-0.912052630358
 30
0.0
  0
VERTEX
  8
0
 10
6.59834507125
 20
-0.961356173992
 30
0.0
  0
VERTEX
  8
0
 10
6.58937342003
 20
-1.0105442911
 30
0.0
  0
VERTEX
  8
0
 10
6.57971973468
 20
-1.05960307827
 30
0.0
  0
VERTEX
  8
0
 10
6.5693586367
 20
-1.10851731405
 30
0.0
  0
VERTEX
  8
0
 10
6.55826389222
 20
-1.15727034195
 30
0.0
  0
VERTEX
  8
0
 10
6.54640842626
 20
-1.20584394545
 30
0.0
  0
VERTEX
  8
0
 10
6.53376435182
 20
-1.2542182155
 30
0.0
  0
VERTEX
  8
0
 10
6.52030301613
 20
-1.30237141137
 30
0.0
  0
VERTEX
  8
0
 10
6.50599506691
 20
-1.35027981587
 30
0.0
  0
VERTEX
  8
0
 10
6.49081054134
 20
-1.39791758642
 30
0.0
  0
VERTEX
  8
0
 10
6.47471898408
 20
-1.4452566051
 30
0.0
  0
VERTEX
  8
0
 10
6.45768959712
 20
-1.49226633075
 30
0.0
  0
VERTEX
  8
0
 10
6.43969142426
 20
-1.5389136567
 30
0.0
  0
VERTEX
  8
0
 10
6.42069357629
 20
-1.58516278016
 30
0.0
  0
VERTEX
  8
0
 10
6.40066550114
 20
-1.63097509005
 30
0.0
  0
VERTEX
  8
0
 10
6.37957730225
 20
-1.67630908133
 30
0.0
  0
VERTEX
  8
0
 10
6.35740010472
 20
-1.72112030404
 30
0.0
  0
VERTEX
  8
0
 10
6.33410647379
 20
-1.76536135897
 30
0.0
  0
VERTEX
  8
0
 10
6.30967088297
 20
-1.80898195146
 30
0.0
  0
VERTEX
  8
0
 10
6.28407022808
 20
-1.85192901576
 30
0.0
  0
VERTEX
  8
0
 10
6.25728437765
 20
-1.89414692102
 30
0.0
  0
VERTEX
  8
0
 10
6.2292967508
 20
-1.93557777179
 30
0.0
  0
VERTEX
  8
0
 10
6.20009490616
 20
-1.97616181196
 30
0.0
  0
VERTEX
  8
0
 10
6.16967112131
 20
-2.01583793811
 30
0.0
  0
VERTEX
  8
0
 10
6.13802293753
 20
-2.05454432241
 30
0.0
  0
VERTEX
  8
0
 10
6.10515364369
 20
-2.09221914082
 30
0.0
  0
VERTEX
  8
0
 10
6.0710726707
 20
-2.12880139421
 30
0.0
  0
VERTEX
  8
0
 10
6.03579586538
 20
-2.16423179979
 30
0.0
  0
VERTEX
  8
0
 10
6.03486238532
 20
-2.16513761468
 30
0.0
  0
SEQEND
  8
0
  0
POLYLINE
  8
0
 62
0
 70
0
 66
1
 10
0.0
 20
0.0
 30
0.0
  0
VERTEX
  8
0
 10
6.03486238532
 20
2.0380733945
 30
0.0
  0
VERTEX
  8
0
 10
6.07017001025
 20
2.0026737044
 30
0.0
  0
VERTEX
  8
0
 10
6.10428219097
 20
1.96612055348
 30
0.0
  0
VERTEX
  8
0
 10
6.1371828049
 20
1.92847308745
 30
0.0
  0
VERTEX
  8
0
 10
6.16886215985
 20
1.88979221588
 30
0.0
  0
VERTEX
  8
0
 10
6.19931672713
 20
1.85013971781
 30
0.0
  0
VERTEX
  8
0
 10
6.22854875257
 20
1.80957741612
 30
0.0
  0
VERTEX
  8
0
 10
6.25656577587
 20
1.76816644375
 30
0.0
  0
VERTEX
  8
0
 10
6.28338008705
 20
1.72596661434
 30
0.0
  0
VERTEX
  8
0
 10
6.30900814873
 20
1.68303590383
 30
0.0
  0
VERTEX
  8
0
 10
6.33347000641
 20
1.63943004057
 30
0.0
  0
VERTEX
  8
0
 10
6.35678870896
 20
1.59520219956
 30
0.0
  0
VERTEX
  8
0
 10
6.37898975432
 20
1.55040279099
 30
0.0
  0
VERTEX
  8
0
 10
6.40010057474
 20
1.50507933305
 30
0.0
  0
VERTEX
  8
0
 10
6.42015006536
 20
1.45927639466
 30
0.0
  0
VERTEX
  8
0
 10
6.43916816268
 20
1.41303559708
 30
0.0
  0
VERTEX
  8
0
 10
6.45718547353
 20
1.36639566224
 30
0.0
  0
VERTEX
  8
0
 10
6.4742329564
 20
1.31939249799
 30
0.0
  0
VERTEX
  8
0
 10
6.49034164829
 20
1.27205930908
 30
0.0
  0
VERTEX
  8
0
 10
6.50554243664
 20
1.22442672693
 30
0.0
  0
VERTEX
  8
0
 10
6.51986587189
 20
1.17652295141
 30
0.0
  0
VERTEX
  8
0
 10
6.53334201771
 20
1.12837389928
 30
0.0
  0
VERTEX
  8
0
 10
6.54600033123
 20
1.08000335415
 30
0.0
  0
VERTEX
  8
0
 10
6.55786957161
 20
1.03143311533
 30
0.0
  0
VERTEX
  8
0
 10
6.56897773341
 20
0.982683143219
 30
0.0
  0
VERTEX
  8
0
 10
6.57935199991
 20
0.933771698975
 30
0.0
  0
VERTEX
  8
0
 10
6.58901871317
 20
0.884715477353
 30
0.0
  0
VERTEX
  8
0
 10
6.59800335869
 20
0.835529732127
 30
0.0
  0
VERTEX
  8
0
 10
6.60633056236
 20
0.786228393647
 30
0.0
  0
VERTEX
  8
0
 10
6.61402409648
 20
0.736824178199
 30
0.0
  0
VERTEX
  8
0
 10
6.62110689414
 20
0.687328689417
 30
0.0
  0
VERTEX
  8
0
 10
6.6276010701
 20
0.637752511898
 30
0.0
  0
VERTEX
  8
0
 10
6.63352794627
 20
0.588105297206
 30
0.0
  0
VERTEX
  8
0
 10
6.63890808182
 20
0.538395842813
 30
0.0
  0
VERTEX
  8
0
 10
6.64376130688
 20
0.488632164282
 30
0.0
  0
VERTEX
  8
0
 10
6.64810675809
 20
0.438821561053
 30
0.0
  0
VERTEX
  8
0
 10
6.6519629168
 20
0.388970676362
 30
0.0
  0
VERTEX
  8
0
 10
6.65534764939
 20
0.339085551691
 30
0.0
  0
VERTEX
  8
0
 10
6.65827824922
 20
0.289171676103
 30
0.0
  0
VERTEX
  8
0
 10
6.66077147947
 20
0.239234030814
 30
0.0
  0
VERTEX
  8
0
 10
6.66284361856
 20
0.189277129447
 30
0.0
  0
VERTEX
  8
0
 10
6.66451050721
 20
0.139305054217
 30
0.0
  0
VERTEX
  8
0
 10
6.66578759738
 20
0.0893214883142
 30
0.0
  0
VERTEX
  8
0
 10
6.66669000386
 20
0.0393297447862
 30
0.0
  0
VERTEX
  8
0
 10
6.66723255942
 20
-0.0106672078871
 30
0.0
  0
VERTEX
  8
0
 10
6.6674298736
 20
-0.0606667233522
 30
0.0
  0
VERTEX
  8
0
 10
6.66743119266
 20
-0.0651376146789
 30
0.0
  0
SEQEND
  8
0
  0
LINE
  8
0
 62
0
 10
-20.4620397309
 20
14.8051854814
 30
0.0
 11
-12.3743686708
 21
6.71751442127
 31
0.0
  0
ARC
  8
0
 62
0
 10
-14.4956890143
 20
4.59619407771
 30
0.0
 40
3.0
 50
-45.0
 51
45.0
  0
ARC
  8
0
 62
0
 10
-31.0686414487
 20
4.19858376362
 30
0.0
 40
15.0
 50
45.0
 51
72.905472791
  0
LINE
  8
0
 62
0
 10
-12.3743686708
 20
2.47487373416
 30
0.0
 11
-13.081475452
 21
1.76776695297
 31
0.0
  0
ARC
  8
0
 62
0
 10
-24.7487373415
 20
24.7487373415
 30
0.0
 40
6.5
 50
17.0945272089
 51
-107.094527209
  0
ARC
  8
0
 62
0
 10
-11.313708499
 20
-2.10942374679e-15
 30
0.0
 40
2.5
 50
135.0
 51
-135.0
  0
ARC
  8
0
 62
0
 10
-4.19858376359
 20
31.0686414487
 30
0.0
 40
15.0
 50
-162.905472791
 51
-135.0
  0
LINE
  8
0
 62
0
 10
-13.081475452
 20
-1.76776695297
 30
0.0
 11
-12.3743686708
 21
-2.47487373416
 31
0.0
  0
LINE
  8
0
 62
0
 10
-6.71751442127
 20
12.3743686708
 30
0.0
 11
-14.8051854814
 21
20.4620397309
 31
0.0
  0
ARC
  8
0
 62
0
 10
-14.4956890143
 20
-4.59619407771
 30
0.0
 40
3.0
 50
-45.0
 51
45.0
  0
ARC
  8
0
 62
0
 10
-4.59619407771
 20
14.4956890143
 30
0.0
 40
3.0
 50
-135.0
 51
-45.0
  0
LINE
  8
0
 62
0
 10
-20.4620397309
 20
-14.8051854814
 30
0.0
 11
-12.3743686708
 21
-6.71751442127
 31
0.0
  0
LINE
  8
0
 62
0
 10
-1.76776695297
 20
13.081475452
 30
0.0
 11
-2.47487373415
 21
12.3743686708
 31
0.0
  0
ARC
  8
0
 62
0
 10
-31.0686414487
 20
-4.19858376362
 30
0.0
 40
15.0
 50
-72.905472791
 51
-45.0
  0
ARC
  8
0
 62
0
 10
-2.49800180541e-15
 20
11.313708499
 30
0.0
 40
2.5
 50
45.0
 51
135.0
  0
ARC
  8
0
 62
0
 10
-24.7487373415
 20
-24.7487373415
 30
0.0
 40
6.5
 50
107.094527209
 51
-17.0945272089
  0
LINE
  8
0
 62
0
 10
2.47487373415
 20
12.3743686708
 30
0.0
 11
1.76776695297
 21
13.081475452
 31
0.0
  0
ARC
  8
0
 62
0
 10
-4.19858376359
 20
-31.0686414487
 30
0.0
 40
15.0
 50
135.0
 51
162.905472791
  0
ARC
  8
0
 62
0
 10
4.59619407771
 20
14.4956890143
 30
0.0
 40
3.0
 50
-135.0
 51
-45.0
  0
LINE
  8
0
 62
0
 10
-6.71751442127
 20
-12.3743686708
 30
0.0
 11
-14.8051854814
 21
-20.4620397309
 31
0.0
  0
LINE
  8
0
 62
0
 10
6.71751442127
 20
12.3743686708
 30
0.0
 11
14.8051854814
 21
20.4620397309
 31
0.0
  0
ARC
  8
0
 62
0
 10
-4.59619407771
 20
-14.4956890143
 30
0.0
 40
3.0
 50
45.0
 51
135.0
  0
ARC
  8
0
 62
0
 10
4.19858376359
 20
31.0686414487
 30
0.0
 40
15.0
 50
-45.0
 51
-17.0945272089
  0
LINE
  8
0
 62
0
 10
-2.47487373415
 20
-12.3743686708
 30
0.0
 11
-1.76776695297
 21
-13.081475452
 31
0.0
  0
ARC
  8
0
 62
0
 10
24.7487373415
 20
24.7487373415
 30
0.0
 40
6.5
 50
-72.905472791
 51
162.905472791
  0
ARC
  8
0
 62
0
 10
1.7763568394e-15
 20
-11.313708499
 30
0.0
 40
2.5
 50
-135.0
 51
-45.0
  0
ARC
  8
0
 62
0
 10
31.0686414487
 20
4.19858376362
 30
0.0
 40
15.0
 50
107.094527209
 51
135.0
  0
LINE
  8
0
 62
0
 10
1.76776695297
 20
-13.081475452
 30
0.0
 11
2.47487373415
 21
-12.3743686708
 31
0.0
  0
LINE
  8
0
 62
0
 10
20.4620397309
 20
14.8051854814
 30
0.0
 11
12.3743686708
 21
6.71751442127
 31
0.0
  0
ARC
  8
0
 62
0
 10
4.59619407771
 20
-14.4956890143
 30
0.0
 40
3.0
 50
45.0
 51
135.0
  0
ARC
  8
0
 62
0
 10
14.4956890143
 20
4.59619407771
 30
0.0
 40
3.0
 50
135.0
 51
-135.0
  0
LINE
  8
0
 62
0
 10
6.71751442127
 20
-12.3743686708
 30
0.0
 11
14.8051854814
 21
-20.4620397309
 31
0.0
  0
LINE
  8
0
 62
0
 10
13.081475452
 20
1.76776695297
 30
0.0
 11
12.3743686708
 21
2.47487373416
 31
0.0
  0
ARC
  8
0
 62
0
 10
4.19858376359
 20
-31.0686414487
 30
0.0
 40
15.0
 50
17.0945272089
 51
45.0
  0
ARC
  8
0
 62
0
 10
11.313708499
 20
2.6645352591e-15
 30
0.0
 40
2.5
 50
-45.0
 51
45.0
  0
ARC
  8
0
 62
0
 10
24.7487373415
 20
-24.7487373415
 30
0.0
 40
6.5
 50
-162.905472791
 51
72.905472791
  0
LINE
  8
0
 62
0
 10
12.3743686708
 20
-2.47487373416
 30
0.0
 11
13.081475452
 21
-1.76776695297
 31
0.0
  0
ARC
  8
0
 62
0
 10
31.0686414487
 20
-4.19858376362
 30
0.0
 40
15.0
 50
-135.0
 51
-107.094527209
  0
ARC
  8
0
 62
0
 10
14.4956890143
 20
-4.59619407771
 30
0.0
 40
3.0
 50
135.0
 51
-135.0
  0
LINE
  8
0
 62
0
 10
20.4620397309
 20
-14.8051854814
 30
0.0
 11
12.3743686708
 21
-6.71751442127
 31
0.0
  0
CIRCLE
  8
0
 62
0
 10
-24.7487373415
 20
-20.4987373415
 30
0.0
 40
0.8
  0
CIRCLE
  8
0
 62
0
 10
-24.7487373415
 20
-24.7487373415
 30
0.0
 40
1.5
  0
CIRCLE
  8
0
 62
0
 10
-28.9987373415
 20
-24.7487373415
 30
0.0
 40
0.8
  0
CIRCLE
  8
0
 62
0
 10
-20.4987373415
 20
-24.7487373415
 30
0.0
 40
0.8
  0
CIRCLE
  8
0
 62
0
 10
20.4987373415
 20
-24.7487373415
 30
0.0
 40
0.8
  0
CIRCLE
  8
0
 62
0
 10
24.7487373415
 20
-24.7487373415
 30
0.0
 40
1.5
  0
CIRCLE
  8
0
 62
0
 10
24.7487373415
 20
-20.4987373415
 30
0.0
 40
0.8
  0
CIRCLE
  8
0
 62
0
 10
0.0
 20
-11.313708499
 30
0.0
 40
1.0
  0
CIRCLE
  8
0
 62
0
 10
24.7487373415
 20
20.4987373415
 30
0.0
 40
0.8
  0
LINE
  8
0
 62
0
 10
-5.00779816514
 20
-2.93899082569
 30
0.0
 11
-5.82660550459
 21
-2.93899082569
 31
0.0
  0
LINE
  8
0
 62
0
 10
-0.994036697248
 20
1.81330275229
 30
0.0
 11
-4.80229357798
 21
-2.84587155963
 31
0.0
  0
LINE
  8
0
 62
0
 10
-0.93623853211
 20
2.55183486239
 30
0.0
 11
-0.93623853211
 21
1.97706422018
 31
0.0
  0
LINE
  8
0
 62
0
 10
-1.55275229358
 20
2.81513761468
 30
0.0
 11
-1.19633027523
 21
2.81513761468
 31
0.0
  0
LINE
  8
0
 62
0
 10
-6.03211009174
 20
-2.51834862385
 30
0.0
 11
-1.75504587156
 21
2.71559633028
 31
0.0
  0
LINE
  8
0
 62
0
 10
-7.34862385321
 20
2.81513761468
 30
0.0
 11
-2.97201834862
 21
2.81513761468
 31
0.0
  0
LINE
  8
0
 62
0
 10
-7.60871559633
 20
2.14724770642
 30
0.0
 11
-7.60871559633
 21
2.55183486239
 31
0.0
  0
LINE
  8
0
 62
0
 10
-3.2995412844
 20
1.88394495413
 30
0.0
 11
-7.34862385321
 21
1.88394495413
 31
0.0
  0
LINE
  8
0
 62
0
 10
-2.76651376147
 20
2.3880733945
 30
0.0
 11
-3.09724770642
 21
1.98027522936
 31
0.0
  0
LINE
  8
0
 62
0
 10
3.04220183486
 20
2.55183486239
 30
0.0
 11
3.04220183486
 21
2.13440366972
 31
0.0
  0
LINE
  8
0
 62
0
 10
3.04220183486
 20
-2.26146788991
 30
0.0
 11
3.04220183486
 21
-2.67889908257
 31
0.0
  0
CIRCLE
  8
0
 62
0
 10
11.313708499
 20
0.0
 30
0.0
 40
1.0
  0
LINE
  8
0
 62
0
 10
3.62339449541
 20
2.13440366972
 30
0.0
 11
3.62339449541
 21
2.55183486239
 31
0.0
  0
LINE
  8
0
 62
0
 10
3.62339449541
 20
-2.67889908257
 30
0.0
 11
3.62339449541
 21
-2.26146788991
 31
0.0
  0
CIRCLE
  8
0
 62
0
 10
0.0
 20
11.313708499
 30
0.0
 40
1.0
  0
CIRCLE
  8
0
 62
0
 10
-24.7487373415
 20
20.4987373415
 30
0.0
 40
0.8
  0
CIRCLE
  8
0
 62
0
 10
-11.313708
 20
0.0
 30
0.0
 40
1.0
  0
CIRCLE
  8
0
 62
0
 10
-24.7487373415
 20
24.7487373415
 30
0.0
 40
1.5
  0
CIRCLE
  8
0
 62
0
 10
-28.9987373415
 20
24.7487373415
 30
0.0
 40
0.8
  0
CIRCLE
  8
0
 62
0
 10
-20.4987373415
 20
24.7487373415
 30
0.0
 40
0.8
  0
CIRCLE
  8
0
 62
0
 10
24.7487373415
 20
24.7487373415
 30
0.0
 40
1.5
  0
CIRCLE
  8
0
 62
0
 10
20.4987373415
 20
24.7487373415
 30
0.0
 40
0.8
  0
CIRCLE
  8
0
 62
0
 10
24.7487373415
 20
28.9987373415
 30
0.0
 40
0.8
  0
CIRCLE
  8
0
 62
0
 10
-24.7487373415
 20
28.9987373415
 30
0.0
 40
0.8
  0
CIRCLE
  8
0
 62
0
 10
-24.7487373415
 20
-28.9987373415
 30
0.0
 40
0.8
  0
CIRCLE
  8
0
 62
0
 10
24.7487373415
 20
-28.9987373415
 30
0.0
 40
0.8
  0
CIRCLE
  8
0
 62
0
 10
28.9987373415
 20
24.7487373415
 30
0.0
 40
0.8
  0
CIRCLE
  8
0
 62
0
 10
28.9987373415
 20
-24.7487373415
 30
0.0
 40
0.8
  0
ENDBLK
  0
ENDSEC
  0
SECTION
  2
ENTITIES
  0
INSERT
  2
CUT001
  8
0
 62
0
 10
0.0
 20
0.0
 30
0.0
  0
ENDSEC
  0
EOF
