  0
SECTION
  2
HEADER
  9
$ACADVER
  1
AC1009
  9
$INSBASE
 10
0.0
 20
0.0
 30
0.0
  9
$EXTMIN
 10
0.0
 20
0.0
 30
0.0
  9
$EXTMAX
 10
0.0
 20
0.0
 30
0.0
  0
ENDSEC
  0
SECTION
  2
TABLES
  0
TABLE
  2
VPORT
 70
0
  0
ENDTAB
  0
TABLE
  2
LTYPE
 70
1
  0
LTYPE
  2
CONTINUOUS
 70
0
  3
Solid line
 72
65
 73
0
 40
0.0
  0
ENDTAB
  0
TABLE
  2
LAYER
 70
1
  0
LAYER
  2
0
 70
64
 62
7
  6
continuous
  0
ENDTAB
  0
TABLE
  2
STYLE
 70
1
  0
STYLE
  2
STANDARD
 70
0
 40
0
 41
1.0
 50
0.0
 71
0
 42
1
 3
ARIAL.TTF
 4

  0
ENDTAB
  0
TABLE
  2
VIEW
 70
0
  0
ENDTAB
  0
ENDSEC
  0
SECTION
  2
BLOCKS
  0
BLOCK
  8
0
  2
CUT001
 70
0
 10
0.0
 20
0.0
 30
0.0
  3
CUT001
  0
POLYLINE
  8
0
 62
0
 70
0
 66
1
 10
0.0
 20
0.0
 30
0.0
  0
VERTEX
  8
0
 10
4.37064220183
 20
1.88073394495
 30
0.0
  0
VERTEX
  8
0
 10
4.32108582783
 20
1.88693481501
 30
0.0
  0
VERTEX
  8
0
 10
4.27340058994
 20
1.90172865409
 30
0.0
  0
VERTEX
  8
0
 10
4.22951736056
 20
1.92551096118
 30
0.0
  0
VERTEX
  8
0
 10
4.19154176424
 20
1.95788970615
 30
0.0
  0
VERTEX
  8
0
 10
4.16128606996
 20
1.99757898326
 30
0.0
  0
VERTEX
  8
0
 10
4.13982804191
 20
2.04264746518
 30
0.0
  0
VERTEX
  8
0
 10
4.12736557168
 20
2.09099751662
 30
0.0
  0
VERTEX
  8
0
 10
4.123394498
 20
2.14078447371
 30
0.0
  0
VERTEX
  8
0
 10
4.12339449541
 20
2.14082568807
 30
0.0
  0
SEQEND
  8
0
  0
POLYLINE
  8
0
 62
0
 70
0
 66
1
 10
0.0
 20
0.0
 30
0.0
  0
VERTEX
  8
0
 10
-4.32798165138
 20
2.81513761468
 30
0.0
  0
VERTEX
  8
0
 10
-4.27823953993
 20
2.8107606066
 30
0.0
  0
VERTEX
  8
0
 10
-4.23015245169
 20
2.79734359486
 30
0.0
  0
VERTEX
  8
0
 10
-4.18565979843
 20
2.77472344425
 30
0.0
  0
VERTEX
  8
0
 10
-4.14684813168
 20
2.74335100376
 30
0.0
  0
VERTEX
  8
0
 10
-4.14174311927
 20
2.7380733945
 30
0.0
  0
SEQEND
  8
0
  0
POLYLINE
  8
0
 62
0
 70
0
 66
1
 10
0.0
 20
0.0
 30
0.0
  0
VERTEX
  8
0
 10
-6.71376146789
 20
2.08623853211
 30
0.0
  0
VERTEX
  8
0
 10
-6.67848170227
 20
2.12166688594
 30
0.0
  0
VERTEX
  8
0
 10
-6.64220789769
 20
2.1560768193
 30
0.0
  0
VERTEX
  8
0
 10
-6.60497712112
 20
2.18944903563
 30
0.0
  0
VERTEX
  8
0
 10
-6.56682878057
 20
2.22176843485
 30
0.0
  0
VERTEX
  8
0
 10
-6.52780413438
 20
2.25302417086
 30
0.0
  0
VERTEX
  8
0
 10
-6.48794579056
 20
2.28320962524
 30
0.0
  0
VERTEX
  8
0
 10
-6.44729721555
 20
2.31232230724
 30
0.0
  0
VERTEX
  8
0
 10
-6.40590226311
 20
2.34036368527
 30
0.0
  0
VERTEX
  8
0
 10
-6.3638047352
 20
2.36733896035
 30
0.0
  0
VERTEX
  8
0
 10
-6.32104798627
 20
2.39325679752
 30
0.0
  0
VERTEX
  8
0
 10
-6.27767457366
 20
2.41812902264
 30
0.0
  0
VERTEX
  8
0
 10
-6.23372595779
 20
2.44197029624
 30
0.0
  0
VERTEX
  8
0
 10
-6.18924225601
 20
2.46479778067
 30
0.0
  0
VERTEX
  8
0
 10
-6.14426204605
 20
2.48663080543
 30
0.0
  0
VERTEX
  8
0
 10
-6.09882221587
 20
2.50749053742
 30
0.0
  0
VERTEX
  8
0
 10
-6.0529578595
 20
2.52739966897
 30
0.0
  0
VERTEX
  8
0
 10
-6.00670221149
 20
2.54638212437
 30
0.0
  0
VERTEX
  8
0
 10
-5.96008661425
 20
2.56446278544
 30
0.0
  0
VERTEX
  8
0
 10
-5.91314051631
 20
2.58166724555
 30
0.0
  0
VERTEX
  8
0
 10
-5.8658914943
 20
2.59802158889
 30
0.0
  0
VERTEX
  8
0
 10
-5.8183652933
 20
2.61355219184
 30
0.0
  0
VERTEX
  8
0
 10
-5.77058588392
 20
2.62828555356
 30
0.0
  0
VERTEX
  8
0
 10
-5.72257553035
 20
2.64224814919
 30
0.0
  0
VERTEX
  8
0
 10
-5.67435486588
 20
2.65546630317
 30
0.0
  0
VERTEX
  8
0
 10
-5.62594297501
 20
2.6679660866
 30
0.0
  0
VERTEX
  8
0
 10
-5.57735747788
 20
2.67977323148
 30
0.0
  0
VERTEX
  8
0
 10
-5.52861461588
 20
2.69091306121
 30
0.0
  0
VERTEX
  8
0
 10
-5.47972933732
 20
2.70141043798
 30
0.0
  0
VERTEX
  8
0
 10
-5.43071538118
 20
2.71128972177
 30
0.0
  0
VERTEX
  8
0
 10
-5.3815853586
 20
2.72057474153
 30
0.0
  0
VERTEX
  8
0
 10
-5.33235083118
 20
2.72928877634
 30
0.0
  0
VERTEX
  8
0
 10
-5.28302238579
 20
2.73745454498
 30
0.0
  0
VERTEX
  8
0
 10
-5.23360970556
 20
2.74509420354
 30
0.0
  0
VERTEX
  8
0
 10
-5.18412163666
 20
2.75222934794
 30
0.0
  0
VERTEX
  8
0
 10
-5.13456625124
 20
2.75888102337
 30
0.0
  0
VERTEX
  8
0
 10
-5.08495090622
 20
2.76506973736
 30
0.0
  0
VERTEX
  8
0
 10
-5.03528229798
 20
2.77081547589
 30
0.0
  0
VERTEX
  8
0
 10
-4.98556651351
 20
2.77613772484
 30
0.0
  0
VERTEX
  8
0
 10
-4.93580907754
 20
2.78105549141
 30
0.0
  0
VERTEX
  8
0
 10
-4.88601499642
 20
2.78558732941
 30
0.0
  0
VERTEX
  8
0
 10
-4.83618879864
 20
2.78975136676
 30
0.0
  0
VERTEX
  8
0
 10
-4.78633457215
 20
2.79356533258
 30
0.0
  0
VERTEX
  8
0
 10
-4.73645599896
 20
2.79704658787
 30
0.0
  0
VERTEX
  8
0
 10
-4.68655638699
 20
2.80021215654
 30
0.0
  0
VERTEX
  8
0
 10
-4.63663869938
 20
2.80307875686
 30
0.0
  0
VERTEX
  8
0
 10
-4.58670558165
 20
2.80566283576
 30
0.0
  0
VERTEX
  8
0
 10
-4.53675938674
 20
2.80798060254
 30
0.0
  0
VERTEX
  8
0
 10
-4.4868021981
 20
2.81004806466
 30
0.0
  0
VERTEX
  8
0
 10
-4.43683585117
 20
2.81188106497
 30
0.0
  0
VERTEX
  8
0
 10
-4.38686195328
 20
2.81349531948
 30
0.0
  0
VERTEX
  8
0
 10
-4.33688190218
 20
2.81490645731
 30
0.0
  0
VERTEX
  8
0
 10
-4.32798165138
 20
2.81513761468
 30
0.0
  0
SEQEND
  8
0
  0
POLYLINE
  8
0
 62
0
 70
0
 66
1
 10
0.0
 20
0.0
 30
0.0
  0
VERTEX
  8
0
 10
-3.48027522936
 20
2.55183486239
 30
0.0
  0
VERTEX
  8
0
 10
-3.47589822128
 20
2.60157697383
 30
0.0
  0
VERTEX
  8
0
 10
-3.46248120954
 20
2.64966406207
 30
0.0
  0
VERTEX
  8
0
 10
-3.43986105893
 20
2.69415671533
 30
0.0
  0
VERTEX
  8
0
 10
-3.40848861844
 20
2.73296838208
 30
0.0
  0
VERTEX
  8
0
 10
-3.40321100917
 20
2.7380733945
 30
0.0
  0
SEQEND
  8
0
  0
POLYLINE
  8
0
 62
0
 70
0
 66
1
 10
0.0
 20
0.0
 30
0.0
  0
VERTEX
  8
0
 10
1.65733944954
 20
-1.04128440367
 30
0.0
  0
VERTEX
  8
0
 10
1.65891939922
 20
-1.09125120533
 30
0.0
  0
VERTEX
  8
0
 10
1.66359715268
 20
-1.14102397654
 30
0.0
  0
VERTEX
  8
0
 10
1.67133047198
 20
-1.19041425541
 30
0.0
  0
VERTEX
  8
0
 10
1.68213397868
 20
-1.2392245813
 30
0.0
  0
VERTEX
  8
0
 10
1.69606810154
 20
-1.28723427124
 30
0.0
  0
VERTEX
  8
0
 10
1.71322902573
 20
-1.33418620169
 30
0.0
  0
VERTEX
  8
0
 10
1.73373713429
 20
-1.37977403697
 30
0.0
  0
VERTEX
  8
0
 10
1.75772133676
 20
-1.42363064246
 30
0.0
  0
VERTEX
  8
0
 10
1.78529669985
 20
-1.46532012775
 30
0.0
  0
VERTEX
  8
0
 10
1.81653364468
 20
-1.50433814991
 30
0.0
  0
VERTEX
  8
0
 10
1.84678899083
 20
-1.53577981651
 30
0.0
  0
SEQEND
  8
0
  0
POLYLINE
  8
0
 62
0
 70
0
 66
1
 10
0.0
 20
0.0
 30
0.0
  0
VERTEX
  8
0
 10
2.46330275229
 20
0.911009174312
 30
0.0
  0
VERTEX
  8
0
 10
2.51297305705
 20
0.916740270515
 30
0.0
  0
VERTEX
  8
0
 10
2.56269128551
 20
0.922039481822
 30
0.0
  0
VERTEX
  8
0
 10
2.61245472246
 20
0.926895757349
 30
0.0
  0
VERTEX
  8
0
 10
2.66226040868
 20
0.931297554385
 30
0.0
  0
VERTEX
  8
0
 10
2.71210511687
 20
0.935232821486
 30
0.0
  0
VERTEX
  8
0
 10
2.76198532561
 20
0.938688980167
 30
0.0
  0
VERTEX
  8
0
 10
2.81189719115
 20
0.941652906132
 30
0.0
  0
VERTEX
  8
0
 10
2.86183651669
 20
0.944110910452
 30
0.0
  0
VERTEX
  8
0
 10
2.91179871902
 20
0.946048721875
 30
0.0
  0
VERTEX
  8
0
 10
2.96177879246
 20
0.947451467702
 30
0.0
  0
VERTEX
  8
0
 10
3.01177126965
 20
0.948303654686
 30
0.0
  0
VERTEX
  8
0
 10
3.06177017906
 20
0.948589151744
 30
0.0
  0
VERTEX
  8
0
 10
3.11176899901
 20
0.948291176502
 30
0.0
  0
VERTEX
  8
0
 10
3.16176060805
 20
0.947392276557
 30
0.0
  0
VERTEX
  8
0
 10
3.21173723126
 20
0.945874317172
 30
0.0
  0
VERTEX
  8
0
 10
3.26169038265
 20
0.943718473923
 30
0.0
  0
VERTEX
  8
0
 10
3.31161080316
 20
0.940905223233
 30
0.0
  0
VERTEX
  8
0
 10
3.36148839416
 20
0.937414338031
 30
0.0
  0
VERTEX
  8
0
 10
3.41131214679
 20
0.933224891964
 30
0.0
  0
VERTEX
  8
0
 10
3.46107006672
 20
0.92831526729
 30
0.0
  0
VERTEX
  8
0
 10
3.51074909461
 20
0.922663168668
 30
0.0
  0
VERTEX
  8
0
 10
3.5603350225
 20
0.916245646765
 30
0.0
  0
VERTEX
  8
0
 10
3.60981240695
 20
0.909039133721
 30
0.0
  0
VERTEX
  8
0
 10
3.65916447881
 20
0.901019487073
 30
0.0
  0
VERTEX
  8
0
 10
3.70837305081
 20
0.892162047205
 30
0.0
  0
VERTEX
  8
0
 10
3.75741842471
 20
0.882441712685
 30
0.0
  0
VERTEX
  8
0
 10
3.80627929891
 20
0.871833032027
 30
0.0
  0
VERTEX
  8
0
 10
3.83119266055
 20
0.866055045872
 30
0.0
  0
SEQEND
  8
0
  0
POLYLINE
  8
0
 62
0
 70
0
 66
1
 10
0.0
 20
0.0
 30
0.0
  0
VERTEX
  8
0
 10
5.81880733945
 20
-0.546788990826
 30
0.0
  0
VERTEX
  8
0
 10
5.78270767964
 20
-0.51219945391
 30
0.0
  0
VERTEX
  8
0
 10
5.74517793084
 20
-0.479166865602
 30
0.0
  0
VERTEX
  8
0
 10
5.70631083508
 20
-0.44771851492
 30
0.0
  0
VERTEX
  8
0
 10
5.66620364616
 20
-0.417867517522
 30
0.0
  0
VERTEX
  8
0
 10
5.62495566074
 20
-0.389613436079
 30
0.0
  0
VERTEX
  8
0
 10
5.58266596245
 20
-0.362943361971
 30
0.0
  0
VERTEX
  8
0
 10
5.53943148318
 20
-0.337833328393
 30
0.0
  0
VERTEX
  8
0
 10
5.49534543857
 20
-0.314249920383
 30
0.0
  0
VERTEX
  8
0
 10
5.45049615346
 20
-0.292151956577
 30
0.0
  0
VERTEX
  8
0
 10
5.40496625784
 20
-0.27149214129
 30
0.0
  0
VERTEX
  8
0
 10
5.35883221311
 20
-0.252218608361
 30
0.0
  0
VERTEX
  8
0
 10
5.31216411472
 20
-0.23427630684
 30
0.0
  0
VERTEX
  8
0
 10
5.26502571236
 20
-0.217608204975
 30
0.0
  0
VERTEX
  8
0
 10
5.21747459461
 20
-0.202156300336
 30
0.0
  0
VERTEX
  8
0
 10
5.16956248741
 20
-0.187862445659
 30
0.0
  0
VERTEX
  8
0
 10
5.12133562676
 20
-0.174669000452
 30
0.0
  0
VERTEX
  8
0
 10
5.07283517257
 20
-0.162519327989
 30
0.0
  0
VERTEX
  8
0
 10
5.02409763746
 20
-0.151358162973
 30
0.0
  0
VERTEX
  8
0
 10
4.97515531377
 20
-0.141131866235
 30
0.0
  0
VERTEX
  8
0
 10
4.92603668547
 20
-0.131788589005
 30
0.0
  0
VERTEX
  8
0
 10
4.87676681753
 20
-0.123278360573
 30
0.0
  0
VERTEX
  8
0
 10
4.82736771722
 20
-0.115553118098
 30
0.0
  0
VERTEX
  8
0
 10
4.77785866532
 20
-0.108566690833
 30
0.0
  0
VERTEX
  8
0
 10
4.72825651708
 20
-0.102274747716
 30
0.0
  0
VERTEX
  8
0
 10
4.67857597333
 20
-0.0966347171131
 30
0.0
  0
VERTEX
  8
0
 10
4.62882982328
 20
-0.0916056869819
 30
0.0
  0
VERTEX
  8
0
 10
4.57902916096
 20
-0.087148289033
 30
0.0
  0
VERTEX
  8
0
 10
4.52918357755
 20
-0.083224570917
 30
0.0
  0
VERTEX
  8
0
 10
4.47930133194
 20
-0.079797858642
 30
0.0
  0
VERTEX
  8
0
 10
4.42938950138
 20
-0.0768326133073
 30
0.0
  0
VERTEX
  8
0
 10
4.37945411485
 20
-0.0742942806275
 30
0.0
  0
VERTEX
  8
0
 10
4.32950027109
 20
-0.0721491338494
 30
0.0
  0
VERTEX
  8
0
 10
4.27953224303
 20
-0.070364110158
 30
0.0
  0
VERTEX
  8
0
 10
4.22955357065
 20
-0.0689066403395
 30
0.0
  0
VERTEX
  8
0
 10
4.17956714394
 20
-0.0677444689812
 30
0.0
  0
VERTEX
  8
0
 10
4.12957527763
 20
-0.0668454628006
 30
0.0
  0
VERTEX
  8
0
 10
4.0795797793
 20
-0.0661774051168
 30
0.0
  0
VERTEX
  8
0
 10
4.02958201252
 20
-0.0657077724051
 30
0.0
  0
VERTEX
  8
0
 10
3.97958295683
 20
-0.0654034880427
 30
0.0
  0
VERTEX
  8
0
 10
3.92958326645
 20
-0.0652306473177
 30
0.0
  0
VERTEX
  8
0
 10
3.87958333003
 20
-0.065154206347
 30
0.0
  0
VERTEX
  8
0
 10
3.83119266055
 20
-0.0651376146789
 30
0.0
  0
SEQEND
  8
0
  0
POLYLINE
  8
0
 62
0
 70
0
 66
1
 10
0.0
 20
0.0
 30
0.0
  0
VERTEX
  8
0
 10
4.2004587156
 20
2.74128440367
 30
0.0
  0
VERTEX
  8
0
 10
4.23987800038
 20
2.77192750702
 30
0.0
  0
VERTEX
  8
0
 10
4.28425660379
 20
2.79480736238
 30
0.0
  0
VERTEX
  8
0
 10
4.3320517966
 20
2.80925877299
 30
0.0
  0
VERTEX
  8
0
 10
4.381654224
 20
2.81502046805
 30
0.0
  0
VERTEX
  8
0
 10
4.38990825688
 20
2.81513761468
 30
0.0
  0
SEQEND
  8
0
  0
POLYLINE
  8
0
 62
0
 70
0
 66
1
 10
0.0
 20
0.0
 30
0.0
  0
VERTEX
  8
0
 10
4.12339449541
 20
2.55183486239
 30
0.0
  0
VERTEX
  8
0
 10
4.12753571597
 20
2.60160230832
 30
0.0
  0
VERTEX
  8
0
 10
4.14061828403
 20
2.64978052685
 30
0.0
  0
VERTEX
  8
0
 10
4.16288752711
 20
2.69445475916
 30
0.0
  0
VERTEX
  8
0
 10
4.19340014873
 20
2.73397194141
 30
0.0
  0
VERTEX
  8
0
 10
4.2004587156
 20
2.74128440367
 30
0.0
  0
SEQEND
  8
0
  0
POLYLINE
  8
0
 62
0
 70
0
 66
1
 10
0.0
 20
0.0
 30
0.0
  0
VERTEX
  8
0
 10
4.37064220183
 20
1.88073394495
 30
0.0
  0
VERTEX
  8
0
 10
4.32108582783
 20
1.88693481501
 30
0.0
  0
VERTEX
  8
0
 10
4.27340058994
 20
1.90172865409
 30
0.0
  0
VERTEX
  8
0
 10
4.22951736056
 20
1.92551096118
 30
0.0
  0
VERTEX
  8
0
 10
4.19154176424
 20
1.95788970615
 30
0.0
  0
VERTEX
  8
0
 10
4.16128606996
 20
1.99757898326
 30
0.0
  0
VERTEX
  8
0
 10
4.13982804191
 20
2.04264746518
 30
0.0
  0
VERTEX
  8
0
 10
4.12736557168
 20
2.09099751662
 30
0.0
  0
VERTEX
  8
0
 10
4.123394498
 20
2.14078447371
 30
0.0
  0
VERTEX
  8
0
 10
4.12339449541
 20
2.14082568807
 30
0.0
  0
SEQEND
  8
0
  0
POLYLINE
  8
0
 62
0
 70
0
 66
1
 10
0.0
 20
0.0
 30
0.0
  0
VERTEX
  8
0
 10
5.5747706422
 20
1.70091743119
 30
0.0
  0
VERTEX
  8
0
 10
5.52643161683
 20
1.71369677468
 30
0.0
  0
VERTEX
  8
0
 10
5.47795178515
 20
1.72593115723
 30
0.0
  0
VERTEX
  8
0
 10
5.42934028061
 20
1.73763145603
 30
0.0
  0
VERTEX
  8
0
 10
5.38060583133
 20
1.74880866298
 30
0.0
  0
VERTEX
  8
0
 10
5.33175676584
 20
1.75947385909
 30
0.0
  0
VERTEX
  8
0
 10
5.28280102014
 20
1.76963819082
 30
0.0
  0
VERTEX
  8
0
 10
5.23374614565
 20
1.77931284854
 30
0.0
  0
VERTEX
  8
0
 10
5.1845993182
 20
1.78850904706
 30
0.0
  0
VERTEX
  8
0
 10
5.13536734766
 20
1.79723800801
 30
0.0
  0
VERTEX
  8
0
 10
5.08605668812
 20
1.80551094417
 30
0.0
  0
VERTEX
  8
0
 10
5.03667344861
 20
1.81333904569
 30
0.0
  0
VERTEX
  8
0
 10
4.98722340407
 20
1.8207334679
 30
0.0
  0
VERTEX
  8
0
 10
4.93771200654
 20
1.82770532089
 30
0.0
  0
VERTEX
  8
0
 10
4.88814439651
 20
1.83426566068
 30
0.0
  0
VERTEX
  8
0
 10
4.83852541427
 20
1.84042548181
 30
0.0
  0
VERTEX
  8
0
 10
4.78885961128
 20
1.84619571139
 30
0.0
  0
VERTEX
  8
0
 10
4.73915126138
 20
1.85158720454
 30
0.0
  0
VERTEX
  8
0
 10
4.68940437189
 20
1.85661074094
 30
0.0
  0
VERTEX
  8
0
 10
4.63962269452
 20
1.8612770228
 30
0.0
  0
VERTEX
  8
0
 10
4.58980973603
 20
1.86559667369
 30
0.0
  0
VERTEX
  8
0
 10
4.53996876864
 20
1.86958023866
 30
0.0
  0
VERTEX
  8
0
 10
4.49010284013
 20
1.8732381852
 30
0.0
  0
VERTEX
  8
0
 10
4.4402147837
 20
1.87658090529
 30
0.0
  0
VERTEX
  8
0
 10
4.39030722739
 20
1.87961871821
 30
0.0
  0
VERTEX
  8
0
 10
4.37064220183
 20
1.88073394495
 30
0.0
  0
SEQEND
  8
0
  0
POLYLINE
  8
0
 62
0
 70
0
 66
1
 10
0.0
 20
0.0
 30
0.0
  0
VERTEX
  8
0
 10
5.97935779817
 20
1.30596330275
 30
0.0
  0
VERTEX
  8
0
 10
5.96286133326
 20
1.35314999377
 30
0.0
  0
VERTEX
  8
0
 10
5.94264220762
 20
1.39886429204
 30
0.0
  0
VERTEX
  8
0
 10
5.91869883219
 20
1.44274172998
 30
0.0
  0
VERTEX
  8
0
 10
5.89109335907
 20
1.48441156548
 30
0.0
  0
VERTEX
  8
0
 10
5.8599558834
 20
1.52351195954
 30
0.0
  0
VERTEX
  8
0
 10
5.82548375673
 20
1.55970627926
 30
0.0
  0
VERTEX
  8
0
 10
5.78793558151
 20
1.59269859386
 30
0.0
  0
VERTEX
  8
0
 10
5.74762038062
 20
1.62224640165
 30
0.0
  0
VERTEX
  8
0
 10
5.7048832921
 20
1.64816907021
 30
0.0
  0
VERTEX
  8
0
 10
5.66008966415
 20
1.67035126602
 30
0.0
  0
VERTEX
  8
0
 10
5.6136094844
 20
1.68874153571
 30
0.0
  0
VERTEX
  8
0
 10
5.5747706422
 20
1.70091743119
 30
0.0
  0
SEQEND
  8
0
  0
POLYLINE
  8
0
 62
0
 70
0
 66
1
 10
0.0
 20
0.0
 30
0.0
  0
VERTEX
  8
0
 10
6.22660550459
 20
1.12293577982
 30
0.0
  0
VERTEX
  8
0
 10
6.17687970087
 20
1.12744744088
 30
0.0
  0
VERTEX
  8
0
 10
6.12889843422
 20
1.14122861034
 30
0.0
  0
VERTEX
  8
0
 10
6.08457213621
 20
1.16418040783
 30
0.0
  0
VERTEX
  8
0
 10
6.04573670296
 20
1.19553920657
 30
0.0
  0
VERTEX
  8
0
 10
6.01386631589
 20
1.23396164571
 30
0.0
  0
VERTEX
  8
0
 10
5.98987022646
 20
1.27774542797
 30
0.0
  0
VERTEX
  8
0
 10
5.97935779817
 20
1.30596330275
 30
0.0
  0
SEQEND
  8
0
  0
POLYLINE
  8
0
 62
0
 70
0
 66
1
 10
0.0
 20
0.0
 30
0.0
  0
VERTEX
  8
0
 10
7.08394495413
 20
1.22247706422
 30
0.0
  0
VERTEX
  8
0
 10
7.049380351
 20
1.18644354234
 30
0.0
  0
VERTEX
  8
0
 10
7.00873182252
 20
1.15745917737
 30
0.0
  0
VERTEX
  8
0
 10
6.96327081485
 20
1.13683447897
 30
0.0
  0
VERTEX
  8
0
 10
6.91468018433
 20
1.12537988896
 30
0.0
  0
VERTEX
  8
0
 10
6.87844036697
 20
1.12293577982
 30
0.0
  0
SEQEND
  8
0
  0
POLYLINE
  8
0
 62
0
 70
0
 66
1
 10
0.0
 20
0.0
 30
0.0
  0
VERTEX
  8
0
 10
7.13532110092
 20
1.44724770642
 30
0.0
  0
VERTEX
  8
0
 10
7.14080620541
 20
1.39761419935
 30
0.0
  0
VERTEX
  8
0
 10
7.13741545362
 20
1.34779673266
 30
0.0
  0
VERTEX
  8
0
 10
7.12516115519
 20
1.29939108219
 30
0.0
  0
VERTEX
  8
0
 10
7.1045116971
 20
1.25392562383
 30
0.0
  0
VERTEX
  8
0
 10
7.08394495413
 20
1.22247706422
 30
0.0
  0
SEQEND
  8
0
  0
POLYLINE
  8
0
 62
0
 70
0
 66
1
 10
0.0
 20
0.0
 30
0.0
  0
VERTEX
  8
0
 10
6.19770642202
 20
2.52293577982
 30
0.0
  0
VERTEX
  8
0
 10
6.24441165443
 20
2.50509155845
 30
0.0
  0
VERTEX
  8
0
 10
6.29052933954
 20
2.48577970776
 30
0.0
  0
VERTEX
  8
0
 10
6.33600332401
 20
2.46499753106
 30
0.0
  0
VERTEX
  8
0
 10
6.38077649513
 20
2.44274580767
 30
0.0
  0
VERTEX
  8
0
 10
6.4247910689
 20
2.41902898761
 30
0.0
  0
VERTEX
  8
0
 10
6.46798890768
 20
2.39385535956
 30
0.0
  0
VERTEX
  8
0
 10
6.51031186443
 20
2.3672371866
 30
0.0
  0
VERTEX
  8
0
 10
6.55170214945
 20
2.33919080452
 30
0.0
  0
VERTEX
  8
0
 10
6.59210271442
 20
2.30973667832
 30
0.0
  0
VERTEX
  8
0
 10
6.63145764781
 20
2.27889941283
 30
0.0
  0
VERTEX
  8
0
 10
6.6697125748
 20
2.24670771486
 30
0.0
  0
VERTEX
  8
0
 10
6.70681505436
 20
2.21319430492
 30
0.0
  0
VERTEX
  8
0
 10
6.74271496573
 20
2.17839577835
 30
0.0
  0
VERTEX
  8
0
 10
6.77736487664
 20
2.14235241685
 30
0.0
  0
VERTEX
  8
0
 10
6.81072038554
 20
2.10510795267
 30
0.0
  0
VERTEX
  8
0
 10
6.8427404311
 20
2.06670928953
 30
0.0
  0
VERTEX
  8
0
 10
6.87338756247
 20
2.02720618522
 30
0.0
  0
VERTEX
  8
0
 10
6.90262816548
 20
1.98665090203
 30
0.0
  0
VERTEX
  8
0
 10
6.93043264075
 20
1.94509783207
 30
0.0
  0
VERTEX
  8
0
 10
6.95677553114
 20
1.90260310498
 30
0.0
  0
VERTEX
  8
0
 10
6.9816355977
 20
1.85922418593
 30
0.0
  0
VERTEX
  8
0
 10
7.00499584437
 20
1.8150194716
 30
0.0
  0
VERTEX
  8
0
 10
7.02684349307
 20
1.77004789173
 30
0.0
  0
VERTEX
  8
0
 10
7.0471699124
 20
1.72436852309
 30
0.0
  0
VERTEX
  8
0
 10
7.06597050354
 20
1.67804022191
 30
0.0
  0
VERTEX
  8
0
 10
7.0832445484
 20
1.63112128023
 30
0.0
  0
VERTEX
  8
0
 10
7.09899502522
 20
1.58366911
 30
0.0
  0
VERTEX
  8
0
 10
7.11322839716
 20
1.53573995834
 30
0.0
  0
VERTEX
  8
0
 10
7.12595438006
 20
1.4873886559
 30
0.0
  0
VERTEX
  8
0
 10
7.13532110092
 20
1.44724770642
 30
0.0
  0
SEQEND
  8
0
  0
POLYLINE
  8
0
 62
0
 70
0
 66
1
 10
0.0
 20
0.0
 30
0.0
  0
VERTEX
  8
0
 10
4.38990825688
 20
2.81513761468
 30
0.0
  0
VERTEX
  8
0
 10
4.43988059808
 20
2.81347577666
 30
0.0
  0
VERTEX
  8
0
 10
4.48984558379
 20
2.81160591444
 30
0.0
  0
VERTEX
  8
0
 10
4.53980185526
 20
2.80951625225
 30
0.0
  0
VERTEX
  8
0
 10
4.58974789476
 20
2.8071949543
 30
0.0
  0
VERTEX
  8
0
 10
4.63968201549
 20
2.80463011811
 30
0.0
  0
VERTEX
  8
0
 10
4.68960235114
 20
2.80180976862
 30
0.0
  0
VERTEX
  8
0
 10
4.73950684507
 20
2.79872185315
 30
0.0
  0
VERTEX
  8
0
 10
4.78939323926
 20
2.79535423716
 30
0.0
  0
VERTEX
  8
0
 10
4.83925906274
 20
2.79169470095
 30
0.0
  0
VERTEX
  8
0
 10
4.88910161983
 20
2.78773093733
 30
0.0
  0
VERTEX
  8
0
 10
4.93891797796
 20
2.78345055033
 30
0.0
  0
VERTEX
  8
0
 10
4.98870495517
 20
2.77884105509
 30
0.0
  0
VERTEX
  8
0
 10
5.03845910738
 20
2.77388987886
 30
0.0
  0
VERTEX
  8
0
 10
5.08817671532
 20
2.76858436337
 30
0.0
  0
VERTEX
  8
0
 10
5.13785377132
 20
2.7629117686
 30
0.0
  0
VERTEX
  8
0
 10
5.18748596586
 20
2.75685927793
 30
0.0
  0
VERTEX
  8
0
 10
5.23706867403
 20
2.75041400503
 30
0.0
  0
VERTEX
  8
0
 10
5.28659694202
 20
2.74356300233
 30
0.0
  0
VERTEX
  8
0
 10
5.33606547359
 20
2.73629327128
 30
0.0
  0
VERTEX
  8
0
 10
5.38546861672
 20
2.72859177461
 30
0.0
  0
VERTEX
  8
0
 10
5.43480035055
 20
2.72044545053
 30
0.0
  0
VERTEX
  8
0
 10
5.48405427274
 20
2.71184122912
 30
0.0
  0
VERTEX
  8
0
 10
5.53322358727
 20
2.70276605081
 30
0.0
  0
VERTEX
  8
0
 10
5.58230109316
 20
2.69320688728
 30
0.0
  0
VERTEX
  8
0
 10
5.63127917386
 20
2.68315076475
 30
0.0
  0
VERTEX
  8
0
 10
5.68014978794
 20
2.67258478963
 30
0.0
  0
VERTEX
  8
0
 10
5.72890446092
 20
2.66149617672
 30
0.0
  0
VERTEX
  8
0
 10
5.7775342788
 20
2.64987227994
 30
0.0
  0
VERTEX
  8
0
 10
5.82602988321
 20
2.6377006255
 30
0.0
  0
VERTEX
  8
0
 10
5.87438146875
 20
2.6249689477
 30
0.0
  0
VERTEX
  8
0
 10
5.92257878254
 20
2.61166522697
 30
0.0
  0
VERTEX
  8
0
 10
5.97061112636
 20
2.59777773039
 30
0.0
  0
VERTEX
  8
0
 10
6.01846736169
 20
2.58329505423
 30
0.0
  0
VERTEX
  8
0
 10
6.06613591773
 20
2.56820616857
 30
0.0
  0
VERTEX
  8
0
 10
6.11360480291
 20
2.5525004635
 30
0.0
  0
VERTEX
  8
0
 10
6.16086161995
 20
2.53616779697
 30
0.0
  0
VERTEX
  8
0
 10
6.19770642202
 20
2.52293577982
 30
0.0
  0
SEQEND
  8
0
  0
POLYLINE
  8
0
 62
0
 70
0
 66
1
 10
0.0
 20
0.0
 30
0.0
  0
VERTEX
  8
0
 10
-4.33119266055
 20
-2.93899082569
 30
0.0
  0
VERTEX
  8
0
 10
-4.38117276442
 20
-2.93758181807
 30
0.0
  0
VERTEX
  8
0
 10
-4.43114609957
 20
-2.93595042828
 30
0.0
  0
VERTEX
  8
0
 10
-4.48111124635
 20
-2.9340851366
 30
0.0
  0
VERTEX
  8
0
 10
-4.53106662003
 20
-2.93197436219
 30
0.0
  0
VERTEX
  8
0
 10
-4.58101046111
 20
-2.92960645973
 30
0.0
  0
VERTEX
  8
0
 10
-4.63094082541
 20
-2.92696971663
 30
0.0
  0
VERTEX
  8
0
 10
-4.68085557387
 20
-2.92405235125
 30
0.0
  0
VERTEX
  8
0
 10
-4.73075236213
 20
-2.92084251183
 30
0.0
  0
VERTEX
  8
0
 10
-4.78062862985
 20
-2.91732827655
 30
0.0
  0
VERTEX
  8
0
 10
-4.83048158986
 20
-2.91349765444
 30
0.0
  0
VERTEX
  8
0
 10
-4.88030821701
 20
-2.90933858755
 30
0.0
  0
VERTEX
  8
0
 10
-4.93010523703
 20
-2.9048389541
 30
0.0
  0
VERTEX
  8
0
 10
-4.97986911514
 20
-2.89998657301
 30
0.0
  0
VERTEX
  8
0
 10
-5.02959604462
 20
-2.89476920966
 30
0.0
  0
VERTEX
  8
0
 10
-5.07928193545
 20
-2.88917458309
 30
0.0
  0
VERTEX
  8
0
 10
-5.12892240289
 20
-2.88319037465
 30
0.0
  0
VERTEX
  8
0
 10
-5.1785127563
 20
-2.87680423822
 30
0.0
  0
VERTEX
  8
0
 10
-5.22804798814
 20
-2.87000381203
 30
0.0
  0
VERTEX
  8
0
 10
-5.27752276324
 20
-2.86277673223
 30
0.0
  0
VERTEX
  8
0
 10
-5.32693140867
 20
-2.85511064821
 30
0.0
  0
VERTEX
  8
0
 10
-5.37626790397
 20
-2.84699323977
 30
0.0
  0
VERTEX
  8
0
 10
-5.42552587221
 20
-2.83841223628
 30
0.0
  0
VERTEX
  8
0
 10
-5.47469857187
 20
-2.82935543765
 30
0.0
  0
VERTEX
  8
0
 10
-5.52377888969
 20
-2.81981073734
 30
0.0
  0
VERTEX
  8
0
 10
-5.57275933471
 20
-2.80976614746
 30
0.0
  0
VERTEX
  8
0
 10
-5.62163203366
 20
-2.79920982571
 30
0.0
  0
VERTEX
  8
0
 10
-5.67038872793
 20
-2.78813010442
 30
0.0
  0
VERTEX
  8
0
 10
-5.71902077216
 20
-2.77651552145
 30
0.0
  0
VERTEX
  8
0
 10
-5.76751913491
 20
-2.76435485292
 30
0.0
  0
VERTEX
  8
0
 10
-5.81587440135
 20
-2.75163714775
 30
0.0
  0
VERTEX
  8
0
 10
-5.86407677829
 20
-2.73835176374
 30
0.0
  0
VERTEX
  8
0
 10
-5.9121161018
 20
-2.72448840507
 30
0.0
  0
VERTEX
  8
0
 10
-5.95998184742
 20
-2.71003716112
 30
0.0
  0
VERTEX
  8
0
 10
-6.00766314332
 20
-2.69498854607
 30
0.0
  0
VERTEX
  8
0
 10
-6.05514878641
 20
-2.67933353929
 30
0.0
  0
VERTEX
  8
0
 10
-6.1024272616
 20
-2.66306362616
 30
0.0
  0
VERTEX
  8
0
 10
-6.13899082569
 20
-2.65
 30
0.0
  0
SEQEND
  8
0
  0
POLYLINE
  8
0
 62
0
 70
0
 66
1
 10
0.0
 20
0.0
 30
0.0
  0
VERTEX
  8
0
 10
-4.14174311927
 20
-2.86834862385
 30
0.0
  0
VERTEX
  8
0
 10
-4.18118370735
 20
-2.89896140342
 30
0.0
  0
VERTEX
  8
0
 10
-4.22569177124
 20
-2.92157399942
 30
0.0
  0
VERTEX
  8
0
 10
-4.27372158631
 20
-2.93518334736
 30
0.0
  0
VERTEX
  8
0
 10
-4.32347887916
 20
-2.9392271135
 30
0.0
  0
VERTEX
  8
0
 10
-4.33119266055
 20
-2.93899082569
 30
0.0
  0
SEQEND
  8
0
  0
POLYLINE
  8
0
 62
0
 70
0
 66
1
 10
0.0
 20
0.0
 30
0.0
  0
VERTEX
  8
0
 10
-4.06146788991
 20
-2.67889908257
 30
0.0
  0
VERTEX
  8
0
 10
-4.0660374598
 20
-2.72861716706
 30
0.0
  0
VERTEX
  8
0
 10
-4.08003998297
 20
-2.77653225501
 30
0.0
  0
VERTEX
  8
0
 10
-4.10308598535
 20
-2.82081784189
 30
0.0
  0
VERTEX
  8
0
 10
-4.13384411547
 20
-2.86015754552
 30
0.0
  0
VERTEX
  8
0
 10
-4.14174311927
 20
-2.86834862385
 30
0.0
  0
SEQEND
  8
0
  0
POLYLINE
  8
0
 62
0
 70
0
 66
1
 10
0.0
 20
0.0
 30
0.0
  0
VERTEX
  8
0
 10
-4.30871559633
 20
-2.00779816514
 30
0.0
  0
VERTEX
  8
0
 10
-4.25918609634
 20
-2.01418304075
 30
0.0
  0
VERTEX
  8
0
 10
-4.21160418318
 20
-2.0293028129
 30
0.0
  0
VERTEX
  8
0
 10
-4.16786722515
 20
-2.05335727216
 30
0.0
  0
VERTEX
  8
0
 10
-4.12997602656
 20
-2.0858405171
 30
0.0
  0
VERTEX
  8
0
 10
-4.09966358837
 20
-2.12549036409
 30
0.0
  0
VERTEX
  8
0
 10
-4.0780405227
 20
-2.17048070256
 30
0.0
  0
VERTEX
  8
0
 10
-4.06543252614
 20
-2.21879136984
 30
0.0
  0
VERTEX
  8
0
 10
-4.06146788991
 20
-2.26788990826
 30
0.0
  0
SEQEND
  8
0
  0
POLYLINE
  8
0
 62
0
 70
0
 66
1
 10
0.0
 20
0.0
 30
0.0
  0
VERTEX
  8
0
 10
-5.5128440367
 20
-1.83119266055
 30
0.0
  0
VERTEX
  8
0
 10
-5.46450211772
 20
-1.84396096738
 30
0.0
  0
VERTEX
  8
0
 10
-5.41601399727
 20
-1.85616237115
 30
0.0
  0
VERTEX
  8
0
 10
-5.36738942634
 20
-1.86780816278
 30
0.0
  0
VERTEX
  8
0
 10
-5.31863777752
 20
-1.87891002607
 30
0.0
  0
VERTEX
  8
0
 10
-5.26976803647
 20
-1.88947999751
 30
0.0
  0
VERTEX
  8
0
 10
-5.22078879617
 20
-1.89953042734
 30
0.0
  0
VERTEX
  8
0
 10
-5.17170825361
 20
-1.9090739422
 30
0.0
  0
VERTEX
  8
0
 10
-5.12253420905
 20
-1.91812340971
 30
0.0
  0
VERTEX
  8
0
 10
-5.07327406725
 20
-1.92669190482
 30
0.0
  0
VERTEX
  8
0
 10
-5.02393484068
 20
-1.93479267826
 30
0.0
  0
VERTEX
  8
0
 10
-4.97452315457
 20
-1.9424391272
 30
0.0
  0
VERTEX
  8
0
 10
-4.92504525332
 20
-1.94964476784
 30
0.0
  0
VERTEX
  8
0
 10
-4.87550700836
 20
-1.95642321047
 30
0.0
  0
VERTEX
  8
0
 10
-4.8259139271
 20
-1.96278813645
 30
0.0
  0
VERTEX
  8
0
 10
-4.77627116286
 20
-1.96875327749
 30
0.0
  0
VERTEX
  8
0
 10
-4.7265835256
 20
-1.97433239696
 30
0.0
  0
VERTEX
  8
0
 10
-4.67685549334
 20
-1.9795392733
 30
0.0
  0
VERTEX
  8
0
 10
-4.62709122401
 20
-1.98438768538
 30
0.0
  0
VERTEX
  8
0
 10
-4.57729456781
 20
-1.98889139976
 30
0.0
  0
VERTEX
  8
0
 10
-4.52746907977
 20
-1.9930641598
 30
0.0
  0
VERTEX
  8
0
 10
-4.4776180325
 20
-1.99691967649
 30
0.0
  0
VERTEX
  8
0
 10
-4.42774442911
 20
-2.00047162091
 30
0.0
  0
VERTEX
  8
0
 10
-4.37785101609
 20
-2.00373361827
 30
0.0
  0
VERTEX
  8
0
 10
-4.32794029616
 20
-2.00671924336
 30
0.0
  0
VERTEX
  8
0
 10
-4.30871559633
 20
-2.00779816514
 30
0.0
  0
SEQEND
  8
0
  0
POLYLINE
  8
0
 62
0
 70
0
 66
1
 10
0.0
 20
0.0
 30
0.0
  0
VERTEX
  8
0
 10
-5.92064220183
 20
-1.45229357798
 30
0.0
  0
VERTEX
  8
0
 10
-5.90270233742
 20
-1.49894972364
 30
0.0
  0
VERTEX
  8
0
 10
-5.88099161403
 20
-1.5439741025
 30
0.0
  0
VERTEX
  8
0
 10
-5.85555946198
 20
-1.58700530096
 30
0.0
  0
VERTEX
  8
0
 10
-5.82651424967
 20
-1.62768451948
 30
0.0
  0
VERTEX
  8
0
 10
-5.79402420685
 20
-1.66566852877
 30
0.0
  0
VERTEX
  8
0
 10
-5.7583146931
 20
-1.70064288081
 30
0.0
  0
VERTEX
  8
0
 10
-5.71966174993
 20
-1.73233411916
 30
0.0
  0
VERTEX
  8
0
 10
-5.67838237644
 20
-1.76051976124
 30
0.0
  0
VERTEX
  8
0
 10
-5.63482242465
 20
-1.78503507871
 30
0.0
  0
VERTEX
  8
0
 10
-5.58934331467
 20
-1.80577613291
 30
0.0
  0
VERTEX
  8
0
 10
-5.5423088554
 20
-1.82269903448
 30
0.0
  0
VERTEX
  8
0
 10
-5.5128440367
 20
-1.83119266055
 30
0.0
  0
SEQEND
  8
0
  0
POLYLINE
  8
0
 62
0
 70
0
 66
1
 10
0.0
 20
0.0
 30
0.0
  0
VERTEX
  8
0
 10
-6.16788990826
 20
-1.27247706422
 30
0.0
  0
VERTEX
  8
0
 10
-6.11812293937
 20
-1.27662803355
 30
0.0
  0
VERTEX
  8
0
 10
-6.06992322487
 20
-1.28963734154
 30
0.0
  0
VERTEX
  8
0
 10
-6.02524614506
 20
-1.31188978297
 30
0.0
  0
VERTEX
  8
0
 10
-5.98615866608
 20
-1.3429209196
 30
0.0
  0
VERTEX
  8
0
 10
-5.9543240154
 20
-1.38136428705
 30
0.0
  0
VERTEX
  8
0
 10
-5.93059603596
 20
-1.42529205411
 30
0.0
  0
VERTEX
  8
0
 10
-5.92064220183
 20
-1.45229357798
 30
0.0
  0
SEQEND
  8
0
  0
POLYLINE
  8
0
 62
0
 70
0
 66
1
 10
0.0
 20
0.0
 30
0.0
  0
VERTEX
  8
0
 10
-7.02201834862
 20
-1.36880733945
 30
0.0
  0
VERTEX
  8
0
 10
-6.98673101327
 20
-1.33347163802
 30
0.0
  0
VERTEX
  8
0
 10
-6.94568725579
 20
-1.30504492224
 30
0.0
  0
VERTEX
  8
0
 10
-6.89996351349
 20
-1.28501297817
 30
0.0
  0
VERTEX
  8
0
 10
-6.85120082616
 20
-1.27432641915
 30
0.0
  0
VERTEX
  8
0
 10
-6.81972477064
 20
-1.27247706422
 30
0.0
  0
SEQEND
  8
0
  0
POLYLINE
  8
0
 62
0
 70
0
 66
1
 10
0.0
 20
0.0
 30
0.0
  0
VERTEX
  8
0
 10
-7.07339449541
 20
-1.5871559633
 30
0.0
  0
VERTEX
  8
0
 10
-7.08046690591
 20
-1.53773486571
 30
0.0
  0
VERTEX
  8
0
 10
-7.07763294586
 20
-1.48790407625
 30
0.0
  0
VERTEX
  8
0
 10
-7.06449424778
 20
-1.43975735437
 30
0.0
  0
VERTEX
  8
0
 10
-7.04169879984
 20
-1.39535259375
 30
0.0
  0
VERTEX
  8
0
 10
-7.02201834862
 20
-1.36880733945
 30
0.0
  0
SEQEND
  8
0
  0
POLYLINE
  8
0
 62
0
 70
0
 66
1
 10
0.0
 20
0.0
 30
0.0
  0
VERTEX
  8
0
 10
-6.13899082569
 20
-2.65
 30
0.0
  0
VERTEX
  8
0
 10
-6.18569619133
 20
-2.63215611935
 30
0.0
  0
VERTEX
  8
0
 10
-6.2318148595
 20
-2.61284659438
 30
0.0
  0
VERTEX
  8
0
 10
-6.2772916511
 20
-2.59207052766
 30
0.0
  0
VERTEX
  8
0
 10
-6.32207052999
 20
-2.5698302502
 30
0.0
  0
VERTEX
  8
0
 10
-6.36609484609
 20
-2.54613146997
 30
0.0
  0
VERTEX
  8
0
 10
-6.40930759947
 20
-2.52098339902
 30
0.0
  0
VERTEX
  8
0
 10
-6.45165172351
 20
-2.49439885579
 30
0.0
  0
VERTEX
  8
0
 10
-6.49307038432
 20
-2.4663943396
 30
0.0
  0
VERTEX
  8
0
 10
-6.53350729314
 20
-2.4369900746
 30
0.0
  0
VERTEX
  8
0
 10
-6.5729070281
 20
-2.40621002077
 30
0.0
  0
VERTEX
  8
0
 10
-6.61121536111
 20
-2.3740818502
 30
0.0
  0
VERTEX
  8
0
 10
-6.64837958553
 20
-2.34063688751
 30
0.0
  0
VERTEX
  8
0
 10
-6.68434883972
 20
-2.3059100138
 30
0.0
  0
VERTEX
  8
0
 10
-6.71907442173
 20
-2.26993953437
 30
0.0
  0
VERTEX
  8
0
 10
-6.75251009035
 20
-2.23276701113
 30
0.0
  0
VERTEX
  8
0
 10
-6.78461234765
 20
-2.19443706147
 30
0.0
  0
VERTEX
  8
0
 10
-6.81534069866
 20
-2.15499712586
 30
0.0
  0
VERTEX
  8
0
 10
-6.84465788418
 20
-2.1144972075
 30
0.0
  0
VERTEX
  8
0
 10
-6.87253008307
 20
-2.07298958746
 30
0.0
  0
VERTEX
  8
0
 10
-6.89892708113
 20
-2.03052851971
 30
0.0
  0
VERTEX
  8
0
 10
-6.92382240437
 20
-1.9871699106
 30
0.0
  0
VERTEX
  8
0
 10
-6.94719341509
 20
-1.94297098759
 30
0.0
  0
VERTEX
  8
0
 10
-6.96902137011
 20
-1.89798996227
 30
0.0
  0
VERTEX
  8
0
 10
-6.9892914412
 20
-1.85228569271
 30
0.0
  0
VERTEX
  8
0
 10
-7.00799269853
 20
-1.80591734989
 30
0.0
  0
VERTEX
  8
0
 10
-7.02511805866
 20
-1.75894409288
 30
0.0
  0
VERTEX
  8
0
 10
-7.04066419923
 20
-1.71142475691
 30
0.0
  0
VERTEX
  8
0
 10
-7.05463144315
 20
-1.66341755818
 30
0.0
  0
VERTEX
  8
0
 10
-7.06702361537
 20
-1.61497981849
 30
0.0
  0
VERTEX
  8
0
 10
-7.07339449541
 20
-1.5871559633
 30
0.0
  0
SEQEND
  8
0
  0
POLYLINE
  8
0
 62
0
 70
0
 66
1
 10
0.0
 20
0.0
 30
0.0
  0
VERTEX
  8
0
 10
-3.77247706422
 20
-0.993119266055
 30
0.0
  0
VERTEX
  8
0
 10
-3.82247706257
 20
-0.993108529697
 30
0.0
  0
VERTEX
  8
0
 10
-3.87247704218
 20
-0.993064978607
 30
0.0
  0
VERTEX
  8
0
 10
-3.92247695306
 20
-0.992972046561
 30
0.0
  0
VERTEX
  8
0
 10
-3.97247669782
 20
-0.992813691218
 30
0.0
  0
VERTEX
  8
0
 10
-4.02247611824
 20
-0.992574313597
 30
0.0
  0
VERTEX
  8
0
 10
-4.07247498277
 20
-0.992238683619
 30
0.0
  0
VERTEX
  8
0
 10
-4.12247297463
 20
-0.991791874042
 30
0.0
  0
VERTEX
  8
0
 10
-4.17246968017
 20
-0.991219198559
 30
0.0
  0
VERTEX
  8
0
 10
-4.22246457745
 20
-0.990506155727
 30
0.0
  0
VERTEX
  8
0
 10
-4.27245702463
 20
-0.989638376662
 30
0.0
  0
VERTEX
  8
0
 10
-4.32244624804
 20
-0.988601575897
 30
0.0
  0
VERTEX
  8
0
 10
-4.37243132988
 20
-0.987381506246
 30
0.0
  0
VERTEX
  8
0
 10
-4.42241119524
 20
-0.98596391462
 30
0.0
  0
VERTEX
  8
0
 10
-4.4723845983
 20
-0.98433450202
 30
0.0
  0
VERTEX
  8
0
 10
-4.52235010771
 20
-0.982478883091
 30
0.0
  0
VERTEX
  8
0
 10
-4.57230609084
 20
-0.980382549536
 30
0.0
  0
VERTEX
  8
0
 10
-4.62225069676
 20
-0.97803083267
 30
0.0
  0
VERTEX
  8
0
 10
-4.67218183793
 20
-0.975408868932
 30
0.0
  0
VERTEX
  8
0
 10
-4.72209717031
 20
-0.972501564957
 30
0.0
  0
VERTEX
  8
0
 10
-4.77199407171
 20
-0.969293564291
 30
0.0
  0
VERTEX
  8
0
 10
-4.82186961835
 20
-0.965769214666
 30
0.0
  0
VERTEX
  8
0
 10
-4.87172055925
 20
-0.961912535359
 30
0.0
  0
VERTEX
  8
0
 10
-4.92154328849
 20
-0.957707186685
 30
0.0
  0
VERTEX
  8
0
 10
-4.97133381475
 20
-0.953136437701
 30
0.0
  0
VERTEX
  8
0
 10
-5.02108772855
 20
-0.94818313812
 30
0.0
  0
VERTEX
  8
0
 10
-5.07080016611
 20
-0.942829686663
 30
0.0
  0
VERTEX
  8
0
 10
-5.12046577057
 20
-0.937058005552
 30
0.0
  0
VERTEX
  8
0
 10
-5.17007864929
 20
-0.930849510703
 30
0.0
  0
VERTEX
  8
0
 10
-5.21963232811
 20
-0.924185088842
 30
0.0
  0
VERTEX
  8
0
 10
-5.26911970119
 20
-0.917045071779
 30
0.0
  0
VERTEX
  8
0
 10
-5.31853297726
 20
-0.909409216284
 30
0.0
  0
VERTEX
  8
0
 10
-5.36786362129
 20
-0.901256685594
 30
0.0
  0
VERTEX
  8
0
 10
-5.41710229158
 20
-0.89256603291
 30
0.0
  0
VERTEX
  8
0
 10
-5.46623877292
 20
-0.883315193709
 30
0.0
  0
VERTEX
  8
0
 10
-5.51526190373
 20
-0.873481475426
 30
0.0
  0
VERTEX
  8
0
 10
-5.56415950043
 20
-0.863041563917
 30
0.0
  0
VERTEX
  8
0
 10
-5.61291827481
 20
-0.851971524619
 30
0.0
  0
VERTEX
  8
0
 10
-5.66152374973
 20
-0.840246825862
 30
0.0
  0
VERTEX
  8
0
 10
-5.70996016824
 20
-0.827842359835
 30
0.0
  0
VERTEX
  8
0
 10
-5.75821040154
 20
-0.814732485606
 30
0.0
  0
VERTEX
  8
0
 10
-5.80625585324
 20
-0.800891079802
 30
0.0
  0
VERTEX
  8
0
 10
-5.85407636242
 20
-0.786291604388
 30
0.0
  0
VERTEX
  8
0
 10
-5.90165010878
 20
-0.77090719755
 30
0.0
  0
VERTEX
  8
0
 10
-5.94895351615
 20
-0.754710772403
 30
0.0
  0
VERTEX
  8
0
 10
-5.99596116762
 20
-0.737675158566
 30
0.0
  0
VERTEX
  8
0
 10
-6.04264571939
 20
-0.719773241517
 30
0.0
  0
VERTEX
  8
0
 10
-6.08897783737
 20
-0.700978159807
 30
0.0
  0
VERTEX
  8
0
 10
-6.13492613808
 20
-0.681263499316
 30
0.0
  0
VERTEX
  8
0
 10
-6.18045716113
 20
-0.660603544522
 30
0.0
  0
VERTEX
  8
0
 10
-6.22553535971
 20
-0.638973539125
 30
0.0
  0
VERTEX
  8
0
 10
-6.27012312827
 20
-0.616349987486
 30
0.0
  0
VERTEX
  8
0
 10
-6.31418086748
 20
-0.592710980106
 30
0.0
  0
VERTEX
  8
0
 10
-6.35766709159
 20
-0.56803653849
 30
0.0
  0
VERTEX
  8
0
 10
-6.40053859114
 20
-0.542308987252
 30
0.0
  0
VERTEX
  8
0
 10
-6.44275064496
 20
-0.515513325681
 30
0.0
  0
VERTEX
  8
0
 10
-6.48425729777
 20
-0.487637611837
 30
0.0
  0
VERTEX
  8
0
 10
-6.52501169398
 20
-0.458673328491
 30
0.0
  0
VERTEX
  8
0
 10
-6.56496647524
 20
-0.428615731355
 30
0.0
  0
VERTEX
  8
0
 10
-6.60407423348
 20
-0.397464157879
 30
0.0
  0
VERTEX
  8
0
 10
-6.64228801597
 20
-0.365222286779
 30
0.0
  0
VERTEX
  8
0
 10
-6.67956186375
 20
-0.331898323989
 30
0.0
  0
VERTEX
  8
0
 10
-6.71376146789
 20
-0.299541284404
 30
0.0
  0
SEQEND
  8
0
  0
POLYLINE
  8
0
 62
0
 70
0
 66
1
 10
0.0
 20
0.0
 30
0.0
  0
VERTEX
  8
0
 10
-2.40458715596
 20
-1.0380733945
 30
0.0
  0
VERTEX
  8
0
 10
-2.45425730814
 20
-1.04380582869
 30
0.0
  0
VERTEX
  8
0
 10
-2.50397517538
 20
-1.04910843913
 30
0.0
  0
VERTEX
  8
0
 10
-2.5537381646
 20
-1.05396930648
 30
0.0
  0
VERTEX
  8
0
 10
-2.60354340965
 20
-1.05837609254
 30
0.0
  0
VERTEX
  8
0
 10
-2.6533877487
 20
-1.06231602576
 30
0.0
  0
VERTEX
  8
0
 10
-2.7032676998
 20
-1.06577588604
 30
0.0
  0
VERTEX
  8
0
 10
-2.75317943447
 20
-1.06874199
 30
0.0
  0
VERTEX
  8
0
 10
-2.80311874911
 20
-1.07120017711
 30
0.0
  0
VERTEX
  8
0
 10
-2.85308103413
 20
-1.07313579787
 30
0.0
  0
VERTEX
  8
0
 10
-2.90306124074
 20
-1.07453370129
 30
0.0
  0
VERTEX
  8
0
 10
-2.95305384531
 20
-1.07537822385
 30
0.0
  0
VERTEX
  8
0
 10
-3.00305281104
 20
-1.07565318068
 30
0.0
  0
VERTEX
  8
0
 10
-3.053051547
 20
-1.07534186239
 30
0.0
  0
VERTEX
  8
0
 10
-3.10304286446
 20
-1.07442702634
 30
0.0
  0
VERTEX
  8
0
 10
-3.15301893038
 20
-1.07289089739
 30
0.0
  0
VERTEX
  8
0
 10
-3.20297121824
 20
-1.07071517241
 30
0.0
  0
VERTEX
  8
0
 10
-3.25289045605
 20
-1.06788102526
 30
0.0
  0
VERTEX
  8
0
 10
-3.30276657162
 20
-1.06436911685
 30
0.0
  0
VERTEX
  8
0
 10
-3.35258863569
 20
-1.06015961556
 30
0.0
  0
VERTEX
  8
0
 10
-3.40234480271
 20
-1.05523222053
 30
0.0
  0
VERTEX
  8
0
 10
-3.45202224977
 20
-1.04956619216
 30
0.0
  0
VERTEX
  8
0
 10
-3.50160711438
 20
-1.04314039238
 30
0.0
  0
VERTEX
  8
0
 10
-3.55108443184
 20
-1.03593333599
 30
0.0
  0
VERTEX
  8
0
 10
-3.60043807244
 20
-1.02792324934
 30
0.0
  0
VERTEX
  8
0
 10
-3.64965068003
 20
-1.01908814182
 30
0.0
  0
VERTEX
  8
0
 10
-3.69870361332
 20
-1.00940589191
 30
0.0
  0
VERTEX
  8
0
 10
-3.74757689129
 20
-0.998854346877
 30
0.0
  0
VERTEX
  8
0
 10
-3.77247706422
 20
-0.993119266055
 30
0.0
  0
SEQEND
  8
0
  0
POLYLINE
  8
0
 62
0
 70
0
 66
1
 10
0.0
 20
0.0
 30
0.0
  0
VERTEX
  8
0
 10
-2.17660550459
 20
-0.78119266055
 30
0.0
  0
VERTEX
  8
0
 10
-2.18069644361
 20
-0.83096643275
 30
0.0
  0
VERTEX
  8
0
 10
-2.19350602881
 20
-0.879222163808
 30
0.0
  0
VERTEX
  8
0
 10
-2.21545231146
 20
-0.924052289477
 30
0.0
  0
VERTEX
  8
0
 10
-2.24620057805
 20
-0.963360883859
 30
0.0
  0
VERTEX
  8
0
 10
-2.28454221547
 20
-0.995308846367
 30
0.0
  0
VERTEX
  8
0
 10
-2.32860852662
 20
-1.01875869931
 30
0.0
  0
VERTEX
  8
0
 10
-2.3763306052
 20
-1.03344852629
 30
0.0
  0
VERTEX
  8
0
 10
-2.40458715596
 20
-1.0380733945
 30
0.0
  0
SEQEND
  8
0
  0
POLYLINE
  8
0
 62
0
 70
0
 66
1
 10
0.0
 20
0.0
 30
0.0
  0
VERTEX
  8
0
 10
-2.27614678899
 20
-0.110091743119
 30
0.0
  0
VERTEX
  8
0
 10
-2.24011326711
 20
-0.144656346243
 30
0.0
  0
VERTEX
  8
0
 10
-2.21112890214
 20
-0.185304874723
 30
0.0
  0
VERTEX
  8
0
 10
-2.19050420374
 20
-0.230765882398
 30
0.0
  0
VERTEX
  8
0
 10
-2.17904961373
 20
-0.27935651292
 30
0.0
  0
VERTEX
  8
0
 10
-2.17660550459
 20
-0.315596330275
 30
0.0
  0
SEQEND
  8
0
  0
POLYLINE
  8
0
 62
0
 70
0
 66
1
 10
0.0
 20
0.0
 30
0.0
  0
VERTEX
  8
0
 10
-2.50412844037
 20
-0.0619266055046
 30
0.0
  0
VERTEX
  8
0
 10
-2.45474486599
 20
-0.054523620231
 30
0.0
  0
VERTEX
  8
0
 10
-2.40484790902
 20
-0.0562229693272
 30
0.0
  0
VERTEX
  8
0
 10
-2.35618808964
 20
-0.0673805577093
 30
0.0
  0
VERTEX
  8
0
 10
-2.31051447885
 20
-0.0875465655218
 30
0.0
  0
VERTEX
  8
0
 10
-2.27614678899
 20
-0.110091743119
 30
0.0
  0
SEQEND
  8
0
  0
POLYLINE
  8
0
 62
0
 70
0
 66
1
 10
0.0
 20
0.0
 30
0.0
  0
VERTEX
  8
0
 10
-3.77247706422
 20
-0.0619266055046
 30
0.0
  0
VERTEX
  8
0
 10
-3.72247706422
 20
-0.0619266055046
 30
0.0
  0
VERTEX
  8
0
 10
-3.67247706422
 20
-0.0619266055046
 30
0.0
  0
VERTEX
  8
0
 10
-3.62247706422
 20
-0.0619266055046
 30
0.0
  0
VERTEX
  8
0
 10
-3.57247706422
 20
-0.0619266055046
 30
0.0
  0
VERTEX
  8
0
 10
-3.52247706422
 20
-0.0619266055046
 30
0.0
  0
VERTEX
  8
0
 10
-3.47247706422
 20
-0.0619266055046
 30
0.0
  0
VERTEX
  8
0
 10
-3.42247706422
 20
-0.0619266055046
 30
0.0
  0
VERTEX
  8
0
 10
-3.37247706422
 20
-0.0619266055046
 30
0.0
  0
VERTEX
  8
0
 10
-3.32247706422
 20
-0.0619266055046
 30
0.0
  0
VERTEX
  8
0
 10
-3.27247706422
 20
-0.0619266055046
 30
0.0
  0
VERTEX
  8
0
 10
-3.22247706422
 20
-0.0619266055046
 30
0.0
  0
VERTEX
  8
0
 10
-3.17247706422
 20
-0.0619266055046
 30
0.0
  0
VERTEX
  8
0
 10
-3.12247706422
 20
-0.0619266055046
 30
0.0
  0
VERTEX
  8
0
 10
-3.07247706422
 20
-0.0619266055046
 30
0.0
  0
VERTEX
  8
0
 10
-3.02247706422
 20
-0.0619266055046
 30
0.0
  0
VERTEX
  8
0
 10
-2.97247706422
 20
-0.0619266055046
 30
0.0
  0
VERTEX
  8
0
 10
-2.92247706422
 20
-0.0619266055046
 30
0.0
  0
VERTEX
  8
0
 10
-2.87247706422
 20
-0.0619266055046
 30
0.0
  0
VERTEX
  8
0
 10
-2.82247706422
 20
-0.0619266055046
 30
0.0
  0
VERTEX
  8
0
 10
-2.77247706422
 20
-0.0619266055046
 30
0.0
  0
VERTEX
  8
0
 10
-2.72247706422
 20
-0.0619266055046
 30
0.0
  0
VERTEX
  8
0
 10
-2.67247706422
 20
-0.0619266055046
 30
0.0
  0
VERTEX
  8
0
 10
-2.62247706422
 20
-0.0619266055046
 30
0.0
  0
VERTEX
  8
0
 10
-2.57247706422
 20
-0.0619266055046
 30
0.0
  0
VERTEX
  8
0
 10
-2.52247706422
 20
-0.0619266055046
 30
0.0
  0
VERTEX
  8
0
 10
-2.50412844037
 20
-0.0619266055046
 30
0.0
  0
SEQEND
  8
0
  0
POLYLINE
  8
0
 62
0
 70
0
 66
1
 10
0.0
 20
0.0
 30
0.0
  0
VERTEX
  8
0
 10
-5.75688073394
 20
0.419724770642
 30
0.0
  0
VERTEX
  8
0
 10
-5.72078109698
 20
0.385135209372
 30
0.0
  0
VERTEX
  8
0
 10
-5.68325149485
 20
0.352102452982
 30
0.0
  0
VERTEX
  8
0
 10
-5.64438475701
 20
0.320653657693
 30
0.0
  0
VERTEX
  8
0
 10
-5.60427818694
 20
0.290801825958
 30
0.0
  0
VERTEX
  8
0
 10
-5.56303109756
 20
0.26254643315
 30
0.0
  0
VERTEX
  8
0
 10
-5.52074256137
 20
0.235874512936
 30
0.0
  0
VERTEX
  8
0
 10
-5.47750947858
 20
0.210762071504
 30
0.0
  0
VERTEX
  8
0
 10
-5.43342501946
 20
0.187175696486
 30
0.0
  0
VERTEX
  8
0
 10
-5.38857745591
 20
0.165074235921
 30
0.0
  0
VERTEX
  8
0
 10
-5.34304936262
 20
0.144410446446
 30
0.0
  0
VERTEX
  8
0
 10
-5.29691714742
 20
0.125132532714
 30
0.0
  0
VERTEX
  8
0
 10
-5.2502508567
 20
0.107185528552
 30
0.0
  0
VERTEX
  8
0
 10
-5.20311419756
 20
0.0905124966357
 30
0.0
  0
VERTEX
  8
0
 10
-5.1555647234
 20
0.0750555347664
 30
0.0
  0
VERTEX
  8
0
 10
-5.10765413268
 20
0.0607565983487
 30
0.0
  0
VERTEX
  8
0
 10
-5.05942864154
 20
0.0475581492673
 30
0.0
  0
VERTEX
  8
0
 10
-5.01092939705
 20
0.0354036506621
 30
0.0
  0
VERTEX
  8
0
 10
-4.96219290538
 20
0.0242379327959
 30
0.0
  0
VERTEX
  8
0
 10
-4.91325145796
 20
0.0140074464333
 30
0.0
  0
VERTEX
  8
0
 10
-4.86413354258
 20
0.00466042605761
 30
0.0
  0
VERTEX
  8
0
 10
-4.81486423188
 20
-0.0038530232046
 30
0.0
  0
VERTEX
  8
0
 10
-4.76546554387
 20
-0.0115808964388
 30
0.0
  0
VERTEX
  8
0
 10
-4.71595677247
 20
-0.0185693052229
 30
0.0
  0
VERTEX
  8
0
 10
-4.66635478771
 20
-0.0248625305017
 30
0.0
  0
VERTEX
  8
0
 10
-4.61667430634
 20
-0.0305031033114
 30
0.0
  0
VERTEX
  8
0
 10
-4.566928134
 20
-0.0355319052117
 30
0.0
  0
VERTEX
  8
0
 10
-4.51712738127
 20
-0.0399882847103
 30
0.0
  0
VERTEX
  8
0
 10
-4.46728165557
 20
-0.0439101858901
 30
0.0
  0
VERTEX
  8
0
 10
-4.41739923128
 20
-0.0473342869536
 30
0.0
  0
VERTEX
  8
0
 10
-4.36748720014
 20
-0.0502961448543
 30
0.0
  0
VERTEX
  8
0
 10
-4.31755160433
 20
-0.0528303471688
 30
0.0
  0
VERTEX
  8
0
 10
-4.26759755412
 20
-0.0549706712465
 30
0.0
  0
VERTEX
  8
0
 10
-4.21762933218
 20
-0.056750250087
 30
0.0
  0
VERTEX
  8
0
 10
-4.16765048618
 20
-0.0582017458168
 30
0.0
  0
VERTEX
  8
0
 10
-4.11766391161
 20
-0.0593575330927
 30
0.0
  0
VERTEX
  8
0
 10
-4.06767192634
 20
-0.0602498953893
 30
0.0
  0
VERTEX
  8
0
 10
-4.0176763387
 20
-0.0609112362154
 30
0.0
  0
VERTEX
  8
0
 10
-3.96767851065
 20
-0.0613743097114
 30
0.0
  0
VERTEX
  8
0
 10
-3.91767941795
 20
-0.0616724757278
 30
0.0
  0
VERTEX
  8
0
 10
-3.86767970924
 20
-0.0618399860065
 30
0.0
  0
VERTEX
  8
0
 10
-3.81767976651
 20
-0.0619123092695
 30
0.0
  0
VERTEX
  8
0
 10
-3.77247706422
 20
-0.0619266055046
 30
0.0
  0
SEQEND
  8
0
  0
POLYLINE
  8
0
 62
0
 70
0
 66
1
 10
0.0
 20
0.0
 30
0.0
  0
VERTEX
  8
0
 10
-5.94633027523
 20
0.914220183486
 30
0.0
  0
VERTEX
  8
0
 10
-5.94480118021
 20
0.864251308066
 30
0.0
  0
VERTEX
  8
0
 10
-5.94025168815
 20
0.81446633449
 30
0.0
  0
VERTEX
  8
0
 10
-5.93269269135
 20
0.765048899813
 30
0.0
  0
VERTEX
  8
0
 10
-5.92208225799
 20
0.716196193471
 30
0.0
  0
VERTEX
  8
0
 10
-5.90833419323
 20
0.668132990718
 30
0.0
  0
VERTEX
  8
0
 10
-5.89132651292
 20
0.621125612069
 30
0.0
  0
VERTEX
  8
0
 10
-5.87091233612
 20
0.575496163927
 30
0.0
  0
VERTEX
  8
0
 10
-5.84693611431
 20
0.531636069017
 30
0.0
  0
VERTEX
  8
0
 10
-5.81925834979
 20
0.490015854471
 30
0.0
  0
VERTEX
  8
0
 10
-5.78779109784
 20
0.451185332289
 30
0.0
  0
VERTEX
  8
0
 10
-5.75688073394
 20
0.419724770642
 30
0.0
  0
SEQEND
  8
0
  0
POLYLINE
  8
0
 62
0
 70
0
 66
1
 10
0.0
 20
0.0
 30
0.0
  0
VERTEX
  8
0
 10
-5.75688073394
 20
1.40871559633
 30
0.0
  0
VERTEX
  8
0
 10
-5.79130779535
 20
1.37248446817
 30
0.0
  0
VERTEX
  8
0
 10
-5.82207816866
 20
1.3330970191
 30
0.0
  0
VERTEX
  8
0
 10
-5.84919215683
 20
1.29110563036
 30
0.0
  0
VERTEX
  8
0
 10
-5.8727278526
 20
1.24700641006
 30
0.0
  0
VERTEX
  8
0
 10
-5.89280360679
 20
1.20122630099
 30
0.0
  0
VERTEX
  8
0
 10
-5.90954832345
 20
1.15412416215
 30
0.0
  0
VERTEX
  8
0
 10
-5.92308006883
 20
1.10599939489
 30
0.0
  0
VERTEX
  8
0
 10
-5.93349107061
 20
1.05710377495
 30
0.0
  0
VERTEX
  8
0
 10
-5.94083649229
 20
1.0076542918
 30
0.0
  0
VERTEX
  8
0
 10
-5.9451243943
 20
0.957846438946
 30
0.0
  0
VERTEX
  8
0
 10
-5.94633027523
 20
0.914220183486
 30
0.0
  0
SEQEND
  8
0
  0
POLYLINE
  8
0
 62
0
 70
0
 66
1
 10
0.0
 20
0.0
 30
0.0
  0
VERTEX
  8
0
 10
-4.3119266055
 20
1.88073394495
 30
0.0
  0
VERTEX
  8
0
 10
-4.36186015693
 20
1.87815960617
 30
0.0
  0
VERTEX
  8
0
 10
-4.4117705716
 20
1.87517047513
 30
0.0
  0
VERTEX
  8
0
 10
-4.46165201812
 20
1.87173201041
 30
0.0
  0
VERTEX
  8
0
 10
-4.51149764748
 20
1.86780874287
 30
0.0
  0
VERTEX
  8
0
 10
-4.56129946269
 20
1.86336411642
 30
0.0
  0
VERTEX
  8
0
 10
-4.61104817125
 20
1.85836033529
 30
0.0
  0
VERTEX
  8
0
 10
-4.66073301813
 20
1.85275821824
 30
0.0
  0
VERTEX
  8
0
 10
-4.71034159696
 20
1.84651706134
 30
0.0
  0
VERTEX
  8
0
 10
-4.75985963706
 20
1.83959451135
 30
0.0
  0
VERTEX
  8
0
 10
-4.80927076378
 20
1.83194645333
 30
0.0
  0
VERTEX
  8
0
 10
-4.85855623008
 20
1.82352691703
 30
0.0
  0
VERTEX
  8
0
 10
-4.90769461742
 20
1.81428800834
 30
0.0
  0
VERTEX
  8
0
 10
-4.9566615047
 20
1.80417987383
 30
0.0
  0
VERTEX
  8
0
 10
-5.00542910518
 20
1.7931507084
 30
0.0
  0
VERTEX
  8
0
 10
-5.05396587282
 20
1.78114681863
 30
0.0
  0
VERTEX
  8
0
 10
-5.10223608163
 20
1.76811275657
 30
0.0
  0
VERTEX
  8
0
 10
-5.15019938514
 20
1.75399154172
 30
0.0
  0
VERTEX
  8
0
 10
-5.19781036706
 20
1.73872499106
 30
0.0
  0
VERTEX
  8
0
 10
-5.24501809981
 20
1.722254179
 30
0.0
  0
VERTEX
  8
0
 10
-5.29176573447
 20
1.7045200499
 30
0.0
  0
VERTEX
  8
0
 10
-5.3379901536
 20
1.68546420458
 30
0.0
  0
VERTEX
  8
0
 10
-5.38362172719
 20
1.66502987872
 30
0.0
  0
VERTEX
  8
0
 10
-5.42858422123
 20
1.64316312325
 30
0.0
  0
VERTEX
  8
0
 10
-5.47279491552
 20
1.61981418411
 30
0.0
  0
VERTEX
  8
0
 10
-5.51616499213
 20
1.59493906137
 30
0.0
  0
VERTEX
  8
0
 10
-5.55860025451
 20
1.56850120349
 30
0.0
  0
VERTEX
  8
0
 10
-5.60000222767
 20
1.54047326547
 30
0.0
  0
VERTEX
  8
0
 10
-5.64026966888
 20
1.51083882978
 30
0.0
  0
VERTEX
  8
0
 10
-5.67930048613
 20
1.47959396372
 30
0.0
  0
VERTEX
  8
0
 10
-5.71699401791
 20
1.44674847025
 30
0.0
  0
VERTEX
  8
0
 10
-5.75325357783
 20
1.4123266893
 30
0.0
  0
VERTEX
  8
0
 10
-5.75688073394
 20
1.40871559633
 30
0.0
  0
SEQEND
  8
0
  0
POLYLINE
  8
0
 62
0
 70
0
 66
1
 10
0.0
 20
0.0
 30
0.0
  0
VERTEX
  8
0
 10
-4.06146788991
 20
2.14082568807
 30
0.0
  0
VERTEX
  8
0
 10
-4.06555052125
 20
2.09105094743
 30
0.0
  0
VERTEX
  8
0
 10
-4.07831617218
 20
2.04278265116
 30
0.0
  0
VERTEX
  8
0
 10
-4.1001483317
 20
1.99789482844
 30
0.0
  0
VERTEX
  8
0
 10
-4.13069981019
 20
1.95843011764
 30
0.0
  0
VERTEX
  8
0
 10
-4.16880365804
 20
1.92619627018
 30
0.0
  0
VERTEX
  8
0
 10
-4.21267054526
 20
1.90237569025
 30
0.0
  0
VERTEX
  8
0
 10
-4.26028765768
 20
1.88735638743
 30
0.0
  0
VERTEX
  8
0
 10
-4.30980304904
 20
1.88083328092
 30
0.0
  0
VERTEX
  8
0
 10
-4.3119266055
 20
1.88073394495
 30
0.0
  0
SEQEND
  8
0
  0
POLYLINE
  8
0
 62
0
 70
0
 66
1
 10
0.0
 20
0.0
 30
0.0
  0
VERTEX
  8
0
 10
-4.14174311927
 20
2.7380733945
 30
0.0
  0
VERTEX
  8
0
 10
-4.10887738216
 20
2.70050091139
 30
0.0
  0
VERTEX
  8
0
 10
-4.08402329704
 20
2.65720882131
 30
0.0
  0
VERTEX
  8
0
 10
-4.06808558963
 20
2.60990092785
 30
0.0
  0
VERTEX
  8
0
 10
-4.06160967712
 20
2.56040128442
 30
0.0
  0
VERTEX
  8
0
 10
-4.06146788991
 20
2.55183486239
 30
0.0
  0
SEQEND
  8
0
  0
POLYLINE
  8
0
 62
0
 70
0
 66
1
 10
0.0
 20
0.0
 30
0.0
  0
VERTEX
  8
0
 10
-4.32798165138
 20
2.81513761468
 30
0.0
  0
VERTEX
  8
0
 10
-4.27823953993
 20
2.8107606066
 30
0.0
  0
VERTEX
  8
0
 10
-4.23015245169
 20
2.79734359486
 30
0.0
  0
VERTEX
  8
0
 10
-4.18565979843
 20
2.77472344425
 30
0.0
  0
VERTEX
  8
0
 10
-4.14684813168
 20
2.74335100376
 30
0.0
  0
VERTEX
  8
0
 10
-4.14174311927
 20
2.7380733945
 30
0.0
  0
SEQEND
  8
0
  0
POLYLINE
  8
0
 62
0
 70
0
 66
1
 10
0.0
 20
0.0
 30
0.0
  0
VERTEX
  8
0
 10
-6.71376146789
 20
2.08623853211
 30
0.0
  0
VERTEX
  8
0
 10
-6.67848170227
 20
2.12166688594
 30
0.0
  0
VERTEX
  8
0
 10
-6.64220789769
 20
2.1560768193
 30
0.0
  0
VERTEX
  8
0
 10
-6.60497712112
 20
2.18944903563
 30
0.0
  0
VERTEX
  8
0
 10
-6.56682878057
 20
2.22176843485
 30
0.0
  0
VERTEX
  8
0
 10
-6.52780413438
 20
2.25302417086
 30
0.0
  0
VERTEX
  8
0
 10
-6.48794579056
 20
2.28320962524
 30
0.0
  0
VERTEX
  8
0
 10
-6.44729721555
 20
2.31232230724
 30
0.0
  0
VERTEX
  8
0
 10
-6.40590226311
 20
2.34036368527
 30
0.0
  0
VERTEX
  8
0
 10
-6.3638047352
 20
2.36733896035
 30
0.0
  0
VERTEX
  8
0
 10
-6.32104798627
 20
2.39325679752
 30
0.0
  0
VERTEX
  8
0
 10
-6.27767457366
 20
2.41812902264
 30
0.0
  0
VERTEX
  8
0
 10
-6.23372595779
 20
2.44197029624
 30
0.0
  0
VERTEX
  8
0
 10
-6.18924225601
 20
2.46479778067
 30
0.0
  0
VERTEX
  8
0
 10
-6.14426204605
 20
2.48663080543
 30
0.0
  0
VERTEX
  8
0
 10
-6.09882221587
 20
2.50749053742
 30
0.0
  0
VERTEX
  8
0
 10
-6.0529578595
 20
2.52739966897
 30
0.0
  0
VERTEX
  8
0
 10
-6.00670221149
 20
2.54638212437
 30
0.0
  0
VERTEX
  8
0
 10
-5.96008661425
 20
2.56446278544
 30
0.0
  0
VERTEX
  8
0
 10
-5.91314051631
 20
2.58166724555
 30
0.0
  0
VERTEX
  8
0
 10
-5.8658914943
 20
2.59802158889
 30
0.0
  0
VERTEX
  8
0
 10
-5.8183652933
 20
2.61355219184
 30
0.0
  0
VERTEX
  8
0
 10
-5.77058588392
 20
2.62828555356
 30
0.0
  0
VERTEX
  8
0
 10
-5.72257553035
 20
2.64224814919
 30
0.0
  0
VERTEX
  8
0
 10
-5.67435486588
 20
2.65546630317
 30
0.0
  0
VERTEX
  8
0
 10
-5.62594297501
 20
2.6679660866
 30
0.0
  0
VERTEX
  8
0
 10
-5.57735747788
 20
2.67977323148
 30
0.0
  0
VERTEX
  8
0
 10
-5.52861461588
 20
2.69091306121
 30
0.0
  0
VERTEX
  8
0
 10
-5.47972933732
 20
2.70141043798
 30
0.0
  0
VERTEX
  8
0
 10
-5.43071538118
 20
2.71128972177
 30
0.0
  0
VERTEX
  8
0
 10
-5.3815853586
 20
2.72057474153
 30
0.0
  0
VERTEX
  8
0
 10
-5.33235083118
 20
2.72928877634
 30
0.0
  0
VERTEX
  8
0
 10
-5.28302238579
 20
2.73745454498
 30
0.0
  0
VERTEX
  8
0
 10
-5.23360970556
 20
2.74509420354
 30
0.0
  0
VERTEX
  8
0
 10
-5.18412163666
 20
2.75222934794
 30
0.0
  0
VERTEX
  8
0
 10
-5.13456625124
 20
2.75888102337
 30
0.0
  0
VERTEX
  8
0
 10
-5.08495090622
 20
2.76506973736
 30
0.0
  0
VERTEX
  8
0
 10
-5.03528229798
 20
2.77081547589
 30
0.0
  0
VERTEX
  8
0
 10
-4.98556651351
 20
2.77613772484
 30
0.0
  0
VERTEX
  8
0
 10
-4.93580907754
 20
2.78105549141
 30
0.0
  0
VERTEX
  8
0
 10
-4.88601499642
 20
2.78558732941
 30
0.0
  0
VERTEX
  8
0
 10
-4.83618879864
 20
2.78975136676
 30
0.0
  0
VERTEX
  8
0
 10
-4.78633457215
 20
2.79356533258
 30
0.0
  0
VERTEX
  8
0
 10
-4.73645599896
 20
2.79704658787
 30
0.0
  0
VERTEX
  8
0
 10
-4.68655638699
 20
2.80021215654
 30
0.0
  0
VERTEX
  8
0
 10
-4.63663869938
 20
2.80307875686
 30
0.0
  0
VERTEX
  8
0
 10
-4.58670558165
 20
2.80566283576
 30
0.0
  0
VERTEX
  8
0
 10
-4.53675938674
 20
2.80798060254
 30
0.0
  0
VERTEX
  8
0
 10
-4.4868021981
 20
2.81004806466
 30
0.0
  0
VERTEX
  8
0
 10
-4.43683585117
 20
2.81188106497
 30
0.0
  0
VERTEX
  8
0
 10
-4.38686195328
 20
2.81349531948
 30
0.0
  0
VERTEX
  8
0
 10
-4.33688190218
 20
2.81490645731
 30
0.0
  0
VERTEX
  8
0
 10
-4.32798165138
 20
2.81513761468
 30
0.0
  0
SEQEND
  8
0
  0
POLYLINE
  8
0
 62
0
 70
0
 66
1
 10
0.0
 20
0.0
 30
0.0
  0
VERTEX
  8
0
 10
-7.10871559633
 20
0.914220183486
 30
0.0
  0
VERTEX
  8
0
 10
-7.10824688926
 20
0.964217250737
 30
0.0
  0
VERTEX
  8
0
 10
-7.10683090881
 20
1.01419643492
 30
0.0
  0
VERTEX
  8
0
 10
-7.10444956631
 20
1.06413889866
 30
0.0
  0
VERTEX
  8
0
 10
-7.1010805714
 20
1.11402442907
 30
0.0
  0
VERTEX
  8
0
 10
-7.09669761263
 20
1.16383106376
 30
0.0
  0
VERTEX
  8
0
 10
-7.09127047804
 20
1.21353469913
 30
0.0
  0
VERTEX
  8
0
 10
-7.08476513653
 20
1.26310867037
 30
0.0
  0
VERTEX
  8
0
 10
-7.07714379917
 20
1.31252329472
 30
0.0
  0
VERTEX
  8
0
 10
-7.06836497867
 20
1.36174537011
 30
0.0
  0
VERTEX
  8
0
 10
-7.05838356641
 20
1.41073762346
 30
0.0
  0
VERTEX
  8
0
 10
-7.04715094935
 20
1.45945810458
 30
0.0
  0
VERTEX
  8
0
 10
-7.03461519213
 20
1.50785952458
 30
0.0
  0
VERTEX
  8
0
 10
-7.02072131445
 20
1.55588854234
 30
0.0
  0
VERTEX
  8
0
 10
-7.00541170019
 20
1.6034850088
 30
0.0
  0
VERTEX
  8
0
 10
-6.98862667822
 20
1.65058118786
 30
0.0
  0
VERTEX
  8
0
 10
-6.97030532154
 20
1.69710098482
 30
0.0
  0
VERTEX
  8
0
 10
-6.95038651491
 20
1.74295922997
 30
0.0
  0
VERTEX
  8
0
 10
-6.92881033739
 20
1.78806108392
 30
0.0
  0
VERTEX
  8
0
 10
-6.90551980053
 20
1.83230165442
 30
0.0
  0
VERTEX
  8
0
 10
-6.88046296483
 20
1.87556593891
 30
0.0
  0
VERTEX
  8
0
 10
-6.85359542366
 20
1.91772922643
 30
0.0
  0
VERTEX
  8
0
 10
-6.8248830963
 20
1.95865810359
 30
0.0
  0
VERTEX
  8
0
 10
-6.79430520938
 20
1.99821220162
 30
0.0
  0
VERTEX
  8
0
 10
-6.76185726933
 20
2.03624678439
 30
0.0
  0
VERTEX
  8
0
 10
-6.72755375571
 20
2.07261620424
 30
0.0
  0
VERTEX
  8
0
 10
-6.71376146789
 20
2.08623853211
 30
0.0
  0
SEQEND
  8
0
  0
POLYLINE
  8
0
 62
0
 70
0
 66
1
 10
0.0
 20
0.0
 30
0.0
  0
VERTEX
  8
0
 10
-6.71376146789
 20
-0.299541284404
 30
0.0
  0
VERTEX
  8
0
 10
-6.74875396264
 20
-0.263834786587
 30
0.0
  0
VERTEX
  8
0
 10
-6.78186108324
 20
-0.226373019638
 30
0.0
  0
VERTEX
  8
0
 10
-6.8130664025
 20
-0.187312380661
 30
0.0
  0
VERTEX
  8
0
 10
-6.84237448826
 20
-0.146808269843
 30
0.0
  0
VERTEX
  8
0
 10
-6.86980780838
 20
-0.105011128898
 30
0.0
  0
VERTEX
  8
0
 10
-6.89540332659
 20
-0.062063519437
 30
0.0
  0
VERTEX
  8
0
 10
-6.91920911328
 20
-0.0180981972909
 30
0.0
  0
VERTEX
  8
0
 10
-6.94128120344
 20
0.0267629476081
 30
0.0
  0
VERTEX
  8
0
 10
-6.96168083827
 20
0.0724092587948
 30
0.0
  0
VERTEX
  8
0
 10
-6.98047214812
 20
0.118741166597
 30
0.0
  0
VERTEX
  8
0
 10
-6.99772028019
 20
0.165669687353
 30
0.0
  0
VERTEX
  8
0
 10
-7.01348993705
 20
0.213115701615
 30
0.0
  0
VERTEX
  8
0
 10
-7.027844273
 20
0.261009114061
 30
0.0
  0
VERTEX
  8
0
 10
-7.04084408847
 20
0.309287969418
 30
0.0
  0
VERTEX
  8
0
 10
-7.05254726518
 20
0.357897574774
 30
0.0
  0
VERTEX
  8
0
 10
-7.06300838763
 20
0.406789660788
 30
0.0
  0
VERTEX
  8
0
 10
-7.07227850464
 20
0.455921600158
 30
0.0
  0
VERTEX
  8
0
 10
-7.08040499238
 20
0.505255691887
 30
0.0
  0
VERTEX
  8
0
 10
-7.08743148665
 20
0.554758513341
 30
0.0
  0
VERTEX
  8
0
 10
-7.09339785781
 20
0.604400337777
 30
0.0
  0
VERTEX
  8
0
 10
-7.09834020701
 20
0.654154612126
 30
0.0
  0
VERTEX
  8
0
 10
-7.10229086523
 20
0.70399748824
 30
0.0
  0
VERTEX
  8
0
 10
-7.10527837894
 20
0.753907399783
 30
0.0
  0
VERTEX
  8
0
 10
-7.10732746688
 20
0.803864676136
 30
0.0
  0
VERTEX
  8
0
 10
-7.10845893237
 20
0.853851184017
 30
0.0
  0
VERTEX
  8
0
 10
-7.10871559633
 20
0.891743119266
 30
0.0
  0
SEQEND
  8
0
  0
POLYLINE
  8
0
 62
0
 70
0
 66
1
 10
0.0
 20
0.0
 30
0.0
  0
VERTEX
  8
0
 10
-3.40321100917
 20
-2.86834862385
 30
0.0
  0
VERTEX
  8
0
 10
-3.43519725921
 20
-2.83001022367
 30
0.0
  0
VERTEX
  8
0
 10
-3.45925498769
 20
-2.78627231899
 30
0.0
  0
VERTEX
  8
0
 10
-3.47422304963
 20
-2.73864863033
 30
0.0
  0
VERTEX
  8
0
 10
-3.48011112587
 20
-2.68906128264
 30
0.0
  0
VERTEX
  8
0
 10
-3.48027522936
 20
-2.67889908257
 30
0.0
  0
SEQEND
  8
0
  0
POLYLINE
  8
0
 62
0
 70
0
 66
1
 10
0.0
 20
0.0
 30
0.0
  0
VERTEX
  8
0
 10
-3.21376146789
 20
-2.94220183486
 30
0.0
  0
VERTEX
  8
0
 10
-3.26351025001
 20
-2.93787477793
 30
0.0
  0
VERTEX
  8
0
 10
-3.31171440303
 20
-2.9248501672
 30
0.0
  0
VERTEX
  8
0
 10
-3.35676716029
 20
-2.90332734356
 30
0.0
  0
VERTEX
  8
0
 10
-3.39710366215
 20
-2.87390221925
 30
0.0
  0
VERTEX
  8
0
 10
-3.40321100917
 20
-2.86834862385
 30
0.0
  0
SEQEND
  8
0
  0
POLYLINE
  8
0
 62
0
 70
0
 66
1
 10
0.0
 20
0.0
 30
0.0
  0
VERTEX
  8
0
 10
-1.40596330275
 20
-2.65
 30
0.0
  0
VERTEX
  8
0
 10
-1.45304517003
 20
-2.66683031101
 30
0.0
  0
VERTEX
  8
0
 10
-1.50034908346
 20
-2.68302607739
 30
0.0
  0
VERTEX
  8
0
 10
-1.54786234099
 20
-2.69859704112
 30
0.0
  0
VERTEX
  8
0
 10
-1.5955726319
 20
-2.71355344995
 30
0.0
  0
VERTEX
  8
0
 10
-1.6434680548
 20
-2.72790600893
 30
0.0
  0
VERTEX
  8
0
 10
-1.69153713184
 20
-2.741665833
 30
0.0
  0
VERTEX
  8
0
 10
-1.73976881948
 20
-2.75484440104
 30
0.0
  0
VERTEX
  8
0
 10
-1.78815251583
 20
-2.76745351173
 30
0.0
  0
VERTEX
  8
0
 10
-1.83667806503
 20
-2.77950524139
 30
0.0
  0
VERTEX
  8
0
 10
-1.88533575882
 20
-2.79101190405
 30
0.0
  0
VERTEX
  8
0
 10
-1.93411633558
 20
-2.80198601382
 30
0.0
  0
VERTEX
  8
0
 10
-1.98301097714
 20
-2.81244024976
 30
0.0
  0
VERTEX
  8
0
 10
-2.03201130364
 20
-2.82238742307
 30
0.0
  0
VERTEX
  8
0
 10
-2.08110936657
 20
-2.8318404471
 30
0.0
  0
VERTEX
  8
0
 10
-2.13029764042
 20
-2.84081230956
 30
0.0
  0
VERTEX
  8
0
 10
-2.17956901301
 20
-2.84931604742
 30
0.0
  0
VERTEX
  8
0
 10
-2.22891677478
 20
-2.85736472419
 30
0.0
  0
VERTEX
  8
0
 10
-2.2783346072
 20
-2.86497140953
 30
0.0
  0
VERTEX
  8
0
 10
-2.32781657056
 20
-2.87214916121
 30
0.0
  0
VERTEX
  8
0
 10
-2.37735709119
 20
-2.87891100922
 30
0.0
  0
VERTEX
  8
0
 10
-2.42695094828
 20
-2.88526994201
 30
0.0
  0
VERTEX
  8
0
 10
-2.47659326056
 20
-2.89123889471
 30
0.0
  0
VERTEX
  8
0
 10
-2.52627947272
 20
-2.89683073919
 30
0.0
  0
VERTEX
  8
0
 10
-2.57600534189
 20
-2.90205827595
 30
0.0
  0
VERTEX
  8
0
 10
-2.62576692412
 20
-2.90693422766
 30
0.0
  0
VERTEX
  8
0
 10
-2.67556056099
 20
-2.91147123431
 30
0.0
  0
VERTEX
  8
0
 10
-2.72538286639
 20
-2.9156818497
 30
0.0
  0
VERTEX
  8
0
 10
-2.77523071358
 20
-2.91957853946
 30
0.0
  0
VERTEX
  8
0
 10
-2.82510122244
 20
-2.92317368025
 30
0.0
  0
VERTEX
  8
0
 10
-2.87499174707
 20
-2.92647956012
 30
0.0
  0
VERTEX
  8
0
 10
-2.92489986372
 20
-2.92950838006
 30
0.0
  0
VERTEX
  8
0
 10
-2.97482335902
 20
-2.93227225654
 30
0.0
  0
VERTEX
  8
0
 10
-3.02476021859
 20
-2.93478322499
 30
0.0
  0
VERTEX
  8
0
 10
-3.07470861597
 20
-2.93705324426
 30
0.0
  0
VERTEX
  8
0
 10
-3.12466690193
 20
-2.93909420182
 30
0.0
  0
VERTEX
  8
0
 10
-3.17463359408
 20
-2.94091791986
 30
0.0
  0
VERTEX
  8
0
 10
-3.21376146789
 20
-2.94220183486
 30
0.0
  0
SEQEND
  8
0
  0
POLYLINE
  8
0
 62
0
 70
0
 66
1
 10
0.0
 20
0.0
 30
0.0
  0
VERTEX
  8
0
 10
-0.43623853211
 20
-1.27247706422
 30
0.0
  0
VERTEX
  8
0
 10
-0.437005171229
 20
-1.32246921576
 30
0.0
  0
VERTEX
  8
0
 10
-0.439321585539
 20
-1.37241349003
 30
0.0
  0
VERTEX
  8
0
 10
-0.443210842897
 20
-1.4222598882
 30
0.0
  0
VERTEX
  8
0
 10
-0.448693569019
 20
-1.47195619572
 30
0.0
  0
VERTEX
  8
0
 10
-0.455787690384
 20
-1.52144811825
 30
0.0
  0
VERTEX
  8
0
 10
-0.464508182809
 20
-1.57067944817
 30
0.0
  0
VERTEX
  8
0
 10
-0.474866829353
 20
-1.61959226242
 30
0.0
  0
VERTEX
  8
0
 10
-0.486871992007
 20
-1.66812715125
 30
0.0
  0
VERTEX
  8
0
 10
-0.500528401802
 20
-1.71622347729
 30
0.0
  0
VERTEX
  8
0
 10
-0.51583697194
 20
-1.76381966319
 30
0.0
  0
VERTEX
  8
0
 10
-0.532794638517
 20
-1.81085350554
 30
0.0
  0
VERTEX
  8
0
 10
-0.551394233164
 20
-1.85726251202
 30
0.0
  0
VERTEX
  8
0
 10
-0.571624391518
 20
-1.90298425768
 30
0.0
  0
VERTEX
  8
0
 10
-0.593469500971
 20
-1.94795675598
 30
0.0
  0
VERTEX
  8
0
 10
-0.616909690412
 20
-1.99211883911
 30
0.0
  0
VERTEX
  8
0
 10
-0.641920863805
 20
-2.03541054196
 30
0.0
  0
VERTEX
  8
0
 10
-0.668474778651
 20
-2.07777348362
 30
0.0
  0
VERTEX
  8
0
 10
-0.696539169319
 20
-2.11915124006
 30
0.0
  0
VERTEX
  8
0
 10
-0.726077914183
 20
-2.15948970166
 30
0.0
  0
VERTEX
  8
0
 10
-0.757051244465
 20
-2.19873740956
 30
0.0
  0
VERTEX
  8
0
 10
-0.789415991706
 20
-2.23684586498
 30
0.0
  0
VERTEX
  8
0
 10
-0.823125869825
 20
-2.27376980654
 30
0.0
  0
VERTEX
  8
0
 10
-0.858131786969
 20
-2.30946745103
 30
0.0
  0
VERTEX
  8
0
 10
-0.894382181666
 20
-2.34390069426
 30
0.0
  0
VERTEX
  8
0
 10
-0.931823377376
 20
-2.37703526935
 30
0.0
  0
VERTEX
  8
0
 10
-0.970399949217
 20
-2.40884086111
 30
0.0
  0
VERTEX
  8
0
 10
-1.0100550966
 20
-2.43929117606
 30
0.0
  0
VERTEX
  8
0
 10
-1.05073101562
 20
-2.46836396855
 30
0.0
  0
VERTEX
  8
0
 10
-1.09236926536
 20
-2.49604102485
 30
0.0
  0
VERTEX
  8
0
 10
-1.13491112272
 20
-2.52230810735
 30
0.0
  0
VERTEX
  8
0
 10
-1.17829792104
 20
-2.54715486222
 30
0.0
  0
VERTEX
  8
0
 10
-1.22247136829
 20
-2.57057469414
 30
0.0
  0
VERTEX
  8
0
 10
-1.26737384168
 20
-2.59256461244
 30
0.0
  0
VERTEX
  8
0
 10
-1.31294865602
 20
-2.61312505288
 30
0.0
  0
VERTEX
  8
0
 10
-1.35914030391
 20
-2.63225968004
 30
0.0
  0
VERTEX
  8
0
 10
-1.40589466768
 20
-2.64997517284
 30
0.0
  0
VERTEX
  8
0
 10
-1.40596330275
 20
-2.65
 30
0.0
  0
SEQEND
  8
0
  0
POLYLINE
  8
0
 62
0
 70
0
 66
1
 10
0.0
 20
0.0
 30
0.0
  0
VERTEX
  8
0
 10
-0.827981651376
 20
2.08623853211
 30
0.0
  0
VERTEX
  8
0
 10
-0.792997068114
 20
2.05052441994
 30
0.0
  0
VERTEX
  8
0
 10
-0.759915717132
 20
2.01304003101
 30
0.0
  0
VERTEX
  8
0
 10
-0.728756397027
 20
1.97394281686
 30
0.0
  0
VERTEX
  8
0
 10
-0.699515935494
 20
1.93338997741
 30
0.0
  0
VERTEX
  8
0
 10
-0.672172285033
 20
1.89153422259
 30
0.0
  0
VERTEX
  8
0
 10
-0.646688007353
 20
1.84852059944
 30
0.0
  0
VERTEX
  8
0
 10
-0.623013792108
 20
1.80448436194
 30
0.0
  0
VERTEX
  8
0
 10
-0.601091749524
 20
1.75954976089
 30
0.0
  0
VERTEX
  8
0
 10
-0.580858318836
 20
1.71382957839
 30
0.0
  0
VERTEX
  8
0
 10
-0.562246720727
 20
1.6674252201
 30
0.0
  0
VERTEX
  8
0
 10
-0.545188942701
 20
1.62042719517
 30
0.0
  0
VERTEX
  8
0
 10
-0.529617288814
 20
1.57291584038
 30
0.0
  0
VERTEX
  8
0
 10
-0.515465547797
 20
1.5249621772
 30
0.0
  0
VERTEX
  8
0
 10
-0.502669841563
 20
1.47662882084
 30
0.0
  0
VERTEX
  8
0
 10
-0.491169214779
 20
1.4279708859
 30
0.0
  0
VERTEX
  8
0
 10
-0.480906023096
 20
1.37903685305
 30
0.0
  0
VERTEX
  8
0
 10
-0.471826169135
 20
1.32986937602
 30
0.0
  0
VERTEX
  8
0
 10
-0.46387922691
 20
1.28050601936
 30
0.0
  0
VERTEX
  8
0
 10
-0.4570184886
 20
1.23097992413
 30
0.0
  0
VERTEX
  8
0
 10
-0.451200961091
 20
1.18132040357
 30
0.0
  0
VERTEX
  8
0
 10
-0.446387333926
 20
1.13155347363
 30
0.0
  0
VERTEX
  8
0
 10
-0.442541936663
 20
1.08170232503
 30
0.0
  0
VERTEX
  8
0
 10
-0.439632700817
 20
1.03178774422
 30
0.0
  0
VERTEX
  8
0
 10
-0.437631139735
 20
0.981828491247
 30
0.0
  0
VERTEX
  8
0
 10
-0.436512359093
 20
0.931841642904
 30
0.0
  0
VERTEX
  8
0
 10
-0.43623853211
 20
0.891743119266
 30
0.0
  0
SEQEND
  8
0
  0
POLYLINE
  8
0
 62
0
 70
0
 66
1
 10
0.0
 20
0.0
 30
0.0
  0
VERTEX
  8
0
 10
-3.21376146789
 20
2.81513761468
 30
0.0
  0
VERTEX
  8
0
 10
-3.16378059968
 20
2.81375570214
 30
0.0
  0
VERTEX
  8
0
 10
-3.11380571744
 20
2.812172198
 30
0.0
  0
VERTEX
  8
0
 10
-3.06383819864
 20
2.81037141059
 30
0.0
  0
VERTEX
  8
0
 10
-3.01387962895
 20
2.80833757992
 30
0.0
  0
VERTEX
  8
0
 10
-2.96393182045
 20
2.80605483698
 30
0.0
  0
VERTEX
  8
0
 10
-2.91399683133
 20
2.80350716467
 30
0.0
  0
VERTEX
  8
0
 10
-2.86407698686
 20
2.80067836086
 30
0.0
  0
VERTEX
  8
0
 10
-2.81417490221
 20
2.79755200164
 30
0.0
  0
VERTEX
  8
0
 10
-2.76429350696
 20
2.79411140725
 30
0.0
  0
VERTEX
  8
0
 10
-2.71443607162
 20
2.79033960863
 30
0.0
  0
VERTEX
  8
0
 10
-2.66460623652
 20
2.78621931439
 30
0.0
  0
VERTEX
  8
0
 10
-2.61480804281
 20
2.78173288103
 30
0.0
  0
VERTEX
  8
0
 10
-2.56504596633
 20
2.77686228255
 30
0.0
  0
VERTEX
  8
0
 10
-2.51532495412
 20
2.77158908209
 30
0.0
  0
VERTEX
  8
0
 10
-2.46565046388
 20
2.76589440648
 30
0.0
  0
VERTEX
  8
0
 10
-2.41602850676
 20
2.75975892031
 30
0.0
  0
VERTEX
  8
0
 10
-2.36646569343
 20
2.75316280447
 30
0.0
  0
VERTEX
  8
0
 10
-2.31696928362
 20
2.74608573651
 30
0.0
  0
VERTEX
  8
0
 10
-2.2675472396
 20
2.73850687304
 30
0.0
  0
VERTEX
  8
0
 10
-2.21820828316
 20
2.73040483813
 30
0.0
  0
VERTEX
  8
0
 10
-2.16896195671
 20
2.72175771409
 30
0.0
  0
VERTEX
  8
0
 10
-2.11981868829
 20
2.71254303814
 30
0.0
  0
VERTEX
  8
0
 10
-2.0707898602
 20
2.70273780571
 30
0.0
  0
VERTEX
  8
0
 10
-2.02188788162
 20
2.69231848004
 30
0.0
  0
VERTEX
  8
0
 10
-1.97312626435
 20
2.68126101089
 30
0.0
  0
VERTEX
  8
0
 10
-1.92451970177
 20
2.66954086218
 30
0.0
  0
VERTEX
  8
0
 10
-1.87608414987
 20
2.65713305166
 30
0.0
  0
VERTEX
  8
0
 10
-1.8278369098
 20
2.64401220284
 30
0.0
  0
VERTEX
  8
0
 10
-1.77979671108
 20
2.63015261048
 30
0.0
  0
VERTEX
  8
0
 10
-1.73198379292
 20
2.61552832472
 30
0.0
  0
VERTEX
  8
0
 10
-1.68441998338
 20
2.60011325043
 30
0.0
  0
VERTEX
  8
0
 10
-1.63712877331
 20
2.58388126708
 30
0.0
  0
VERTEX
  8
0
 10
-1.59013538145
 20
2.56680637258
 30
0.0
  0
VERTEX
  8
0
 10
-1.54346681025
 20
2.54886284574
 30
0.0
  0
VERTEX
  8
0
 10
-1.49715188635
 20
2.5300254349
 30
0.0
  0
VERTEX
  8
0
 10
-1.45122128174
 20
2.51026957347
 30
0.0
  0
VERTEX
  8
0
 10
-1.40570751391
 20
2.48957161493
 30
0.0
  0
VERTEX
  8
0
 10
-1.3606449173
 20
2.46790909462
 30
0.0
  0
VERTEX
  8
0
 10
-1.31606958134
 20
2.44526101504
 30
0.0
  0
VERTEX
  8
0
 10
-1.27201925344
 20
2.42160814485
 30
0.0
  0
VERTEX
  8
0
 10
-1.22853319917
 20
2.3969333347
 30
0.0
  0
VERTEX
  8
0
 10
-1.18565201596
 20
2.37122184266
 30
0.0
  0
VERTEX
  8
0
 10
-1.14341740082
 20
2.34446165594
 30
0.0
  0
VERTEX
  8
0
 10
-1.10187186781
 20
2.31664380584
 30
0.0
  0
VERTEX
  8
0
 10
-1.06105841567
 20
2.2877626654
 30
0.0
  0
VERTEX
  8
0
 10
-1.02102015126
 20
2.25781621407
 30
0.0
  0
VERTEX
  8
0
 10
-0.981799872127
 20
2.2268062617
 30
0.0
  0
VERTEX
  8
0
 10
-0.943439615205
 20
2.19473862124
 30
0.0
  0
VERTEX
  8
0
 10
-0.905980184707
 20
2.16162321655
 30
0.0
  0
VERTEX
  8
0
 10
-0.869460670144
 20
2.12747411945
 30
0.0
  0
VERTEX
  8
0
 10
-0.833917970271
 20
2.0923095083
 30
0.0
  0
VERTEX
  8
0
 10
-0.827981651376
 20
2.08623853211
 30
0.0
  0
SEQEND
  8
0
  0
POLYLINE
  8
0
 62
0
 70
0
 66
1
 10
0.0
 20
0.0
 30
0.0
  0
VERTEX
  8
0
 10
-3.40321100917
 20
2.7380733945
 30
0.0
  0
VERTEX
  8
0
 10
-3.36473038572
 20
2.76988035152
 30
0.0
  0
VERTEX
  8
0
 10
-3.3208788974
 20
2.79374001302
 30
0.0
  0
VERTEX
  8
0
 10
-3.27328883593
 20
2.80883303502
 30
0.0
  0
VERTEX
  8
0
 10
-3.22373376985
 20
2.81496619761
 30
0.0
  0
VERTEX
  8
0
 10
-3.21376146789
 20
2.81513761468
 30
0.0
  0
SEQEND
  8
0
  0
POLYLINE
  8
0
 62
0
 70
0
 66
1
 10
0.0
 20
0.0
 30
0.0
  0
VERTEX
  8
0
 10
-3.48027522936
 20
2.55183486239
 30
0.0
  0
VERTEX
  8
0
 10
-3.47589822128
 20
2.60157697383
 30
0.0
  0
VERTEX
  8
0
 10
-3.46248120954
 20
2.64966406207
 30
0.0
  0
VERTEX
  8
0
 10
-3.43986105893
 20
2.69415671533
 30
0.0
  0
VERTEX
  8
0
 10
-3.40848861844
 20
2.73296838208
 30
0.0
  0
VERTEX
  8
0
 10
-3.40321100917
 20
2.7380733945
 30
0.0
  0
SEQEND
  8
0
  0
POLYLINE
  8
0
 62
0
 70
0
 66
1
 10
0.0
 20
0.0
 30
0.0
  0
VERTEX
  8
0
 10
-3.23302752294
 20
1.88073394495
 30
0.0
  0
VERTEX
  8
0
 10
-3.28258389694
 20
1.88693481501
 30
0.0
  0
VERTEX
  8
0
 10
-3.33026913483
 20
1.90172865409
 30
0.0
  0
VERTEX
  8
0
 10
-3.37415236421
 20
1.92551096118
 30
0.0
  0
VERTEX
  8
0
 10
-3.41212796053
 20
1.95788970615
 30
0.0
  0
VERTEX
  8
0
 10
-3.44238365481
 20
1.99757898326
 30
0.0
  0
VERTEX
  8
0
 10
-3.46384168286
 20
2.04264746518
 30
0.0
  0
VERTEX
  8
0
 10
-3.47630415309
 20
2.09099751662
 30
0.0
  0
VERTEX
  8
0
 10
-3.48027522677
 20
2.14078447371
 30
0.0
  0
VERTEX
  8
0
 10
-3.48027522936
 20
2.14082568807
 30
0.0
  0
SEQEND
  8
0
  0
POLYLINE
  8
0
 62
0
 70
0
 66
1
 10
0.0
 20
0.0
 30
0.0
  0
VERTEX
  8
0
 10
-1.78486238532
 20
1.39908256881
 30
0.0
  0
VERTEX
  8
0
 10
-1.8207899465
 20
1.43385106611
 30
0.0
  0
VERTEX
  8
0
 10
-1.85812611519
 20
1.46710250957
 30
0.0
  0
VERTEX
  8
0
 10
-1.89678525173
 20
1.49880633455
 30
0.0
  0
VERTEX
  8
0
 10
-1.93667662578
 20
1.528945277
 30
0.0
  0
VERTEX
  8
0
 10
-1.97770668852
 20
1.55751501482
 30
0.0
  0
VERTEX
  8
0
 10
-2.01978120991
 20
1.58452335597
 30
0.0
  0
VERTEX
  8
0
 10
-2.06280717388
 20
1.60998907733
 30
0.0
  0
VERTEX
  8
0
 10
-2.10669436267
 20
1.63394053099
 30
0.0
  0
VERTEX
  8
0
 10
-2.15135659963
 20
1.65641413189
 30
0.0
  0
VERTEX
  8
0
 10
-2.196712652
 20
1.67745282684
 30
0.0
  0
VERTEX
  8
0
 10
-2.24268681996
 20
1.69710462411
 30
0.0
  0
VERTEX
  8
0
 10
-2.28920925311
 20
1.71542124
 30
0.0
  0
VERTEX
  8
0
 10
-2.33621604269
 20
1.73245689765
 30
0.0
  0
VERTEX
  8
0
 10
-2.38364913923
 20
1.74826729428
 30
0.0
  0
VERTEX
  8
0
 10
-2.43145614142
 20
1.76290873931
 30
0.0
  0
VERTEX
  8
0
 10
-2.47958999661
 20
1.77643745569
 30
0.0
  0
VERTEX
  8
0
 10
-2.52800864599
 20
1.78890903035
 30
0.0
  0
VERTEX
  8
0
 10
-2.57667464088
 20
1.80037799662
 30
0.0
  0
VERTEX
  8
0
 10
-2.62555475012
 20
1.81089752986
 30
0.0
  0
VERTEX
  8
0
 10
-2.67461957286
 20
1.82051923863
 30
0.0
  0
VERTEX
  8
0
 10
-2.72384316673
 20
1.82929303435
 30
0.0
  0
VERTEX
  8
0
 10
-2.77320269783
 20
1.83726706476
 30
0.0
  0
VERTEX
  8
0
 10
-2.82267811594
 20
1.84448769828
 30
0.0
  0
VERTEX
  8
0
 10
-2.8722518569
 20
1.85099954847
 30
0.0
  0
VERTEX
  8
0
 10
-2.92190857204
 20
1.85684552968
 30
0.0
  0
VERTEX
  8
0
 10
-2.97163488426
 20
1.86206693675
 30
0.0
  0
VERTEX
  8
0
 10
-3.02141916903
 20
1.86670354316
 30
0.0
  0
VERTEX
  8
0
 10
-3.0712513589
 20
1.87079371323
 30
0.0
  0
VERTEX
  8
0
 10
-3.12112276928
 20
1.87437452524
 30
0.0
  0
VERTEX
  8
0
 10
-3.17102594373
 20
1.87748190327
 30
0.0
  0
VERTEX
  8
0
 10
-3.22095451656
 20
1.88015075612
 30
0.0
  0
VERTEX
  8
0
 10
-3.23302752294
 20
1.88073394495
 30
0.0
  0
SEQEND
  8
0
  0
POLYLINE
  8
0
 62
0
 70
0
 66
1
 10
0.0
 20
0.0
 30
0.0
  0
VERTEX
  8
0
 10
-1.59541284404
 20
0.891743119266
 30
0.0
  0
VERTEX
  8
0
 10
-1.59695749985
 20
0.941711419569
 30
0.0
  0
VERTEX
  8
0
 10
-1.60150690802
 20
0.991496647173
 30
0.0
  0
VERTEX
  8
0
 10
-1.60898632602
 20
1.04092675125
 30
0.0
  0
VERTEX
  8
0
 10
-1.61938077844
 20
1.08982675595
 30
0.0
  0
VERTEX
  8
0
 10
-1.63272608808
 20
1.13800459355
 30
0.0
  0
VERTEX
  8
0
 10
-1.64910195742
 20
1.18523745833
 30
0.0
  0
VERTEX
  8
0
 10
-1.66862508409
 20
1.23125735107
 30
0.0
  0
VERTEX
  8
0
 10
-1.69143991978
 20
1.27573529432
 30
0.0
  0
VERTEX
  8
0
 10
-1.71770394913
 20
1.31826490412
 30
0.0
  0
VERTEX
  8
0
 10
-1.747563578
 20
1.35834816377
 30
0.0
  0
VERTEX
  8
0
 10
-1.78111679932
 20
1.39538981952
 30
0.0
  0
VERTEX
  8
0
 10
-1.78486238532
 20
1.39908256881
 30
0.0
  0
SEQEND
  8
0
  0
POLYLINE
  8
0
 62
0
 70
0
 66
1
 10
0.0
 20
0.0
 30
0.0
  0
VERTEX
  8
0
 10
-2.02889908257
 20
-1.83119266055
 30
0.0
  0
VERTEX
  8
0
 10
-1.98108397409
 20
-1.81661309967
 30
0.0
  0
VERTEX
  8
0
 10
-1.93451996083
 20
-1.79843289607
 30
0.0
  0
VERTEX
  8
0
 10
-1.88955901496
 20
-1.77658984019
 30
0.0
  0
VERTEX
  8
0
 10
-1.84657785864
 20
-1.75107299334
 30
0.0
  0
VERTEX
  8
0
 10
-1.80596729277
 20
-1.72193254068
 30
0.0
  0
VERTEX
  8
0
 10
-1.76811789651
 20
-1.68928717171
 30
0.0
  0
VERTEX
  8
0
 10
-1.73340292684
 20
-1.65332739795
 30
0.0
  0
VERTEX
  8
0
 10
-1.7021600167
 20
-1.61431352253
 30
0.0
  0
VERTEX
  8
0
 10
-1.67467385774
 20
-1.57256770389
 30
0.0
  0
VERTEX
  8
0
 10
-1.65116220495
 20
-1.52846058438
 30
0.0
  0
VERTEX
  8
0
 10
-1.63176711781
 20
-1.48239399922
 30
0.0
  0
VERTEX
  8
0
 10
-1.61655243156
 20
-1.43478200399
 30
0.0
  0
VERTEX
  8
0
 10
-1.60550731541
 20
-1.38603262562
 30
0.0
  0
VERTEX
  8
0
 10
-1.59855477473
 20
-1.33653234331
 30
0.0
  0
VERTEX
  8
0
 10
-1.59556336046
 20
-1.28663453277
 30
0.0
  0
VERTEX
  8
0
 10
-1.59541284404
 20
-1.27247706422
 30
0.0
  0
SEQEND
  8
0
  0
POLYLINE
  8
0
 62
0
 70
0
 66
1
 10
0.0
 20
0.0
 30
0.0
  0
VERTEX
  8
0
 10
-3.23302752294
 20
-2.00779816514
 30
0.0
  0
VERTEX
  8
0
 10
-3.18311202805
 20
-2.00489342525
 30
0.0
  0
VERTEX
  8
0
 10
-3.13321305871
 20
-2.00171751501
 30
0.0
  0
VERTEX
  8
0
 10
-3.08333300009
 20
-1.99825736028
 30
0.0
  0
VERTEX
  8
0
 10
-3.03347446767
 20
-1.99449983413
 30
0.0
  0
VERTEX
  8
0
 10
-2.98364032015
 20
-1.99043175086
 30
0.0
  0
VERTEX
  8
0
 10
-2.93383367265
 20
-1.98603986129
 30
0.0
  0
VERTEX
  8
0
 10
-2.88405791039
 20
-1.98131084952
 30
0.0
  0
VERTEX
  8
0
 10
-2.83431670265
 20
-1.97623133114
 30
0.0
  0
VERTEX
  8
0
 10
-2.78461401704
 20
-1.97078785302
 30
0.0
  0
VERTEX
  8
0
 10
-2.73495413413
 20
-1.96496689473
 30
0.0
  0
VERTEX
  8
0
 10
-2.68534166221
 20
-1.95875487172
 30
0.0
  0
VERTEX
  8
0
 10
-2.63578155224
 20
-1.95213814039
 30
0.0
  0
VERTEX
  8
0
 10
-2.58627911295
 20
-1.94510300508
 30
0.0
  0
VERTEX
  8
0
 10
-2.53684002586
 20
-1.93763572717
 30
0.0
  0
VERTEX
  8
0
 10
-2.48747036021
 20
-1.92972253641
 30
0.0
  0
VERTEX
  8
0
 10
-2.43817658763
 20
-1.9213496445
 30
0.0
  0
VERTEX
  8
0
 10
-2.38896559649
 20
-1.91250326117
 30
0.0
  0
VERTEX
  8
0
 10
-2.33984470556
 20
-1.90316961284
 30
0.0
  0
VERTEX
  8
0
 10
-2.29082167709
 20
-1.8933349638
 30
0.0
  0
VERTEX
  8
0
 10
-2.24190472883
 20
-1.88298564035
 30
0.0
  0
VERTEX
  8
0
 10
-2.19310254493
 20
-1.87210805758
 30
0.0
  0
VERTEX
  8
0
 10
-2.14442428538
 20
-1.86068874919
 30
0.0
  0
VERTEX
  8
0
 10
-2.09587959381
 20
-1.84871440018
 30
0.0
  0
VERTEX
  8
0
 10
-2.04747860332
 20
-1.83617188247
 30
0.0
  0
VERTEX
  8
0
 10
-2.02889908257
 20
-1.83119266055
 30
0.0
  0
SEQEND
  8
0
  0
POLYLINE
  8
0
 62
0
 70
0
 66
1
 10
0.0
 20
0.0
 30
0.0
  0
VERTEX
  8
0
 10
-3.48027522936
 20
-2.26788990826
 30
0.0
  0
VERTEX
  8
0
 10
-3.47631081841
 20
-2.21810240863
 30
0.0
  0
VERTEX
  8
0
 10
-3.46385563079
 20
-2.16975046782
 30
0.0
  0
VERTEX
  8
0
 10
-3.44240505169
 20
-2.1246784284
 30
0.0
  0
VERTEX
  8
0
 10
-3.41215628668
 20
-2.08498386383
 30
0.0
  0
VERTEX
  8
0
 10
-3.37418638332
 20
-2.05259844774
 30
0.0
  0
VERTEX
  8
0
 10
-3.33030716096
 20
-2.02880876885
 30
0.0
  0
VERTEX
  8
0
 10
-3.28262421272
 20
-2.01400759449
 30
0.0
  0
VERTEX
  8
0
 10
-3.23306869828
 20
-2.00779995801
 30
0.0
  0
VERTEX
  8
0
 10
-3.23302752294
 20
-2.00779816514
 30
0.0
  0
SEQEND
  8
0
  0
POLYLINE
  8
0
 62
0
 70
0
 66
1
 10
0.0
 20
0.0
 30
0.0
  0
VERTEX
  8
0
 10
0.889908256881
 20
-2.21330275229
 30
0.0
  0
VERTEX
  8
0
 10
0.854893665422
 20
-2.17761756361
 30
0.0
  0
VERTEX
  8
0
 10
0.821723454092
 20
-2.14021138352
 30
0.0
  0
VERTEX
  8
0
 10
0.79042006575
 20
-2.10122910943
 30
0.0
  0
VERTEX
  8
0
 10
0.760986068799
 20
-2.06081628742
 30
0.0
  0
VERTEX
  8
0
 10
0.733406657707
 20
-2.0191153347
 30
0.0
  0
VERTEX
  8
0
 10
0.707652552573
 20
-1.97626261336
 30
0.0
  0
VERTEX
  8
0
 10
0.683683004962
 20
-1.93238636573
 30
0.0
  0
VERTEX
  8
0
 10
0.661448682369
 20
-1.88760543605
 30
0.0
  0
VERTEX
  8
0
 10
0.64089428176
 20
-1.84202865181
 30
0.0
  0
VERTEX
  8
0
 10
0.621960792329
 20
-1.79575471966
 30
0.0
  0
VERTEX
  8
0
 10
0.604587379029
 20
-1.74887249718
 30
0.0
  0
VERTEX
  8
0
 10
0.588712898867
 20
-1.70146151751
 30
0.0
  0
VERTEX
  8
0
 10
0.574277085286
 20
-1.65359266774
 30
0.0
  0
VERTEX
  8
0
 10
0.561221445533
 20
-1.60532894564
 30
0.0
  0
VERTEX
  8
0
 10
0.549489920399
 20
-1.55672624033
 30
0.0
  0
VERTEX
  8
0
 10
0.539029354586
 20
-1.50783409996
 30
0.0
  0
VERTEX
  8
0
 10
0.52978982084
 20
-1.45869646309
 30
0.0
  0
VERTEX
  8
0
 10
0.521724834994
 20
-1.40935234118
 30
0.0
  0
VERTEX
  8
0
 10
0.514791494872
 20
-1.35983644629
 30
0.0
  0
VERTEX
  8
0
 10
0.508950570085
 20
-1.3101797635
 30
0.0
  0
VERTEX
  8
0
 10
0.504166565801
 20
-1.26041007122
 30
0.0
  0
VERTEX
  8
0
 10
0.500407781148
 20
-1.21055241438
 30
0.0
  0
VERTEX
  8
0
 10
0.497646380683
 20
-1.16062953772
 30
0.0
  0
VERTEX
  8
0
 10
0.495858497371
 20
-1.11066228732
 30
0.0
  0
VERTEX
  8
0
 10
0.495024387241
 20
-1.06066999011
 30
0.0
  0
VERTEX
  8
0
 10
0.49495412844
 20
-1.04128440367
 30
0.0
  0
SEQEND
  8
0
  0
POLYLINE
  8
0
 62
0
 70
0
 66
1
 10
0.0
 20
0.0
 30
0.0
  0
VERTEX
  8
0
 10
3.27568807339
 20
-2.93899082569
 30
0.0
  0
VERTEX
  8
0
 10
3.22570244405
 20
-2.93779352556
 30
0.0
  0
VERTEX
  8
0
 10
3.17572222317
 20
-2.93638865686
 30
0.0
  0
VERTEX
  8
0
 10
3.1257487733
 20
-2.9347608156
 30
0.0
  0
VERTEX
  8
0
 10
3.0757836672
 20
-2.93289450594
 30
0.0
  0
VERTEX
  8
0
 10
3.02582870595
 20
-2.93077410096
 30
0.0
  0
VERTEX
  8
0
 10
2.97588593834
 20
-2.92838380491
 30
0.0
  0
VERTEX
  8
0
 10
2.92595768183
 20
-2.92570761733
 30
0.0
  0
VERTEX
  8
0
 10
2.87604654526
 20
-2.92272929718
 30
0.0
  0
VERTEX
  8
0
 10
2.82615545332
 20
-2.91943232966
 30
0.0
  0
VERTEX
  8
0
 10
2.77628767322
 20
-2.91579989318
 30
0.0
  0
VERTEX
  8
0
 10
2.7264468436
 20
-2.91181482692
 30
0.0
  0
VERTEX
  8
0
 10
2.67663700576
 20
-2.9074596014
 30
0.0
  0
VERTEX
  8
0
 10
2.62686263772
 20
-2.90271628819
 30
0.0
  0
VERTEX
  8
0
 10
2.57712869107
 20
-2.89756653178
 30
0.0
  0
VERTEX
  8
0
 10
2.52744063078
 20
-2.89199152409
 30
0.0
  0
VERTEX
  8
0
 10
2.4778044785
 20
-2.88597197834
 30
0.0
  0
VERTEX
  8
0
 10
2.4282268591
 20
-2.87948810759
 30
0.0
  0
VERTEX
  8
0
 10
2.37871505094
 20
-2.87251960465
 30
0.0
  0
VERTEX
  8
0
 10
2.32927704012
 20
-2.86504562423
 30
0.0
  0
VERTEX
  8
0
 10
2.27992157828
 20
-2.85704477088
 30
0.0
  0
VERTEX
  8
0
 10
2.23065824479
 20
-2.84849508935
 30
0.0
  0
VERTEX
  8
0
 10
2.18149751292
 20
-2.83937406074
 30
0.0
  0
VERTEX
  8
0
 10
2.1324508198
 20
-2.82965860532
 30
0.0
  0
VERTEX
  8
0
 10
2.08353064055
 20
-2.81932509164
 30
0.0
  0
VERTEX
  8
0
 10
2.03475056574
 20
-2.80834935478
 30
0.0
  0
VERTEX
  8
0
 10
1.98612538225
 20
-2.79670672364
 30
0.0
  0
VERTEX
  8
0
 10
1.93767115628
 20
-2.78437206051
 30
0.0
  0
VERTEX
  8
0
 10
1.8894053184
 20
-2.7713198127
 30
0.0
  0
VERTEX
  8
0
 10
1.84134674903
 20
-2.75752407847
 30
0.0
  0
VERTEX
  8
0
 10
1.7935158625
 20
-2.74295869171
 30
0.0
  0
VERTEX
  8
0
 10
1.74593468908
 20
-2.72759732186
 30
0.0
  0
VERTEX
  8
0
 10
1.69862695167
 20
-2.71141359562
 30
0.0
  0
VERTEX
  8
0
 10
1.65161813388
 20
-2.69438124267
 30
0.0
  0
VERTEX
  8
0
 10
1.60493553877
 20
-2.6764742604
 30
0.0
  0
VERTEX
  8
0
 10
1.55860833195
 20
-2.65766710653
 30
0.0
  0
VERTEX
  8
0
 10
1.51266756507
 20
-2.63793491871
 30
0.0
  0
VERTEX
  8
0
 10
1.46714617808
 20
-2.61725375444
 30
0.0
  0
VERTEX
  8
0
 10
1.42207897171
 20
-2.59560085948
 30
0.0
  0
VERTEX
  8
0
 10
1.37750254583
 20
-2.57295496013
 30
0.0
  0
VERTEX
  8
0
 10
1.33345520188
 20
-2.54929656999
 30
0.0
  0
VERTEX
  8
0
 10
1.28997680066
 20
-2.52460831509
 30
0.0
  0
VERTEX
  8
0
 10
1.24710857238
 20
-2.49887526861
 30
0.0
  0
VERTEX
  8
0
 10
1.20489287898
 20
-2.47208528219
 30
0.0
  0
VERTEX
  8
0
 10
1.16337292409
 20
-2.44422931104
 30
0.0
  0
VERTEX
  8
0
 10
1.12259241137
 20
-2.41530172082
 30
0.0
  0
VERTEX
  8
0
 10
1.08259515687
 20
-2.38530056065
 30
0.0
  0
VERTEX
  8
0
 10
1.04342465862
 20
-2.35422779435
 30
0.0
  0
VERTEX
  8
0
 10
1.00512363127
 20
-2.322089478
 30
0.0
  0
VERTEX
  8
0
 10
0.967733518969
 20
-2.28889587045
 30
0.0
  0
VERTEX
  8
0
 10
0.931293998092
 20
-2.25466147022
 30
0.0
  0
VERTEX
  8
0
 10
0.895842486507
 20
-2.21940497076
 30
0.0
  0
VERTEX
  8
0
 10
0.889908256881
 20
-2.21330275229
 30
0.0
  0
SEQEND
  8
0
  0
POLYLINE
  8
0
 62
0
 70
0
 66
1
 10
0.0
 20
0.0
 30
0.0
  0
VERTEX
  8
0
 10
3.4619266055
 20
-2.86513761468
 30
0.0
  0
VERTEX
  8
0
 10
3.42409219019
 20
-2.89767836218
 30
0.0
  0
VERTEX
  8
0
 10
3.38016649426
 20
-2.92136185797
 30
0.0
  0
VERTEX
  8
0
 10
3.33223464416
 20
-2.93527259089
 30
0.0
  0
VERTEX
  8
0
 10
3.28247219365
 20
-2.93921065868
 30
0.0
  0
VERTEX
  8
0
 10
3.27568807339
 20
-2.93899082569
 30
0.0
  0
SEQEND
  8
0
  0
POLYLINE
  8
0
 62
0
 70
0
 66
1
 10
0.0
 20
0.0
 30
0.0
  0
VERTEX
  8
0
 10
3.54220183486
 20
-2.67889908257
 30
0.0
  0
VERTEX
  8
0
 10
3.53737530111
 20
-2.72858688406
 30
0.0
  0
VERTEX
  8
0
 10
3.52303018755
 20
-2.77640197672
 30
0.0
  0
VERTEX
  8
0
 10
3.49964987373
 20
-2.82050766882
 30
0.0
  0
VERTEX
  8
0
 10
3.46807674268
 20
-2.85917278647
 30
0.0
  0
VERTEX
  8
0
 10
3.4619266055
 20
-2.86513761468
 30
0.0
  0
SEQEND
  8
0
  0
POLYLINE
  8
0
 62
0
 70
0
 66
1
 10
0.0
 20
0.0
 30
0.0
  0
VERTEX
  8
0
 10
3.29174311927
 20
-2.00779816514
 30
0.0
  0
VERTEX
  8
0
 10
3.34130352999
 20
-2.01397446984
 30
0.0
  0
VERTEX
  8
0
 10
3.38903684445
 20
-2.02862223562
 30
0.0
  0
VERTEX
  8
0
 10
3.43310417074
 20
-2.05207092324
 30
0.0
  0
VERTEX
  8
0
 10
3.471492572
 20
-2.08396567671
 30
0.0
  0
VERTEX
  8
0
 10
3.50239440908
 20
-2.1231564799
 30
0.0
  0
VERTEX
  8
0
 10
3.5246102262
 20
-2.1678551846
 30
0.0
  0
VERTEX
  8
0
 10
3.53775792863
 20
-2.21602021293
 30
0.0
  0
VERTEX
  8
0
 10
3.54219472694
 20
-2.26576404169
 30
0.0
  0
VERTEX
  8
0
 10
3.54220183486
 20
-2.26788990826
 30
0.0
  0
SEQEND
  8
0
  0
POLYLINE
  8
0
 62
0
 70
0
 66
1
 10
0.0
 20
0.0
 30
0.0
  0
VERTEX
  8
0
 10
1.84678899083
 20
-1.53577981651
 30
0.0
  0
VERTEX
  8
0
 10
1.88289654677
 20
-1.57036099457
 30
0.0
  0
VERTEX
  8
0
 10
1.92044764196
 20
-1.60336921197
 30
0.0
  0
VERTEX
  8
0
 10
1.95934614713
 20
-1.63477861677
 30
0.0
  0
VERTEX
  8
0
 10
1.99949168743
 20
-1.66457794599
 30
0.0
  0
VERTEX
  8
0
 10
2.0407822071
 20
-1.69276977733
 30
0.0
  0
VERTEX
  8
0
 10
2.08311628166
 20
-1.71936931792
 30
0.0
  0
VERTEX
  8
0
 10
2.12639507638
 20
-1.74440287155
 30
0.0
  0
VERTEX
  8
0
 10
2.17052389945
 20
-1.7679061283
 30
0.0
  0
VERTEX
  8
0
 10
2.21541334328
 20
-1.78992240523
 30
0.0
  0
VERTEX
  8
0
 10
2.26098004046
 20
-1.81050094175
 30
0.0
  0
VERTEX
  8
0
 10
2.30714708355
 20
-1.82969532418
 30
0.0
  0
VERTEX
  8
0
 10
2.3538441677
 20
-1.8475620863
 30
0.0
  0
VERTEX
  8
0
 10
2.40100751782
 20
-1.86415950827
 30
0.0
  0
VERTEX
  8
0
 10
2.44857965789
 20
-1.87954661781
 30
0.0
  0
VERTEX
  8
0
 10
2.49650907226
 20
-1.89378238475
 30
0.0
  0
VERTEX
  8
0
 10
2.54474980044
 20
-1.90692509163
 30
0.0
  0
VERTEX
  8
0
 10
2.59326099766
 20
-1.9190318592
 30
0.0
  0
VERTEX
  8
0
 10
2.64200648546
 20
-1.93015830413
 30
0.0
  0
VERTEX
  8
0
 10
2.69095430964
 20
-1.94035830696
 30
0.0
  0
VERTEX
  8
0
 10
2.74007631722
 20
-1.94968387003
 30
0.0
  0
VERTEX
  8
0
 10
2.78934775981
 20
-1.95818504775
 30
0.0
  0
VERTEX
  8
0
 10
2.83874692724
 20
-1.96590993382
 30
0.0
  0
VERTEX
  8
0
 10
2.88825481329
 20
-1.97290469276
 30
0.0
  0
VERTEX
  8
0
 10
2.9378548133
 20
-1.97921362548
 30
0.0
  0
VERTEX
  8
0
 10
2.98753245269
 20
-1.98487926068
 30
0.0
  0
VERTEX
  8
0
 10
3.03727514448
 20
-1.98994246551
 30
0.0
  0
VERTEX
  8
0
 10
3.08707197366
 20
-1.99444257092
 30
0.0
  0
VERTEX
  8
0
 10
3.13691350603
 20
-1.99841750796
 30
0.0
  0
VERTEX
  8
0
 10
3.18679161909
 20
-2.00190395269
 30
0.0
  0
VERTEX
  8
0
 10
3.23669935257
 20
-2.00493747832
 30
0.0
  0
VERTEX
  8
0
 10
3.28663077644
 20
-2.00755271365
 30
0.0
  0
VERTEX
  8
0
 10
3.29174311927
 20
-2.00779816514
 30
0.0
  0
SEQEND
  8
0
  0
POLYLINE
  8
0
 62
0
 70
0
 66
1
 10
0.0
 20
0.0
 30
0.0
  0
VERTEX
  8
0
 10
1.65733944954
 20
-1.04128440367
 30
0.0
  0
VERTEX
  8
0
 10
1.65891939922
 20
-1.09125120533
 30
0.0
  0
VERTEX
  8
0
 10
1.66359715268
 20
-1.14102397654
 30
0.0
  0
VERTEX
  8
0
 10
1.67133047198
 20
-1.19041425541
 30
0.0
  0
VERTEX
  8
0
 10
1.68213397868
 20
-1.2392245813
 30
0.0
  0
VERTEX
  8
0
 10
1.69606810154
 20
-1.28723427124
 30
0.0
  0
VERTEX
  8
0
 10
1.71322902573
 20
-1.33418620169
 30
0.0
  0
VERTEX
  8
0
 10
1.73373713429
 20
-1.37977403697
 30
0.0
  0
VERTEX
  8
0
 10
1.75772133676
 20
-1.42363064246
 30
0.0
  0
VERTEX
  8
0
 10
1.78529669985
 20
-1.46532012775
 30
0.0
  0
VERTEX
  8
0
 10
1.81653364468
 20
-1.50433814991
 30
0.0
  0
VERTEX
  8
0
 10
1.84678899083
 20
-1.53577981651
 30
0.0
  0
SEQEND
  8
0
  0
POLYLINE
  8
0
 62
0
 70
0
 66
1
 10
0.0
 20
0.0
 30
0.0
  0
VERTEX
  8
0
 10
2.09082568807
 20
1.70091743119
 30
0.0
  0
VERTEX
  8
0
 10
2.04319608209
 20
1.68574522764
 30
0.0
  0
VERTEX
  8
0
 10
1.99690071055
 20
1.66689297146
 30
0.0
  0
VERTEX
  8
0
 10
1.95229295603
 20
1.64433819057
 30
0.0
  0
VERTEX
  8
0
 10
1.90973918966
 20
1.61811492314
 30
0.0
  0
VERTEX
  8
0
 10
1.86960654725
 20
1.58831922809
 30
0.0
  0
VERTEX
  8
0
 10
1.83224898673
 20
1.55511116298
 30
0.0
  0
VERTEX
  8
0
 10
1.79799290071
 20
1.51871256892
 30
0.0
  0
VERTEX
  8
0
 10
1.76712377418
 20
1.47940057127
 30
0.0
  0
VERTEX
  8
0
 10
1.73987530591
 20
1.43749734314
 30
0.0
  0
VERTEX
  8
0
 10
1.7164220575
 20
1.39335722133
 30
0.0
  0
VERTEX
  8
0
 10
1.69687614868
 20
1.34735257774
 30
0.0
  0
VERTEX
  8
0
 10
1.68128792863
 20
1.29985987756
 30
0.0
  0
VERTEX
  8
0
 10
1.66965005871
 20
1.25124713184
 30
0.0
  0
VERTEX
  8
0
 10
1.66190413236
 20
1.20186357276
 30
0.0
  0
VERTEX
  8
0
 10
1.65794884922
 20
1.15203195761
 30
0.0
  0
VERTEX
  8
0
 10
1.65733944954
 20
1.12293577982
 30
0.0
  0
SEQEND
  8
0
  0
POLYLINE
  8
0
 62
0
 70
0
 66
1
 10
0.0
 20
0.0
 30
0.0
  0
VERTEX
  8
0
 10
3.29495412844
 20
1.88073394495
 30
0.0
  0
VERTEX
  8
0
 10
3.24503827688
 20
1.87783558625
 30
0.0
  0
VERTEX
  8
0
 10
3.19514078821
 20
1.87463671296
 30
0.0
  0
VERTEX
  8
0
 10
3.1452642471
 20
1.87112640858
 30
0.0
  0
VERTEX
  8
0
 10
3.09541144941
 20
1.86729371364
 30
0.0
  0
VERTEX
  8
0
 10
3.04558541093
 20
1.86312763026
 30
0.0
  0
VERTEX
  8
0
 10
2.99578937619
 20
1.85861712749
 30
0.0
  0
VERTEX
  8
0
 10
2.94602682723
 20
1.85375114799
 30
0.0
  0
VERTEX
  8
0
 10
2.89630149226
 20
1.84851861555
 30
0.0
  0
VERTEX
  8
0
 10
2.84661735411
 20
1.84290844403
 30
0.0
  0
VERTEX
  8
0
 10
2.79697865856
 20
1.83690954739
 30
0.0
  0
VERTEX
  8
0
 10
2.74738992229
 20
1.83051085099
 30
0.0
  0
VERTEX
  8
0
 10
2.69785594048
 20
1.82370130427
 30
0.0
  0
VERTEX
  8
0
 10
2.64838179398
 20
1.81646989478
 30
0.0
  0
VERTEX
  8
0
 10
2.59897285587
 20
1.80880566346
 30
0.0
  0
VERTEX
  8
0
 10
2.54963479739
 20
1.80069772155
 30
0.0
  0
VERTEX
  8
0
 10
2.50037359314
 20
1.7921352687
 30
0.0
  0
VERTEX
  8
0
 10
2.4511955253
 20
1.78310761266
 30
0.0
  0
VERTEX
  8
0
 10
2.40210718697
 20
1.77360419032
 30
0.0
  0
VERTEX
  8
0
 10
2.35311548427
 20
1.76361459007
 30
0.0
  0
VERTEX
  8
0
 10
2.3042276373
 20
1.75312857566
 30
0.0
  0
VERTEX
  8
0
 10
2.25545117962
 20
1.74213611122
 30
0.0
  0
VERTEX
  8
0
 10
2.20679395626
 20
1.73062738751
 30
0.0
  0
VERTEX
  8
0
 10
2.15826412012
 20
1.71859284933
 30
0.0
  0
VERTEX
  8
0
 10
2.10987012657
 20
1.70602322389
 30
0.0
  0
VERTEX
  8
0
 10
2.09082568807
 20
1.70091743119
 30
0.0
  0
SEQEND
  8
0
  0
POLYLINE
  8
0
 62
0
 70
0
 66
1
 10
0.0
 20
0.0
 30
0.0
  0
VERTEX
  8
0
 10
3.54220183486
 20
2.14082568807
 30
0.0
  0
VERTEX
  8
0
 10
3.53812415827
 20
2.09105032864
 30
0.0
  0
VERTEX
  8
0
 10
3.52539359785
 20
2.04277200164
 30
0.0
  0
VERTEX
  8
0
 10
3.50364727593
 20
1.99784126452
 30
0.0
  0
VERTEX
  8
0
 10
3.47322158469
 20
1.9582783275
 30
0.0
  0
VERTEX
  8
0
 10
3.43523736333
 20
1.92590384034
 30
0.0
  0
VERTEX
  8
0
 10
3.3914339474
 20
1.90197035113
 30
0.0
  0
VERTEX
  8
0
 10
3.34381305757
 20
1.88697321999
 30
0.0
  0
VERTEX
  8
0
 10
3.29495412844
 20
1.88073394495
 30
0.0
  0
SEQEND
  8
0
  0
POLYLINE
  8
0
 62
0
 70
0
 66
1
 10
0.0
 20
0.0
 30
0.0
  0
VERTEX
  8
0
 10
3.4619266055
 20
2.74128440367
 30
0.0
  0
VERTEX
  8
0
 10
3.49420087884
 20
2.7031739669
 30
0.0
  0
VERTEX
  8
0
 10
3.51914345107
 20
2.65992528624
 30
0.0
  0
VERTEX
  8
0
 10
3.53527847181
 20
2.61268581731
 30
0.0
  0
VERTEX
  8
0
 10
3.54197099672
 20
2.56321164531
 30
0.0
  0
VERTEX
  8
0
 10
3.54220183486
 20
2.55183486239
 30
0.0
  0
SEQEND
  8
0
  0
POLYLINE
  8
0
 62
0
 70
0
 66
1
 10
0.0
 20
0.0
 30
0.0
  0
VERTEX
  8
0
 10
3.27247706422
 20
2.81513761468
 30
0.0
  0
VERTEX
  8
0
 10
3.32222584634
 20
2.81081055775
 30
0.0
  0
VERTEX
  8
0
 10
3.37042999936
 20
2.79778594702
 30
0.0
  0
VERTEX
  8
0
 10
3.41548275662
 20
2.77626312337
 30
0.0
  0
VERTEX
  8
0
 10
3.45581925848
 20
2.74683799906
 30
0.0
  0
VERTEX
  8
0
 10
3.4619266055
 20
2.74128440367
 30
0.0
  0
SEQEND
  8
0
  0
POLYLINE
  8
0
 62
0
 70
0
 66
1
 10
0.0
 20
0.0
 30
0.0
  0
VERTEX
  8
0
 10
1.46467889908
 20
2.52293577982
 30
0.0
  0
VERTEX
  8
0
 10
1.51178834931
 20
2.53968878102
 30
0.0
  0
VERTEX
  8
0
 10
1.55911399178
 20
2.55582099079
 30
0.0
  0
VERTEX
  8
0
 10
1.60664397596
 20
2.57134086583
 30
0.0
  0
VERTEX
  8
0
 10
1.65436675784
 20
2.58625741049
 30
0.0
  0
VERTEX
  8
0
 10
1.70227112184
 20
2.60058013455
 30
0.0
  0
VERTEX
  8
0
 10
1.75034619942
 20
2.61431901099
 30
0.0
  0
VERTEX
  8
0
 10
1.79858148451
 20
2.62748443424
 30
0.0
  0
VERTEX
  8
0
 10
1.84696684582
 20
2.6400871794
 30
0.0
  0
VERTEX
  8
0
 10
1.89549253613
 20
2.65213836246
 30
0.0
  0
VERTEX
  8
0
 10
1.94414919902
 20
2.66364940196
 30
0.0
  0
VERTEX
  8
0
 10
1.99292787286
 20
2.67463198226
 30
0.0
  0
VERTEX
  8
0
 10
2.04181999258
 20
2.68509801849
 30
0.0
  0
VERTEX
  8
0
 10
2.09081738923
 20
2.69505962342
 30
0.0
  0
VERTEX
  8
0
 10
2.13991228761
 20
2.7045290764
 30
0.0
  0
VERTEX
  8
0
 10
2.18909730227
 20
2.7135187942
 30
0.0
  0
VERTEX
  8
0
 10
2.23836543184
 20
2.72204130409
 30
0.0
  0
VERTEX
  8
0
 10
2.28771005219
 20
2.73010921891
 30
0.0
  0
VERTEX
  8
0
 10
2.33712490833
 20
2.73773521432
 30
0.0
  0
VERTEX
  8
0
 10
2.38660410542
 20
2.7449320081
 30
0.0
  0
VERTEX
  8
0
 10
2.43614209894
 20
2.75171234146
 30
0.0
  0
VERTEX
  8
0
 10
2.48573368423
 20
2.75808896236
 30
0.0
  0
VERTEX
  8
0
 10
2.53537398548
 20
2.76407461068
 30
0.0
  0
VERTEX
  8
0
 10
2.58505844435
 20
2.76968200527
 30
0.0
  0
VERTEX
  8
0
 10
2.6347828083
 20
2.77492383271
 30
0.0
  0
VERTEX
  8
0
 10
2.68454311877
 20
2.77981273784
 30
0.0
  0
VERTEX
  8
0
 10
2.73433569917
 20
2.78436131573
 30
0.0
  0
VERTEX
  8
0
 10
2.78415714292
 20
2.78858210527
 30
0.0
  0
VERTEX
  8
0
 10
2.83400430156
 20
2.7924875841
 30
0.0
  0
VERTEX
  8
0
 10
2.88387427285
 20
2.79609016494
 30
0.0
  0
VERTEX
  8
0
 10
2.9337643891
 20
2.79940219308
 30
0.0
  0
VERTEX
  8
0
 10
2.98367220565
 20
2.80243594508
 30
0.0
  0
VERTEX
  8
0
 10
3.03359548958
 20
2.80520362857
 30
0.0
  0
VERTEX
  8
0
 10
3.08353220858
 20
2.80771738309
 30
0.0
  0
VERTEX
  8
0
 10
3.13348052018
 20
2.80998928182
 30
0.0
  0
VERTEX
  8
0
 10
3.18343876112
 20
2.81203133426
 30
0.0
  0
VERTEX
  8
0
 10
3.2334054371
 20
2.81385548974
 30
0.0
  0
VERTEX
  8
0
 10
3.27247706422
 20
2.81513761468
 30
0.0
  0
SEQEND
  8
0
  0
POLYLINE
  8
0
 62
0
 70
0
 66
1
 10
0.0
 20
0.0
 30
0.0
  0
VERTEX
  8
0
 10
0.49495412844
 20
1.12293577982
 30
0.0
  0
VERTEX
  8
0
 10
0.495682930858
 20
1.17292868586
 30
0.0
  0
VERTEX
  8
0
 10
0.497887047741
 20
1.22287822966
 30
0.0
  0
VERTEX
  8
0
 10
0.501591719577
 20
1.27273887238
 30
0.0
  0
VERTEX
  8
0
 10
0.506820217569
 20
1.32246275334
 30
0.0
  0
VERTEX
  8
0
 10
0.513593581508
 20
1.3719997735
 30
0.0
  0
VERTEX
  8
0
 10
0.521930355769
 20
1.42129770868
 30
0.0
  0
VERTEX
  8
0
 10
0.53184632647
 20
1.47030235414
 30
0.0
  0
VERTEX
  8
0
 10
0.54335426408
 20
1.5189577017
 30
0.0
  0
VERTEX
  8
0
 10
0.556463676152
 20
1.56720614988
 30
0.0
  0
VERTEX
  8
0
 10
0.57118057508
 20
1.61498874686
 30
0.0
  0
VERTEX
  8
0
 10
0.587507266245
 20
1.66224546531
 30
0.0
  0
VERTEX
  8
0
 10
0.60544216156
 20
1.70891550711
 30
0.0
  0
VERTEX
  8
0
 10
0.624979623587
 20
1.75493763529
 30
0.0
  0
VERTEX
  8
0
 10
0.646109845048
 20
1.80025052937
 30
0.0
  0
VERTEX
  8
0
 10
0.668818768043
 20
1.84479315958
 30
0.0
  0
VERTEX
  8
0
 10
0.693088046577
 20
1.8885051745
 30
0.0
  0
VERTEX
  8
0
 10
0.718895055194
 20
1.93132729593
 30
0.0
  0
VERTEX
  8
0
 10
0.746212945471
 20
1.97320171459
 30
0.0
  0
VERTEX
  8
0
 10
0.775010750983
 20
2.01407247941
 30
0.0
  0
VERTEX
  8
0
 10
0.805253540182
 20
2.05388587347
 30
0.0
  0
VERTEX
  8
0
 10
0.836902615344
 20
2.09259076972
 30
0.0
  0
VERTEX
  8
0
 10
0.869915754576
 20
2.13013895978
 30
0.0
  0
VERTEX
  8
0
 10
0.904247492723
 20
2.16648544998
 30
0.0
  0
VERTEX
  8
0
 10
0.939849436042
 20
2.20158871949
 30
0.0
  0
VERTEX
  8
0
 10
0.976670604719
 20
2.2354109365
 30
0.0
  0
VERTEX
  8
0
 10
1.01465779669
 20
2.26791812942
 30
0.0
  0
VERTEX
  8
0
 10
1.05375596594
 20
2.29908031129
 30
0.0
  0
VERTEX
  8
0
 10
1.09390860823
 20
2.32887155692
 30
0.0
  0
VERTEX
  8
0
 10
1.13505814743
 20
2.35727003337
 30
0.0
  0
VERTEX
  8
0
 10
1.17714631606
 20
2.38425798542
 30
0.0
  0
VERTEX
  8
0
 10
1.2201145239
 20
2.40982167885
 30
0.0
  0
VERTEX
  8
0
 10
1.26390420956
 20
2.43395130492
 30
0.0
  0
VERTEX
  8
0
 10
1.30845717046
 20
2.45664085029
 30
0.0
  0
VERTEX
  8
0
 10
1.35371586767
 20
2.47788793694
 30
0.0
  0
VERTEX
  8
0
 10
1.39962370287
 20
2.49769363697
 30
0.0
  0
VERTEX
  8
0
 10
1.44612526584
 20
2.5160622665
 30
0.0
  0
VERTEX
  8
0
 10
1.46467889908
 20
2.52293577982
 30
0.0
  0
SEQEND
  8
0
  0
POLYLINE
  8
0
 62
0
 70
0
 66
1
 10
0.0
 20
0.0
 30
0.0
  0
VERTEX
  8
0
 10
4.12339449541
 20
-2.26788990826
 30
0.0
  0
VERTEX
  8
0
 10
4.12735890636
 20
-2.21810240863
 30
0.0
  0
VERTEX
  8
0
 10
4.13981409398
 20
-2.16975046782
 30
0.0
  0
VERTEX
  8
0
 10
4.16126467308
 20
-2.1246784284
 30
0.0
  0
VERTEX
  8
0
 10
4.19151343809
 20
-2.08498386383
 30
0.0
  0
VERTEX
  8
0
 10
4.22948334146
 20
-2.05259844774
 30
0.0
  0
VERTEX
  8
0
 10
4.27336256381
 20
-2.02880876885
 30
0.0
  0
VERTEX
  8
0
 10
4.32104551205
 20
-2.01400759449
 30
0.0
  0
VERTEX
  8
0
 10
4.37060102649
 20
-2.00779995801
 30
0.0
  0
VERTEX
  8
0
 10
4.37064220183
 20
-2.00779816514
 30
0.0
  0
SEQEND
  8
0
  0
POLYLINE
  8
0
 62
0
 70
0
 66
1
 10
0.0
 20
0.0
 30
0.0
  0
VERTEX
  8
0
 10
4.2004587156
 20
-2.86513761468
 30
0.0
  0
VERTEX
  8
0
 10
4.16788886633
 20
-2.82732555364
 30
0.0
  0
VERTEX
  8
0
 10
4.14393636239
 20
-2.78353740729
 30
0.0
  0
VERTEX
  8
0
 10
4.1291669853
 20
-2.73585007813
 30
0.0
  0
VERTEX
  8
0
 10
4.12348730209
 20
-2.68624123552
 30
0.0
  0
VERTEX
  8
0
 10
4.12339449541
 20
-2.67889908257
 30
0.0
  0
SEQEND
  8
0
  0
POLYLINE
  8
0
 62
0
 70
0
 66
1
 10
0.0
 20
0.0
 30
0.0
  0
VERTEX
  8
0
 10
4.38990825688
 20
-2.93899082569
 30
0.0
  0
VERTEX
  8
0
 10
4.34005610954
 20
-2.93639579253
 30
0.0
  0
VERTEX
  8
0
 10
4.29171665098
 20
-2.92395540737
 30
0.0
  0
VERTEX
  8
0
 10
4.24687257844
 20
-2.90203482613
 30
0.0
  0
VERTEX
  8
0
 10
4.20723875882
 20
-2.87168248654
 30
0.0
  0
VERTEX
  8
0
 10
4.2004587156
 20
-2.86513761468
 30
0.0
  0
SEQEND
  8
0
  0
POLYLINE
  8
0
 62
0
 70
0
 66
1
 10
0.0
 20
0.0
 30
0.0
  0
VERTEX
  8
0
 10
6.77568807339
 20
-2.21330275229
 30
0.0
  0
VERTEX
  8
0
 10
6.74031472332
 20
-2.24863770896
 30
0.0
  0
VERTEX
  8
0
 10
6.70395846488
 20
-2.28296055476
 30
0.0
  0
VERTEX
  8
0
 10
6.66665569652
 20
-2.316252322
 30
0.0
  0
VERTEX
  8
0
 10
6.62844508728
 20
-2.3484981186
 30
0.0
  0
VERTEX
  8
0
 10
6.58936710557
 20
-2.37968718446
 30
0.0
  0
VERTEX
  8
0
 10
6.5494635382
 20
-2.40981286779
 30
0.0
  0
VERTEX
  8
0
 10
6.50877701811
 20
-2.43887253134
 30
0.0
  0
VERTEX
  8
0
 10
6.46735057063
 20
-2.46686739286
 30
0.0
  0
VERTEX
  8
0
 10
6.42522718988
 20
-2.49380231001
 30
0.0
  0
VERTEX
  8
0
 10
6.38244945616
 20
-2.51968552463
 30
0.0
  0
VERTEX
  8
0
 10
6.33905919662
 20
-2.54452837304
 30
0.0
  0
VERTEX
  8
0
 10
6.29509719332
 20
-2.5683449738
 30
0.0
  0
VERTEX
  8
0
 10
6.25060294248
 20
-2.59115190843
 30
0.0
  0
VERTEX
  8
0
 10
6.20561446066
 20
-2.61296789908
 30
0.0
  0
VERTEX
  8
0
 10
6.16016813581
 20
-2.63381349021
 30
0.0
  0
VERTEX
  8
0
 10
6.11429862248
 20
-2.65371074714
 30
0.0
  0
VERTEX
  8
0
 10
6.06803877414
 20
-2.67268297078
 30
0.0
  0
VERTEX
  8
0
 10
6.02141960754
 20
-2.69075443039
 30
0.0
  0
VERTEX
  8
0
 10
5.97447029745
 20
-2.70795012387
 30
0.0
  0
VERTEX
  8
0
 10
5.92721819425
 20
-2.72429556098
 30
0.0
  0
VERTEX
  8
0
 10
5.87968885999
 20
-2.739816568
 30
0.0
  0
VERTEX
  8
0
 10
5.83190612105
 20
-2.75453912094
 30
0.0
  0
VERTEX
  8
0
 10
5.78389213171
 20
-2.76848919963
 30
0.0
  0
VERTEX
  8
0
 10
5.7356674455
 20
-2.78169266166
 30
0.0
  0
VERTEX
  8
0
 10
5.68725109337
 20
-2.79417513989
 30
0.0
  0
VERTEX
  8
0
 10
5.63866066436
 20
-2.80596195591
 30
0.0
  0
VERTEX
  8
0
 10
5.5899123879
 20
-2.81707804963
 30
0.0
  0
VERTEX
  8
0
 10
5.54102121638
 20
-2.82754792553
 30
0.0
  0
VERTEX
  8
0
 10
5.49200090619
 20
-2.83739561013
 30
0.0
  0
VERTEX
  8
0
 10
5.44286409672
 20
-2.84664462167
 30
0.0
  0
VERTEX
  8
0
 10
5.39362238659
 20
-2.85531794958
 30
0.0
  0
VERTEX
  8
0
 10
5.3442864065
 20
-2.8634380424
 30
0.0
  0
VERTEX
  8
0
 10
5.29486588862
 20
-2.87102680369
 30
0.0
  0
VERTEX
  8
0
 10
5.24536973191
 20
-2.87810559287
 30
0.0
  0
VERTEX
  8
0
 10
5.19580606387
 20
-2.88469523319
 30
0.0
  0
VERTEX
  8
0
 10
5.14618229822
 20
-2.89081602305
 30
0.0
  0
VERTEX
  8
0
 10
5.0965051887
 20
-2.89648775081
 30
0.0
  0
VERTEX
  8
0
 10
5.04678087945
 20
-2.90172971479
 30
0.0
  0
VERTEX
  8
0
 10
4.99701495143
 20
-2.90656074337
 30
0.0
  0
VERTEX
  8
0
 10
4.94721246575
 20
-2.91099921905
 30
0.0
  0
VERTEX
  8
0
 10
4.89737800367
 20
-2.91506310485
 30
0.0
  0
VERTEX
  8
0
 10
4.84751570348
 20
-2.91876997026
 30
0.0
  0
VERTEX
  8
0
 10
4.79762929472
 20
-2.92213702105
 30
0.0
  0
VERTEX
  8
0
 10
4.74772212965
 20
-2.92518112929
 30
0.0
  0
VERTEX
  8
0
 10
4.69779721225
 20
-2.92791886399
 30
0.0
  0
VERTEX
  8
0
 10
4.64785722513
 20
-2.93036652472
 30
0.0
  0
VERTEX
  8
0
 10
4.59790455417
 20
-2.93254017452
 30
0.0
  0
VERTEX
  8
0
 10
4.54794131138
 20
-2.93445567519
 30
0.0
  0
VERTEX
  8
0
 10
4.49796935611
 20
-2.9361287239
 30
0.0
  0
VERTEX
  8
0
 10
4.44799031453
 20
-2.93757489056
 30
0.0
  0
VERTEX
  8
0
 10
4.39800559795
 20
-2.93880965734
 30
0.0
  0
VERTEX
  8
0
 10
4.38990825688
 20
-2.93899082569
 30
0.0
  0
SEQEND
  8
0
  0
POLYLINE
  8
0
 62
0
 70
0
 66
1
 10
0.0
 20
0.0
 30
0.0
  0
VERTEX
  8
0
 10
7.16743119266
 20
-1.04128440367
 30
0.0
  0
VERTEX
  8
0
 10
7.16697794684
 20
-1.09128166017
 30
0.0
  0
VERTEX
  8
0
 10
7.16560595081
 20
-1.14126211327
 30
0.0
  0
VERTEX
  8
0
 10
7.16329374441
 20
-1.19120786364
 30
0.0
  0
VERTEX
  8
0
 10
7.16001591109
 20
-1.24109950122
 30
0.0
  0
VERTEX
  8
0
 10
7.15574319724
 20
-1.29091574516
 30
0.0
  0
VERTEX
  8
0
 10
7.15044258218
 20
-1.3406330594
 30
0.0
  0
VERTEX
  8
0
 10
7.14407731726
 20
-1.39022523446
 30
0.0
  0
VERTEX
  8
0
 10
7.13660695201
 20
-1.43966292732
 30
0.0
  0
VERTEX
  8
0
 10
7.12798736444
 20
-1.48891315213
 30
0.0
  0
VERTEX
  8
0
 10
7.11817081495
 20
-1.53793871615
 30
0.0
  0
VERTEX
  8
0
 10
7.10710604635
 20
-1.58669759695
 30
0.0
  0
VERTEX
  8
0
 10
7.09473845612
 20
-1.63514226041
 30
0.0
  0
VERTEX
  8
0
 10
7.08101037262
 20
-1.68321892333
 30
0.0
  0
VERTEX
  8
0
 10
7.06586147326
 20
-1.73086677176
 30
0.0
  0
VERTEX
  8
0
 10
7.04922938739
 20
-1.77801715535
 30
0.0
  0
VERTEX
  8
0
 10
7.03105053297
 20
-1.8245927916
 30
0.0
  0
VERTEX
  8
0
 10
7.01126124012
 20
-1.87050703165
 30
0.0
  0
VERTEX
  8
0
 10
6.98979921
 20
-1.9156632596
 30
0.0
  0
VERTEX
  8
0
 10
6.96660535056
 20
-1.95995452243
 30
0.0
  0
VERTEX
  8
0
 10
6.9416260102
 20
-2.00326351302
 30
0.0
  0
VERTEX
  8
0
 10
6.91481559249
 20
-2.04546304877
 30
0.0
  0
VERTEX
  8
0
 10
6.88613948289
 20
-2.08641719726
 30
0.0
  0
VERTEX
  8
0
 10
6.85557714982
 20
-2.12598318981
 30
0.0
  0
VERTEX
  8
0
 10
6.82312520069
 20
-2.16401421773
 30
0.0
  0
VERTEX
  8
0
 10
6.78880009814
 20
-2.20036312366
 30
0.0
  0
VERTEX
  8
0
 10
6.77568807339
 20
-2.21330275229
 30
0.0
  0
SEQEND
  8
0
  0
POLYLINE
  8
0
 62
0
 70
0
 66
1
 10
0.0
 20
0.0
 30
0.0
  0
VERTEX
  8
0
 10
6.77568807339
 20
0.133944954128
 30
0.0
  0
VERTEX
  8
0
 10
6.81069475792
 20
0.0982521430755
 30
0.0
  0
VERTEX
  8
0
 10
6.84383921046
 20
0.0608232713987
 30
0.0
  0
VERTEX
  8
0
 10
6.87509656904
 20
0.0218042075818
 30
0.0
  0
VERTEX
  8
0
 10
6.90446277761
 20
-0.0186577824188
 30
0.0
  0
VERTEX
  8
0
 10
6.93195210692
 20
-0.0604180678839
 30
0.0
  0
VERTEX
  8
0
 10
6.9575941981
 20
-0.10333782019
 30
0.0
  0
VERTEX
  8
0
 10
6.98143094702
 20
-0.147286280722
 30
0.0
  0
VERTEX
  8
0
 10
7.00351348298
 20
-0.192142194606
 30
0.0
  0
VERTEX
  8
0
 10
7.02389941252
 20
-0.237794536484
 30
0.0
  0
VERTEX
  8
0
 10
7.04265042327
 20
-0.284142678896
 30
0.0
  0
VERTEX
  8
0
 10
7.05983028546
 20
-0.331096150693
 30
0.0
  0
VERTEX
  8
0
 10
7.07550324326
 20
-0.378574117511
 30
0.0
  0
VERTEX
  8
0
 10
7.08973276083
 20
-0.426504692071
 30
0.0
  0
VERTEX
  8
0
 10
7.10258057713
 20
-0.474824156245
 30
0.0
  0
VERTEX
  8
0
 10
7.11410601716
 20
-0.523476154622
 30
0.0
  0
VERTEX
  8
0
 10
7.12436550873
 20
-0.572410900271
 30
0.0
  0
VERTEX
  8
0
 10
7.13341225899
 20
-0.621584418263
 30
0.0
  0
VERTEX
  8
0
 10
7.14129605149
 20
-0.67095784136
 30
0.0
  0
VERTEX
  8
0
 10
7.14806312922
 20
-0.720496764657
 30
0.0
  0
VERTEX
  8
0
 10
7.15375613587
 20
-0.770170660193
 30
0.0
  0
VERTEX
  8
0
 10
7.15841409212
 20
-0.819952349079
 30
0.0
  0
VERTEX
  8
0
 10
7.16207238683
 20
-0.869817526312
 30
0.0
  0
VERTEX
  8
0
 10
7.16476276637
 20
-0.919744331942
 30
0.0
  0
VERTEX
  8
0
 10
7.1665133062
 20
-0.96971296124
 30
0.0
  0
VERTEX
  8
0
 10
7.16734834854
 20
-1.01970530568
 30
0.0
  0
VERTEX
  8
0
 10
7.16743119266
 20
-1.04128440367
 30
0.0
  0
SEQEND
  8
0
  0
POLYLINE
  8
0
 62
0
 70
0
 66
1
 10
0.0
 20
0.0
 30
0.0
  0
VERTEX
  8
0
 10
3.83119266055
 20
0.866055045872
 30
0.0
  0
VERTEX
  8
0
 10
3.88119265884
 20
0.866044138892
 30
0.0
  0
VERTEX
  8
0
 10
3.93119263731
 20
0.865999406817
 30
0.0
  0
VERTEX
  8
0
 10
3.98119254196
 20
0.865903307423
 30
0.0
  0
VERTEX
  8
0
 10
4.03119226661
 20
0.865738855234
 30
0.0
  0
VERTEX
  8
0
 10
4.08119163779
 20
0.8654895365
 30
0.0
  0
VERTEX
  8
0
 10
4.13119040074
 20
0.865139230627
 30
0.0
  0
VERTEX
  8
0
 10
4.18118820602
 20
0.864672140553
 30
0.0
  0
VERTEX
  8
0
 10
4.23118459659
 20
0.864072727585
 30
0.0
  0
VERTEX
  8
0
 10
4.28117899496
 20
0.863325652488
 30
0.0
  0
VERTEX
  8
0
 10
4.3311706903
 20
0.862415720639
 30
0.0
  0
VERTEX
  8
0
 10
4.38115882516
 20
0.861327830631
 30
0.0
  0
VERTEX
  8
0
 10
4.43114238178
 20
0.860046927233
 30
0.0
  0
VERTEX
  8
0
 10
4.4811201677
 20
0.858557955476
 30
0.0
  0
VERTEX
  8
0
 10
4.53109080055
 20
0.856845819305
 30
0.0
  0
VERTEX
  8
0
 10
4.58105269183
 20
0.854895339932
 30
0.0
  0
VERTEX
  8
0
 10
4.63100402961
 20
0.852691218452
 30
0.0
  0
VERTEX
  8
0
 10
4.68094275982
 20
0.850217997747
 30
0.0
  0
VERTEX
  8
0
 10
4.73086656619
 20
0.847460027772
 30
0.0
  0
VERTEX
  8
0
 10
4.78077284851
 20
0.844401430605
 30
0.0
  0
VERTEX
  8
0
 10
4.83065869906
 20
0.841026067566
 30
0.0
  0
VERTEX
  8
0
 10
4.88052087718
 20
0.837317507212
 30
0.0
  0
VERTEX
  8
0
 10
4.93035578152
 20
0.833258993857
 30
0.0
  0
VERTEX
  8
0
 10
4.98015942021
 20
0.828833418674
 30
0.0
  0
VERTEX
  8
0
 10
5.02992737815
 20
0.824023289495
 30
0.0
  0
VERTEX
  8
0
 10
5.07965478204
 20
0.818810705434
 30
0.0
  0
VERTEX
  8
0
 10
5.12933626199
 20
0.813177328504
 30
0.0
  0
VERTEX
  8
0
 10
5.17896591056
 20
0.807104362176
 30
0.0
  0
VERTEX
  8
0
 10
5.22853723793
 20
0.80057252632
 30
0.0
  0
VERTEX
  8
0
 10
5.27804312425
 20
0.793562040049
 30
0.0
  0
VERTEX
  8
0
 10
5.32747576768
 20
0.786052602617
 30
0.0
  0
VERTEX
  8
0
 10
5.37682662926
 20
0.778023381026
 30
0.0
  0
VERTEX
  8
0
 10
5.42608637361
 20
0.769453000495
 30
0.0
  0
VERTEX
  8
0
 10
5.47524480562
 20
0.76031953805
 30
0.0
  0
VERTEX
  8
0
 10
5.52429080397
 20
0.750600526674
 30
0.0
  0
VERTEX
  8
0
 10
5.5732122495
 20
0.740272957715
 30
0.0
  0
VERTEX
  8
0
 10
5.62199595223
 20
0.72931330265
 30
0.0
  0
VERTEX
  8
0
 10
5.67062757238
 20
0.717697529734
 30
0.0
  0
VERTEX
  8
0
 10
5.7190915421
 20
0.705401146521
 30
0.0
  0
VERTEX
  8
0
 10
5.76737098196
 20
0.692399239097
 30
0.0
  0
VERTEX
  8
0
 10
5.81544761966
 20
0.678666538112
 30
0.0
  0
VERTEX
  8
0
 10
5.86330170695
 20
0.664177490394
 30
0.0
  0
VERTEX
  8
0
 10
5.91091193968
 20
0.648906352617
 30
0.0
  0
VERTEX
  8
0
 10
5.9582553827
 20
0.63282730475
 30
0.0
  0
VERTEX
  8
0
 10
6.00530739839
 20
0.615914576252
 30
0.0
  0
VERTEX
  8
0
 10
6.05204159029
 20
0.598142609848
 30
0.0
  0
VERTEX
  8
0
 10
6.09842975107
 20
0.579486225737
 30
0.0
  0
VERTEX
  8
0
 10
6.1444418382
 20
0.559920839107
 30
0.0
  0
VERTEX
  8
0
 10
6.19004595782
 20
0.539422669952
 30
0.0
  0
VERTEX
  8
0
 10
6.23520838704
 20
0.517969008695
 30
0.0
  0
VERTEX
  8
0
 10
6.27989361488
 20
0.495538476869
 30
0.0
  0
VERTEX
  8
0
 10
6.32406442729
 20
0.472111328402
 30
0.0
  0
VERTEX
  8
0
 10
6.36768202635
 20
0.447669754553
 30
0.0
  0
VERTEX
  8
0
 10
6.41070619541
 20
0.422198204634
 30
0.0
  0
VERTEX
  8
0
 10
6.45309551243
 20
0.395683711769
 30
0.0
  0
VERTEX
  8
0
 10
6.49480760876
 20
0.36811620863
 30
0.0
  0
VERTEX
  8
0
 10
6.53579948233
 20
0.339488836907
 30
0.0
  0
VERTEX
  8
0
 10
6.57602785327
 20
0.309798223946
 30
0.0
  0
VERTEX
  8
0
 10
6.61544956713
 20
0.279044729268
 30
0.0
  0
VERTEX
  8
0
 10
6.65402203219
 20
0.247232639727
 30
0.0
  0
VERTEX
  8
0
 10
6.69170368535
 20
0.214370307667
 30
0.0
  0
VERTEX
  8
0
 10
6.72845447369
 20
0.18047022134
 30
0.0
  0
VERTEX
  8
0
 10
6.76423633375
 20
0.145548995608
 30
0.0
  0
VERTEX
  8
0
 10
6.77568807339
 20
0.133944954128
 30
0.0
  0
SEQEND
  8
0
  0
POLYLINE
  8
0
 62
0
 70
0
 66
1
 10
0.0
 20
0.0
 30
0.0
  0
VERTEX
  8
0
 10
2.46330275229
 20
0.911009174312
 30
0.0
  0
VERTEX
  8
0
 10
2.51297305705
 20
0.916740270515
 30
0.0
  0
VERTEX
  8
0
 10
2.56269128551
 20
0.922039481822
 30
0.0
  0
VERTEX
  8
0
 10
2.61245472246
 20
0.926895757349
 30
0.0
  0
VERTEX
  8
0
 10
2.66226040868
 20
0.931297554385
 30
0.0
  0
VERTEX
  8
0
 10
2.71210511687
 20
0.935232821486
 30
0.0
  0
VERTEX
  8
0
 10
2.76198532561
 20
0.938688980167
 30
0.0
  0
VERTEX
  8
0
 10
2.81189719115
 20
0.941652906132
 30
0.0
  0
VERTEX
  8
0
 10
2.86183651669
 20
0.944110910452
 30
0.0
  0
VERTEX
  8
0
 10
2.91179871902
 20
0.946048721875
 30
0.0
  0
VERTEX
  8
0
 10
2.96177879246
 20
0.947451467702
 30
0.0
  0
VERTEX
  8
0
 10
3.01177126965
 20
0.948303654686
 30
0.0
  0
VERTEX
  8
0
 10
3.06177017906
 20
0.948589151744
 30
0.0
  0
VERTEX
  8
0
 10
3.11176899901
 20
0.948291176502
 30
0.0
  0
VERTEX
  8
0
 10
3.16176060805
 20
0.947392276557
 30
0.0
  0
VERTEX
  8
0
 10
3.21173723126
 20
0.945874317172
 30
0.0
  0
VERTEX
  8
0
 10
3.26169038265
 20
0.943718473923
 30
0.0
  0
VERTEX
  8
0
 10
3.31161080316
 20
0.940905223233
 30
0.0
  0
VERTEX
  8
0
 10
3.36148839416
 20
0.937414338031
 30
0.0
  0
VERTEX
  8
0
 10
3.41131214679
 20
0.933224891964
 30
0.0
  0
VERTEX
  8
0
 10
3.46107006672
 20
0.92831526729
 30
0.0
  0
VERTEX
  8
0
 10
3.51074909461
 20
0.922663168668
 30
0.0
  0
VERTEX
  8
0
 10
3.5603350225
 20
0.916245646765
 30
0.0
  0
VERTEX
  8
0
 10
3.60981240695
 20
0.909039133721
 30
0.0
  0
VERTEX
  8
0
 10
3.65916447881
 20
0.901019487073
 30
0.0
  0
VERTEX
  8
0
 10
3.70837305081
 20
0.892162047205
 30
0.0
  0
VERTEX
  8
0
 10
3.75741842471
 20
0.882441712685
 30
0.0
  0
VERTEX
  8
0
 10
3.80627929891
 20
0.871833032027
 30
0.0
  0
VERTEX
  8
0
 10
3.83119266055
 20
0.866055045872
 30
0.0
  0
SEQEND
  8
0
  0
POLYLINE
  8
0
 62
0
 70
0
 66
1
 10
0.0
 20
0.0
 30
0.0
  0
VERTEX
  8
0
 10
2.23532110092
 20
0.654128440367
 30
0.0
  0
VERTEX
  8
0
 10
2.23954002362
 20
0.703888062255
 30
0.0
  0
VERTEX
  8
0
 10
2.25265261438
 20
0.752060430336
 30
0.0
  0
VERTEX
  8
0
 10
2.27490855949
 20
0.796738742979
 30
0.0
  0
VERTEX
  8
0
 10
2.3058224429
 20
0.835921799915
 30
0.0
  0
VERTEX
  8
0
 10
2.3441539875
 20
0.867888171714
 30
0.0
  0
VERTEX
  8
0
 10
2.38812635455
 20
0.891517752037
 30
0.0
  0
VERTEX
  8
0
 10
2.43578196855
 20
0.906417420347
 30
0.0
  0
VERTEX
  8
0
 10
2.46330275229
 20
0.911009174312
 30
0.0
  0
SEQEND
  8
0
  0
POLYLINE
  8
0
 62
0
 70
0
 66
1
 10
0.0
 20
0.0
 30
0.0
  0
VERTEX
  8
0
 10
2.3380733945
 20
-0.0169724770642
 30
0.0
  0
VERTEX
  8
0
 10
2.30185080832
 20
0.0174055546295
 30
0.0
  0
VERTEX
  8
0
 10
2.27222447549
 20
0.0575975832501
 30
0.0
  0
VERTEX
  8
0
 10
2.25059933229
 20
0.102593738724
 30
0.0
  0
VERTEX
  8
0
 10
2.23816953778
 20
0.150938375672
 30
0.0
  0
VERTEX
  8
0
 10
2.23532110092
 20
0.188532110092
 30
0.0
  0
SEQEND
  8
0
  0
POLYLINE
  8
0
 62
0
 70
0
 66
1
 10
0.0
 20
0.0
 30
0.0
  0
VERTEX
  8
0
 10
2.5628440367
 20
-0.0651376146789
 30
0.0
  0
VERTEX
  8
0
 10
2.51346067911
 20
-0.0725422482113
 30
0.0
  0
VERTEX
  8
0
 10
2.46356620745
 20
-0.0708112685581
 30
0.0
  0
VERTEX
  8
0
 10
2.41496273422
 20
-0.0594335698873
 30
0.0
  0
VERTEX
  8
0
 10
2.36958288455
 20
-0.0386386588496
 30
0.0
  0
VERTEX
  8
0
 10
2.3380733945
 20
-0.0169724770642
 30
0.0
  0
SEQEND
  8
0
  0
POLYLINE
  8
0
 62
0
 70
0
 66
1
 10
0.0
 20
0.0
 30
0.0
  0
VERTEX
  8
0
 10
3.83119266055
 20
-0.0651376146789
 30
0.0
  0
VERTEX
  8
0
 10
3.78119266055
 20
-0.0651376146789
 30
0.0
  0
VERTEX
  8
0
 10
3.73119266055
 20
-0.0651376146789
 30
0.0
  0
VERTEX
  8
0
 10
3.68119266055
 20
-0.0651376146789
 30
0.0
  0
VERTEX
  8
0
 10
3.63119266055
 20
-0.0651376146789
 30
0.0
  0
VERTEX
  8
0
 10
3.58119266055
 20
-0.0651376146789
 30
0.0
  0
VERTEX
  8
0
 10
3.53119266055
 20
-0.0651376146789
 30
0.0
  0
VERTEX
  8
0
 10
3.48119266055
 20
-0.0651376146789
 30
0.0
  0
VERTEX
  8
0
 10
3.43119266055
 20
-0.0651376146789
 30
0.0
  0
VERTEX
  8
0
 10
3.38119266055
 20
-0.0651376146789
 30
0.0
  0
VERTEX
  8
0
 10
3.33119266055
 20
-0.0651376146789
 30
0.0
  0
VERTEX
  8
0
 10
3.28119266055
 20
-0.0651376146789
 30
0.0
  0
VERTEX
  8
0
 10
3.23119266055
 20
-0.0651376146789
 30
0.0
  0
VERTEX
  8
0
 10
3.18119266055
 20
-0.0651376146789
 30
0.0
  0
VERTEX
  8
0
 10
3.13119266055
 20
-0.0651376146789
 30
0.0
  0
VERTEX
  8
0
 10
3.08119266055
 20
-0.0651376146789
 30
0.0
  0
VERTEX
  8
0
 10
3.03119266055
 20
-0.0651376146789
 30
0.0
  0
VERTEX
  8
0
 10
2.98119266055
 20
-0.0651376146789
 30
0.0
  0
VERTEX
  8
0
 10
2.93119266055
 20
-0.0651376146789
 30
0.0
  0
VERTEX
  8
0
 10
2.88119266055
 20
-0.0651376146789
 30
0.0
  0
VERTEX
  8
0
 10
2.83119266055
 20
-0.0651376146789
 30
0.0
  0
VERTEX
  8
0
 10
2.78119266055
 20
-0.0651376146789
 30
0.0
  0
VERTEX
  8
0
 10
2.73119266055
 20
-0.0651376146789
 30
0.0
  0
VERTEX
  8
0
 10
2.68119266055
 20
-0.0651376146789
 30
0.0
  0
VERTEX
  8
0
 10
2.63119266055
 20
-0.0651376146789
 30
0.0
  0
VERTEX
  8
0
 10
2.58119266055
 20
-0.0651376146789
 30
0.0
  0
VERTEX
  8
0
 10
2.5628440367
 20
-0.0651376146789
 30
0.0
  0
SEQEND
  8
0
  0
POLYLINE
  8
0
 62
0
 70
0
 66
1
 10
0.0
 20
0.0
 30
0.0
  0
VERTEX
  8
0
 10
5.81880733945
 20
-0.546788990826
 30
0.0
  0
VERTEX
  8
0
 10
5.78270767964
 20
-0.51219945391
 30
0.0
  0
VERTEX
  8
0
 10
5.74517793084
 20
-0.479166865602
 30
0.0
  0
VERTEX
  8
0
 10
5.70631083508
 20
-0.44771851492
 30
0.0
  0
VERTEX
  8
0
 10
5.66620364616
 20
-0.417867517522
 30
0.0
  0
VERTEX
  8
0
 10
5.62495566074
 20
-0.389613436079
 30
0.0
  0
VERTEX
  8
0
 10
5.58266596245
 20
-0.362943361971
 30
0.0
  0
VERTEX
  8
0
 10
5.53943148318
 20
-0.337833328393
 30
0.0
  0
VERTEX
  8
0
 10
5.49534543857
 20
-0.314249920383
 30
0.0
  0
VERTEX
  8
0
 10
5.45049615346
 20
-0.292151956577
 30
0.0
  0
VERTEX
  8
0
 10
5.40496625784
 20
-0.27149214129
 30
0.0
  0
VERTEX
  8
0
 10
5.35883221311
 20
-0.252218608361
 30
0.0
  0
VERTEX
  8
0
 10
5.31216411472
 20
-0.23427630684
 30
0.0
  0
VERTEX
  8
0
 10
5.26502571236
 20
-0.217608204975
 30
0.0
  0
VERTEX
  8
0
 10
5.21747459461
 20
-0.202156300336
 30
0.0
  0
VERTEX
  8
0
 10
5.16956248741
 20
-0.187862445659
 30
0.0
  0
VERTEX
  8
0
 10
5.12133562676
 20
-0.174669000452
 30
0.0
  0
VERTEX
  8
0
 10
5.07283517257
 20
-0.162519327989
 30
0.0
  0
VERTEX
  8
0
 10
5.02409763746
 20
-0.151358162973
 30
0.0
  0
VERTEX
  8
0
 10
4.97515531377
 20
-0.141131866235
 30
0.0
  0
VERTEX
  8
0
 10
4.92603668547
 20
-0.131788589005
 30
0.0
  0
VERTEX
  8
0
 10
4.87676681753
 20
-0.123278360573
 30
0.0
  0
VERTEX
  8
0
 10
4.82736771722
 20
-0.115553118098
 30
0.0
  0
VERTEX
  8
0
 10
4.77785866532
 20
-0.108566690833
 30
0.0
  0
VERTEX
  8
0
 10
4.72825651708
 20
-0.102274747716
 30
0.0
  0
VERTEX
  8
0
 10
4.67857597333
 20
-0.0966347171131
 30
0.0
  0
VERTEX
  8
0
 10
4.62882982328
 20
-0.0916056869819
 30
0.0
  0
VERTEX
  8
0
 10
4.57902916096
 20
-0.087148289033
 30
0.0
  0
VERTEX
  8
0
 10
4.52918357755
 20
-0.083224570917
 30
0.0
  0
VERTEX
  8
0
 10
4.47930133194
 20
-0.079797858642
 30
0.0
  0
VERTEX
  8
0
 10
4.42938950138
 20
-0.0768326133073
 30
0.0
  0
VERTEX
  8
0
 10
4.37945411485
 20
-0.0742942806275
 30
0.0
  0
VERTEX
  8
0
 10
4.32950027109
 20
-0.0721491338494
 30
0.0
  0
VERTEX
  8
0
 10
4.27953224303
 20
-0.070364110158
 30
0.0
  0
VERTEX
  8
0
 10
4.22955357065
 20
-0.0689066403395
 30
0.0
  0
VERTEX
  8
0
 10
4.17956714394
 20
-0.0677444689812
 30
0.0
  0
VERTEX
  8
0
 10
4.12957527763
 20
-0.0668454628006
 30
0.0
  0
VERTEX
  8
0
 10
4.0795797793
 20
-0.0661774051168
 30
0.0
  0
VERTEX
  8
0
 10
4.02958201252
 20
-0.0657077724051
 30
0.0
  0
VERTEX
  8
0
 10
3.97958295683
 20
-0.0654034880427
 30
0.0
  0
VERTEX
  8
0
 10
3.92958326645
 20
-0.0652306473177
 30
0.0
  0
VERTEX
  8
0
 10
3.87958333003
 20
-0.065154206347
 30
0.0
  0
VERTEX
  8
0
 10
3.83119266055
 20
-0.0651376146789
 30
0.0
  0
SEQEND
  8
0
  0
POLYLINE
  8
0
 62
0
 70
0
 66
1
 10
0.0
 20
0.0
 30
0.0
  0
VERTEX
  8
0
 10
6.00825688073
 20
-1.04128440367
 30
0.0
  0
VERTEX
  8
0
 10
6.00665164022
 20
-0.991318660189
 30
0.0
  0
VERTEX
  8
0
 10
6.00191065278
 20
-0.941552019159
 30
0.0
  0
VERTEX
  8
0
 10
5.99409682514
 20
-0.8921744528
 30
0.0
  0
VERTEX
  8
0
 10
5.98321618984
 20
-0.843381195282
 30
0.0
  0
VERTEX
  8
0
 10
5.9692266305
 20
-0.795387459772
 30
0.0
  0
VERTEX
  8
0
 10
5.95204561436
 20
-0.748442617523
 30
0.0
  0
VERTEX
  8
0
 10
5.93155900502
 20
-0.702844800896
 30
0.0
  0
VERTEX
  8
0
 10
5.90763349473
 20
-0.658955858748
 30
0.0
  0
VERTEX
  8
0
 10
5.88013578228
 20
-0.617215018601
 30
0.0
  0
VERTEX
  8
0
 10
5.84896179039
 20
-0.578147088899
 30
0.0
  0
VERTEX
  8
0
 10
5.81880733945
 20
-0.546788990826
 30
0.0
  0
SEQEND
  8
0
  0
POLYLINE
  8
0
 62
0
 70
0
 66
1
 10
0.0
 20
0.0
 30
0.0
  0
VERTEX
  8
0
 10
5.81880733945
 20
-1.53577981651
 30
0.0
  0
VERTEX
  8
0
 10
5.85282803497
 20
-1.49916544067
 30
0.0
  0
VERTEX
  8
0
 10
5.88327206856
 20
-1.45952366899
 30
0.0
  0
VERTEX
  8
0
 10
5.91017689293
 20
-1.41739657115
 30
0.0
  0
VERTEX
  8
0
 10
5.93363335399
 20
-1.37325404191
 30
0.0
  0
VERTEX
  8
0
 10
5.95375213037
 20
-1.32749201162
 30
0.0
  0
VERTEX
  8
0
 10
5.97063946977
 20
-1.28044029484
 30
0.0
  0
VERTEX
  8
0
 10
5.98438047809
 20
-1.23237460192
 30
0.0
  0
VERTEX
  8
0
 10
5.9950272674
 20
-1.18352977336
 30
0.0
  0
VERTEX
  8
0
 10
6.00258934856
 20
-1.13411320077
 30
0.0
  0
VERTEX
  8
0
 10
6.00702396101
 20
-1.0843187108
 30
0.0
  0
VERTEX
  8
0
 10
6.00825688073
 20
-1.04128440367
 30
0.0
  0
SEQEND
  8
0
  0
POLYLINE
  8
0
 62
0
 70
0
 66
1
 10
0.0
 20
0.0
 30
0.0
  0
VERTEX
  8
0
 10
4.37064220183
 20
-2.00779816514
 30
0.0
  0
VERTEX
  8
0
 10
4.42057654602
 20
-2.00523921508
 30
0.0
  0
VERTEX
  8
0
 10
4.47048803573
 20
-2.00226805822
 30
0.0
  0
VERTEX
  8
0
 10
4.52037088339
 20
-1.99884995429
 30
0.0
  0
VERTEX
  8
0
 10
4.57021828134
 20
-1.99494920003
 30
0.0
  0
VERTEX
  8
0
 10
4.62002227046
 20
-1.99052898143
 30
0.0
  0
VERTEX
  8
0
 10
4.66977359195
 20
-1.98555123226
 30
0.0
  0
VERTEX
  8
0
 10
4.71946152017
 20
-1.97997649962
 30
0.0
  0
VERTEX
  8
0
 10
4.76907367432
 20
-1.97376381847
 30
0.0
  0
VERTEX
  8
0
 10
4.81859580672
 20
-1.96687059773
 30
0.0
  0
VERTEX
  8
0
 10
4.86801156568
 20
-1.95925252169
 30
0.0
  0
VERTEX
  8
0
 10
4.91730223108
 20
-1.95086347178
 30
0.0
  0
VERTEX
  8
0
 10
4.96644642113
 20
-1.94165547511
 30
0.0
  0
VERTEX
  8
0
 10
5.01541976989
 20
-1.93157868814
 30
0.0
  0
VERTEX
  8
0
 10
5.06419457581
 20
-1.92058142547
 30
0.0
  0
VERTEX
  8
0
 10
5.11273942368
 20
-1.90861024627
 30
0.0
  0
VERTEX
  8
0
 10
5.16101878451
 20
-1.8956101129
 30
0.0
  0
VERTEX
  8
0
 10
5.20899260125
 20
-1.88152463853
 30
0.0
  0
VERTEX
  8
0
 10
5.25661587235
 20
-1.86629644266
 30
0.0
  0
VERTEX
  8
0
 10
5.30383825064
 20
-1.84986763457
 30
0.0
  0
VERTEX
  8
0
 10
5.35060368135
 20
-1.83218044471
 30
0.0
  0
VERTEX
  8
0
 10
5.39685011049
 20
-1.81317802244
 30
0.0
  0
VERTEX
  8
0
 10
5.44250930256
 20
-1.79280541339
 30
0.0
  0
VERTEX
  8
0
 10
5.48750681427
 20
-1.77101072211
 30
0.0
  0
VERTEX
  8
0
 10
5.53176217642
 20
-1.74774645223
 30
0.0
  0
VERTEX
  8
0
 10
5.57518933852
 20
-1.72297099913
 30
0.0
  0
VERTEX
  8
0
 10
5.61769742749
 20
-1.69665024825
 30
0.0
  0
VERTEX
  8
0
 10
5.65919186008
 20
-1.66875920693
 30
0.0
  0
VERTEX
  8
0
 10
5.6995758278
 20
-1.63928357276
 30
0.0
  0
VERTEX
  8
0
 10
5.73875214182
 20
-1.60822112082
 30
0.0
  0
VERTEX
  8
0
 10
5.77662538568
 20
-1.57558278145
 30
0.0
  0
VERTEX
  8
0
 10
5.81310427992
 20
-1.54139328422
 30
0.0
  0
VERTEX
  8
0
 10
5.81880733945
 20
-1.53577981651
 30
0.0
  0
SEQEND
  8
0
  0
LINE
  8
0
 62
0
 10
-29.6544278863
 20
23.9975736368
 30
0.0
 11
-12.3743686708
 21
6.71751442127
 31
0.0
  0
ARC
  8
0
 62
0
 10
-14.4956890143
 20
4.59619407771
 30
0.0
 40
3.0
 50
-45.0
 51
45.0
  0
ARC
  8
0
 62
0
 10
-40.2610296041
 20
13.390971919
 30
0.0
 40
15.0
 50
45.0
 51
72.905472791
  0
LINE
  8
0
 62
0
 10
-12.3743686708
 20
2.47487373416
 30
0.0
 11
-13.081475452
 21
1.76776695297
 31
0.0
  0
ARC
  8
0
 62
0
 10
-33.9411254969
 20
33.941125497
 30
0.0
 40
6.5
 50
17.0945272089
 51
-107.094527209
  0
ARC
  8
0
 62
0
 10
-11.313708499
 20
-2.10942374679e-15
 30
0.0
 40
2.5
 50
135.0
 51
-135.0
  0
ARC
  8
0
 62
0
 10
-13.390971919
 20
40.2610296041
 30
0.0
 40
15.0
 50
-162.905472791
 51
-135.0
  0
LINE
  8
0
 62
0
 10
-13.081475452
 20
-1.76776695297
 30
0.0
 11
-12.3743686708
 21
-2.47487373416
 31
0.0
  0
LINE
  8
0
 62
0
 10
-6.71751442127
 20
12.3743686708
 30
0.0
 11
-23.9975736368
 21
29.6544278863
 31
0.0
  0
ARC
  8
0
 62
0
 10
-14.4956890143
 20
-4.59619407771
 30
0.0
 40
3.0
 50
-45.0
 51
45.0
  0
ARC
  8
0
 62
0
 10
-4.59619407771
 20
14.4956890143
 30
0.0
 40
3.0
 50
-135.0
 51
-45.0
  0
LINE
  8
0
 62
0
 10
-29.6544278863
 20
-23.9975736368
 30
0.0
 11
-12.3743686708
 21
-6.71751442127
 31
0.0
  0
LINE
  8
0
 62
0
 10
-1.76776695297
 20
13.081475452
 30
0.0
 11
-2.47487373415
 21
12.3743686708
 31
0.0
  0
ARC
  8
0
 62
0
 10
-40.2610296041
 20
-13.390971919
 30
0.0
 40
15.0
 50
-72.905472791
 51
-45.0
  0
ARC
  8
0
 62
0
 10
-2.49800180541e-15
 20
11.313708499
 30
0.0
 40
2.5
 50
45.0
 51
135.0
  0
ARC
  8
0
 62
0
 10
-33.9411254969
 20
-33.941125497
 30
0.0
 40
6.5
 50
107.094527209
 51
-17.0945272089
  0
LINE
  8
0
 62
0
 10
2.47487373415
 20
12.3743686708
 30
0.0
 11
1.76776695297
 21
13.081475452
 31
0.0
  0
ARC
  8
0
 62
0
 10
-13.390971919
 20
-40.2610296041
 30
0.0
 40
15.0
 50
135.0
 51
162.905472791
  0
ARC
  8
0
 62
0
 10
4.59619407771
 20
14.4956890143
 30
0.0
 40
3.0
 50
-135.0
 51
-45.0
  0
LINE
  8
0
 62
0
 10
-6.71751442127
 20
-12.3743686708
 30
0.0
 11
-23.9975736368
 21
-29.6544278863
 31
0.0
  0
LINE
  8
0
 62
0
 10
6.71751442127
 20
12.3743686708
 30
0.0
 11
23.9975736368
 21
29.6544278863
 31
0.0
  0
ARC
  8
0
 62
0
 10
-4.59619407771
 20
-14.4956890143
 30
0.0
 40
3.0
 50
45.0
 51
135.0
  0
ARC
  8
0
 62
0
 10
13.390971919
 20
40.2610296041
 30
0.0
 40
15.0
 50
-45.0
 51
-17.0945272089
  0
LINE
  8
0
 62
0
 10
-2.47487373415
 20
-12.3743686708
 30
0.0
 11
-1.76776695297
 21
-13.081475452
 31
0.0
  0
ARC
  8
0
 62
0
 10
33.9411254969
 20
33.941125497
 30
0.0
 40
6.5
 50
-72.905472791
 51
162.905472791
  0
ARC
  8
0
 62
0
 10
1.7763568394e-15
 20
-11.313708499
 30
0.0
 40
2.5
 50
-135.0
 51
-45.0
  0
ARC
  8
0
 62
0
 10
40.2610296041
 20
13.390971919
 30
0.0
 40
15.0
 50
107.094527209
 51
135.0
  0
LINE
  8
0
 62
0
 10
1.76776695297
 20
-13.081475452
 30
0.0
 11
2.47487373415
 21
-12.3743686708
 31
0.0
  0
LINE
  8
0
 62
0
 10
29.6544278863
 20
23.9975736368
 30
0.0
 11
12.3743686708
 21
6.71751442127
 31
0.0
  0
ARC
  8
0
 62
0
 10
4.59619407771
 20
-14.4956890143
 30
0.0
 40
3.0
 50
45.0
 51
135.0
  0
ARC
  8
0
 62
0
 10
14.4956890143
 20
4.59619407771
 30
0.0
 40
3.0
 50
135.0
 51
-135.0
  0
LINE
  8
0
 62
0
 10
6.71751442127
 20
-12.3743686708
 30
0.0
 11
23.9975736368
 21
-29.6544278863
 31
0.0
  0
LINE
  8
0
 62
0
 10
13.081475452
 20
1.76776695297
 30
0.0
 11
12.3743686708
 21
2.47487373416
 31
0.0
  0
ARC
  8
0
 62
0
 10
13.390971919
 20
-40.2610296041
 30
0.0
 40
15.0
 50
17.0945272089
 51
45.0
  0
ARC
  8
0
 62
0
 10
11.313708499
 20
2.6645352591e-15
 30
0.0
 40
2.5
 50
-45.0
 51
45.0
  0
ARC
  8
0
 62
0
 10
33.9411254969
 20
-33.941125497
 30
0.0
 40
6.5
 50
-162.905472791
 51
72.905472791
  0
LINE
  8
0
 62
0
 10
12.3743686708
 20
-2.47487373416
 30
0.0
 11
13.081475452
 21
-1.76776695297
 31
0.0
  0
ARC
  8
0
 62
0
 10
40.2610296041
 20
-13.390971919
 30
0.0
 40
15.0
 50
-135.0
 51
-107.094527209
  0
ARC
  8
0
 62
0
 10
14.4956890143
 20
-4.59619407771
 30
0.0
 40
3.0
 50
135.0
 51
-135.0
  0
LINE
  8
0
 62
0
 10
29.6544278863
 20
-23.9975736368
 30
0.0
 11
12.3743686708
 21
-6.71751442127
 31
0.0
  0
CIRCLE
  8
0
 62
0
 10
33.9411254969
 20
29.691125497
 30
0.0
 40
0.8
  0
CIRCLE
  8
0
 62
0
 10
29.6911254969
 20
-33.941125497
 30
0.0
 40
0.8
  0
CIRCLE
  8
0
 62
0
 10
33.9411254969
 20
-33.941125497
 30
0.0
 40
1.5
  0
CIRCLE
  8
0
 62
0
 10
33.9411254969
 20
-29.691125497
 30
0.0
 40
0.8
  0
LINE
  8
0
 62
0
 10
4.12339449541
 20
2.14082568807
 30
0.0
 11
4.12339449541
 21
2.55183486239
 31
0.0
  0
LINE
  8
0
 62
0
 10
6.87844036697
 20
1.12293577982
 30
0.0
 11
6.22660550459
 21
1.12293577982
 31
0.0
  0
CIRCLE
  8
0
 62
0
 10
11.313708499
 20
0.0
 30
0.0
 40
1.0
  0
LINE
  8
0
 62
0
 10
-4.06146788991
 20
-2.26788990826
 30
0.0
 11
-4.06146788991
 21
-2.67889908257
 31
0.0
  0
LINE
  8
0
 62
0
 10
-6.81972477064
 20
-1.27247706422
 30
0.0
 11
-6.16788990826
 21
-1.27247706422
 31
0.0
  0
LINE
  8
0
 62
0
 10
-2.17660550459
 20
-0.315596330275
 30
0.0
 11
-2.17660550459
 21
-0.78119266055
 31
0.0
  0
LINE
  8
0
 62
0
 10
-4.06146788991
 20
2.55183486239
 30
0.0
 11
-4.06146788991
 21
2.14082568807
 31
0.0
  0
LINE
  8
0
 62
0
 10
-7.10871559633
 20
0.891743119266
 30
0.0
 11
-7.10871559633
 21
0.914220183486
 31
0.0
  0
LINE
  8
0
 62
0
 10
-3.48027522936
 20
-2.67889908257
 30
0.0
 11
-3.48027522936
 21
-2.26788990826
 31
0.0
  0
LINE
  8
0
 62
0
 10
-0.43623853211
 20
0.891743119266
 30
0.0
 11
-0.43623853211
 21
-1.27247706422
 31
0.0
  0
LINE
  8
0
 62
0
 10
-3.48027522936
 20
2.14082568807
 30
0.0
 11
-3.48027522936
 21
2.55183486239
 31
0.0
  0
LINE
  8
0
 62
0
 10
-1.59541284404
 20
-1.27247706422
 30
0.0
 11
-1.59541284404
 21
0.891743119266
 31
0.0
  0
LINE
  8
0
 62
0
 10
3.54220183486
 20
-2.26788990826
 30
0.0
 11
3.54220183486
 21
-2.67889908257
 31
0.0
  0
LINE
  8
0
 62
0
 10
1.65733944954
 20
1.12293577982
 30
0.0
 11
1.65733944954
 21
-1.04128440367
 31
0.0
  0
LINE
  8
0
 62
0
 10
3.54220183486
 20
2.55183486239
 30
0.0
 11
3.54220183486
 21
2.14082568807
 31
0.0
  0
LINE
  8
0
 62
0
 10
0.49495412844
 20
-1.04128440367
 30
0.0
 11
0.49495412844
 21
1.12293577982
 31
0.0
  0
LINE
  8
0
 62
0
 10
4.12339449541
 20
-2.67889908257
 30
0.0
 11
4.12339449541
 21
-2.26788990826
 31
0.0
  0
LINE
  8
0
 62
0
 10
2.23532110092
 20
0.188532110092
 30
0.0
 11
2.23532110092
 21
0.654128440367
 31
0.0
  0
CIRCLE
  8
0
 62
0
 10
0.0
 20
11.313708499
 30
0.0
 40
1.0
  0
CIRCLE
  8
0
 62
0
 10
0.0
 20
-11.313708499
 30
0.0
 40
1.0
  0
CIRCLE
  8
0
 62
0
 10
-33.9411254969
 20
-33.941125497
 30
0.0
 40
1.5
  0
CIRCLE
  8
0
 62
0
 10
-33.9411254969
 20
-29.691125497
 30
0.0
 40
0.8
  0
CIRCLE
  8
0
 62
0
 10
-29.6911254969
 20
-33.941125497
 30
0.0
 40
0.8
  0
CIRCLE
  8
0
 62
0
 10
-11.313708
 20
0.0
 30
0.0
 40
1.0
  0
CIRCLE
  8
0
 62
0
 10
-33.9411254969
 20
33.941125497
 30
0.0
 40
1.5
  0
CIRCLE
  8
0
 62
0
 10
-29.6911254969
 20
33.941125497
 30
0.0
 40
0.8
  0
CIRCLE
  8
0
 62
0
 10
33.9411254969
 20
33.941125497
 30
0.0
 40
1.5
  0
CIRCLE
  8
0
 62
0
 10
29.6911254969
 20
33.941125497
 30
0.0
 40
0.8
  0
CIRCLE
  8
0
 62
0
 10
-33.9411254969
 20
29.691125497
 30
0.0
 40
0.8
  0
CIRCLE
  8
0
 62
0
 10
-38.1911254969
 20
33.941125497
 30
0.0
 40
0.8
  0
CIRCLE
  8
0
 62
0
 10
-38.1911254969
 20
-33.941125497
 30
0.0
 40
0.8
  0
CIRCLE
  8
0
 62
0
 10
33.9411254969
 20
38.191125497
 30
0.0
 40
0.8
  0
CIRCLE
  8
0
 62
0
 10
-33.9411254969
 20
38.191125497
 30
0.0
 40
0.8
  0
CIRCLE
  8
0
 62
0
 10
38.1911254969
 20
-33.941125497
 30
0.0
 40
0.8
  0
CIRCLE
  8
0
 62
0
 10
38.1911254969
 20
33.941125497
 30
0.0
 40
0.8
  0
CIRCLE
  8
0
 62
0
 10
33.9411254969
 20
-38.191125497
 30
0.0
 40
0.8
  0
CIRCLE
  8
0
 62
0
 10
-33.9411254969
 20
-38.191125497
 30
0.0
 40
0.8
  0
ENDBLK
  0
ENDSEC
  0
SECTION
  2
ENTITIES
  0
INSERT
  2
CUT001
  8
0
 62
0
 10
0.0
 20
0.0
 30
0.0
  0
ENDSEC
  0
EOF
